<?xml version="1.0" standalone="no"?>
<!DOCTYPE svg PUBLIC "-//W3C//DTD SVG 1.1//EN"
"http://www.w3.org/Graphics/SVG/1.1/DTD/svg11.dtd">
<svg width="100%" height="100%" version="1.1"
xmlns="http://www.w3.org/2000/svg"
xmlns:xlink="http://www.w3.org/1999/xlink">
<polygon points="48.1264,714.457 113.566,592.646 57.5402,716.937" style="fill-opacity:0.3;fill:rgb(102,102,201);stroke:rgb(51,51,152);"/>
<polygon points="93.9076,566.819 113.566,592.646 48.1264,714.457" style="fill-opacity:0.3;fill:rgb(102,102,201);stroke:rgb(51,51,152);"/>
<polygon points="110.595,567.706 113.566,592.646 93.9076,566.819" style="fill-opacity:0.3;fill:rgb(102,102,201);stroke:rgb(51,51,152);"/>
<polygon points="204.505,526.165 113.566,592.646 110.595,567.706" style="fill-opacity:0.3;fill:rgb(102,102,201);stroke:rgb(51,51,152);"/>
<polygon points="182.824,663.65 57.5402,716.937 113.566,592.646" style="fill-opacity:0.3;fill:rgb(102,102,201);stroke:rgb(51,51,152);"/>
<polygon points="73.1789,534.839 93.9076,566.819 48.1264,714.457" style="fill-opacity:0.3;fill:rgb(102,102,201);stroke:rgb(51,51,152);"/>
<polygon points="73.1789,534.839 119.885,522.067 93.9076,566.819" style="fill-opacity:0.3;fill:rgb(102,102,201);stroke:rgb(51,51,152);"/>
<polygon points="119.885,522.067 110.595,567.706 93.9076,566.819" style="fill-opacity:0.3;fill:rgb(102,102,201);stroke:rgb(51,51,152);"/>
<polygon points="119.885,522.067 204.505,526.165 110.595,567.706" style="fill-opacity:0.3;fill:rgb(102,102,201);stroke:rgb(51,51,152);"/>
<polygon points="204.505,526.165 182.824,663.65 113.566,592.646" style="fill-opacity:0.3;fill:rgb(102,102,201);stroke:rgb(51,51,152);"/>
<polygon points="236.329,685.826 57.5402,716.937 182.824,663.65" style="fill-opacity:0.3;fill:rgb(102,102,201);stroke:rgb(51,51,152);"/>
<polygon points="204.505,526.165 263.044,603.217 182.824,663.65" style="fill-opacity:0.3;fill:rgb(102,102,201);stroke:rgb(51,51,152);"/>
<polygon points="263.044,603.217 236.329,685.826 182.824,663.65" style="fill-opacity:0.3;fill:rgb(102,102,201);stroke:rgb(51,51,152);"/>
<polygon points="276.582,666.901 236.329,685.826 263.044,603.217" style="fill-opacity:0.3;fill:rgb(102,102,201);stroke:rgb(51,51,152);"/>
<polygon points="298.291,522.297 263.044,603.217 204.505,526.165" style="fill-opacity:0.3;fill:rgb(102,102,201);stroke:rgb(51,51,152);"/>
<polygon points="327.821,622.721 276.582,666.901 263.044,603.217" style="fill-opacity:0.3;fill:rgb(102,102,201);stroke:rgb(51,51,152);"/>
<polygon points="146.34,376.969 204.505,526.165 119.885,522.067" style="fill-opacity:0.3;fill:rgb(102,102,201);stroke:rgb(51,51,152);"/>
<polygon points="298.291,522.297 327.821,622.721 263.044,603.217" style="fill-opacity:0.3;fill:rgb(102,102,201);stroke:rgb(51,51,152);"/>
<polygon points="370.393,511.692 327.821,622.721 298.291,522.297" style="fill-opacity:0.3;fill:rgb(102,102,201);stroke:rgb(51,51,152);"/>
<polygon points="330.228,625.293 276.582,666.901 327.821,622.721" style="fill-opacity:0.3;fill:rgb(102,102,201);stroke:rgb(51,51,152);"/>
<polygon points="128.396,383.099 119.885,522.067 73.1789,534.839" style="fill-opacity:0.3;fill:rgb(102,102,201);stroke:rgb(51,51,152);"/>
<polygon points="128.396,383.099 146.34,376.969 119.885,522.067" style="fill-opacity:0.3;fill:rgb(102,102,201);stroke:rgb(51,51,152);"/>
<polygon points="146.34,376.969 266.563,409.79 204.505,526.165" style="fill-opacity:0.3;fill:rgb(102,102,201);stroke:rgb(51,51,152);"/>
<polygon points="0.63288,276.228 73.1789,534.839 48.1264,714.457" style="fill-opacity:0.3;fill:rgb(102,102,201);stroke:rgb(51,51,152);"/>
<polygon points="65.3277,364.337 128.396,383.099 73.1789,534.839" style="fill-opacity:0.3;fill:rgb(102,102,201);stroke:rgb(51,51,152);"/>
<polygon points="65.3277,364.337 155.395,328.304 128.396,383.099" style="fill-opacity:0.3;fill:rgb(102,102,201);stroke:rgb(51,51,152);"/>
<polygon points="46.9396,342.009 65.3277,364.337 73.1789,534.839" style="fill-opacity:0.3;fill:rgb(102,102,201);stroke:rgb(51,51,152);"/>
<polygon points="46.9396,342.009 108.284,283.939 65.3277,364.337" style="fill-opacity:0.3;fill:rgb(102,102,201);stroke:rgb(51,51,152);"/>
<polygon points="370.393,511.692 378.809,635.445 327.821,622.721" style="fill-opacity:0.3;fill:rgb(102,102,201);stroke:rgb(51,51,152);"/>
<polygon points="378.809,635.445 381.384,695.108 330.228,625.293" style="fill-opacity:0.3;fill:rgb(102,102,201);stroke:rgb(51,51,152);"/>
<polygon points="330.228,625.293 381.384,695.108 276.582,666.901" style="fill-opacity:0.3;fill:rgb(102,102,201);stroke:rgb(51,51,152);"/>
<polygon points="155.395,328.304 146.34,376.969 128.396,383.099" style="fill-opacity:0.3;fill:rgb(102,102,201);stroke:rgb(51,51,152);"/>
<polygon points="266.563,409.79 298.291,522.297 204.505,526.165" style="fill-opacity:0.3;fill:rgb(102,102,201);stroke:rgb(51,51,152);"/>
<polygon points="266.563,409.79 343.967,405.784 298.291,522.297" style="fill-opacity:0.3;fill:rgb(102,102,201);stroke:rgb(51,51,152);"/>
<polygon points="381.384,695.108 373.304,715.434 276.582,666.901" style="fill-opacity:0.3;fill:rgb(102,102,201);stroke:rgb(51,51,152);"/>
<polygon points="373.304,715.434 57.5402,716.937 236.329,685.826" style="fill-opacity:0.3;fill:rgb(102,102,201);stroke:rgb(51,51,152);"/>
<polygon points="276.582,666.901 373.304,715.434 236.329,685.826" style="fill-opacity:0.3;fill:rgb(102,102,201);stroke:rgb(51,51,152);"/>
<polygon points="229.704,356.744 266.563,409.79 146.34,376.969" style="fill-opacity:0.3;fill:rgb(102,102,201);stroke:rgb(51,51,152);"/>
<polygon points="279.238,398.257 343.967,405.784 266.563,409.79" style="fill-opacity:0.3;fill:rgb(102,102,201);stroke:rgb(51,51,152);"/>
<polygon points="327.821,622.721 378.809,635.445 330.228,625.293" style="fill-opacity:0.3;fill:rgb(102,102,201);stroke:rgb(51,51,152);"/>
<polygon points="155.395,328.304 229.704,356.744 146.34,376.969" style="fill-opacity:0.3;fill:rgb(102,102,201);stroke:rgb(51,51,152);"/>
<polygon points="229.704,356.744 279.238,398.257 266.563,409.79" style="fill-opacity:0.3;fill:rgb(102,102,201);stroke:rgb(51,51,152);"/>
<polygon points="23.7987,308.409 46.9396,342.009 73.1789,534.839" style="fill-opacity:0.3;fill:rgb(102,102,201);stroke:rgb(51,51,152);"/>
<polygon points="23.7987,308.409 108.284,283.939 46.9396,342.009" style="fill-opacity:0.3;fill:rgb(102,102,201);stroke:rgb(51,51,152);"/>
<polygon points="227.525,319.078 279.238,398.257 229.704,356.744" style="fill-opacity:0.3;fill:rgb(102,102,201);stroke:rgb(51,51,152);"/>
<polygon points="376.422,472.451 370.393,511.692 298.291,522.297" style="fill-opacity:0.3;fill:rgb(102,102,201);stroke:rgb(51,51,152);"/>
<polygon points="376.422,472.451 469.482,491.372 370.393,511.692" style="fill-opacity:0.3;fill:rgb(102,102,201);stroke:rgb(51,51,152);"/>
<polygon points="370.393,511.692 453.074,576.175 378.809,635.445" style="fill-opacity:0.3;fill:rgb(102,102,201);stroke:rgb(51,51,152);"/>
<polygon points="108.284,283.939 155.395,328.304 65.3277,364.337" style="fill-opacity:0.3;fill:rgb(102,102,201);stroke:rgb(51,51,152);"/>
<polygon points="227.525,319.078 229.704,356.744 155.395,328.304" style="fill-opacity:0.3;fill:rgb(102,102,201);stroke:rgb(51,51,152);"/>
<polygon points="227.525,319.078 343.967,405.784 279.238,398.257" style="fill-opacity:0.3;fill:rgb(102,102,201);stroke:rgb(51,51,152);"/>
<polygon points="343.967,405.784 376.422,472.451 298.291,522.297" style="fill-opacity:0.3;fill:rgb(102,102,201);stroke:rgb(51,51,152);"/>
<polygon points="108.284,283.939 153.754,266.708 155.395,328.304" style="fill-opacity:0.3;fill:rgb(102,102,201);stroke:rgb(51,51,152);"/>
<polygon points="0.63288,276.228 23.7987,308.409 73.1789,534.839" style="fill-opacity:0.3;fill:rgb(102,102,201);stroke:rgb(51,51,152);"/>
<polygon points="0.63288,276.228 108.284,283.939 23.7987,308.409" style="fill-opacity:0.3;fill:rgb(102,102,201);stroke:rgb(51,51,152);"/>
<polygon points="370.555,398.863 376.422,472.451 343.967,405.784" style="fill-opacity:0.3;fill:rgb(102,102,201);stroke:rgb(51,51,152);"/>
<polygon points="453.074,576.175 495.688,629.737 378.809,635.445" style="fill-opacity:0.3;fill:rgb(102,102,201);stroke:rgb(51,51,152);"/>
<polygon points="378.809,635.445 495.688,629.737 462.945,709.236" style="fill-opacity:0.3;fill:rgb(102,102,201);stroke:rgb(51,51,152);"/>
<polygon points="279.162,229.431 343.967,405.784 227.525,319.078" style="fill-opacity:0.3;fill:rgb(102,102,201);stroke:rgb(51,51,152);"/>
<polygon points="370.555,398.863 406.727,425.688 376.422,472.451" style="fill-opacity:0.3;fill:rgb(102,102,201);stroke:rgb(51,51,152);"/>
<polygon points="13.7465,211.294 108.284,283.939 0.63288,276.228" style="fill-opacity:0.3;fill:rgb(102,102,201);stroke:rgb(51,51,152);"/>
<polygon points="153.754,266.708 229.52,289.284 155.395,328.304" style="fill-opacity:0.3;fill:rgb(102,102,201);stroke:rgb(51,51,152);"/>
<polygon points="155.395,328.304 229.52,289.284 227.525,319.078" style="fill-opacity:0.3;fill:rgb(102,102,201);stroke:rgb(51,51,152);"/>
<polygon points="229.52,289.284 279.162,229.431 227.525,319.078" style="fill-opacity:0.3;fill:rgb(102,102,201);stroke:rgb(51,51,152);"/>
<polygon points="462.945,709.236 373.304,715.434 381.384,695.108" style="fill-opacity:0.3;fill:rgb(102,102,201);stroke:rgb(51,51,152);"/>
<polygon points="279.162,229.431 423.446,339.445 343.967,405.784" style="fill-opacity:0.3;fill:rgb(102,102,201);stroke:rgb(51,51,152);"/>
<polygon points="406.727,425.688 469.482,491.372 376.422,472.451" style="fill-opacity:0.3;fill:rgb(102,102,201);stroke:rgb(51,51,152);"/>
<polygon points="469.482,491.372 453.074,576.175 370.393,511.692" style="fill-opacity:0.3;fill:rgb(102,102,201);stroke:rgb(51,51,152);"/>
<polygon points="378.809,635.445 462.945,709.236 381.384,695.108" style="fill-opacity:0.3;fill:rgb(102,102,201);stroke:rgb(51,51,152);"/>
<polygon points="488.783,562.349 495.688,629.737 453.074,576.175" style="fill-opacity:0.3;fill:rgb(102,102,201);stroke:rgb(51,51,152);"/>
<polygon points="469.482,491.372 488.783,562.349 453.074,576.175" style="fill-opacity:0.3;fill:rgb(102,102,201);stroke:rgb(51,51,152);"/>
<polygon points="13.7465,211.294 172.736,208.93 108.284,283.939" style="fill-opacity:0.3;fill:rgb(102,102,201);stroke:rgb(51,51,152);"/>
<polygon points="108.284,283.939 172.736,208.93 153.754,266.708" style="fill-opacity:0.3;fill:rgb(102,102,201);stroke:rgb(51,51,152);"/>
<polygon points="608.814,613.776 495.688,629.737 488.783,562.349" style="fill-opacity:0.3;fill:rgb(102,102,201);stroke:rgb(51,51,152);"/>
<polygon points="509.004,704.1 462.945,709.236 495.688,629.737" style="fill-opacity:0.3;fill:rgb(102,102,201);stroke:rgb(51,51,152);"/>
<polygon points="172.736,208.93 229.52,289.284 153.754,266.708" style="fill-opacity:0.3;fill:rgb(102,102,201);stroke:rgb(51,51,152);"/>
<polygon points="172.736,208.93 279.162,229.431 229.52,289.284" style="fill-opacity:0.3;fill:rgb(102,102,201);stroke:rgb(51,51,152);"/>
<polygon points="343.967,405.784 423.446,339.445 370.555,398.863" style="fill-opacity:0.3;fill:rgb(102,102,201);stroke:rgb(51,51,152);"/>
<polygon points="370.555,398.863 423.446,339.445 406.727,425.688" style="fill-opacity:0.3;fill:rgb(102,102,201);stroke:rgb(51,51,152);"/>
<polygon points="423.446,339.445 476.176,388.487 406.727,425.688" style="fill-opacity:0.3;fill:rgb(102,102,201);stroke:rgb(51,51,152);"/>
<polygon points="476.176,388.487 469.482,491.372 406.727,425.688" style="fill-opacity:0.3;fill:rgb(102,102,201);stroke:rgb(51,51,152);"/>
<polygon points="476.176,388.487 541.231,405.62 469.482,491.372" style="fill-opacity:0.3;fill:rgb(102,102,201);stroke:rgb(51,51,152);"/>
<polygon points="469.482,491.372 541.231,405.62 580.788,403.398" style="fill-opacity:0.3;fill:rgb(102,102,201);stroke:rgb(51,51,152);"/>
<polygon points="608.814,613.776 554.547,683.94 495.688,629.737" style="fill-opacity:0.3;fill:rgb(102,102,201);stroke:rgb(51,51,152);"/>
<polygon points="300.761,196.319 423.446,339.445 279.162,229.431" style="fill-opacity:0.3;fill:rgb(102,102,201);stroke:rgb(51,51,152);"/>
<polygon points="470.822,340.611 476.176,388.487 423.446,339.445" style="fill-opacity:0.3;fill:rgb(102,102,201);stroke:rgb(51,51,152);"/>
<polygon points="470.822,340.611 491.075,367.961 476.176,388.487" style="fill-opacity:0.3;fill:rgb(102,102,201);stroke:rgb(51,51,152);"/>
<polygon points="491.075,367.961 541.231,405.62 476.176,388.487" style="fill-opacity:0.3;fill:rgb(102,102,201);stroke:rgb(51,51,152);"/>
<polygon points="58.8511,123.33 172.736,208.93 13.7465,211.294" style="fill-opacity:0.3;fill:rgb(102,102,201);stroke:rgb(51,51,152);"/>
<polygon points="263.044,175.384 279.162,229.431 172.736,208.93" style="fill-opacity:0.3;fill:rgb(102,102,201);stroke:rgb(51,51,152);"/>
<polygon points="300.761,196.319 456.07,177.883 423.446,339.445" style="fill-opacity:0.3;fill:rgb(102,102,201);stroke:rgb(51,51,152);"/>
<polygon points="203.152,155.617 263.044,175.384 172.736,208.93" style="fill-opacity:0.3;fill:rgb(102,102,201);stroke:rgb(51,51,152);"/>
<polygon points="263.044,175.384 300.761,196.319 279.162,229.431" style="fill-opacity:0.3;fill:rgb(102,102,201);stroke:rgb(51,51,152);"/>
<polygon points="58.8511,123.33 203.152,155.617 172.736,208.93" style="fill-opacity:0.3;fill:rgb(102,102,201);stroke:rgb(51,51,152);"/>
<polygon points="506.152,296.648 491.075,367.961 470.822,340.611" style="fill-opacity:0.3;fill:rgb(102,102,201);stroke:rgb(51,51,152);"/>
<polygon points="469.482,491.372 580.788,403.398 488.783,562.349" style="fill-opacity:0.3;fill:rgb(102,102,201);stroke:rgb(51,51,152);"/>
<polygon points="495.688,629.737 554.547,683.94 509.004,704.1" style="fill-opacity:0.3;fill:rgb(102,102,201);stroke:rgb(51,51,152);"/>
<polygon points="456.07,177.883 506.152,296.648 423.446,339.445" style="fill-opacity:0.3;fill:rgb(102,102,201);stroke:rgb(51,51,152);"/>
<polygon points="538.771,361.094 541.231,405.62 491.075,367.961" style="fill-opacity:0.3;fill:rgb(102,102,201);stroke:rgb(51,51,152);"/>
<polygon points="538.771,361.094 580.788,403.398 541.231,405.62" style="fill-opacity:0.3;fill:rgb(102,102,201);stroke:rgb(51,51,152);"/>
<polygon points="580.788,403.398 631.127,421.899 488.783,562.349" style="fill-opacity:0.3;fill:rgb(102,102,201);stroke:rgb(51,51,152);"/>
<polygon points="619.363,603.585 636.989,667.666 608.814,613.776" style="fill-opacity:0.3;fill:rgb(102,102,201);stroke:rgb(51,51,152);"/>
<polygon points="286.663,129.797 300.761,196.319 263.044,175.384" style="fill-opacity:0.3;fill:rgb(102,102,201);stroke:rgb(51,51,152);"/>
<polygon points="506.152,296.648 538.771,361.094 491.075,367.961" style="fill-opacity:0.3;fill:rgb(102,102,201);stroke:rgb(51,51,152);"/>
<polygon points="102.255,70.7951 203.152,155.617 58.8511,123.33" style="fill-opacity:0.3;fill:rgb(102,102,201);stroke:rgb(51,51,152);"/>
<polygon points="286.663,129.797 263.044,175.384 203.152,155.617" style="fill-opacity:0.3;fill:rgb(102,102,201);stroke:rgb(51,51,152);"/>
<polygon points="286.663,129.797 332.816,131.356 300.761,196.319" style="fill-opacity:0.3;fill:rgb(102,102,201);stroke:rgb(51,51,152);"/>
<polygon points="572.234,263.003 538.771,361.094 506.152,296.648" style="fill-opacity:0.3;fill:rgb(102,102,201);stroke:rgb(51,51,152);"/>
<polygon points="488.783,562.349 619.363,603.585 608.814,613.776" style="fill-opacity:0.3;fill:rgb(102,102,201);stroke:rgb(51,51,152);"/>
<polygon points="654.424,565.021 619.363,603.585 488.783,562.349" style="fill-opacity:0.3;fill:rgb(102,102,201);stroke:rgb(51,51,152);"/>
<polygon points="636.989,667.666 554.547,683.94 608.814,613.776" style="fill-opacity:0.3;fill:rgb(102,102,201);stroke:rgb(51,51,152);"/>
<polygon points="636.989,667.666 707.93,711.852 554.547,683.94" style="fill-opacity:0.3;fill:rgb(102,102,201);stroke:rgb(51,51,152);"/>
<polygon points="43.6063,73.6875 58.8511,123.33 13.7465,211.294" style="fill-opacity:0.3;fill:rgb(102,102,201);stroke:rgb(51,51,152);"/>
<polygon points="43.6063,73.6875 102.255,70.7951 58.8511,123.33" style="fill-opacity:0.3;fill:rgb(102,102,201);stroke:rgb(51,51,152);"/>
<polygon points="102.255,70.7951 220.552,80.228 203.152,155.617" style="fill-opacity:0.3;fill:rgb(102,102,201);stroke:rgb(51,51,152);"/>
<polygon points="220.552,80.228 286.663,129.797 203.152,155.617" style="fill-opacity:0.3;fill:rgb(102,102,201);stroke:rgb(51,51,152);"/>
<polygon points="332.816,131.356 456.07,177.883 300.761,196.319" style="fill-opacity:0.3;fill:rgb(102,102,201);stroke:rgb(51,51,152);"/>
<polygon points="299.084,114.112 332.816,131.356 286.663,129.797" style="fill-opacity:0.3;fill:rgb(102,102,201);stroke:rgb(51,51,152);"/>
<polygon points="220.552,80.228 299.084,114.112 286.663,129.797" style="fill-opacity:0.3;fill:rgb(102,102,201);stroke:rgb(51,51,152);"/>
<polygon points="654.424,565.021 712.341,619.78 619.363,603.585" style="fill-opacity:0.3;fill:rgb(102,102,201);stroke:rgb(51,51,152);"/>
<polygon points="423.446,339.445 506.152,296.648 470.822,340.611" style="fill-opacity:0.3;fill:rgb(102,102,201);stroke:rgb(51,51,152);"/>
<polygon points="522.297,266.729 572.234,263.003 506.152,296.648" style="fill-opacity:0.3;fill:rgb(102,102,201);stroke:rgb(51,51,152);"/>
<polygon points="538.771,361.094 609.107,350.443 580.788,403.398" style="fill-opacity:0.3;fill:rgb(102,102,201);stroke:rgb(51,51,152);"/>
<polygon points="334.401,62.0514 299.084,114.112 220.552,80.228" style="fill-opacity:0.3;fill:rgb(102,102,201);stroke:rgb(51,51,152);"/>
<polygon points="328.141,112.338 332.816,131.356 299.084,114.112" style="fill-opacity:0.3;fill:rgb(102,102,201);stroke:rgb(51,51,152);"/>
<polygon points="328.141,112.338 364.288,100.181 332.816,131.356" style="fill-opacity:0.3;fill:rgb(102,102,201);stroke:rgb(51,51,152);"/>
<polygon points="631.127,421.899 654.424,565.021 488.783,562.349" style="fill-opacity:0.3;fill:rgb(102,102,201);stroke:rgb(51,51,152);"/>
<polygon points="456.07,177.883 522.297,266.729 506.152,296.648" style="fill-opacity:0.3;fill:rgb(102,102,201);stroke:rgb(51,51,152);"/>
<polygon points="609.107,350.443 631.127,421.899 580.788,403.398" style="fill-opacity:0.3;fill:rgb(102,102,201);stroke:rgb(51,51,152);"/>
<polygon points="637.667,424.575 654.424,565.021 631.127,421.899" style="fill-opacity:0.3;fill:rgb(102,102,201);stroke:rgb(51,51,152);"/>
<polygon points="524.598,233.109 522.297,266.729 456.07,177.883" style="fill-opacity:0.3;fill:rgb(102,102,201);stroke:rgb(51,51,152);"/>
<polygon points="524.598,233.109 572.234,263.003 522.297,266.729" style="fill-opacity:0.3;fill:rgb(102,102,201);stroke:rgb(51,51,152);"/>
<polygon points="609.107,350.443 670.806,394.344 631.127,421.899" style="fill-opacity:0.3;fill:rgb(102,102,201);stroke:rgb(51,51,152);"/>
<polygon points="106.669,32.1056 102.255,70.7951 43.6063,73.6875" style="fill-opacity:0.3;fill:rgb(102,102,201);stroke:rgb(51,51,152);"/>
<polygon points="106.669,32.1056 220.552,80.228 102.255,70.7951" style="fill-opacity:0.3;fill:rgb(102,102,201);stroke:rgb(51,51,152);"/>
<polygon points="106.669,32.1056 334.401,62.0514 220.552,80.228" style="fill-opacity:0.3;fill:rgb(102,102,201);stroke:rgb(51,51,152);"/>
<polygon points="334.401,62.0514 328.141,112.338 299.084,114.112" style="fill-opacity:0.3;fill:rgb(102,102,201);stroke:rgb(51,51,152);"/>
<polygon points="364.288,100.181 456.07,177.883 332.816,131.356" style="fill-opacity:0.3;fill:rgb(102,102,201);stroke:rgb(51,51,152);"/>
<polygon points="364.288,100.181 537.609,69.6231 456.07,177.883" style="fill-opacity:0.3;fill:rgb(102,102,201);stroke:rgb(51,51,152);"/>
<polygon points="515.262,194.582 524.598,233.109 456.07,177.883" style="fill-opacity:0.3;fill:rgb(102,102,201);stroke:rgb(51,51,152);"/>
<polygon points="572.234,263.003 609.107,350.443 538.771,361.094" style="fill-opacity:0.3;fill:rgb(102,102,201);stroke:rgb(51,51,152);"/>
<polygon points="515.262,194.582 542.781,219.111 524.598,233.109" style="fill-opacity:0.3;fill:rgb(102,102,201);stroke:rgb(51,51,152);"/>
<polygon points="542.781,219.111 572.234,263.003 524.598,233.109" style="fill-opacity:0.3;fill:rgb(102,102,201);stroke:rgb(51,51,152);"/>
<polygon points="682.232,440.047 654.424,565.021 637.667,424.575" style="fill-opacity:0.3;fill:rgb(102,102,201);stroke:rgb(51,51,152);"/>
<polygon points="712.341,619.78 636.989,667.666 619.363,603.585" style="fill-opacity:0.3;fill:rgb(102,102,201);stroke:rgb(51,51,152);"/>
<polygon points="707.93,711.852 509.004,704.1 554.547,683.94" style="fill-opacity:0.3;fill:rgb(102,102,201);stroke:rgb(51,51,152);"/>
<polygon points="707.93,711.852 462.945,709.236 509.004,704.1" style="fill-opacity:0.3;fill:rgb(102,102,201);stroke:rgb(51,51,152);"/>
<polygon points="707.93,711.852 373.304,715.434 462.945,709.236" style="fill-opacity:0.3;fill:rgb(102,102,201);stroke:rgb(51,51,152);"/>
<polygon points="712.341,619.78 707.93,711.852 636.989,667.666" style="fill-opacity:0.3;fill:rgb(102,102,201);stroke:rgb(51,51,152);"/>
<polygon points="334.401,62.0514 364.288,100.181 328.141,112.338" style="fill-opacity:0.3;fill:rgb(102,102,201);stroke:rgb(51,51,152);"/>
<polygon points="334.401,62.0514 373.98,47.0211 364.288,100.181" style="fill-opacity:0.3;fill:rgb(102,102,201);stroke:rgb(51,51,152);"/>
<polygon points="578.213,251.097 572.234,263.003 542.781,219.111" style="fill-opacity:0.3;fill:rgb(102,102,201);stroke:rgb(51,51,152);"/>
<polygon points="578.213,251.097 593.782,264.428 572.234,263.003" style="fill-opacity:0.3;fill:rgb(102,102,201);stroke:rgb(51,51,152);"/>
<polygon points="572.234,263.003 593.782,264.428 609.107,350.443" style="fill-opacity:0.3;fill:rgb(102,102,201);stroke:rgb(51,51,152);"/>
<polygon points="631.127,421.899 670.806,394.344 637.667,424.575" style="fill-opacity:0.3;fill:rgb(102,102,201);stroke:rgb(51,51,152);"/>
<polygon points="373.98,47.0211 537.609,69.6231 364.288,100.181" style="fill-opacity:0.3;fill:rgb(102,102,201);stroke:rgb(51,51,152);"/>
<polygon points="548.783,215.143 542.781,219.111 515.262,194.582" style="fill-opacity:0.3;fill:rgb(102,102,201);stroke:rgb(51,51,152);"/>
<polygon points="548.783,215.143 578.213,251.097 542.781,219.111" style="fill-opacity:0.3;fill:rgb(102,102,201);stroke:rgb(51,51,152);"/>
<polygon points="682.232,440.047 712.341,619.78 654.424,565.021" style="fill-opacity:0.3;fill:rgb(102,102,201);stroke:rgb(51,51,152);"/>
<polygon points="602.222,229.995 578.213,251.097 548.783,215.143" style="fill-opacity:0.3;fill:rgb(102,102,201);stroke:rgb(51,51,152);"/>
<polygon points="593.782,264.428 669.914,225.524 609.107,350.443" style="fill-opacity:0.3;fill:rgb(102,102,201);stroke:rgb(51,51,152);"/>
<polygon points="670.806,394.344 682.232,440.047 637.667,424.575" style="fill-opacity:0.3;fill:rgb(102,102,201);stroke:rgb(51,51,152);"/>
<polygon points="373.98,47.0211 334.401,62.0514 106.669,32.1056" style="fill-opacity:0.3;fill:rgb(102,102,201);stroke:rgb(51,51,152);"/>
<polygon points="456.07,177.883 537.609,69.6231 515.262,194.582" style="fill-opacity:0.3;fill:rgb(102,102,201);stroke:rgb(51,51,152);"/>
<polygon points="537.609,69.6231 606.269,78.669 515.262,194.582" style="fill-opacity:0.3;fill:rgb(102,102,201);stroke:rgb(51,51,152);"/>
<polygon points="602.222,229.995 593.782,264.428 578.213,251.097" style="fill-opacity:0.3;fill:rgb(102,102,201);stroke:rgb(51,51,152);"/>
<polygon points="602.222,229.995 669.914,225.524 593.782,264.428" style="fill-opacity:0.3;fill:rgb(102,102,201);stroke:rgb(51,51,152);"/>
<polygon points="691.989,368.27 670.806,394.344 609.107,350.443" style="fill-opacity:0.3;fill:rgb(102,102,201);stroke:rgb(51,51,152);"/>
<polygon points="691.989,368.27 682.232,440.047 670.806,394.344" style="fill-opacity:0.3;fill:rgb(102,102,201);stroke:rgb(51,51,152);"/>
<polygon points="691.989,368.27 712.341,619.78 682.232,440.047" style="fill-opacity:0.3;fill:rgb(102,102,201);stroke:rgb(51,51,152);"/>
<polygon points="515.262,194.582 606.269,78.669 548.783,215.143" style="fill-opacity:0.3;fill:rgb(102,102,201);stroke:rgb(51,51,152);"/>
<polygon points="669.914,225.524 691.989,368.27 609.107,350.443" style="fill-opacity:0.3;fill:rgb(102,102,201);stroke:rgb(51,51,152);"/>
<polygon points="548.783,215.143 606.269,78.669 602.222,229.995" style="fill-opacity:0.3;fill:rgb(102,102,201);stroke:rgb(51,51,152);"/>
<polygon points="606.269,78.669 669.914,225.524 602.222,229.995" style="fill-opacity:0.3;fill:rgb(102,102,201);stroke:rgb(51,51,152);"/>
<polygon points="687.179,214.411 691.989,368.27 669.914,225.524" style="fill-opacity:0.3;fill:rgb(102,102,201);stroke:rgb(51,51,152);"/>
<polygon points="687.179,214.411 698.462,59.1496 691.989,368.27" style="fill-opacity:0.3;fill:rgb(102,102,201);stroke:rgb(51,51,152);"/>
<polygon points="542.416,12.5638 537.609,69.6231 373.98,47.0211" style="fill-opacity:0.3;fill:rgb(102,102,201);stroke:rgb(51,51,152);"/>
<polygon points="606.269,78.669 687.179,214.411 669.914,225.524" style="fill-opacity:0.3;fill:rgb(102,102,201);stroke:rgb(51,51,152);"/>
<polygon points="542.416,12.5638 373.98,47.0211 106.669,32.1056" style="fill-opacity:0.3;fill:rgb(102,102,201);stroke:rgb(51,51,152);"/>
<polygon points="542.416,12.5638 606.269,78.669 537.609,69.6231" style="fill-opacity:0.3;fill:rgb(102,102,201);stroke:rgb(51,51,152);"/>
<polygon points="640.813,60.0236 606.269,78.669 542.416,12.5638" style="fill-opacity:0.3;fill:rgb(102,102,201);stroke:rgb(51,51,152);"/>
<polygon points="640.813,60.0236 687.179,214.411 606.269,78.669" style="fill-opacity:0.3;fill:rgb(102,102,201);stroke:rgb(51,51,152);"/>
<polygon points="676.917,39.778 640.813,60.0236 542.416,12.5638" style="fill-opacity:0.3;fill:rgb(102,102,201);stroke:rgb(51,51,152);"/>
<polygon points="676.917,39.778 698.462,59.1496 640.813,60.0236" style="fill-opacity:0.3;fill:rgb(102,102,201);stroke:rgb(51,51,152);"/>
<polygon points="640.813,60.0236 698.462,59.1496 687.179,214.411" style="fill-opacity:0.3;fill:rgb(102,102,201);stroke:rgb(51,51,152);"/>
<polygon points="698.462,59.1496 712.341,619.78 691.989,368.27" style="fill-opacity:0.3;fill:rgb(102,102,201);stroke:rgb(51,51,152);"/>
<polygon points="-476.912,549.671 -14.2314,614.203 37.4114,630.217 70.6477,648.073" style="opacity:1.0;fill:none;stroke:rgb(255,0,0);stroke-width:1"/>
<polygon points="169.242,573.366 183.859,593.362 109.714,665.683 70.6477,648.073 37.4114,630.217 101.498,581.437" style="opacity:1.0;fill:none;stroke:rgb(255,0,0);stroke-width:1"/>
<polygon points="70.6477,648.073 109.714,665.683 162.193,789.066 217.276,1105.61" style="opacity:1.0;fill:none;stroke:rgb(255,0,0);stroke-width:1"/>
<polygon points="-14.2314,614.203 99.7739,540.309 103.568,542.511 101.498,581.437 37.4114,630.217" style="opacity:1.0;fill:none;stroke:rgb(255,0,0);stroke-width:1"/>
<polygon points="103.568,542.511 160.741,554.148 169.242,573.366 101.498,581.437" style="opacity:1.0;fill:none;stroke:rgb(255,0,0);stroke-width:1"/>
<polygon points="183.859,593.362 193.944,594.952 225.36,636.654 162.193,789.066 109.714,665.683" style="opacity:1.0;fill:none;stroke:rgb(255,0,0);stroke-width:1"/>
<polygon points="-476.912,549.671 -261.241,489.17 -175.576,470.488 -68.6484,455.938 74.3607,449.352 74.9625,449.571 99.7739,540.309 -14.2314,614.203" style="opacity:1.0;fill:none;stroke:rgb(255,0,0);stroke-width:1"/>
<polygon points="74.9625,449.571 162.966,454.961 165.522,455.427 160.741,554.148 103.568,542.511 99.7739,540.309" style="opacity:1.0;fill:none;stroke:rgb(255,0,0);stroke-width:1"/>
<polygon points="293.178,754.473 217.276,1105.61 162.193,789.066 225.36,636.654 240.015,641.394" style="opacity:1.0;fill:none;stroke:rgb(255,0,0);stroke-width:1"/>
<polygon points="165.522,455.427 192.37,444.96 249.382,475.362 252.481,550.479 193.944,594.952 183.859,593.362 169.242,573.366 160.741,554.148" style="opacity:1.0;fill:none;stroke:rgb(255,0,0);stroke-width:1"/>
<polygon points="252.481,550.479 307.087,574.264 290.079,630.751 240.015,641.394 225.36,636.654 193.944,594.952" style="opacity:1.0;fill:none;stroke:rgb(255,0,0);stroke-width:1"/>
<polygon points="329.369,679.572 327.757,685.56 293.178,754.473 240.015,641.394 290.079,630.751 304.254,647.191" style="opacity:1.0;fill:none;stroke:rgb(255,0,0);stroke-width:1"/>
<polygon points="341.286,564.208 367.041,574.083 362.37,592.797 304.254,647.191 290.079,630.751 307.087,574.264" style="opacity:1.0;fill:none;stroke:rgb(255,0,0);stroke-width:1"/>
<polygon points="249.382,475.362 307.908,458.857 314.41,461.406 329.689,485.355 341.286,564.208 307.087,574.264 252.481,550.479" style="opacity:1.0;fill:none;stroke:rgb(255,0,0);stroke-width:1"/>
<polygon points="362.37,592.797 346.924,666.709 329.369,679.572 304.254,647.191" style="opacity:1.0;fill:none;stroke:rgb(255,0,0);stroke-width:1"/>
<polygon points="74.3607,449.352 107.294,338.653 126.456,348.095 162.966,454.961 74.9625,449.571" style="opacity:1.0;fill:none;stroke:rgb(255,0,0);stroke-width:1"/>
<polygon points="126.456,348.095 186.165,359.204 200.101,416.642 192.37,444.96 165.522,455.427 162.966,454.961" style="opacity:1.0;fill:none;stroke:rgb(255,0,0);stroke-width:1"/>
<polygon points="-68.6484,455.938 89.5856,325.623 105.478,334.115 107.294,338.653 74.3607,449.352" style="opacity:1.0;fill:none;stroke:rgb(255,0,0);stroke-width:1"/>
<polygon points="-175.576,470.488 67.9513,302.769 89.5856,325.623 -68.6484,455.938" style="opacity:1.0;fill:none;stroke:rgb(255,0,0);stroke-width:1"/>
<polygon points="389.406,572.562 437.244,632.502 438.224,652.561 428.92,663.169 346.924,666.709 362.37,592.797 367.041,574.083" style="opacity:1.0;fill:none;stroke:rgb(255,0,0);stroke-width:1"/>
<polygon points="200.101,416.642 251.737,380.763 307.01,441.512 307.908,458.857 249.382,475.362 192.37,444.96" style="opacity:1.0;fill:none;stroke:rgb(255,0,0);stroke-width:1"/>
<polygon points="217.276,1105.61 293.178,754.473 327.757,685.56 418.775,721.74 563.034,2808" style="opacity:1.0;fill:none;stroke:rgb(255,0,0);stroke-width:1"/>
<polygon points="428.92,663.169 418.775,721.74 327.757,685.56 329.369,679.572 346.924,666.709" style="opacity:1.0;fill:none;stroke:rgb(255,0,0);stroke-width:1"/>
<polygon points="290.656,334.323 321.844,313.953 307.01,441.512 251.737,380.763" style="opacity:1.0;fill:none;stroke:rgb(255,0,0);stroke-width:1"/>
<polygon points="329.689,485.355 419.448,499.145 425.115,526.776 389.406,572.562 367.041,574.083 341.286,564.208" style="opacity:1.0;fill:none;stroke:rgb(255,0,0);stroke-width:1"/>
<polygon points="105.478,334.115 139.576,297.906 186.074,296.667 188.623,301.51 193.538,339.94 186.165,359.204 126.456,348.095 107.294,338.653" style="opacity:1.0;fill:none;stroke:rgb(255,0,0);stroke-width:1"/>
<polygon points="193.538,339.94 290.656,334.323 251.737,380.763 200.101,416.642 186.165,359.204" style="opacity:1.0;fill:none;stroke:rgb(255,0,0);stroke-width:1"/>
<polygon points="-261.241,489.17 55.831,260.921 67.9513,302.769 -175.576,470.488" style="opacity:1.0;fill:none;stroke:rgb(255,0,0);stroke-width:1"/>
<polygon points="366.091,436.247 371.164,435.843 425.199,470.86 419.448,499.145 329.689,485.355 314.41,461.406" style="opacity:1.0;fill:none;stroke:rgb(255,0,0);stroke-width:1"/>
<polygon points="188.623,301.51 315.398,309.998 321.97,313.783 321.844,313.953 290.656,334.323 193.538,339.94" style="opacity:1.0;fill:none;stroke:rgb(255,0,0);stroke-width:1"/>
<polygon points="321.97,313.783 331.637,310.231 334.039,313.109 366.091,436.247 314.41,461.406 307.908,458.857 307.01,441.512 321.844,313.953" style="opacity:1.0;fill:none;stroke:rgb(255,0,0);stroke-width:1"/>
<polygon points="56.349,253.689 93.1765,205.763 110.202,220.393 139.576,297.906 105.478,334.115 89.5856,325.623 67.9513,302.769 55.831,260.921" style="opacity:1.0;fill:none;stroke:rgb(255,0,0);stroke-width:1"/>
<polygon points="56.349,253.689 55.831,260.921 -261.241,489.17 -476.912,549.671" style="opacity:1.0;fill:none;stroke:rgb(255,0,0);stroke-width:1"/>
<polygon points="425.115,526.776 456.857,532.918 481.714,597.121 437.244,632.502 389.406,572.562" style="opacity:1.0;fill:none;stroke:rgb(255,0,0);stroke-width:1"/>
<polygon points="334.039,313.109 411.227,381.819 371.164,435.843 366.091,436.247" style="opacity:1.0;fill:none;stroke:rgb(255,0,0);stroke-width:1"/>
<polygon points="110.202,220.393 200.009,249.897 186.074,296.667 139.576,297.906" style="opacity:1.0;fill:none;stroke:rgb(255,0,0);stroke-width:1"/>
<polygon points="200.009,249.897 223.187,233.518 315.398,309.998 188.623,301.51 186.074,296.667" style="opacity:1.0;fill:none;stroke:rgb(255,0,0);stroke-width:1"/>
<polygon points="576.78,1521.03 563.034,2808 418.775,721.74 428.92,663.169 438.224,652.561 481.949,670.571" style="opacity:1.0;fill:none;stroke:rgb(255,0,0);stroke-width:1"/>
<polygon points="411.227,381.819 429.85,385.429 458.546,439 425.199,470.86 371.164,435.843" style="opacity:1.0;fill:none;stroke:rgb(255,0,0);stroke-width:1"/>
<polygon points="547.82,590.347 552.938,626.627 518.499,664.026 481.949,670.571 438.224,652.561 437.244,632.502 481.714,597.121" style="opacity:1.0;fill:none;stroke:rgb(255,0,0);stroke-width:1"/>
<polygon points="568.701,502.505 572.189,504.524 572.552,504.891 572.219,525.503 562.736,555.531 547.82,590.347 481.714,597.121 456.857,532.918" style="opacity:1.0;fill:none;stroke:rgb(255,0,0);stroke-width:1"/>
<polygon points="458.546,439 496.998,441.502 566.349,499.529 568.701,502.505 456.857,532.918 425.115,526.776 419.448,499.145 425.199,470.86" style="opacity:1.0;fill:none;stroke:rgb(255,0,0);stroke-width:1"/>
<polygon points="-42.031,127.148 93.0373,196.406 93.1765,205.763 56.349,253.689" style="opacity:1.0;fill:none;stroke:rgb(255,0,0);stroke-width:1"/>
<polygon points="602.761,854.381 576.78,1521.03 481.949,670.571 518.499,664.026" style="opacity:1.0;fill:none;stroke:rgb(255,0,0);stroke-width:1"/>
<polygon points="93.0373,196.406 128.955,148.619 221.284,201.295 226.625,215.673 223.187,233.518 200.009,249.897 110.202,220.393 93.1765,205.763" style="opacity:1.0;fill:none;stroke:rgb(255,0,0);stroke-width:1"/>
<polygon points="226.625,215.673 273.033,201.832 367.37,263.368 331.637,310.231 321.97,313.783 315.398,309.998 223.187,233.518" style="opacity:1.0;fill:none;stroke:rgb(255,0,0);stroke-width:1"/>
<polygon points="367.37,263.368 385.612,247.731 433.408,257.382 448.452,286.456 446.456,367.574 429.85,385.429 411.227,381.819 334.039,313.109 331.637,310.231" style="opacity:1.0;fill:none;stroke:rgb(255,0,0);stroke-width:1"/>
<polygon points="446.456,367.574 465.949,365.394 508.842,396.528 496.998,441.502 458.546,439 429.85,385.429" style="opacity:1.0;fill:none;stroke:rgb(255,0,0);stroke-width:1"/>
<polygon points="592.029,656.862 616.316,779.898 602.761,854.381 518.499,664.026 552.938,626.627" style="opacity:1.0;fill:none;stroke:rgb(255,0,0);stroke-width:1"/>
<polygon points="448.452,286.456 507.963,334.281 465.949,365.394 446.456,367.574" style="opacity:1.0;fill:none;stroke:rgb(255,0,0);stroke-width:1"/>
<polygon points="507.963,334.281 510.65,334.849 517.81,384.584 508.842,396.528 465.949,365.394" style="opacity:1.0;fill:none;stroke:rgb(255,0,0);stroke-width:1"/>
<polygon points="294.666,162.856 308.751,159.871 379.316,194.691 385.612,247.731 367.37,263.368 273.033,201.832" style="opacity:1.0;fill:none;stroke:rgb(255,0,0);stroke-width:1"/>
<polygon points="131.14,138.857 158.994,105.723 239.196,124.233 242.834,136.001 221.284,201.295 128.955,148.619" style="opacity:1.0;fill:none;stroke:rgb(255,0,0);stroke-width:1"/>
<polygon points="242.834,136.001 294.666,162.856 273.033,201.832 226.625,215.673 221.284,201.295" style="opacity:1.0;fill:none;stroke:rgb(255,0,0);stroke-width:1"/>
<polygon points="-42.031,127.148 73.8831,91.552 131.14,138.857 128.955,148.619 93.0373,196.406" style="opacity:1.0;fill:none;stroke:rgb(255,0,0);stroke-width:1"/>
<polygon points="517.81,384.584 559.76,382.265 566.349,499.529 496.998,441.502 508.842,396.528" style="opacity:1.0;fill:none;stroke:rgb(255,0,0);stroke-width:1"/>
<polygon points="562.736,555.531 637.614,633.029 592.029,656.862 552.938,626.627 547.82,590.347" style="opacity:1.0;fill:none;stroke:rgb(255,0,0);stroke-width:1"/>
<polygon points="555.62,312.089 567.962,316.299 575.573,366.559 559.76,382.265 517.81,384.584 510.65,334.849" style="opacity:1.0;fill:none;stroke:rgb(255,0,0);stroke-width:1"/>
<polygon points="572.219,525.503 666.01,610.775 663.367,625.945 637.614,633.029 562.736,555.531" style="opacity:1.0;fill:none;stroke:rgb(255,0,0);stroke-width:1"/>
<polygon points="448.452,286.456 433.408,257.382 453.487,248.915 549.959,300.97 555.62,312.089 510.65,334.849 507.963,334.281" style="opacity:1.0;fill:none;stroke:rgb(255,0,0);stroke-width:1"/>
<polygon points="239.196,124.233 260.266,96.1327 309.584,135.188 308.751,159.871 294.666,162.856 242.834,136.001" style="opacity:1.0;fill:none;stroke:rgb(255,0,0);stroke-width:1"/>
<polygon points="575.573,366.559 615.124,387.71 572.189,504.524 568.701,502.505 566.349,499.529 559.76,382.265" style="opacity:1.0;fill:none;stroke:rgb(255,0,0);stroke-width:1"/>
<polygon points="663.367,625.945 688.032,664.757 616.316,779.898 592.029,656.862 637.614,633.029" style="opacity:1.0;fill:none;stroke:rgb(255,0,0);stroke-width:1"/>
<polygon points="71.7212,47.715 73.8831,91.552 -42.031,127.148" style="opacity:1.0;fill:none;stroke:rgb(255,0,0);stroke-width:1"/>
<polygon points="71.7212,47.715 162.791,58.105 158.994,105.723 131.14,138.857 73.8831,91.552" style="opacity:1.0;fill:none;stroke:rgb(255,0,0);stroke-width:1"/>
<polygon points="314.381,125.804 349.855,117.083 392.399,160.033 379.316,194.691 308.751,159.871 309.584,135.188" style="opacity:1.0;fill:none;stroke:rgb(255,0,0);stroke-width:1"/>
<polygon points="275.74,60.2671 311.875,84.7801 314.381,125.804 309.584,135.188 260.266,96.1327" style="opacity:1.0;fill:none;stroke:rgb(255,0,0);stroke-width:1"/>
<polygon points="162.791,58.105 244.517,-135.301 275.74,60.2671 260.266,96.1327 239.196,124.233 158.994,105.723" style="opacity:1.0;fill:none;stroke:rgb(255,0,0);stroke-width:1"/>
<polygon points="637.918,495.768 750.963,520.922 666.01,610.775 572.219,525.503 572.552,504.891 603.024,499.931" style="opacity:1.0;fill:none;stroke:rgb(255,0,0);stroke-width:1"/>
<polygon points="458.137,245.448 546.267,251.481 549.959,300.97 453.487,248.915" style="opacity:1.0;fill:none;stroke:rgb(255,0,0);stroke-width:1"/>
<polygon points="311.875,84.7801 340.176,88.3031 349.855,117.083 314.381,125.804" style="opacity:1.0;fill:none;stroke:rgb(255,0,0);stroke-width:1"/>
<polygon points="615.124,387.71 632.971,382.21 644.43,398.71 603.024,499.931 572.552,504.891 572.189,504.524" style="opacity:1.0;fill:none;stroke:rgb(255,0,0);stroke-width:1"/>
<polygon points="392.399,160.033 451.82,89.8454 502.161,127.761 474.791,224.783 458.137,245.448 453.487,248.915 433.408,257.382 385.612,247.731 379.316,194.691" style="opacity:1.0;fill:none;stroke:rgb(255,0,0);stroke-width:1"/>
<polygon points="644.43,398.71 664.121,420.295 637.918,495.768 603.024,499.931" style="opacity:1.0;fill:none;stroke:rgb(255,0,0);stroke-width:1"/>
<polygon points="474.791,224.783 523.569,212.964 549.39,246.504 546.267,251.481 458.137,245.448" style="opacity:1.0;fill:none;stroke:rgb(255,0,0);stroke-width:1"/>
<polygon points="579.863,311.28 658.565,297.259 663.398,299.611 651.117,356.707 632.971,382.21 615.124,387.71 575.573,366.559 567.962,316.299" style="opacity:1.0;fill:none;stroke:rgb(255,0,0);stroke-width:1"/>
<polygon points="287.444,-804.898 254.183,-208.809 244.517,-135.301 162.791,58.105 71.7212,47.715" style="opacity:1.0;fill:none;stroke:rgb(255,0,0);stroke-width:1"/>
<polygon points="340.176,88.3031 360.857,72.0921 451.607,88.6367 451.82,89.8454 392.399,160.033 349.855,117.083" style="opacity:1.0;fill:none;stroke:rgb(255,0,0);stroke-width:1"/>
<polygon points="551.458,245.117 583.185,261.048 579.863,311.28 567.962,316.299 555.62,312.089 549.959,300.97 546.267,251.481 549.39,246.504" style="opacity:1.0;fill:none;stroke:rgb(255,0,0);stroke-width:1"/>
<polygon points="502.161,127.761 563.431,138.718 569.616,143.574 534.741,200.43 523.569,212.964 474.791,224.783" style="opacity:1.0;fill:none;stroke:rgb(255,0,0);stroke-width:1"/>
<polygon points="534.741,200.43 558.864,236.912 551.458,245.117 549.39,246.504 523.569,212.964" style="opacity:1.0;fill:none;stroke:rgb(255,0,0);stroke-width:1"/>
<polygon points="563.034,2808 576.78,1521.03 602.761,854.381 616.316,779.898 688.032,664.757" style="opacity:1.0;fill:none;stroke:rgb(255,0,0);stroke-width:1"/>
<polygon points="688.032,664.757 663.367,625.945 666.01,610.775 750.963,520.922 1107.16,461.252 3452.59,271.457" style="opacity:1.0;fill:none;stroke:rgb(255,0,0);stroke-width:1"/>
<polygon points="254.183,-208.809 360.857,72.0921 340.176,88.3031 311.875,84.7801 275.74,60.2671 244.517,-135.301" style="opacity:1.0;fill:none;stroke:rgb(255,0,0);stroke-width:1"/>
<polygon points="575.242,223.507 595.547,246.61 583.185,261.048 551.458,245.117 558.864,236.912" style="opacity:1.0;fill:none;stroke:rgb(255,0,0);stroke-width:1"/>
<polygon points="569.616,143.574 594.54,154.073 575.242,223.507 558.864,236.912 534.741,200.43" style="opacity:1.0;fill:none;stroke:rgb(255,0,0);stroke-width:1"/>
<polygon points="714.029,407.817 1107.16,461.252 750.963,520.922 637.918,495.768 664.121,420.295" style="opacity:1.0;fill:none;stroke:rgb(255,0,0);stroke-width:1"/>
<polygon points="595.547,246.61 638.001,257.016 658.565,297.259 579.863,311.28 583.185,261.048" style="opacity:1.0;fill:none;stroke:rgb(255,0,0);stroke-width:1"/>
<polygon points="651.117,356.707 714.029,407.817 664.121,420.295 644.43,398.71 632.971,382.21" style="opacity:1.0;fill:none;stroke:rgb(255,0,0);stroke-width:1"/>
<polygon points="287.444,-804.898 459.116,34.2779 451.607,88.6367 360.857,72.0921 254.183,-208.809" style="opacity:1.0;fill:none;stroke:rgb(255,0,0);stroke-width:1"/>
<polygon points="594.54,154.073 631.265,155.055 638.001,257.016 595.547,246.61 575.242,223.507" style="opacity:1.0;fill:none;stroke:rgb(255,0,0);stroke-width:1"/>
<polygon points="723.798,290.271 2178.91,244.782 3452.59,271.457 1107.16,461.252 714.029,407.817 651.117,356.707 663.398,299.611" style="opacity:1.0;fill:none;stroke:rgb(255,0,0);stroke-width:1"/>
<polygon points="631.265,155.055 635.565,153.191 723.798,290.271 663.398,299.611 658.565,297.259 638.001,257.016" style="opacity:1.0;fill:none;stroke:rgb(255,0,0);stroke-width:1"/>
<polygon points="459.116,34.2779 575.895,44.1166 563.431,138.718 502.161,127.761 451.82,89.8454 451.607,88.6367" style="opacity:1.0;fill:none;stroke:rgb(255,0,0);stroke-width:1"/>
<polygon points="670.784,135.179 2178.91,244.782 723.798,290.271 635.565,153.191 660.707,138.205" style="opacity:1.0;fill:none;stroke:rgb(255,0,0);stroke-width:1"/>
<polygon points="598.262,22.5117 660.707,138.205 635.565,153.191 631.265,155.055 594.54,154.073 569.616,143.574 563.431,138.718 575.895,44.1166" style="opacity:1.0;fill:none;stroke:rgb(255,0,0);stroke-width:1"/>
<polygon points="619.184,-20.8639 598.262,22.5117 575.895,44.1166 459.116,34.2779 287.444,-804.898" style="opacity:1.0;fill:none;stroke:rgb(255,0,0);stroke-width:1"/>
<polygon points="619.184,-20.8639 669.786,69.376 670.784,135.179 660.707,138.205 598.262,22.5117" style="opacity:1.0;fill:none;stroke:rgb(255,0,0);stroke-width:1"/>
<polygon points="669.786,69.376 619.184,-20.8639" style="opacity:1.0;fill:none;stroke:rgb(255,0,0);stroke-width:1"/>
<polygon points="3452.59,271.457 2178.91,244.782 670.784,135.179 669.786,69.376" style="opacity:1.0;fill:none;stroke:rgb(255,0,0);stroke-width:1"/>
</svg>
