<?xml version="1.0" standalone="no"?>
<!DOCTYPE svg PUBLIC "-//W3C//DTD SVG 1.1//EN"
"http://www.w3.org/Graphics/SVG/1.1/DTD/svg11.dtd">
<svg viewBox="0 0 300 300" version="1.1"
xmlns="http://www.w3.org/2000/svg"
xmlns:xlink="http://www.w3.org/1999/xlink">
<g fill-rule="evenodd"><path d="M 150,150 L 200,150 L 202.454,150.06 L 204.901,150.241 L 207.337,150.541 L 209.755,150.961 L 212.149,151.498 L 214.514,152.153 L 216.845,152.923 L 219.134,153.806 L 221.378,154.8 L 223.57,155.904 L 225.705,157.113 L 227.779,158.426 L 229.785,159.839 L 231.719,161.349 L 233.578,162.952 L 235.356,164.644 L 237.047,166.422 L 238.651,168.281 L 240.161,170.215 L 241.574,172.221 L 242.887,174.295 L 244.096,176.43 L 245.2,178.622 L 246.194,180.866 L 247.077,183.155 L 247.847,185.486 L 248.502,187.851 L 249.04,190.245 L 249.459,192.663 L 249.759,195.099 L 249.94,197.546 L 250,200 L 250,250 L 249.94,252.453 L 249.759,254.901 L 249.459,257.337 L 249.04,259.755 L 248.502,262.149 L 247.847,264.514 L 247.077,266.844 L 246.194,269.134 L 245.2,271.378 L 244.096,273.57 L 242.887,275.705 L 241.574,277.779 L 240.161,279.785 L 238.651,281.719 L 237.047,283.578 L 235.356,285.356 L 233.578,287.048 L 231.719,288.651 L 229.785,290.161 L 227.779,291.573 L 225.705,292.887 L 223.57,294.096 L 221.378,295.2 L 219.134,296.194 L 216.845,297.077 L 214.514,297.847 L 212.149,298.501 L 209.755,299.039 L 207.337,299.459 L 204.901,299.759 L 202.454,299.94 L 200,300 L 150,300 L 100,300 L 97.5465,299.94 L 95.099,299.759 L 92.6635,299.459 L 90.2455,299.039 L 87.851,298.501 L 85.486,297.847 L 83.1555,297.077 L 80.866,296.194 L 78.622,295.2 L 76.43,294.096 L 74.295,292.887 L 72.2215,291.573 L 70.215,290.161 L 68.2805,288.651 L 66.422,287.048 L 64.6445,285.356 L 62.9525,283.578 L 61.3495,281.719 L 59.8395,279.785 L 58.4265,277.779 L 57.1135,275.705 L 55.904,273.57 L 54.8005,271.378 L 53.806,269.134 L 52.923,266.844 L 52.153,264.514 L 51.4985,262.149 L 50.9605,259.755 L 50.541,257.337 L 50.241,254.901 L 50.06,252.453 L 50,250 L 50,200 L 50.06,197.546 L 50.241,195.099 L 50.541,192.663 L 50.9605,190.245 L 51.4985,187.851 L 52.153,185.486 L 52.923,183.155 L 53.806,180.866 L 54.8005,178.622 L 55.904,176.43 L 57.1135,174.295 L 58.4265,172.221 L 59.8395,170.215 L 61.3495,168.281 L 62.9525,166.422 L 64.6445,164.644 L 66.422,162.952 L 68.2805,161.349 L 70.215,159.839 L 72.2215,158.426 L 74.295,157.113 L 76.43,155.904 L 78.622,154.8 L 80.866,153.806 L 83.1555,152.923 L 85.486,152.153 L 87.851,151.498 L 90.2455,150.961 L 92.6635,150.541 L 95.099,150.241 L 97.5465,150.06 L 100,150 L 97.5465,149.94 L 95.099,149.759 L 92.6635,149.459 L 90.2455,149.039 L 87.851,148.502 L 85.486,147.847 L 83.1555,147.077 L 80.866,146.194 L 78.622,145.2 L 76.43,144.096 L 74.295,142.887 L 72.2215,141.574 L 70.215,140.161 L 68.2805,138.651 L 66.422,137.048 L 64.6445,135.356 L 62.9525,133.578 L 61.3495,131.719 L 59.8395,129.785 L 58.4265,127.779 L 57.1135,125.705 L 55.904,123.57 L 54.8005,121.378 L 53.806,119.134 L 52.923,116.845 L 52.153,114.514 L 51.4985,112.149 L 50.9605,109.755 L 50.541,107.337 L 50.241,104.901 L 50.06,102.454 L 50,100 L 50,50 L 50.06,47.5465 L 50.241,45.099 L 50.541,42.6635 L 50.9605,40.2455 L 51.4985,37.851 L 52.153,35.486 L 52.923,33.1555 L 53.806,30.866 L 54.8005,28.622 L 55.904,26.43 L 57.1135,24.295 L 58.4265,22.2215 L 59.8395,20.215 L 61.3495,18.2805 L 62.9525,16.422 L 64.6445,14.6445 L 66.422,12.9525 L 68.2805,11.3495 L 70.215,9.8395 L 72.2215,8.4265 L 74.295,7.1135 L 76.43,5.904 L 78.622,4.8005 L 80.866,3.806 L 83.1555,2.923 L 85.486,2.153 L 87.851,1.4985 L 90.2455,0.9605 L 92.6635,0.541 L 95.099,0.241 L 97.5465,0.06 L 100,0 L 150,0 L 152.453,0.06 L 154.901,0.241 L 157.337,0.541 L 159.755,0.9605 L 162.149,1.4985 L 164.514,2.153 L 166.844,2.923 L 169.134,3.806 L 171.378,4.8005 L 173.57,5.904 L 175.705,7.1135 L 177.779,8.4265 L 179.785,9.8395 L 181.719,11.3495 L 183.578,12.9525 L 185.356,14.6445 L 187.048,16.422 L 188.651,18.2805 L 190.161,20.215 L 191.573,22.2215 L 192.887,24.295 L 194.096,26.43 L 195.2,28.622 L 196.194,30.866 L 197.077,33.1555 L 197.847,35.486 L 198.501,37.851 L 199.04,40.2455 L 199.459,42.6635 L 199.759,45.099 L 199.94,47.5465 L 200,50 L 200,100 L 199.94,102.454 L 199.759,104.901 L 199.459,107.337 L 199.04,109.755 L 198.501,112.149 L 197.847,114.514 L 197.077,116.845 L 196.194,119.134 L 195.2,121.378 L 194.096,123.57 L 192.887,125.705 L 191.573,127.779 L 190.161,129.785 L 188.651,131.719 L 187.048,133.578 L 185.356,135.356 L 183.578,137.048 L 181.719,138.651 L 179.785,140.161 L 177.779,141.574 L 175.705,142.887 L 173.57,144.096 L 171.378,145.2 L 169.134,146.194 L 166.844,147.077 L 164.514,147.847 L 162.149,148.502 L 159.755,149.039 L 157.337,149.459 L 154.901,149.759 L 152.453,149.94 L 150,150 z " style="fill-opacity:0.3;fill:rgb(0,0,255);stroke:rgb(51,51,153);stroke-width:1"/></g>
</svg>
