<?xml version="1.0" standalone="no"?>
<!DOCTYPE svg PUBLIC "-//W3C//DTD SVG 1.1//EN"
"http://www.w3.org/Graphics/SVG/1.1/DTD/svg11.dtd">
<svg  version="1.1" xmlns="http://www.w3.org/2000/svg" xmlns:xlink="http://www.w3.org/1999/xlink" viewBox="0 0 6 6">
<g title="A + B (CGAL EPECK)" fill-rule="evenodd">
<path d="M 4,2 L 4,2 L 4.20906,2.01096 L 4.41582,2.0437 L 4.61803,2.09789 L 4.81347,2.17291 L 5,2.26795 L 5.17557,2.38197 L 5.33826,2.51371 L 5.48629,2.66174 L 5.61803,2.82443 L 5.73205,3 L 5.82709,3.18653 L 5.90211,3.38197 L 5.9563,3.58418 L 5.98904,3.79094 L 6,4 L 5.98904,4.20906 L 5.9563,4.41582 L 5.90211,4.61803 L 5.82709,4.81347 L 5.73205,5 L 5.61803,5.17557 L 5.48629,5.33826 L 5.33826,5.48629 L 5.17557,5.61803 L 5,5.73205 L 4.81347,5.82709 L 4.61803,5.90211 L 4.41582,5.9563 L 4.20906,5.98904 L 4,6 L 3.79094,5.98904 L 3.58418,5.9563 L 3.38197,5.90211 L 3.18653,5.82709 L 3,5.73205 L 2.82443,5.61803 L 2.66174,5.48629 L 2.51371,5.33826 L 2.38197,5.17557 L 2.26795,5 L 2.17291,4.81347 L 2.09789,4.61803 L 2.0437,4.41582 L 2.01096,4.20906 L 2,4 L 1.79094,3.98904 L 1.58418,3.9563 L 1.38197,3.90211 L 1.18653,3.82709 L 1,3.73205 L 0.824429,3.61803 L 0.661739,3.48629 L 0.51371,3.33826 L 0.381966,3.17557 L 0.267949,3 L 0.172909,2.81347 L 0.097887,2.61803 L 0.0437048,2.41582 L 0.0109562,2.20906 L -0,2 L 0.0109562,1.79094 L 0.0437048,1.58418 L 0.097887,1.38197 L 0.172909,1.18653 L 0.267949,1 L 0.381966,0.824429 L 0.51371,0.661739 L 0.661739,0.51371 L 0.824429,0.381966 L 1,0.267949 L 1.18653,0.172909 L 1.38197,0.097887 L 1.58418,0.0437048 L 1.79094,0.0109562 L 2,-0 L 2.20906,0.0109562 L 2.41582,0.0437048 L 2.61803,0.097887 L 2.81347,0.172909 L 3,0.267949 L 3.17557,0.381966 L 3.33826,0.51371 L 3.48629,0.661739 L 3.61803,0.824429 L 3.73205,1 L 3.82709,1.18653 L 3.90211,1.38197 L 3.9563,1.58418 L 3.98904,1.79094 L 4,2 L 4,2 z" style="fill-opacity:0.3;fill:rgb(0,0,255);stroke:rgb(51,51,153);stroke-width:0.015000" />
</g></svg>