<?xml version="1.0" standalone="no"?>
<!DOCTYPE svg PUBLIC "-//W3C//DTD SVG 1.1//EN"
"http://www.w3.org/Graphics/SVG/1.1/DTD/svg11.dtd">
<svg  version="1.1" xmlns="http://www.w3.org/2000/svg" xmlns:xlink="http://www.w3.org/1999/xlink" viewBox="0 0 8 7">
<g title="A + B (CGAL EPECK)" fill-rule="evenodd">
<path d="M -0,2 L 0.00509577,1.85732 L 0.0203571,1.71537 L 0.0457063,1.57487 L 0.0810141,1.43653 L 0.126101,1.30107 L 0.180736,1.16917 L 0.244642,1.0415 L 0.317493,0.918718 L 0.398918,0.801445 L 0.488501,0.690279 L 0.585786,0.585786 L 0.690279,0.488501 L 0.801445,0.398918 L 0.918718,0.317493 L 1.0415,0.244642 L 1.16917,0.180736 L 1.30107,0.126101 L 1.43653,0.0810141 L 1.57487,0.0457063 L 1.71537,0.0203571 L 1.85732,0.00509577 L 2,-0 L 2.14268,0.00509577 L 2.28463,0.0203571 L 2.42513,0.0457063 L 2.56347,0.0810141 L 2.69893,0.126101 L 2.83083,0.180736 L 2.9585,0.244642 L 3.08128,0.317493 L 3.19856,0.398918 L 3.30972,0.488501 L 3.41421,0.585786 L 3.5115,0.690279 L 3.60108,0.801445 L 3.68251,0.918718 L 3.75536,1.0415 L 3.81926,1.16917 L 3.8739,1.30107 L 3.91899,1.43653 L 3.95429,1.57487 L 3.97964,1.71537 L 3.9949,1.85732 L 4,2 L 3.9949,2.14268 L 3.97964,2.28463 L 3.95429,2.42513 L 3.91899,2.56347 L 3.8739,2.69893 L 3.81926,2.83083 L 3.75536,2.9585 L 3.71888,3.01998 L 3.71537,3.02036 L 3.57487,3.04571 L 3.43653,3.08101 L 3.30107,3.1261 L 3.16917,3.18074 L 3.0415,3.24464 L 2.91872,3.31749 L 2.80144,3.39892 L 2.69028,3.4885 L 2.58579,3.58579 L 2.4885,3.69028 L 2.39892,3.80144 L 2.31749,3.91872 L 2.28112,3.98002 L 2.14268,3.9949 L 2,4 L 1.85732,3.9949 L 1.71537,3.97964 L 1.57487,3.95429 L 1.43653,3.91899 L 1.30107,3.8739 L 1.16917,3.81926 L 1.0415,3.75536 L 0.918718,3.68251 L 0.801445,3.60108 L 0.690279,3.5115 L 0.585786,3.41421 L 0.488501,3.30972 L 0.398918,3.19856 L 0.317493,3.08128 L 0.244642,2.9585 L 0.180736,2.83083 L 0.126101,2.69893 L 0.0810141,2.56347 L 0.0457063,2.42513 L 0.0203571,2.28463 L 0.00509577,2.14268 L -0,2 z" style="fill-opacity:0.3;fill:rgb(0,0,255);stroke:rgb(51,51,153);stroke-width:0.020000" />
</g></svg>