<?xml version="1.0" standalone="no"?>
<!DOCTYPE svg PUBLIC "-//W3C//DTD SVG 1.1//EN"
"http://www.w3.org/Graphics/SVG/1.1/DTD/svg11.dtd">
<svg viewBox="0 0 300 300" version="1.1"
xmlns="http://www.w3.org/2000/svg"
xmlns:xlink="http://www.w3.org/1999/xlink">
<g fill-rule="evenodd"><path d="M 100.000,66.6667 L 100.000,33.3333 L 100.040,31.6977 L 100.161,30.0660 L 100.361,28.4423 L 100.640,26.8303 L 100.999,25.2340 L 101.435,23.6573 L 101.949,22.1037 L 102.537,20.5773 L 103.200,19.0813 L 103.936,17.6200 L 104.742,16.1967 L 105.618,14.8143 L 106.560,13.4767 L 107.566,12.1870 L 108.635,10.9480 L 109.763,9.76300 L 110.948,8.63500 L 112.187,7.56633 L 113.477,6.55967 L 114.814,5.61767 L 116.197,4.74233 L 117.620,3.93600 L 119.081,3.20033 L 120.577,2.53733 L 122.104,1.94867 L 123.657,1.43533 L 125.234,0.99900 L 126.830,0.64033 L 128.442,0.36067 L 130.066,0.16067 L 131.698,0.04000 L 133.333,0 L 166.667,0 L 168.302,0.04000 L 169.934,0.16067 L 171.558,0.36067 L 173.170,0.64033 L 174.766,0.99900 L 176.343,1.43533 L 177.896,1.94867 L 179.423,2.53733 L 180.919,3.20033 L 182.380,3.93600 L 183.803,4.74233 L 185.186,5.61767 L 186.523,6.55967 L 187.813,7.56633 L 189.052,8.63500 L 190.237,9.76300 L 191.365,10.9480 L 192.434,12.1870 L 193.440,13.4767 L 194.382,14.8143 L 195.258,16.1967 L 196.064,17.6200 L 196.800,19.0813 L 197.463,20.5773 L 198.051,22.1037 L 198.565,23.6573 L 199.001,25.2340 L 199.360,26.8303 L 199.639,28.4423 L 199.839,30.0660 L 199.960,31.6977 L 200.000,33.3333 L 200.000,66.6667 L 199.960,68.3023 L 199.839,69.9340 L 199.639,71.5577 L 199.360,73.1697 L 199.001,74.7660 L 198.565,76.3427 L 198.051,77.8963 L 197.463,79.4227 L 196.800,80.9187 L 196.064,82.3800 L 195.258,83.8033 L 194.382,85.1857 L 193.440,86.5233 L 192.434,87.8130 L 191.365,89.0520 L 190.237,90.2370 L 189.052,91.3650 L 187.813,92.4337 L 186.523,93.4403 L 185.186,94.3823 L 183.803,95.2577 L 182.380,96.0640 L 180.919,96.7997 L 179.423,97.4627 L 177.896,98.0513 L 176.343,98.5647 L 174.766,99.0010 L 173.170,99.3597 L 171.558,99.6393 L 169.934,99.8393 L 168.302,99.9600 L 166.667,100.000 L 133.333,100.000 L 131.698,99.9600 L 130.066,99.8393 L 128.442,99.6393 L 126.830,99.3597 L 125.234,99.0010 L 123.657,98.5647 L 122.104,98.0513 L 120.577,97.4627 L 119.081,96.7997 L 117.620,96.0640 L 116.197,95.2577 L 114.814,94.3823 L 113.477,93.4403 L 112.187,92.4337 L 110.948,91.3650 L 109.763,90.2370 L 108.635,89.0520 L 107.566,87.8130 L 106.560,86.5233 L 105.618,85.1857 L 104.742,83.8033 L 103.936,82.3800 L 103.200,80.9187 L 102.537,79.4227 L 101.949,77.8963 L 101.435,76.3427 L 100.999,74.7660 L 100.640,73.1697 L 100.361,71.5577 L 100.161,69.9340 L 100.040,68.3023 L 100.000,66.6667 z " style="fill-opacity:0.3;fill:rgb(255,0,0);stroke:rgb(0,0,0);stroke-width:1"/></g>
<g fill-rule="evenodd"><path d="M 166.667,100.000 L 200.000,100.000 L 201.636,100.040 L 203.267,100.161 L 204.891,100.361 L 206.503,100.640 L 208.099,100.999 L 209.676,101.435 L 211.230,101.949 L 212.756,102.537 L 214.252,103.200 L 215.713,103.936 L 217.137,104.742 L 218.519,105.618 L 219.857,106.560 L 221.146,107.566 L 222.385,108.635 L 223.570,109.763 L 224.698,110.948 L 225.767,112.187 L 226.774,113.477 L 227.716,114.814 L 228.591,116.197 L 229.397,117.620 L 230.133,119.081 L 230.796,120.577 L 231.385,122.104 L 231.898,123.657 L 232.334,125.234 L 232.693,126.830 L 232.973,128.442 L 233.173,130.066 L 233.293,131.698 L 233.333,133.333 L 233.333,166.667 L 233.293,168.302 L 233.173,169.934 L 232.973,171.558 L 232.693,173.170 L 232.334,174.766 L 231.898,176.343 L 231.385,177.896 L 230.796,179.423 L 230.133,180.919 L 229.397,182.380 L 228.591,183.803 L 227.716,185.186 L 226.774,186.523 L 225.767,187.813 L 224.698,189.052 L 223.570,190.237 L 222.385,191.365 L 221.146,192.434 L 219.857,193.440 L 218.519,194.382 L 217.137,195.258 L 215.713,196.064 L 214.252,196.800 L 212.756,197.463 L 211.230,198.051 L 209.676,198.565 L 208.099,199.001 L 206.503,199.360 L 204.891,199.639 L 203.267,199.839 L 201.636,199.960 L 200.000,200.000 L 166.667,200.000 L 166.667,200.000 L 133.333,200.000 L 131.698,199.960 L 130.066,199.839 L 128.442,199.639 L 126.830,199.360 L 125.234,199.001 L 123.657,198.565 L 122.104,198.051 L 120.577,197.463 L 119.081,196.800 L 117.620,196.064 L 116.197,195.258 L 114.814,194.382 L 113.477,193.440 L 112.187,192.434 L 110.948,191.365 L 109.763,190.237 L 108.635,189.052 L 107.566,187.813 L 106.560,186.523 L 105.618,185.186 L 104.742,183.803 L 103.936,182.380 L 103.200,180.919 L 102.537,179.423 L 101.949,177.896 L 101.435,176.343 L 100.999,174.766 L 100.640,173.170 L 100.361,171.558 L 100.161,169.934 L 100.040,168.302 L 100.000,166.667 L 100.000,133.333 L 100.040,131.698 L 100.161,130.066 L 100.361,128.442 L 100.640,126.830 L 100.999,125.234 L 101.435,123.657 L 101.949,122.104 L 102.537,120.577 L 103.200,119.081 L 103.936,117.620 L 104.742,116.197 L 105.618,114.814 L 106.560,113.477 L 107.566,112.187 L 108.635,110.948 L 109.763,109.763 L 110.948,108.635 L 112.187,107.566 L 113.477,106.560 L 114.814,105.618 L 116.197,104.742 L 117.620,103.936 L 119.081,103.200 L 120.577,102.537 L 122.104,101.949 L 123.657,101.435 L 125.234,100.999 L 126.830,100.640 L 128.442,100.361 L 130.066,100.161 L 131.698,100.040 L 133.333,100.000 L 166.667,100.000 L 166.667,100.000 L 166.667,100.000 L 166.667,100.000 L 166.667,100.000 L 166.667,100.000 L 166.667,100.000 L 166.667,100.000 L 166.667,100.000 L 166.667,100.000 L 166.667,100.000 L 166.667,100.000 L 166.667,100.000 L 166.667,100.000 L 166.667,100.000 L 166.667,100.000 L 166.667,100.000 L 166.667,100.000 L 166.667,100.000 L 166.667,100.000 L 166.667,100.000 L 166.667,100.000 L 166.667,100.000 L 166.667,100.000 L 166.667,100.000 L 166.667,100.000 L 166.667,100.000 L 166.667,100.000 L 166.667,100.000 L 166.667,100.000 L 166.667,100.000 L 166.667,100.000 L 166.667,100.000 z " style="fill-opacity:0.3;fill:rgb(0,255,0);stroke:rgb(0,0,0);stroke-width:1"/></g>
</svg>
