<?xml version="1.0" standalone="no"?>
<!DOCTYPE svg PUBLIC "-//W3C//DTD SVG 1.1//EN"
"http://www.w3.org/Graphics/SVG/1.1/DTD/svg11.dtd">
<svg viewBox="0 0 300 300" version="1.1"
xmlns="http://www.w3.org/2000/svg"
xmlns:xlink="http://www.w3.org/1999/xlink">
<g fill-rule="evenodd"><path d="M 184.615,115.385 L 184.498,118.677 L 184.146,121.953 L 183.561,125.195 L 182.746,128.388 L 181.705,131.514 L 180.445,134.558 L 178.970,137.504 L 177.289,140.337 L 175.410,143.044 L 173.342,145.609 L 171.097,148.020 L 168.686,150.265 L 166.121,152.333 L 163.414,154.212 L 160.581,155.893 L 157.635,157.368 L 154.591,158.628 L 151.465,159.669 L 148.272,160.484 L 145.030,161.069 L 141.754,161.421 L 138.462,161.538 L 135.169,161.421 L 131.893,161.069 L 128.651,160.484 L 125.458,159.669 L 122.332,158.628 L 119.289,157.368 L 116.342,155.893 L 113.509,154.212 L 110.803,152.333 L 108.237,150.265 L 105.826,148.020 L 103.581,145.609 L 101.513,143.044 L 99.6345,140.337 L 97.9533,137.504 L 96.4785,134.558 L 95.2177,131.514 L 94.1772,128.388 L 93.3625,125.195 L 92.7775,121.953 L 92.4253,118.677 L 92.3077,115.385 L 92.4253,112.092 L 92.7775,108.816 L 93.3625,105.574 L 94.1772,102.382 L 95.2177,99.2555 L 96.4785,96.2116 L 97.9533,93.2654 L 99.6345,90.4320 L 101.513,87.7256 L 103.581,85.1603 L 105.826,82.7489 L 108.237,80.5039 L 110.803,78.4366 L 113.509,76.5575 L 116.342,74.8764 L 119.289,73.4016 L 122.332,72.1408 L 125.458,71.1003 L 128.651,70.2855 L 131.893,69.7005 L 135.169,69.3484 L 138.462,69.2308 L 141.754,69.3484 L 145.030,69.7005 L 148.272,70.2855 L 151.465,71.1003 L 154.591,72.1408 L 157.635,73.4016 L 160.581,74.8764 L 163.414,76.5575 L 166.121,78.4366 L 168.686,80.5039 L 171.097,82.7489 L 173.342,85.1603 L 175.410,87.7256 L 177.289,90.4320 L 178.970,93.2654 L 180.445,96.2116 L 181.705,99.2555 L 182.746,102.382 L 183.561,105.574 L 184.146,108.816 L 184.498,112.092 L 184.615,115.385 z " style="fill-opacity:0.3;fill:rgb(255,0,0);stroke:rgb(0,0,0);stroke-width:1"/></g>
<g fill-rule="evenodd"><path d="M 191.103,91.8466 L 187.908,92.1901 L 184.615,92.3077 L 181.323,92.1901 L 178.047,91.8379 L 174.805,91.2529 L 171.612,90.4381 L 168.486,89.3977 L 165.442,88.1369 L 162.496,86.6621 L 159.663,84.9809 L 156.956,83.1019 L 154.391,81.0346 L 151.980,78.7895 L 149.735,76.3782 L 147.667,73.8128 L 145.788,71.1065 L 144.107,68.2730 L 142.632,65.3268 L 141.372,62.2830 L 140.331,59.1569 L 139.516,55.9646 L 138.931,52.7222 L 138.579,49.4464 L 138.462,46.1538 L 138.579,42.8613 L 138.931,39.5855 L 139.516,36.3431 L 140.331,33.1508 L 141.372,30.0247 L 142.632,26.9808 L 144.107,24.0347 L 145.788,21.2012 L 147.667,18.4949 L 149.735,15.9295 L 151.980,13.5181 L 154.391,11.2731 L 156.956,9.20579 L 159.663,7.32676 L 162.496,5.64559 L 165.442,4.17083 L 168.486,2.91001 L 171.612,1.86956 L 174.805,1.05476 L 178.047,0.46978 L 181.323,0.11759 L 184.615,0 L 187.908,0.11759 L 191.184,0.46978 L 194.426,1.05476 L 197.618,1.86956 L 200.745,2.91001 L 203.788,4.17083 L 206.735,5.64559 L 209.568,7.32676 L 212.274,9.20579 L 214.840,11.2731 L 217.251,13.5181 L 219.496,15.9295 L 221.563,18.4949 L 223.442,21.2012 L 225.124,24.0347 L 226.598,26.9808 L 227.859,30.0247 L 228.900,33.1508 L 229.714,36.3431 L 230.299,39.5855 L 230.652,42.8613 L 230.769,46.1538 L 230.652,49.4464 L 230.299,52.7222 L 229.714,55.9646 L 228.900,59.1569 L 227.859,62.2830 L 226.598,65.3268 L 225.124,68.2730 L 224.282,69.6918 L 227.477,69.3484 L 230.769,69.2308 L 234.062,69.3484 L 237.338,69.7005 L 240.580,70.2855 L 243.772,71.1003 L 246.898,72.1408 L 249.942,73.4016 L 252.888,74.8764 L 255.722,76.5575 L 258.428,78.4366 L 260.994,80.5039 L 263.405,82.7489 L 265.650,85.1603 L 267.717,87.7256 L 269.596,90.4320 L 271.277,93.2654 L 272.752,96.2116 L 274.013,99.2555 L 275.054,102.382 L 275.868,105.574 L 276.453,108.816 L 276.805,112.092 L 276.923,115.385 L 276.805,118.677 L 276.453,121.953 L 275.868,125.195 L 275.054,128.388 L 274.013,131.514 L 272.752,134.558 L 271.277,137.504 L 269.596,140.337 L 267.717,143.044 L 265.650,145.609 L 263.405,148.020 L 260.994,150.265 L 258.428,152.333 L 255.722,154.212 L 252.888,155.893 L 249.942,157.368 L 246.898,158.628 L 243.772,159.669 L 240.580,160.484 L 237.338,161.069 L 234.062,161.421 L 230.769,161.538 L 227.477,161.421 L 224.201,161.069 L 220.959,160.484 L 217.766,159.669 L 214.640,158.628 L 211.596,157.368 L 208.650,155.893 L 205.817,154.212 L 203.110,152.333 L 200.545,150.265 L 198.134,148.020 L 195.888,145.609 L 193.821,143.044 L 191.942,140.337 L 190.261,137.504 L 188.786,134.558 L 187.525,131.514 L 186.485,128.388 L 185.670,125.195 L 185.085,121.953 L 184.733,118.677 L 184.615,115.385 L 184.733,112.092 L 185.085,108.816 L 185.670,105.574 L 186.485,102.382 L 187.525,99.2555 L 188.786,96.2116 L 190.261,93.2654 L 191.103,91.8466 z " style="fill-opacity:0.3;fill:rgb(0,255,0);stroke:rgb(0,0,0);stroke-width:1"/></g>
</svg>
