<?xml version="1.0" standalone="no"?>
<!DOCTYPE svg PUBLIC "-//W3C//DTD SVG 1.1//EN"
"http://www.w3.org/Graphics/SVG/1.1/DTD/svg11.dtd">
<svg  version="1.1" xmlns="http://www.w3.org/2000/svg" xmlns:xlink="http://www.w3.org/1999/xlink" viewBox="0 0 8 7">
<g title="A + B (CGAL EPECK)" fill-rule="evenodd">
<path d="M 7.9949,2.14268 L 7.97964,2.28463 L 7.95429,2.42513 L 7.91899,2.56347 L 7.8739,2.69893 L 7.81926,2.83083 L 7.75536,2.9585 L 7.68251,3.08128 L 7.60108,3.19856 L 7.5115,3.30972 L 7.41421,3.41421 L 7.30972,3.5115 L 7.19856,3.60108 L 7.08128,3.68251 L 6.9585,3.75536 L 6.83083,3.81926 L 6.69893,3.8739 L 6.56347,3.91899 L 6.42513,3.95429 L 6.28463,3.97964 L 6.14268,3.9949 L 6,4 L 5.85732,3.9949 L 5.71888,3.98002 L 5.75536,4.0415 L 5.81926,4.16917 L 5.8739,4.30107 L 5.91899,4.43653 L 5.95429,4.57487 L 5.97964,4.71537 L 5.9949,4.85732 L 6,5 L 5.9949,5.14268 L 5.97964,5.28463 L 5.95429,5.42513 L 5.91899,5.56347 L 5.8739,5.69893 L 5.81926,5.83083 L 5.75536,5.9585 L 5.68251,6.08128 L 5.60108,6.19856 L 5.5115,6.30972 L 5.41421,6.41421 L 5.30972,6.5115 L 5.19856,6.60108 L 5.08128,6.68251 L 4.9585,6.75536 L 4.83083,6.81926 L 4.69893,6.8739 L 4.56347,6.91899 L 4.42513,6.95429 L 4.28463,6.97964 L 4.14268,6.9949 L 4,7 L 3.85732,6.9949 L 3.71537,6.97964 L 3.57487,6.95429 L 3.43653,6.91899 L 3.30107,6.8739 L 3.16917,6.81926 L 3.0415,6.75536 L 2.91872,6.68251 L 2.80144,6.60108 L 2.69028,6.5115 L 2.58579,6.41421 L 2.4885,6.30972 L 2.39892,6.19856 L 2.31749,6.08128 L 2.24464,5.9585 L 2.18074,5.83083 L 2.1261,5.69893 L 2.08101,5.56347 L 2.04571,5.42513 L 2.02036,5.28463 L 2.0051,5.14268 L 2,5 L 2.0051,4.85732 L 2.02036,4.71537 L 2.04571,4.57487 L 2.08101,4.43653 L 2.1261,4.30107 L 2.18074,4.16917 L 2.24464,4.0415 L 2.28112,3.98002 L 2.14268,3.9949 L 2,4 L 1.85732,3.9949 L 1.71537,3.97964 L 1.57487,3.95429 L 1.43653,3.91899 L 1.30107,3.8739 L 1.16917,3.81926 L 1.0415,3.75536 L 0.918718,3.68251 L 0.801445,3.60108 L 0.690279,3.5115 L 0.585786,3.41421 L 0.488501,3.30972 L 0.398918,3.19856 L 0.317493,3.08128 L 0.244642,2.9585 L 0.180736,2.83083 L 0.126101,2.69893 L 0.0810141,2.56347 L 0.0457063,2.42513 L 0.0203571,2.28463 L 0.00509577,2.14268 L -0,2 L 0.00509577,1.85732 L 0.0203571,1.71537 L 0.0457063,1.57487 L 0.0810141,1.43653 L 0.126101,1.30107 L 0.180736,1.16917 L 0.244642,1.0415 L 0.317493,0.918718 L 0.398918,0.801445 L 0.488501,0.690279 L 0.585786,0.585786 L 0.690279,0.488501 L 0.801445,0.398918 L 0.918718,0.317493 L 1.0415,0.244642 L 1.16917,0.180736 L 1.30107,0.126101 L 1.43653,0.0810141 L 1.57487,0.0457063 L 1.71537,0.0203571 L 1.85732,0.00509577 L 2,-0 L 2.14268,0.00509577 L 2.28463,0.0203571 L 2.42513,0.0457063 L 2.56347,0.0810141 L 2.69893,0.126101 L 2.83083,0.180736 L 2.9585,0.244642 L 3.08128,0.317493 L 3.19856,0.398918 L 3.30972,0.488501 L 3.41421,0.585786 L 3.5115,0.690279 L 3.60108,0.801445 L 3.68251,0.918718 L 3.75536,1.0415 L 3.81926,1.16917 L 3.8739,1.30107 L 3.91899,1.43653 L 3.95429,1.57487 L 3.97964,1.71537 L 3.9949,1.85732 L 4,2 L 3.9949,2.14268 L 3.97964,2.28463 L 3.95429,2.42513 L 3.91899,2.56347 L 3.8739,2.69893 L 3.81926,2.83083 L 3.75536,2.9585 L 3.71888,3.01998 L 3.85732,3.0051 L 4,3 L 4.14268,3.0051 L 4.28112,3.01998 L 4.24464,2.9585 L 4.18074,2.83083 L 4.1261,2.69893 L 4.08101,2.56347 L 4.04571,2.42513 L 4.02036,2.28463 L 4.0051,2.14268 L 4,2 L 4.0051,1.85732 L 4.02036,1.71537 L 4.04571,1.57487 L 4.08101,1.43653 L 4.1261,1.30107 L 4.18074,1.16917 L 4.24464,1.0415 L 4.31749,0.918718 L 4.39892,0.801445 L 4.4885,0.690279 L 4.58579,0.585786 L 4.69028,0.488501 L 4.80144,0.398918 L 4.91872,0.317493 L 5.0415,0.244642 L 5.16917,0.180736 L 5.30107,0.126101 L 5.43653,0.0810141 L 5.57487,0.0457063 L 5.71537,0.0203571 L 5.85732,0.00509577 L 6,-0 L 6.14268,0.00509577 L 6.28463,0.0203571 L 6.42513,0.0457063 L 6.56347,0.0810141 L 6.69893,0.126101 L 6.83083,0.180736 L 6.9585,0.244642 L 7.08128,0.317493 L 7.19856,0.398918 L 7.30972,0.488501 L 7.41421,0.585786 L 7.5115,0.690279 L 7.60108,0.801445 L 7.68251,0.918718 L 7.75536,1.0415 L 7.81926,1.16917 L 7.8739,1.30107 L 7.91899,1.43653 L 7.95429,1.57487 L 7.97964,1.71537 L 7.9949,1.85732 L 8,2 L 7.9949,2.14268 z" style="fill-opacity:0.3;fill:rgb(0,0,255);stroke:rgb(51,51,153);stroke-width:0.020000" />
</g></svg>