<?xml version="1.0" standalone="no"?>
<!DOCTYPE svg PUBLIC "-//W3C//DTD SVG 1.1//EN"
"http://www.w3.org/Graphics/SVG/1.1/DTD/svg11.dtd">
<svg  version="1.1" xmlns="http://www.w3.org/2000/svg" xmlns:xlink="http://www.w3.org/1999/xlink" viewBox="0 0 8 7">
<g title="A + B (CGAL Real)" fill-rule="evenodd">
<path d="M 0,2.00000 L 0.00510,1.85732 L 0.02036,1.71537 L 0.04571,1.57487 L 0.08101,1.43653 L 0.12610,1.30107 L 0.18074,1.16917 L 0.24464,1.04150 L 0.31749,0.91872 L 0.39892,0.80144 L 0.48850,0.69028 L 0.58579,0.58579 L 0.69028,0.48850 L 0.80144,0.39892 L 0.91872,0.31749 L 1.04150,0.24464 L 1.16917,0.18074 L 1.30107,0.12610 L 1.43653,0.08101 L 1.57487,0.04571 L 1.71537,0.02036 L 1.85732,0.00510 L 2.00000,0 L 2.14268,0.00510 L 2.28463,0.02036 L 2.42513,0.04571 L 2.56347,0.08101 L 2.69893,0.12610 L 2.83083,0.18074 L 2.95850,0.24464 L 3.08128,0.31749 L 3.19856,0.39892 L 3.30972,0.48850 L 3.41421,0.58579 L 3.51150,0.69028 L 3.60108,0.80144 L 3.68251,0.91872 L 3.75536,1.04150 L 3.81926,1.16917 L 3.87390,1.30107 L 3.91899,1.43653 L 3.95429,1.57487 L 3.97964,1.71537 L 3.99490,1.85732 L 4.0,2.0 L 3.99490,2.14268 L 3.97964,2.28463 L 3.95429,2.42513 L 3.91899,2.56347 L 3.87390,2.69893 L 3.81926,2.83083 L 3.75536,2.95850 L 3.71888,3.01998 L 3.71537,3.02036 L 3.57487,3.04571 L 3.43653,3.08101 L 3.30107,3.12610 L 3.16917,3.18074 L 3.04150,3.24464 L 2.91872,3.31749 L 2.80144,3.39892 L 2.69028,3.48850 L 2.58579,3.58579 L 2.48850,3.69028 L 2.39892,3.80144 L 2.31749,3.91872 L 2.28112,3.98002 L 2.14268,3.99490 L 2.00000,4.0 L 1.85732,3.99490 L 1.71537,3.97964 L 1.57487,3.95429 L 1.43653,3.91899 L 1.30107,3.87390 L 1.16917,3.81926 L 1.04150,3.75536 L 0.91872,3.68251 L 0.80144,3.60108 L 0.69028,3.51150 L 0.58579,3.41421 L 0.48850,3.30972 L 0.39892,3.19856 L 0.31749,3.08128 L 0.24464,2.95850 L 0.18074,2.83083 L 0.12610,2.69893 L 0.08101,2.56347 L 0.04571,2.42513 L 0.02036,2.28463 L 0.00510,2.14268 L 0,2.00000 z" style="fill-opacity:0.3;fill:rgb(0,0,255);stroke:rgb(51,51,153);stroke-width:0.020000" />
</g></svg>