<?xml version="1.0" standalone="no"?>
<!DOCTYPE svg PUBLIC "-//W3C//DTD SVG 1.1//EN"
"http://www.w3.org/Graphics/SVG/1.1/DTD/svg11.dtd">
<svg viewBox="0 0 300 300" version="1.1"
xmlns="http://www.w3.org/2000/svg"
xmlns:xlink="http://www.w3.org/1999/xlink">
<g fill-rule="evenodd"><path d="M 233.333,133.333 L 232.968,140.302 L 231.877,147.194 L 230.070,153.934 L 227.570,160.449 L 224.402,166.667 L 220.601,172.519 L 216.210,177.942 L 211.275,182.876 L 205.852,187.268 L 200.000,191.068 L 193.782,194.236 L 187.268,196.737 L 180.527,198.543 L 173.635,199.635 L 166.667,200.000 L 159.698,199.635 L 152.806,198.543 L 146.066,196.737 L 139.551,194.236 L 133.333,191.068 L 127.481,187.268 L 122.058,182.876 L 117.124,177.942 L 112.732,172.519 L 108.932,166.667 L 105.764,160.449 L 103.263,153.934 L 101.457,147.194 L 100.365,140.302 L 1.000000e+2,133.333 L 100.365,126.365 L 101.457,119.473 L 103.263,112.732 L 105.764,106.218 L 108.932,100.000 L 112.732,94.1476 L 117.124,88.7246 L 122.058,83.7903 L 127.481,79.3989 L 133.333,75.5983 L 139.551,72.4303 L 146.066,69.9296 L 152.806,68.1235 L 159.698,67.0319 L 166.667,66.6667 L 173.635,67.0319 L 180.527,68.1235 L 187.268,69.9296 L 193.782,72.4303 L 200.000,75.5983 L 205.852,79.3989 L 211.275,83.7903 L 216.210,88.7246 L 220.601,94.1476 L 224.402,100.000 L 227.570,106.218 L 230.070,112.732 L 231.877,119.473 L 232.968,126.365 L 233.333,133.333 z " style="fill-opacity:0.3;fill:rgb(255,0,0);stroke:rgb(0,0,0);stroke-width:1"/></g>
<g fill-rule="evenodd"><path d="M 300.000,66.6667 L 299.635,73.6352 L 298.543,80.5274 L 296.737,87.2678 L 294.236,93.7824 L 291.068,100.000 L 287.268,105.852 L 282.876,111.275 L 277.942,116.210 L 272.519,120.601 L 266.667,124.402 L 260.449,127.570 L 253.934,130.070 L 247.194,131.877 L 240.302,132.968 L 233.333,133.333 L 226.365,132.968 L 219.473,131.877 L 212.732,130.070 L 206.218,127.570 L 200.000,124.402 L 194.148,120.601 L 188.725,116.210 L 183.790,111.275 L 179.399,105.852 L 175.598,100.000 L 172.430,93.7824 L 169.930,87.2678 L 168.123,80.5274 L 167.032,73.6352 L 166.667,66.6667 L 167.032,59.6981 L 168.123,52.8059 L 169.930,46.0655 L 172.430,39.5509 L 175.598,33.3333 L 179.399,27.4810 L 183.790,22.0580 L 188.725,17.1237 L 194.148,12.7322 L 200.000,8.93164 L 206.218,5.76364 L 212.732,3.26290 L 219.473,1.45683 L 226.365,0.36521 L 233.333,0 L 240.302,0.36521 L 247.194,1.45683 L 253.934,3.26290 L 260.449,5.76364 L 266.667,8.93164 L 272.519,12.7322 L 277.942,17.1237 L 282.876,22.0580 L 287.268,27.4810 L 291.068,33.3333 L 294.236,39.5509 L 296.737,46.0655 L 298.543,52.8059 L 299.635,59.6981 L 300.000,66.6667 z " style="fill-opacity:0.3;fill:rgb(0,255,0);stroke:rgb(0,0,0);stroke-width:1"/></g>
</svg>
