<?xml version="1.0" standalone="no"?>
<!DOCTYPE svg PUBLIC "-//W3C//DTD SVG 1.1//EN"
"http://www.w3.org/Graphics/SVG/1.1/DTD/svg11.dtd">
<svg  version="1.1" xmlns="http://www.w3.org/2000/svg" xmlns:xlink="http://www.w3.org/1999/xlink" viewBox="0 0 4 6">
<g title="A + B (CGAL EPECK)" fill-rule="evenodd">
<path d="M 2.00000,3.00000 L 3.0,3.0 L 3.04907,2.99880 L 3.09802,2.99518 L 3.14673,2.98918 L 3.19509,2.98079 L 3.24298,2.97003 L 3.29028,2.95694 L 3.33689,2.94154 L 3.38268,2.92388 L 3.42756,2.90399 L 3.47140,2.88192 L 3.51410,2.85773 L 3.55557,2.83147 L 3.59570,2.80321 L 3.63439,2.77301 L 3.67156,2.74095 L 3.70711,2.70711 L 3.74095,2.67156 L 3.77301,2.63439 L 3.80321,2.59570 L 3.83147,2.55557 L 3.85773,2.51410 L 3.88192,2.47140 L 3.90399,2.42756 L 3.92388,2.38268 L 3.94154,2.33689 L 3.95694,2.29028 L 3.97003,2.24298 L 3.98079,2.19509 L 3.98918,2.14673 L 3.99518,2.09802 L 3.99880,2.04907 L 4.0,2.0 L 4.0,1.0 L 3.99880,0.95093 L 3.99518,0.90198 L 3.98918,0.85327 L 3.98079,0.80491 L 3.97003,0.75702 L 3.95694,0.70972 L 3.94154,0.66311 L 3.92388,0.61732 L 3.90399,0.57244 L 3.88192,0.52860 L 3.85773,0.48590 L 3.83147,0.44443 L 3.80321,0.40430 L 3.77301,0.36561 L 3.74095,0.32844 L 3.70711,0.29289 L 3.67156,0.25905 L 3.63439,0.22699 L 3.59570,0.19679 L 3.55557,0.16853 L 3.51410,0.14227 L 3.47140,0.11808 L 3.42756,0.09601 L 3.38268,0.07612 L 3.33689,0.05846 L 3.29028,0.04306 L 3.24298,0.02997 L 3.19509,0.01921 L 3.14673,0.01082 L 3.09802,0.00482 L 3.04907,0.00120 L 3.0,0 L 2.0,0 L 1.0,0 L 0.95093,0.00120 L 0.90198,0.00482 L 0.85327,0.01082 L 0.80491,0.01921 L 0.75702,0.02997 L 0.70972,0.04306 L 0.66311,0.05846 L 0.61732,0.07612 L 0.57244,0.09601 L 0.52860,0.11808 L 0.48590,0.14227 L 0.44443,0.16853 L 0.40430,0.19679 L 0.36561,0.22699 L 0.32844,0.25905 L 0.29289,0.29289 L 0.25905,0.32844 L 0.22699,0.36561 L 0.19679,0.40430 L 0.16853,0.44443 L 0.14227,0.48590 L 0.11808,0.52860 L 0.09601,0.57244 L 0.07612,0.61732 L 0.05846,0.66311 L 0.04306,0.70972 L 0.02997,0.75702 L 0.01921,0.80491 L 0.01082,0.85327 L 0.00482,0.90198 L 0.00120,0.95093 L 0,1.0 L 0,2.0 L 0.00120,2.04907 L 0.00482,2.09802 L 0.01082,2.14673 L 0.01921,2.19509 L 0.02997,2.24298 L 0.04306,2.29028 L 0.05846,2.33689 L 0.07612,2.38268 L 0.09601,2.42756 L 0.11808,2.47140 L 0.14227,2.51410 L 0.16853,2.55557 L 0.19679,2.59570 L 0.22699,2.63439 L 0.25905,2.67156 L 0.29289,2.70711 L 0.32844,2.74095 L 0.36561,2.77301 L 0.40430,2.80321 L 0.44443,2.83147 L 0.48590,2.85773 L 0.52860,2.88192 L 0.57244,2.90399 L 0.61732,2.92388 L 0.66311,2.94154 L 0.70972,2.95694 L 0.75702,2.97003 L 0.80491,2.98079 L 0.85327,2.98918 L 0.90198,2.99518 L 0.95093,2.99880 L 1.0,3.0 L 0.95093,3.00120 L 0.90198,3.00482 L 0.85327,3.01082 L 0.80491,3.01921 L 0.75702,3.02997 L 0.70972,3.04306 L 0.66311,3.05846 L 0.61732,3.07612 L 0.57244,3.09601 L 0.52860,3.11808 L 0.48590,3.14227 L 0.44443,3.16853 L 0.40430,3.19679 L 0.36561,3.22699 L 0.32844,3.25905 L 0.29289,3.29289 L 0.25905,3.32844 L 0.22699,3.36561 L 0.19679,3.40430 L 0.16853,3.44443 L 0.14227,3.48590 L 0.11808,3.52860 L 0.09601,3.57244 L 0.07612,3.61732 L 0.05846,3.66311 L 0.04306,3.70972 L 0.02997,3.75702 L 0.01921,3.80491 L 0.01082,3.85327 L 0.00482,3.90198 L 0.00120,3.95093 L 0,4.0 L 0,5.0 L 0.00120,5.04907 L 0.00482,5.09802 L 0.01082,5.14673 L 0.01921,5.19509 L 0.02997,5.24298 L 0.04306,5.29028 L 0.05846,5.33689 L 0.07612,5.38268 L 0.09601,5.42756 L 0.11808,5.47140 L 0.14227,5.51410 L 0.16853,5.55557 L 0.19679,5.59570 L 0.22699,5.63439 L 0.25905,5.67156 L 0.29289,5.70711 L 0.32844,5.74095 L 0.36561,5.77301 L 0.40430,5.80321 L 0.44443,5.83147 L 0.48590,5.85773 L 0.52860,5.88192 L 0.57244,5.90399 L 0.61732,5.92388 L 0.66311,5.94154 L 0.70972,5.95694 L 0.75702,5.97003 L 0.80491,5.98079 L 0.85327,5.98918 L 0.90198,5.99518 L 0.95093,5.99880 L 1.0,6.0 L 2.0,6.0 L 2.04907,5.99880 L 2.09802,5.99518 L 2.14673,5.98918 L 2.19509,5.98079 L 2.24298,5.97003 L 2.29028,5.95694 L 2.33689,5.94154 L 2.38268,5.92388 L 2.42756,5.90399 L 2.47140,5.88192 L 2.51410,5.85773 L 2.55557,5.83147 L 2.59570,5.80321 L 2.63439,5.77301 L 2.67156,5.74095 L 2.70711,5.70711 L 2.74095,5.67156 L 2.77301,5.63439 L 2.80321,5.59570 L 2.83147,5.55557 L 2.85773,5.51410 L 2.88192,5.47140 L 2.90399,5.42756 L 2.92388,5.38268 L 2.94154,5.33689 L 2.95694,5.29028 L 2.97003,5.24298 L 2.98079,5.19509 L 2.98918,5.14673 L 2.99518,5.09802 L 2.99880,5.04907 L 3.0,5.0 L 3.0,4.0 L 2.99880,3.95093 L 2.99518,3.90198 L 2.98918,3.85327 L 2.98079,3.80491 L 2.97003,3.75702 L 2.95694,3.70972 L 2.94154,3.66311 L 2.92388,3.61732 L 2.90399,3.57244 L 2.88192,3.52860 L 2.85773,3.48590 L 2.83147,3.44443 L 2.80321,3.40430 L 2.77301,3.36561 L 2.74095,3.32844 L 2.70711,3.29289 L 2.67156,3.25905 L 2.63439,3.22699 L 2.59570,3.19679 L 2.55557,3.16853 L 2.51410,3.14227 L 2.47140,3.11808 L 2.42756,3.09601 L 2.38268,3.07612 L 2.33689,3.05846 L 2.29028,3.04306 L 2.24298,3.02997 L 2.19509,3.01921 L 2.14673,3.01082 L 2.09802,3.00482 L 2.04907,3.00120 L 2.00000,3.00000 z" style="fill-opacity:0.3;fill:rgb(0,0,255);stroke:rgb(51,51,153);stroke-width:0.015000" />
</g></svg>