<?xml version="1.0" standalone="no"?>
<!DOCTYPE svg PUBLIC "-//W3C//DTD SVG 1.1//EN"
"http://www.w3.org/Graphics/SVG/1.1/DTD/svg11.dtd">
<svg viewBox="0 0 300 300" version="1.1"
xmlns="http://www.w3.org/2000/svg"
xmlns:xlink="http://www.w3.org/1999/xlink">
<g fill-rule="evenodd"><path d="M 150,206.25 L 149.809,211.6 L 149.237,216.924 L 148.286,222.192 L 146.962,227.38 L 145.271,232.46 L 143.222,237.406 L 140.826,242.194 L 138.094,246.798 L 135.041,251.196 L 131.681,255.365 L 128.033,259.283 L 124.115,262.931 L 119.946,266.291 L 115.548,269.344 L 110.944,272.076 L 106.156,274.472 L 101.21,276.521 L 96.1299,278.212 L 90.9424,279.536 L 85.6736,280.487 L 80.3504,281.059 L 75,281.25 L 69.6496,281.059 L 64.3264,280.487 L 59.0576,279.536 L 53.8701,278.212 L 48.7902,276.521 L 43.8439,274.472 L 39.0563,272.076 L 34.4519,269.344 L 30.0542,266.291 L 25.8854,262.931 L 21.967,259.283 L 18.3188,255.365 L 14.9594,251.196 L 11.906,246.798 L 9.17408,242.194 L 6.7776,237.406 L 4.72877,232.46 L 3.03803,227.38 L 1.71399,222.192 L 0.763392,216.924 L 0.191091,211.6 L 0,206.25 L 0.191091,200.9 L 0.763392,195.576 L 1.71399,190.308 L 3.03803,185.12 L 4.72877,180.04 L 6.7776,175.094 L 9.17408,170.306 L 11.906,165.702 L 14.9594,161.304 L 18.3188,157.135 L 21.967,153.217 L 25.8854,149.569 L 30.0542,146.209 L 34.4519,143.156 L 39.0563,140.424 L 43.8439,138.028 L 48.7902,135.979 L 53.8701,134.288 L 59.0576,132.964 L 64.3264,132.013 L 69.6496,131.441 L 75,131.25 L 80.3504,131.441 L 85.6736,132.013 L 90.9424,132.964 L 96.1299,134.288 L 101.21,135.979 L 106.156,138.028 L 110.944,140.424 L 115.548,143.156 L 119.946,146.209 L 124.115,149.569 L 128.033,153.217 L 131.681,157.135 L 135.041,161.304 L 138.094,165.702 L 140.826,170.306 L 143.222,175.094 L 145.271,180.04 L 146.962,185.12 L 148.286,190.308 L 149.237,195.576 L 149.809,200.9 L 150,206.25 z " style="fill-opacity:0.3;fill:rgb(255,0,0);stroke:rgb(0,0,0);stroke-width:1"/></g>
<g fill-rule="evenodd"><path d="M 160.542,168.001 L 155.35,168.559 L 150,168.75 L 144.65,168.559 L 139.326,167.987 L 134.058,167.036 L 128.87,165.712 L 123.79,164.021 L 118.844,161.972 L 114.056,159.576 L 109.452,156.844 L 105.054,153.791 L 100.885,150.431 L 96.967,146.783 L 93.3188,142.865 L 89.9594,138.696 L 86.906,134.298 L 84.1741,129.694 L 81.7776,124.906 L 79.7288,119.96 L 78.038,114.88 L 76.714,109.692 L 75.7634,104.424 L 75.1911,99.1004 L 75,93.75 L 75.1911,88.3996 L 75.7634,83.0764 L 76.714,77.8076 L 78.038,72.6201 L 79.7288,67.5402 L 81.7776,62.5939 L 84.1741,57.8063 L 86.906,53.2019 L 89.9594,48.8042 L 93.3188,44.6354 L 96.967,40.717 L 100.885,37.0688 L 105.054,33.7094 L 109.452,30.656 L 114.056,27.9241 L 118.844,25.5276 L 123.79,23.4788 L 128.87,21.788 L 134.058,20.464 L 139.326,19.5134 L 144.65,18.9411 L 150,18.75 L 155.35,18.9411 L 160.674,19.5134 L 165.942,20.464 L 171.13,21.788 L 176.21,23.4788 L 181.156,25.5276 L 185.944,27.9241 L 190.548,30.656 L 194.946,33.7094 L 199.115,37.0688 L 203.033,40.717 L 206.681,44.6354 L 210.041,48.8042 L 213.094,53.2019 L 215.826,57.8063 L 218.222,62.5939 L 220.271,67.5402 L 221.962,72.6201 L 223.286,77.8076 L 224.237,83.0764 L 224.809,88.3996 L 225,93.75 L 224.809,99.1004 L 224.237,104.424 L 223.286,109.692 L 221.962,114.88 L 220.271,119.96 L 218.222,124.906 L 215.826,129.694 L 214.458,131.999 L 219.65,131.441 L 225,131.25 L 230.35,131.441 L 235.674,132.013 L 240.942,132.964 L 246.13,134.288 L 251.21,135.979 L 256.156,138.028 L 260.944,140.424 L 265.548,143.156 L 269.946,146.209 L 274.115,149.569 L 278.033,153.217 L 281.681,157.135 L 285.041,161.304 L 288.094,165.702 L 290.826,170.306 L 293.222,175.094 L 295.271,180.04 L 296.962,185.12 L 298.286,190.308 L 299.237,195.576 L 299.809,200.9 L 300,206.25 L 299.809,211.6 L 299.237,216.924 L 298.286,222.192 L 296.962,227.38 L 295.271,232.46 L 293.222,237.406 L 290.826,242.194 L 288.094,246.798 L 285.041,251.196 L 281.681,255.365 L 278.033,259.283 L 274.115,262.931 L 269.946,266.291 L 265.548,269.344 L 260.944,272.076 L 256.156,274.472 L 251.21,276.521 L 246.13,278.212 L 240.942,279.536 L 235.674,280.487 L 230.35,281.059 L 225,281.25 L 219.65,281.059 L 214.326,280.487 L 209.058,279.536 L 203.87,278.212 L 198.79,276.521 L 193.844,274.472 L 189.056,272.076 L 184.452,269.344 L 180.054,266.291 L 175.885,262.931 L 171.967,259.283 L 168.319,255.365 L 164.959,251.196 L 161.906,246.798 L 159.174,242.194 L 156.778,237.406 L 154.729,232.46 L 153.038,227.38 L 151.714,222.192 L 150.763,216.924 L 150.191,211.6 L 150,206.25 L 150.191,200.9 L 150.763,195.576 L 151.714,190.308 L 153.038,185.12 L 154.729,180.04 L 156.778,175.094 L 159.174,170.306 L 160.542,168.001 z " style="fill-opacity:0.3;fill:rgb(0,255,0);stroke:rgb(0,0,0);stroke-width:1"/></g>
</svg>
