<?xml version="1.0" standalone="no"?>
<!DOCTYPE svg PUBLIC "-//W3C//DTD SVG 1.1//EN"
"http://www.w3.org/Graphics/SVG/1.1/DTD/svg11.dtd">
<svg viewBox="0 0 300 300" version="1.1"
xmlns="http://www.w3.org/2000/svg"
xmlns:xlink="http://www.w3.org/1999/xlink">
<g fill-rule="evenodd"><path d="M 100,100 L 110.453,100.548 L 120.791,102.185 L 130.902,104.894 L 140.674,108.645 L 150,113.397 L 158.779,119.098 L 166.913,125.686 L 174.314,133.087 L 180.902,141.221 L 186.603,150 L 191.355,159.326 L 195.106,169.098 L 197.815,179.209 L 199.452,189.547 L 200,200 L 189.547,199.452 L 179.209,197.815 L 169.098,195.106 L 159.326,191.355 L 150,186.603 L 141.221,180.902 L 133.087,174.314 L 125.686,166.913 L 119.098,158.779 L 113.397,150 L 108.645,140.674 L 104.894,130.902 L 102.185,120.791 L 100.548,110.453 L 100,100 z " style="fill-opacity:0.3;fill:rgb(0,0,255);stroke:rgb(51,51,153);stroke-width:1"/></g>
</svg>
