<?xml version="1.0" standalone="no"?>
<!DOCTYPE svg PUBLIC "-//W3C//DTD SVG 1.1//EN"
"http://www.w3.org/Graphics/SVG/1.1/DTD/svg11.dtd">
<svg viewBox="0 0 300 300" version="1.1"
xmlns="http://www.w3.org/2000/svg"
xmlns:xlink="http://www.w3.org/1999/xlink">
<g fill-rule="evenodd"><path d="M 100,100 L 100.548,110.453 L 102.185,120.791 L 104.894,130.902 L 108.645,140.674 L 113.397,150 L 119.098,158.779 L 125.686,166.913 L 133.087,174.314 L 141.221,180.902 L 150,186.603 L 159.326,191.355 L 169.098,195.106 L 179.209,197.815 L 189.547,199.452 L 200,200 L 199.452,210.453 L 197.815,220.791 L 195.106,230.902 L 191.355,240.674 L 186.603,250 L 180.902,258.779 L 174.314,266.913 L 166.913,274.314 L 158.779,280.902 L 150,286.603 L 140.674,291.355 L 130.902,295.106 L 120.791,297.815 L 110.453,299.452 L 100,300 L 89.5472,299.452 L 79.2088,297.815 L 69.0983,295.106 L 59.3263,291.355 L 50,286.603 L 41.2215,280.902 L 33.0869,274.314 L 25.6855,266.913 L 19.0983,258.779 L 13.3975,250 L 8.64545,240.674 L 4.89435,230.902 L 2.18524,220.791 L 0.54781,210.453 L 0,200 L 0.54781,189.547 L 2.18524,179.209 L 4.89435,169.098 L 8.64545,159.326 L 13.3975,150 L 19.0983,141.221 L 25.6855,133.087 L 33.0869,125.686 L 41.2215,119.098 L 50,113.397 L 59.3263,108.645 L 69.0983,104.894 L 79.2088,102.185 L 89.5472,100.548 L 100,100 z " style="fill-opacity:0.3;fill:rgb(0,0,255);stroke:rgb(51,51,153);stroke-width:1"/></g>
</svg>
