<?xml version="1.0" standalone="no"?>
<!DOCTYPE svg PUBLIC "-//W3C//DTD SVG 1.1//EN"
"http://www.w3.org/Graphics/SVG/1.1/DTD/svg11.dtd">
<svg  version="1.1" xmlns="http://www.w3.org/2000/svg" xmlns:xlink="http://www.w3.org/1999/xlink" viewBox="0 0 8 7">
<g title="A + B (CGAL Real)" fill-rule="evenodd">
<path d="M 7.99490,2.14268 L 7.97964,2.28463 L 7.95429,2.42513 L 7.91899,2.56347 L 7.87390,2.69893 L 7.81926,2.83083 L 7.75536,2.95850 L 7.68251,3.08128 L 7.60108,3.19856 L 7.51150,3.30972 L 7.41421,3.41421 L 7.30972,3.51150 L 7.19856,3.60108 L 7.08128,3.68251 L 6.95850,3.75536 L 6.83083,3.81926 L 6.69893,3.87390 L 6.56347,3.91899 L 6.42513,3.95429 L 6.28463,3.97964 L 6.14268,3.99490 L 6.00000,4.0 L 5.85732,3.99490 L 5.71888,3.98002 L 5.75536,4.04150 L 5.81926,4.16917 L 5.87390,4.30107 L 5.91899,4.43653 L 5.95429,4.57487 L 5.97964,4.71537 L 5.99490,4.85732 L 6.0,5.0 L 5.99490,5.14268 L 5.97964,5.28463 L 5.95429,5.42513 L 5.91899,5.56347 L 5.87390,5.69893 L 5.81926,5.83083 L 5.75536,5.95850 L 5.68251,6.08128 L 5.60108,6.19856 L 5.51150,6.30972 L 5.41421,6.41421 L 5.30972,6.51150 L 5.19856,6.60108 L 5.08128,6.68251 L 4.95850,6.75536 L 4.83083,6.81926 L 4.69893,6.87390 L 4.56347,6.91899 L 4.42513,6.95429 L 4.28463,6.97964 L 4.14268,6.99490 L 4.00000,7.0 L 3.85732,6.99490 L 3.71537,6.97964 L 3.57487,6.95429 L 3.43653,6.91899 L 3.30107,6.87390 L 3.16917,6.81926 L 3.04150,6.75536 L 2.91872,6.68251 L 2.80144,6.60108 L 2.69028,6.51150 L 2.58579,6.41421 L 2.48850,6.30972 L 2.39892,6.19856 L 2.31749,6.08128 L 2.24464,5.95850 L 2.18074,5.83083 L 2.12610,5.69893 L 2.08101,5.56347 L 2.04571,5.42513 L 2.02036,5.28463 L 2.00510,5.14268 L 2.0,5.0 L 2.00510,4.85732 L 2.02036,4.71537 L 2.04571,4.57487 L 2.08101,4.43653 L 2.12610,4.30107 L 2.18074,4.16917 L 2.24464,4.04150 L 2.28112,3.98002 L 2.14268,3.99490 L 2.00000,4.0 L 1.85732,3.99490 L 1.71537,3.97964 L 1.57487,3.95429 L 1.43653,3.91899 L 1.30107,3.87390 L 1.16917,3.81926 L 1.04150,3.75536 L 0.91872,3.68251 L 0.80144,3.60108 L 0.69028,3.51150 L 0.58579,3.41421 L 0.48850,3.30972 L 0.39892,3.19856 L 0.31749,3.08128 L 0.24464,2.95850 L 0.18074,2.83083 L 0.12610,2.69893 L 0.08101,2.56347 L 0.04571,2.42513 L 0.02036,2.28463 L 0.00510,2.14268 L 0,2.00000 L 0.00510,1.85732 L 0.02036,1.71537 L 0.04571,1.57487 L 0.08101,1.43653 L 0.12610,1.30107 L 0.18074,1.16917 L 0.24464,1.04150 L 0.31749,0.91872 L 0.39892,0.80144 L 0.48850,0.69028 L 0.58579,0.58579 L 0.69028,0.48850 L 0.80144,0.39892 L 0.91872,0.31749 L 1.04150,0.24464 L 1.16917,0.18074 L 1.30107,0.12610 L 1.43653,0.08101 L 1.57487,0.04571 L 1.71537,0.02036 L 1.85732,0.00510 L 2.00000,0 L 2.14268,0.00510 L 2.28463,0.02036 L 2.42513,0.04571 L 2.56347,0.08101 L 2.69893,0.12610 L 2.83083,0.18074 L 2.95850,0.24464 L 3.08128,0.31749 L 3.19856,0.39892 L 3.30972,0.48850 L 3.41421,0.58579 L 3.51150,0.69028 L 3.60108,0.80144 L 3.68251,0.91872 L 3.75536,1.04150 L 3.81926,1.16917 L 3.87390,1.30107 L 3.91899,1.43653 L 3.95429,1.57487 L 3.97964,1.71537 L 3.99490,1.85732 L 4.0,2.0 L 3.99490,2.14268 L 3.97964,2.28463 L 3.95429,2.42513 L 3.91899,2.56347 L 3.87390,2.69893 L 3.81926,2.83083 L 3.75536,2.95850 L 3.71888,3.01998 L 3.85732,3.00510 L 4.00000,3.0 L 4.14268,3.00510 L 4.28112,3.01998 L 4.24464,2.95850 L 4.18074,2.83083 L 4.12610,2.69893 L 4.08101,2.56347 L 4.04571,2.42513 L 4.02036,2.28463 L 4.00510,2.14268 L 4.0,2.00000 L 4.00510,1.85732 L 4.02036,1.71537 L 4.04571,1.57487 L 4.08101,1.43653 L 4.12610,1.30107 L 4.18074,1.16917 L 4.24464,1.04150 L 4.31749,0.91872 L 4.39892,0.80144 L 4.48850,0.69028 L 4.58579,0.58579 L 4.69028,0.48850 L 4.80144,0.39892 L 4.91872,0.31749 L 5.04150,0.24464 L 5.16917,0.18074 L 5.30107,0.12610 L 5.43653,0.08101 L 5.57487,0.04571 L 5.71537,0.02036 L 5.85732,0.00510 L 6.00000,0 L 6.14268,0.00510 L 6.28463,0.02036 L 6.42513,0.04571 L 6.56347,0.08101 L 6.69893,0.12610 L 6.83083,0.18074 L 6.95850,0.24464 L 7.08128,0.31749 L 7.19856,0.39892 L 7.30972,0.48850 L 7.41421,0.58579 L 7.51150,0.69028 L 7.60108,0.80144 L 7.68251,0.91872 L 7.75536,1.04150 L 7.81926,1.16917 L 7.87390,1.30107 L 7.91899,1.43653 L 7.95429,1.57487 L 7.97964,1.71537 L 7.99490,1.85732 L 8.0,2.0 L 7.99490,2.14268 z" style="fill-opacity:0.3;fill:rgb(0,0,255);stroke:rgb(51,51,153);stroke-width:0.020000" />
</g></svg>