<?xml version="1.0" standalone="no"?>
<!DOCTYPE svg PUBLIC "-//W3C//DTD SVG 1.1//EN"
"http://www.w3.org/Graphics/SVG/1.1/DTD/svg11.dtd">
<svg viewBox="0 0 300 300" version="1.1"
xmlns="http://www.w3.org/2000/svg"
xmlns:xlink="http://www.w3.org/1999/xlink">
<g fill-rule="evenodd"><path d="M 150,206.25 L 149.809,211.6 L 149.237,216.924 L 148.286,222.192 L 146.962,227.38 L 145.271,232.46 L 143.222,237.406 L 140.826,242.194 L 138.094,246.798 L 135.041,251.196 L 131.681,255.365 L 128.033,259.283 L 124.115,262.931 L 119.946,266.291 L 115.548,269.344 L 110.944,272.076 L 106.156,274.472 L 101.21,276.521 L 96.1299,278.212 L 90.9424,279.536 L 85.6736,280.487 L 80.3504,281.059 L 75,281.25 L 69.6496,281.059 L 64.3264,280.487 L 59.0576,279.536 L 53.8701,278.212 L 48.7902,276.521 L 43.8439,274.472 L 39.0563,272.076 L 34.4519,269.344 L 30.0542,266.291 L 25.8854,262.931 L 21.967,259.283 L 18.3188,255.365 L 14.9594,251.196 L 11.906,246.798 L 9.17408,242.194 L 6.7776,237.406 L 4.72877,232.46 L 3.03803,227.38 L 1.71399,222.192 L 0.763392,216.924 L 0.191091,211.6 L 0,206.25 L 0.191091,200.9 L 0.763392,195.576 L 1.71399,190.308 L 3.03803,185.12 L 4.72877,180.04 L 6.7776,175.094 L 9.17408,170.306 L 11.906,165.702 L 14.9594,161.304 L 18.3188,157.135 L 21.967,153.217 L 25.8854,149.569 L 30.0542,146.209 L 34.4519,143.156 L 39.0563,140.424 L 43.8439,138.028 L 48.7902,135.979 L 53.8701,134.288 L 59.0576,132.964 L 64.3264,132.013 L 69.6496,131.441 L 75,131.25 L 80.3504,131.441 L 85.542,131.999 L 86.906,134.298 L 89.9594,138.696 L 93.3188,142.865 L 96.967,146.783 L 100.885,150.431 L 105.054,153.791 L 109.452,156.844 L 114.056,159.576 L 118.844,161.972 L 123.79,164.021 L 128.87,165.712 L 134.058,167.036 L 139.326,167.987 L 139.458,168.001 L 140.826,170.306 L 143.222,175.094 L 145.271,180.04 L 146.962,185.12 L 148.286,190.308 L 149.237,195.576 L 149.809,200.9 L 150,206.25 z " style="fill-opacity:0.3;fill:rgb(0,0,255);stroke:rgb(51,51,153);stroke-width:1"/></g>
</svg>
