<?xml version="1.0" standalone="no"?>
<!DOCTYPE svg PUBLIC "-//W3C//DTD SVG 1.1//EN"
"http://www.w3.org/Graphics/SVG/1.1/DTD/svg11.dtd">
<svg  version="1.1" xmlns="http://www.w3.org/2000/svg" xmlns:xlink="http://www.w3.org/1999/xlink" viewBox="0 0 10 10">
<g title="A + B (CGAL EPECK)" fill-rule="evenodd">
<path d="M 9,10 L 8,9 L 8,10 L 7,10 L 6,10 L -0,10 L -0,9 L 1,9 L -0,8 L -0,6 L -0,5 L -0,4 L 1,4 L -0,3 L -0,1 L -0,-0 L 1,-0 L 2,-0 L 3,-0 L 4,-0 L 6,-0 L 7,-0 L 10,-0 L 10,1 L 10,2 L 10,3 L 10,4 L 10,5 L 10,7 L 9.5,7.5 L 10,8 L 10,9 L 10,10 L 9,10 M 10,5 L 9,4 L 9,5 L 10,5 M 8,4 L 8,3 L 7,2 L 7,3 L 8,4 z" style="fill-opacity:0.3;fill:rgb(0,0,255);stroke:rgb(51,51,153);stroke-width:0.025000" />
</g></svg>