<?xml version="1.0" standalone="no"?>
<!DOCTYPE svg PUBLIC "-//W3C//DTD SVG 1.1//EN"
"http://www.w3.org/Graphics/SVG/1.1/DTD/svg11.dtd">
<svg  version="1.1" xmlns="http://www.w3.org/2000/svg" xmlns:xlink="http://www.w3.org/1999/xlink" viewBox="0 0 10 10">
<g title="A + B (CGAL EPECK)" fill-rule="evenodd">
<path d="M -0,4 L 1,4 L 1,5 L -0,5 L -0,4 z" style="fill-opacity:0.3;fill:rgb(0,0,255);stroke:rgb(51,51,153);stroke-width:0.025000" />
<path d="M 3,9 L 4,9 L 4,10 L 3,10 L 3,9 z" style="fill-opacity:0.3;fill:rgb(0,0,255);stroke:rgb(51,51,153);stroke-width:0.025000" />
<path d="M 5,8 L 6,8 L 6,7 L 7,7 L 7,6 L 8,6 L 8,7 L 9,7 L 9,8 L 8,8 L 8,7 L 7,7 L 7,8 L 6,8 L 6,9 L 7,9 L 7,10 L 6,10 L 6,9 L 5,9 L 5,8 z" style="fill-opacity:0.3;fill:rgb(0,0,255);stroke:rgb(51,51,153);stroke-width:0.025000" />
<path d="M 6,2 L 7,2 L 7,3 L 6,3 L 6,2 z" style="fill-opacity:0.3;fill:rgb(0,0,255);stroke:rgb(51,51,153);stroke-width:0.025000" />
<path d="M 7,-0 L 8,-0 L 8,1 L 9,1 L 9,2 L 8,2 L 8,1 L 7,1 L 7,-0 z" style="fill-opacity:0.3;fill:rgb(0,0,255);stroke:rgb(51,51,153);stroke-width:0.025000" />
</g></svg>