<?xml version="1.0" standalone="no"?>
<!DOCTYPE svg PUBLIC "-//W3C//DTD SVG 1.1//EN"
"http://www.w3.org/Graphics/SVG/1.1/DTD/svg11.dtd">
<svg  version="1.1" xmlns="http://www.w3.org/2000/svg" xmlns:xlink="http://www.w3.org/1999/xlink" viewBox="0 0 18 18">
<g title="A + B (CGAL EPECK)" fill-rule="evenodd">
<path d="M 1,10 L 1,12 L 3,12 L 3,13 L 6,13 L 6,14.5 L 7,15 L 9,16 L 9,13.5 L 10,15.5 L 9,16 L 8,18 L 7,15 L 6,16 L 6,14.5 L 3,13 L 1,12 L -0,12 L 1,10 z" style="fill-opacity:0.3;fill:rgb(0,0,255);stroke:rgb(51,51,153);stroke-width:0.045000" />
<path d="M 11,12.5 L 12,14.5 L 13,14 L 14,16 L 13,16.5 L 12,14.5 L 11,15 L 10,13 L 11,12.5 z" style="fill-opacity:0.3;fill:rgb(0,0,255);stroke:rgb(51,51,153);stroke-width:0.045000" />
<path d="M 14,13.5 L 17,12 L 17,10 L 16,9 L 17,8 L 17,4 L 15,3 L 16,3 L 17,4 L 18,5 L 18,7 L 17,8 L 17,10 L 18,11 L 17,12 L 15,15.5 L 14,13.5 z" style="fill-opacity:0.3;fill:rgb(0,0,255);stroke:rgb(51,51,153);stroke-width:0.045000" />
</g></svg>