<?xml version="1.0" standalone="no"?>
<!DOCTYPE svg PUBLIC "-//W3C//DTD SVG 1.1//EN"
"http://www.w3.org/Graphics/SVG/1.1/DTD/svg11.dtd">
<svg  version="1.1" xmlns="http://www.w3.org/2000/svg" xmlns:xlink="http://www.w3.org/1999/xlink" viewBox="0 0 5 7">
<g title="A + B (CGAL Real)" fill-rule="evenodd">
<path d="M 0,0 L 2.0,0 L 3.0,1.0 L 3.0,0 L 5.0,0 L 5.0,1.0 L 3.0,1.0 L 4.0,2.0 L 5.0,2.0 L 5.0,3.0 L 5.0,5.0 L 4.0,5.0 L 4.0,6.0 L 3.0,7.0 L 3.0,6.0 L 2.0,6.0 L 1.0,5.0 L 2.0,5.0 L 1.0,4.0 L 1.0,3.0 L 0,2.0 L 0,1.0 L 0,0 M 3.0,2.0 L 3.0,1.0 L 2.0,1.0 L 1.0,2.0 L 2.0,2.0 L 3.0,2.0 M 2.0,4.0 L 3.0,4.0 L 4.0,3.0 L 3.50000,2.50000 L 4.0,2.0 L 3.0,2.0 L 2.0,3.0 L 2.0,4.0 M 5.0,3.0 L 4.0,3.0 L 4.0,4.0 L 5.0,3.0 M 4.0,5.0 L 3.0,4.0 L 3.0,5.0 L 4.0,5.0 M 1.0,1.0 L 0.50000,0.50000 L 0,1.0 L 1.0,1.0 z" style="fill-opacity:0.3;fill:rgb(0,0,255);stroke:rgb(51,51,153);stroke-width:0.017500" />
</g></svg>