<?xml version="1.0" standalone="no"?>
<!DOCTYPE svg PUBLIC "-//W3C//DTD SVG 1.1//EN"
"http://www.w3.org/Graphics/SVG/1.1/DTD/svg11.dtd">
<svg  version="1.1" xmlns="http://www.w3.org/2000/svg" xmlns:xlink="http://www.w3.org/1999/xlink" viewBox="0 0 10 10">
<g title="A + B (CGAL EPECK)" fill-rule="evenodd">
<path d="M -0,7 L 1,7 L 1,8 L -0,8 L -0,7 z" style="fill-opacity:0.3;fill:rgb(0,0,255);stroke:rgb(51,51,153);stroke-width:0.025000" />
<path d="M 1,2 L 2,2 L 2,3 L 1,3 L 1,4 L -0,3 L 1,3 L 1,2 z" style="fill-opacity:0.3;fill:rgb(0,0,255);stroke:rgb(51,51,153);stroke-width:0.025000" />
<path d="M 1,9 L 2,10 L 1,10 L 1,9 z" style="fill-opacity:0.3;fill:rgb(0,0,255);stroke:rgb(51,51,153);stroke-width:0.025000" />
<path d="M 2,-0 L 2.5,0.5 L 2,1 L 2,-0 z" style="fill-opacity:0.3;fill:rgb(0,0,255);stroke:rgb(51,51,153);stroke-width:0.025000" />
<path d="M 3,5 L 4,5 L 3.5,5.5 L 3,5 L 3,6 L 2,5 L 3,5 z" style="fill-opacity:0.3;fill:rgb(0,0,255);stroke:rgb(51,51,153);stroke-width:0.025000" />
<path d="M 4,1 L 5,2 L 5,1 L 6,1 L 5,2 L 6,2 L 7,3 L 6,3 L 5,2 L 4,2 L 4,1 z" style="fill-opacity:0.3;fill:rgb(0,0,255);stroke:rgb(51,51,153);stroke-width:0.025000" />
<path d="M 4,3 L 5,3 L 5,4 L 4,4 L 4,3 z" style="fill-opacity:0.3;fill:rgb(0,0,255);stroke:rgb(51,51,153);stroke-width:0.025000" />
<path d="M 5,6 L 5,7 L 4,6 L 5,6 z" style="fill-opacity:0.3;fill:rgb(0,0,255);stroke:rgb(51,51,153);stroke-width:0.025000" />
<path d="M 6,4 L 6.5,4.5 L 6,5 L 6,4 z" style="fill-opacity:0.3;fill:rgb(0,0,255);stroke:rgb(51,51,153);stroke-width:0.025000" />
<path d="M 6,7 L 7,8 L 7,9 L 6.5,9.5 L 6,10 L 6,9 L 7,9 L 6,8 L 6,7 z" style="fill-opacity:0.3;fill:rgb(0,0,255);stroke:rgb(51,51,153);stroke-width:0.025000" />
<path d="M 7,5 L 8,5 L 7,4 L 8,4 L 9,4 L 8.5,3.5 L 8,3 L 9,3 L 9,4 L 9,5 L 8.5,4.5 L 8,5 L 8,6 L 7,6 L 7,5 z" style="fill-opacity:0.3;fill:rgb(0,0,255);stroke:rgb(51,51,153);stroke-width:0.025000" />
<path d="M 9,1 L 10,2 L 9,2 L 9,1 z" style="fill-opacity:0.3;fill:rgb(0,0,255);stroke:rgb(51,51,153);stroke-width:0.025000" />
</g></svg>