<?xml version="1.0" standalone="no"?>
<!DOCTYPE svg PUBLIC "-//W3C//DTD SVG 1.1//EN"
"http://www.w3.org/Graphics/SVG/1.1/DTD/svg11.dtd">
<svg viewBox="0 0 300 300" version="1.1"
xmlns="http://www.w3.org/2000/svg"
xmlns:xlink="http://www.w3.org/1999/xlink">
<g fill-rule="evenodd"><path d="M 37.5000,210.0 L 37.5000,90.0 L 157.500,30.0 L 277.500,90.0 L 277.500,210.0 L 247.500,225.0 L 217.500,240.0 L 187.500,255.0 L 157.500,270.0 L 127.500,255.0 L 97.5000,240.0 L 67.5000,225.0 L 37.5000,210.0 z " style="fill-opacity:0.3;fill:rgb(255,0,0);stroke:rgb(0,0,0);stroke-width:1"/></g>
<g fill-rule="evenodd"><path d="M 37.5000,210.0 L 37.5000,195.0 L 37.5000,180.0 L 37.5000,165.0 L 37.5000,150.0 L 37.5000,135.0 L 37.5000,120.0 L 22.5000,90.0 L 67.5000,90.0 L 67.5000,75.0 L 112.500,75.0 L 112.500,30.0 L 127.500,45.0 L 142.500,0 L 157.500,30.0 L 157.500,67.5000 L 172.500,37.5000 L 187.500,45.0 L 172.500,75.0 L 187.500,82.5000 L 202.500,52.5000 L 217.500,22.5000 L 232.500,30.0 L 217.500,60.0 L 232.500,67.5000 L 247.500,37.5000 L 277.500,90.0 L 292.500,105.0 L 262.500,135.0 L 292.500,165.0 L 292.500,195.0 L 262.500,225.0 L 247.500,225.0 L 232.500,232.500 L 202.500,247.500 L 172.500,262.500 L 157.500,270.0 L 127.500,255.0 L 97.5000,240.0 L 67.5000,225.0 L 37.5000,210.0 z " style="fill-opacity:0.3;fill:rgb(0,255,0);stroke:rgb(0,0,0);stroke-width:1"/></g>
</svg>
