<?xml version="1.0" standalone="no"?>
<!DOCTYPE svg PUBLIC "-//W3C//DTD SVG 1.1//EN"
"http://www.w3.org/Graphics/SVG/1.1/DTD/svg11.dtd">
<svg viewBox="0 0 300 300" version="1.1"
xmlns="http://www.w3.org/2000/svg"
xmlns:xlink="http://www.w3.org/1999/xlink">
<g fill-rule="evenodd"><path d="M 120.0,300.0 L 0,300.0 L 0,0 L 300.0,0 L 240.0,60.0 L 300.0,60.0 L 300.0,300.0 L 120.0,300.M 150.0,30.0 L 180.0,60.0 L 180.0,0 L 150.0,30.M 180.0,240.0 L 240.0,300.0 L 240.0,240.0 L 180.0,240.M 180.0,120.0 L 240.0,180.0 L 240.0,120.0 L 180.0,120.0 z " style="fill-opacity:0.3;fill:rgb(255,0,0);stroke:rgb(0,0,0);stroke-width:1"/></g>
<g fill-rule="evenodd"><path d="M 120.0,300.0 L 0,300.0 L 0,0 L 60.0,0 L 30.0,30.0 L 60.0,60.0 L 120.0,0 L 300.0,0 L 300.0,300.0 L 120.0,300.M 120.0,120.0 L 120.0,60.0 L 60.0,60.0 L 120.0,120.M 180.0,240.0 L 180.0,180.0 L 120.0,180.0 L 120.0,240.0 L 180.0,240.M 60.0,120.0 L 0,180.0 L 60.0,180.0 L 60.0,120.M 60.0,300.0 L 60.0,240.0 L 30.0,270.0 L 60.0,300.M 300.0,120.0 L 240.0,120.0 L 240.0,180.0 L 300.0,120.M 240.0,240.0 L 210.0,270.0 L 240.0,300.0 L 240.0,240.0 z " style="fill-opacity:0.3;fill:rgb(0,255,0);stroke:rgb(0,0,0);stroke-width:1"/></g>
</svg>
