<?xml version="1.0" standalone="no"?>
<!DOCTYPE svg PUBLIC "-//W3C//DTD SVG 1.1//EN"
"http://www.w3.org/Graphics/SVG/1.1/DTD/svg11.dtd">
<svg  version="1.1" xmlns="http://www.w3.org/2000/svg" xmlns:xlink="http://www.w3.org/1999/xlink" viewBox="0 0 8 10">
<g title="A + B (CGAL EPECK)" fill-rule="evenodd">
<path d="M 5,9 L 5,10 L 3,10 L 3,8 L 1,8 L 1,7 L -0,7 L -0,-0 L 8,-0 L 8,7 L 7,7 L 7,9 L 5,9 M 5,9 L 5,8 L 4,8 L 4,9 L 5,9 M 4,8 L 4,6 L 3,6 L 3,8 L 4,8 M 2,7 L 2,6 L 1,6 L 1,7 L 2,7 M 7,7 L 7,5 L 6,5 L 6,7 L 7,7 M 6,5 L 6,1 L 2,1 L 2,6 L 3,6 L 3,4 L 5,4 L 5,5 L 6,5 M 5,6 L 5,5 L 4,5 L 4,6 L 5,6 z" style="fill-opacity:0.3;fill:rgb(0,0,255);stroke:rgb(51,51,153);stroke-width:0.025000" />
</g></svg>