<?xml version="1.0" standalone="no"?>
<!DOCTYPE svg PUBLIC "-//W3C//DTD SVG 1.1//EN"
"http://www.w3.org/Graphics/SVG/1.1/DTD/svg11.dtd">
<svg viewBox="0 0 300 300" version="1.1"
xmlns="http://www.w3.org/2000/svg"
xmlns:xlink="http://www.w3.org/1999/xlink">
<g fill-rule="evenodd"><path d="M 150,266.667 L 150,300 L 83.3333,300 L 50,300 L 50,266.667 L 16.6667,266.667 L 16.6667,166.667 L 16.6667,66.6667 L 83.3333,66.6667 L 83.3333,33.3333 L 83.3333,0 L 250,0 L 250,133.333 L 283.333,133.333 L 283.333,266.667 L 150,266.667M 150,200 L 150,166.667 L 116.667,166.667 L 116.667,200 L 150,200M 150,133.333 L 150,100 L 116.667,100 L 50,100 L 50,133.333 L 150,133.333M 150,200 L 150,233.333 L 183.333,233.333 L 183.333,200 L 150,200M 83.3333,166.667 L 50,166.667 L 50,200 L 83.3333,200 L 83.3333,166.667M 83.3333,266.667 L 83.3333,233.333 L 50,233.333 L 50,266.667 L 83.3333,266.667 z " style="fill-opacity:0.3;fill:rgb(0,0,255);stroke:rgb(51,51,153);stroke-width:1"/></g>
</svg>
