<?xml version="1.0" standalone="no"?>
<!DOCTYPE svg PUBLIC "-//W3C//DTD SVG 1.1//EN"
"http://www.w3.org/Graphics/SVG/1.1/DTD/svg11.dtd">
<svg viewBox="0 0 300 300" version="1.1"
xmlns="http://www.w3.org/2000/svg"
xmlns:xlink="http://www.w3.org/1999/xlink">
<g fill-rule="evenodd"><path d="M 214.286,235.714 L 214.286,192.857 L 257.143,192.857 L 257.143,235.714 L 214.286,235.714 z " style="fill-opacity:0.3;fill:rgb(255,0,0);stroke:rgb(0,0,0);stroke-width:1"/></g>
<g fill-rule="evenodd"><path d="M 257.143,107.143 L 257.143,64.2857 L 300,64.2857 L 300,107.143 L 257.143,107.143 z " style="fill-opacity:0.3;fill:rgb(255,0,0);stroke:rgb(0,0,0);stroke-width:1"/></g>
<g fill-rule="evenodd"><path d="M 128.571,64.2857 L 42.8571,64.2857 L 85.7143,21.4286 L 128.571,21.4286 L 128.571,64.2857 z " style="fill-opacity:0.3;fill:rgb(255,0,0);stroke:rgb(0,0,0);stroke-width:1"/></g>
<g fill-rule="evenodd"><path d="M 128.571,64.2857 L 128.571,107.143 L 85.7143,107.143 L 85.7143,64.2857 L 107.143,85.7143 L 128.571,64.2857 z " style="fill-opacity:0.3;fill:rgb(255,0,0);stroke:rgb(0,0,0);stroke-width:1"/></g>
<g fill-rule="evenodd"><path d="M 85.7143,107.143 L 85.7143,64.2857 L 128.571,64.2857 L 85.7143,107.143 z " style="fill-opacity:0.3;fill:rgb(0,255,0);stroke:rgb(0,0,0);stroke-width:1"/></g>
<g fill-rule="evenodd"><path d="M 257.143,278.571 L 257.143,235.714 L 300,235.714 L 257.143,278.571 z " style="fill-opacity:0.3;fill:rgb(0,255,0);stroke:rgb(0,0,0);stroke-width:1"/></g>
<g fill-rule="evenodd"><path d="M 214.286,150 L 214.286,107.143 L 257.143,150 L 214.286,150 z " style="fill-opacity:0.3;fill:rgb(0,255,0);stroke:rgb(0,0,0);stroke-width:1"/></g>
<g fill-rule="evenodd"><path d="M 0,64.2857 L 0,21.4286 L 42.8571,21.4286 L 0,64.2857 z " style="fill-opacity:0.3;fill:rgb(0,255,0);stroke:rgb(0,0,0);stroke-width:1"/></g>
<g fill-rule="evenodd"><path d="M 128.571,192.857 L 128.571,235.714 L 85.7143,235.714 L 128.571,192.857 z " style="fill-opacity:0.3;fill:rgb(0,255,0);stroke:rgb(0,0,0);stroke-width:1"/></g>
<g fill-rule="evenodd"><path d="M 128.571,192.857 L 128.571,150 L 171.429,107.143 L 171.429,150 L 128.571,192.857 z " style="fill-opacity:0.3;fill:rgb(0,255,0);stroke:rgb(0,0,0);stroke-width:1"/></g>
<g fill-rule="evenodd"><path d="M 171.429,150 L 214.286,192.857 L 171.429,192.857 L 171.429,150 z " style="fill-opacity:0.3;fill:rgb(0,255,0);stroke:rgb(0,0,0);stroke-width:1"/></g>
</svg>
