<?xml version="1.0" standalone="no"?>
<!DOCTYPE svg PUBLIC "-//W3C//DTD SVG 1.1//EN"
"http://www.w3.org/Graphics/SVG/1.1/DTD/svg11.dtd">
<svg viewBox="0 0 300 300" version="1.1"
xmlns="http://www.w3.org/2000/svg"
xmlns:xlink="http://www.w3.org/1999/xlink">
<g fill-rule="evenodd"><path d="M 210,60 L 210,0 L 270,0 L 210,60 z " style="fill-opacity:0.3;fill:rgb(0,0,255);stroke:rgb(51,51,153);stroke-width:1"/></g>
<g fill-rule="evenodd"><path d="M 210,60 L 150,60 L 150,0 L 210,60 z " style="fill-opacity:0.3;fill:rgb(0,0,255);stroke:rgb(51,51,153);stroke-width:1"/></g>
<g fill-rule="evenodd"><path d="M 150,120 L 210,120 L 270,120 L 150,240 L 150,300 L 90,300 L 90,180 L 150,120M 150,180 L 90,180 L 120,210 L 150,180 z " style="fill-opacity:0.3;fill:rgb(0,0,255);stroke:rgb(51,51,153);stroke-width:1"/></g>
<g fill-rule="evenodd"><path d="M 30,120 L 30,60 L 30,0 L 90,0 L 90,60 L 90,120 L 30,120 z " style="fill-opacity:0.3;fill:rgb(0,0,255);stroke:rgb(51,51,153);stroke-width:1"/></g>
<g fill-rule="evenodd"><path d="M 30,120 L 90,180 L 30,180 L 30,120 z " style="fill-opacity:0.3;fill:rgb(0,0,255);stroke:rgb(51,51,153);stroke-width:1"/></g>
</svg>
