<?xml version="1.0" standalone="no"?>
<!DOCTYPE svg PUBLIC "-//W3C//DTD SVG 1.1//EN"
"http://www.w3.org/Graphics/SVG/1.1/DTD/svg11.dtd">
<svg viewBox="0 0 300 300" version="1.1"
xmlns="http://www.w3.org/2000/svg"
xmlns:xlink="http://www.w3.org/1999/xlink">
<g fill-rule="evenodd"><path d="M 30,300 L 0,300 L 0,180 L 30,180 L 30,150 L 0,150 L 0,0 L 90,0 L 90,30 L 120,30 L 120,0 L 180,0 L 180,30 L 210,30 L 210,0 L 300,0 L 300,300 L 30,300M 180,30 L 150,30 L 150,60 L 180,60 L 180,30M 210,120 L 240,120 L 240,90 L 210,90 L 210,120M 240,90 L 270,90 L 270,60 L 240,60 L 240,90M 270,270 L 270,240 L 240,240 L 240,270 L 270,270 z " style="fill-opacity:0.3;fill:rgb(255,0,0);stroke:rgb(0,0,0);stroke-width:1"/></g>
<g fill-rule="evenodd"><path d="M 0,300 L 0,0 L 300,0 L 300,300 L 240,300 L 240,270 L 210,270 L 210,300 L 0,300M 210,210 L 180,210 L 180,240 L 210,240 L 210,210M 180,90 L 210,90 L 210,60 L 180,60 L 180,90 z " style="fill-opacity:0.3;fill:rgb(0,255,0);stroke:rgb(0,0,0);stroke-width:1"/></g>
</svg>
