<?xml version="1.0" standalone="no"?>
<!DOCTYPE svg PUBLIC "-//W3C//DTD SVG 1.1//EN"
"http://www.w3.org/Graphics/SVG/1.1/DTD/svg11.dtd">
<svg viewBox="0 0 300 300" version="1.1"
xmlns="http://www.w3.org/2000/svg"
xmlns:xlink="http://www.w3.org/1999/xlink">
<g fill-rule="evenodd"><path d="M 0,270 L 0,210 L 30,210 L 30,240 L 120,240 L 120,210 L 90,210 L 90,180 L 30,180 L 30,150 L 60,150 L 60,30 L 60,0 L 90,0 L 120,0 L 120,30 L 150,30 L 150,60 L 180,60 L 180,30 L 180,0 L 270,0 L 300,0 L 300,60 L 300,90 L 270,90 L 270,120 L 300,120 L 300,150 L 300,180 L 270,180 L 270,210 L 270,240 L 240,240 L 240,270 L 270,270 L 270,300 L 150,300 L 150,270 L 0,270M 150,180 L 150,150 L 210,150 L 210,120 L 180,120 L 150,120 L 150,90 L 120,90 L 120,180 L 150,180M 180,240 L 240,240 L 240,180 L 180,180 L 180,240M 210,30 L 210,60 L 240,60 L 240,30 L 210,30 z " style="fill-opacity:0.3;fill:rgb(0,0,255);stroke:rgb(51,51,153);stroke-width:1"/></g>
</svg>
