<?xml version="1.0" standalone="no"?>
<!DOCTYPE svg PUBLIC "-//W3C//DTD SVG 1.1//EN"
"http://www.w3.org/Graphics/SVG/1.1/DTD/svg11.dtd">
<svg  version="1.1" xmlns="http://www.w3.org/2000/svg" xmlns:xlink="http://www.w3.org/1999/xlink" viewBox="0 0 5 5">
<g title="A + B (CGAL EPECK)" fill-rule="evenodd">
<path d="M 2.0,2.0 L 2.0,3.0 L 3.0,3.0 L 2.0,2.0 z" style="fill-opacity:0.3;fill:rgb(0,0,255);stroke:rgb(51,51,153);stroke-width:0.012500" />
<path d="M 3.0,5.0 L 2.0,4.0 L 2.0,5.0 L 3.0,5.0 z" style="fill-opacity:0.3;fill:rgb(0,0,255);stroke:rgb(51,51,153);stroke-width:0.012500" />
<path d="M 0.50000,2.50000 L 0,2.0 L 0,3.0 L 0.50000,2.50000 z" style="fill-opacity:0.3;fill:rgb(0,0,255);stroke:rgb(51,51,153);stroke-width:0.012500" />
<path d="M 1.50000,2.50000 L 1.0,2.0 L 1.0,3.0 L 1.50000,2.50000 z" style="fill-opacity:0.3;fill:rgb(0,0,255);stroke:rgb(51,51,153);stroke-width:0.012500" />
<path d="M 1.0,3.0 L 1.0,4.0 L 2.0,4.0 L 2.0,3.0 L 1.0,3.0 z" style="fill-opacity:0.3;fill:rgb(0,0,255);stroke:rgb(51,51,153);stroke-width:0.012500" />
<path d="M 0,4.0 L 0,5.0 L 1.0,5.0 L 0,4.0 z" style="fill-opacity:0.3;fill:rgb(0,0,255);stroke:rgb(51,51,153);stroke-width:0.012500" />
<path d="M 4.0,5.0 L 5.0,5.0 L 5.0,4.0 L 4.0,4.0 L 4.0,5.0 z" style="fill-opacity:0.3;fill:rgb(0,0,255);stroke:rgb(51,51,153);stroke-width:0.012500" />
<path d="M 5.0,2.0 L 4.0,2.0 L 4.0,3.0 L 5.0,2.0 z" style="fill-opacity:0.3;fill:rgb(0,0,255);stroke:rgb(51,51,153);stroke-width:0.012500" />
</g></svg>