<?xml version="1.0" standalone="no"?>
<!DOCTYPE svg PUBLIC "-//W3C//DTD SVG 1.1//EN"
"http://www.w3.org/Graphics/SVG/1.1/DTD/svg11.dtd">
<svg viewBox="0 0 300 300" version="1.1"
xmlns="http://www.w3.org/2000/svg"
xmlns:xlink="http://www.w3.org/1999/xlink">
<g fill-rule="evenodd"><path d="M 150.0,240.0 L 150.0,210.0 L 120.0,210.0 L 120.0,180.0 L 150.0,180.0 L 150.0,150.0 L 180.0,150.0 L 180.0,240.0 L 210.0,240.0 L 210.0,270.0 L 0,270.0 L 0,210.0 L 30.0,210.0 L 30.0,240.0 L 150.0,240.0 z " style="fill-opacity:0.3;fill:rgb(255,0,0);stroke:rgb(0,0,0);stroke-width:1"/></g>
<g fill-rule="evenodd"><path d="M 150.0,90.0 L 150.0,60.0 L 180.0,60.0 L 180.0,30.0 L 210.0,30.0 L 210.0,0 L 300.0,0 L 300.0,60.0 L 270.0,60.0 L 270.0,120.0 L 300.0,120.0 L 300.0,180.0 L 270.0,180.0 L 270.0,210.0 L 240.0,210.0 L 240.0,180.0 L 210.0,180.0 L 210.0,120.0 L 150.0,120.0 L 150.0,90.M 210.0,120.0 L 240.0,120.0 L 240.0,90.0 L 210.0,90.0 L 210.0,120.M 240.0,30.0 L 210.0,30.0 L 210.0,60.0 L 240.0,60.0 L 240.0,30.0 z " style="fill-opacity:0.3;fill:rgb(255,0,0);stroke:rgb(0,0,0);stroke-width:1"/></g>
<g fill-rule="evenodd"><path d="M 60.0,120.0 L 120.0,120.0 L 120.0,150.0 L 90.0,150.0 L 90.0,180.0 L 30.0,180.0 L 30.0,150.0 L 60.0,150.0 L 60.0,120.0 z " style="fill-opacity:0.3;fill:rgb(255,0,0);stroke:rgb(0,0,0);stroke-width:1"/></g>
<g fill-rule="evenodd"><path d="M 90.0,0 L 120.0,0 L 120.0,90.0 L 60.0,90.0 L 60.0,0 L 90.0,0 z " style="fill-opacity:0.3;fill:rgb(255,0,0);stroke:rgb(0,0,0);stroke-width:1"/></g>
<g fill-rule="evenodd"><path d="M 150.0,270.0 L 120.0,270.0 L 120.0,210.0 L 90.0,210.0 L 90.0,120.0 L 60.0,120.0 L 60.0,30.0 L 150.0,30.0 L 150.0,90.0 L 120.0,90.0 L 120.0,180.0 L 150.0,180.0 L 150.0,210.0 L 180.0,210.0 L 180.0,240.0 L 240.0,240.0 L 240.0,270.0 L 270.0,270.0 L 270.0,300.0 L 150.0,300.0 L 150.0,270.M 120.0,90.0 L 120.0,60.0 L 90.0,60.0 L 90.0,90.0 L 120.0,90.0 z " style="fill-opacity:0.3;fill:rgb(0,255,0);stroke:rgb(0,0,0);stroke-width:1"/></g>
<g fill-rule="evenodd"><path d="M 240.0,240.0 L 240.0,210.0 L 270.0,210.0 L 270.0,240.0 L 240.0,240.0 z " style="fill-opacity:0.3;fill:rgb(0,255,0);stroke:rgb(0,0,0);stroke-width:1"/></g>
<g fill-rule="evenodd"><path d="M 270.0,150.0 L 270.0,120.0 L 300.0,120.0 L 300.0,150.0 L 270.0,150.0 z " style="fill-opacity:0.3;fill:rgb(0,255,0);stroke:rgb(0,0,0);stroke-width:1"/></g>
<g fill-rule="evenodd"><path d="M 270.0,150.0 L 270.0,180.0 L 240.0,180.0 L 240.0,150.0 L 270.0,150.0 z " style="fill-opacity:0.3;fill:rgb(0,255,0);stroke:rgb(0,0,0);stroke-width:1"/></g>
<g fill-rule="evenodd"><path d="M 210.0,150.0 L 210.0,180.0 L 180.0,180.0 L 180.0,150.0 L 210.0,150.0 z " style="fill-opacity:0.3;fill:rgb(0,255,0);stroke:rgb(0,0,0);stroke-width:1"/></g>
<g fill-rule="evenodd"><path d="M 210.0,0 L 270.0,0 L 270.0,30.0 L 300.0,30.0 L 300.0,90.0 L 240.0,90.0 L 240.0,120.0 L 180.0,120.0 L 180.0,0 L 210.0,0M 210.0,30.0 L 210.0,60.0 L 240.0,60.0 L 240.0,30.0 L 210.0,30.0 z " style="fill-opacity:0.3;fill:rgb(0,255,0);stroke:rgb(0,0,0);stroke-width:1"/></g>
</svg>
