<?xml version="1.0" standalone="no"?>
<!DOCTYPE svg PUBLIC "-//W3C//DTD SVG 1.1//EN"
"http://www.w3.org/Graphics/SVG/1.1/DTD/svg11.dtd">
<svg  version="1.1" xmlns="http://www.w3.org/2000/svg" xmlns:xlink="http://www.w3.org/1999/xlink" viewBox="0 0 10 10">
<g title="A + B (CGAL EPECK)" fill-rule="evenodd">
<path d="M 0,1.0 L 0,3.0 L 1.0,3.0 L 1.0,2.0 L 4.0,2.0 L 4.0,3.0 L 3.0,3.0 L 3.0,4.0 L 1.0,4.0 L 1.0,5.0 L 2.0,5.0 L 2.0,9.0 L 2.0,10.0 L 3.0,10.0 L 4.0,10.0 L 4.0,9.0 L 5.0,9.0 L 5.0,8.0 L 6.0,8.0 L 6.0,9.0 L 6.0,10.0 L 9.0,10.0 L 10.0,10.0 L 10.0,8.0 L 10.0,7.0 L 9.0,7.0 L 9.0,6.0 L 10.0,6.0 L 10.0,5.0 L 10.0,4.0 L 9.0,4.0 L 9.0,3.0 L 9.0,2.0 L 8.0,2.0 L 8.0,1.0 L 9.0,1.0 L 9.0,0 L 5.0,0 L 5.0,1.0 L 0,1.0 M 5.0,4.0 L 5.0,5.0 L 7.0,5.0 L 7.0,6.0 L 6.0,6.0 L 5.0,6.0 L 5.0,7.0 L 4.0,7.0 L 4.0,4.0 L 5.0,4.0 M 6.0,2.0 L 8.0,2.0 L 8.0,4.0 L 6.0,4.0 L 6.0,2.0 M 7.0,9.0 L 7.0,8.0 L 8.0,8.0 L 8.0,9.0 L 7.0,9.0 z" style="fill-opacity:0.3;fill:rgb(0,0,255);stroke:rgb(51,51,153);stroke-width:0.025000" />
</g></svg>