<?xml version="1.0" standalone="no"?>
<!DOCTYPE svg PUBLIC "-//W3C//DTD SVG 1.1//EN"
"http://www.w3.org/Graphics/SVG/1.1/DTD/svg11.dtd">
<svg viewBox="0 0 300 300" version="1.1"
xmlns="http://www.w3.org/2000/svg"
xmlns:xlink="http://www.w3.org/1999/xlink">
<g fill-rule="evenodd"><path d="M 90,30 L 90,0 L 120,0 L 120,30 L 90,30 z " style="fill-opacity:0.3;fill:rgb(0,0,255);stroke:rgb(51,51,153);stroke-width:1"/></g>
<g fill-rule="evenodd"><path d="M 150,60 L 150,30 L 150,0 L 240,0 L 240,30 L 270,30 L 270,0 L 300,0 L 300,120 L 300,150 L 270,150 L 270,210 L 300,210 L 300,240 L 270,240 L 270,270 L 270,300 L 150,300 L 120,300 L 90,300 L 90,270 L 60,270 L 60,300 L 30,300 L 0,300 L 0,270 L 0,210 L 30,210 L 30,180 L 0,180 L 0,60 L 30,60 L 30,30 L 0,30 L 0,0 L 30,0 L 60,0 L 60,60 L 150,60M 150,60 L 150,90 L 210,90 L 210,30 L 180,30 L 180,60 L 150,60M 150,180 L 150,240 L 210,240 L 210,210 L 180,210 L 180,180 L 150,180M 60,270 L 60,240 L 30,240 L 30,270 L 60,270M 90,150 L 90,120 L 60,120 L 60,150 L 90,150M 60,90 L 30,90 L 30,120 L 60,120 L 60,90M 210,180 L 240,180 L 240,150 L 210,150 L 210,180 z " style="fill-opacity:0.3;fill:rgb(0,0,255);stroke:rgb(51,51,153);stroke-width:1"/></g>
</svg>
