<?xml version="1.0" standalone="no"?>
<!DOCTYPE svg PUBLIC "-//W3C//DTD SVG 1.1//EN"
"http://www.w3.org/Graphics/SVG/1.1/DTD/svg11.dtd">
<svg  version="1.1" xmlns="http://www.w3.org/2000/svg" xmlns:xlink="http://www.w3.org/1999/xlink" viewBox="0 0 10 10">
<g title="A + B (CGAL EPECK)" fill-rule="evenodd">
<path d="M 7,10 L -0,10 L -0,5 L -0,-0 L 10,-0 L 10,3 L 10,7 L 10,10 L 7,10 M 8,9 L 7,8 L 6,9 L 7,10 L 8,9 M 10,7 L 9,6 L 8,7 L 9,8 L 10,7 M 8,7 L 7,6 L 6,7 L 7,8 L 8,7 M 4,5 L 2,3 L -0,5 L 2,7 L 4,5 M 3,8 L 2,7 L 1,8 L 2,9 L 3,8 M 5,8 L 4,7 L 3,8 L 4,9 L 5,8 M 3,2 L 2,1 L 1,2 L 2,3 L 3,2 M 5,2 L 4,1 L 3,2 L 4,3 L 5,2 M 10,3 L 9,2 L 8,3 L 9,4 L 10,3 M 9,2 L 8,1 L 7,2 L 8,3 L 8,2 L 9,2 z" style="fill-opacity:0.3;fill:rgb(0,0,255);stroke:rgb(51,51,153);stroke-width:0.025000" />
</g></svg>