<?xml version="1.0" standalone="no"?>
<!DOCTYPE svg PUBLIC "-//W3C//DTD SVG 1.1//EN"
"http://www.w3.org/Graphics/SVG/1.1/DTD/svg11.dtd">
<svg viewBox="0 0 300 300" version="1.1"
xmlns="http://www.w3.org/2000/svg"
xmlns:xlink="http://www.w3.org/1999/xlink">
<g fill-rule="evenodd"><path d="M 16.6667,233.333 L 16.6667,100 L 150,33.3333 L 283.333,100 L 283.333,233.333 L 250,250 L 216.667,266.667 L 183.333,283.333 L 150,300 L 116.667,283.333 L 83.3333,266.667 L 50,250 L 16.6667,233.333 z " style="fill-opacity:0.3;fill:rgb(255,0,0);stroke:rgb(0,0,0);stroke-width:1"/></g>
<g fill-rule="evenodd"><path d="M 16.6667,233.333 L 16.6667,216.667 L 16.6667,200 L 16.6667,183.333 L 16.6667,166.667 L 16.6667,150 L 16.6667,133.333 L -1.77636e-14,100 L 50,100 L 50,83.3333 L 100,83.3333 L 100,33.3333 L 116.667,50 L 133.333,0 L 150,33.3333 L 150,75 L 166.667,41.6667 L 183.333,50 L 166.667,83.3333 L 183.333,91.6667 L 200,58.3333 L 216.667,25 L 233.333,33.3333 L 216.667,66.6667 L 233.333,75 L 250,41.6667 L 283.333,100 L 300,116.667 L 266.667,150 L 300,183.333 L 300,216.667 L 266.667,250 L 250,250 L 233.333,258.333 L 200,275 L 166.667,291.667 L 150,300 L 116.667,283.333 L 83.3333,266.667 L 50,250 L 16.6667,233.333 z " style="fill-opacity:0.3;fill:rgb(0,255,0);stroke:rgb(0,0,0);stroke-width:1"/></g>
</svg>
