<?xml version="1.0" standalone="no"?>
<!DOCTYPE svg PUBLIC "-//W3C//DTD SVG 1.1//EN"
"http://www.w3.org/Graphics/SVG/1.1/DTD/svg11.dtd">
<svg viewBox="0 0 300 300" version="1.1"
xmlns="http://www.w3.org/2000/svg"
xmlns:xlink="http://www.w3.org/1999/xlink">
<g fill-rule="evenodd"><path d="M 60,60 L 60,0 L 120,0 L 120,60 L 60,60 z " style="fill-opacity:0.3;fill:rgb(255,0,0);stroke:rgb(0,0,0);stroke-width:1"/></g>
<g fill-rule="evenodd"><path d="M 0,180 L 0,120 L 60,120 L 0,180 z " style="fill-opacity:0.3;fill:rgb(255,0,0);stroke:rgb(0,0,0);stroke-width:1"/></g>
<g fill-rule="evenodd"><path d="M 180,0 L 240,0 L 240,60 L 180,60 L 180,0 z " style="fill-opacity:0.3;fill:rgb(255,0,0);stroke:rgb(0,0,0);stroke-width:1"/></g>
<g fill-rule="evenodd"><path d="M 120,120 L 240,120 L 240,180 L 180,240 L 120,240 L 120,120M 180,120 L 150,150 L 180,180 L 180,120 z " style="fill-opacity:0.3;fill:rgb(255,0,0);stroke:rgb(0,0,0);stroke-width:1"/></g>
<g fill-rule="evenodd"><path d="M 240,240 L 180,300 L 180,240 L 240,240 z " style="fill-opacity:0.3;fill:rgb(255,0,0);stroke:rgb(0,0,0);stroke-width:1"/></g>
<g fill-rule="evenodd"><path d="M 240,180 L 300,180 L 300,300 L 240,300 L 240,180 z " style="fill-opacity:0.3;fill:rgb(255,0,0);stroke:rgb(0,0,0);stroke-width:1"/></g>
<g fill-rule="evenodd"><path d="M 240,300 L 240,240 L 300,240 L 300,300 L 240,300 z " style="fill-opacity:0.3;fill:rgb(0,255,0);stroke:rgb(0,0,0);stroke-width:1"/></g>
<g fill-rule="evenodd"><path d="M 180,60 L 180,120 L 60,120 L 60,0 L 180,0 L 150,30 L 180,60 z " style="fill-opacity:0.3;fill:rgb(0,255,0);stroke:rgb(0,0,0);stroke-width:1"/></g>
<g fill-rule="evenodd"><path d="M 180,60 L 180,0 L 240,0 L 240,60 L 180,60 z " style="fill-opacity:0.3;fill:rgb(0,255,0);stroke:rgb(0,0,0);stroke-width:1"/></g>
<g fill-rule="evenodd"><path d="M 60,240 L 120,300 L 60,300 L 60,240 z " style="fill-opacity:0.3;fill:rgb(0,255,0);stroke:rgb(0,0,0);stroke-width:1"/></g>
<g fill-rule="evenodd"><path d="M 60,240 L 60,180 L 120,180 L 120,240 L 60,240 z " style="fill-opacity:0.3;fill:rgb(0,255,0);stroke:rgb(0,0,0);stroke-width:1"/></g>
<g fill-rule="evenodd"><path d="M 60,180 L 0,180 L 0,120 L 60,120 L 60,180 z " style="fill-opacity:0.3;fill:rgb(0,255,0);stroke:rgb(0,0,0);stroke-width:1"/></g>
<g fill-rule="evenodd"><path d="M 240,60 L 300,60 L 300,180 L 240,180 L 240,60 z " style="fill-opacity:0.3;fill:rgb(0,255,0);stroke:rgb(0,0,0);stroke-width:1"/></g>
</svg>
