<?xml version="1.0" standalone="no"?>
<!DOCTYPE svg PUBLIC "-//W3C//DTD SVG 1.1//EN"
"http://www.w3.org/Graphics/SVG/1.1/DTD/svg11.dtd">
<svg  version="1.1" xmlns="http://www.w3.org/2000/svg" xmlns:xlink="http://www.w3.org/1999/xlink" viewBox="0 0 18 18">
<g title="A + B (CGAL EPECK)" fill-rule="evenodd">
<path d="M 1,4 L 3,3 L 5,2 L 7,1 L 9,-0 L 10,0.5 L 11,1 L 12,1.5 L 13,2 L 14,2.5 L 15,3 L 17,4 L 17,8 L 16,9 L 17,10 L 17,12 L 14,13.5 L 13,14 L 12,14.5 L 11,12.5 L 10,13 L 11,15 L 10,15.5 L 9,13.5 L 9,16 L 7,15 L 6,14.5 L 6,13 L 3,13 L 3,12 L 1,12 L 1,10 L 1,9 L 1,8 L 1,7 L 1,6 L 1,5 L 1,4 z" style="fill-opacity:0.3;fill:rgb(0,0,255);stroke:rgb(51,51,153);stroke-width:0.045000" />
</g></svg>