<?xml version="1.0" standalone="no"?>
<!DOCTYPE svg PUBLIC "-//W3C//DTD SVG 1.1//EN"
"http://www.w3.org/Graphics/SVG/1.1/DTD/svg11.dtd">
<svg viewBox="0 0 300 300" version="1.1"
xmlns="http://www.w3.org/2000/svg"
xmlns:xlink="http://www.w3.org/1999/xlink">
<g fill-rule="evenodd"><path d="M 180,150 L 180,120 L 210,120 L 210,180 L 240,180 L 240,210 L 270,210 L 270,240 L 210,240 L 210,210 L 180,210 L 180,180 L 120,180 L 120,150 L 180,150 z " style="fill-opacity:0.3;fill:rgb(0,0,255);stroke:rgb(51,51,153);stroke-width:1"/></g>
<g fill-rule="evenodd"><path d="M 150,240 L 150,270 L 120,270 L 120,240 L 150,240 z " style="fill-opacity:0.3;fill:rgb(0,0,255);stroke:rgb(51,51,153);stroke-width:1"/></g>
<g fill-rule="evenodd"><path d="M 150,30 L 180,30 L 180,60 L 150,60 L 150,30 z " style="fill-opacity:0.3;fill:rgb(0,0,255);stroke:rgb(51,51,153);stroke-width:1"/></g>
<g fill-rule="evenodd"><path d="M 120,60 L 120,90 L 60,90 L 60,60 L 120,60 z " style="fill-opacity:0.3;fill:rgb(0,0,255);stroke:rgb(51,51,153);stroke-width:1"/></g>
<g fill-rule="evenodd"><path d="M 60,150 L 90,150 L 90,180 L 120,180 L 120,210 L 90,210 L 90,240 L 60,240 L 60,150 z " style="fill-opacity:0.3;fill:rgb(0,0,255);stroke:rgb(51,51,153);stroke-width:1"/></g>
<g fill-rule="evenodd"><path d="M 270,180 L 240,180 L 240,120 L 270,120 L 270,180 z " style="fill-opacity:0.3;fill:rgb(0,0,255);stroke:rgb(51,51,153);stroke-width:1"/></g>
<g fill-rule="evenodd"><path d="M 240,120 L 210,120 L 210,60 L 270,60 L 270,90 L 240,90 L 240,120 z " style="fill-opacity:0.3;fill:rgb(0,0,255);stroke:rgb(51,51,153);stroke-width:1"/></g>
<g fill-rule="evenodd"><path d="M 270,30 L 270,0 L 300,0 L 300,30 L 270,30 z " style="fill-opacity:0.3;fill:rgb(0,0,255);stroke:rgb(51,51,153);stroke-width:1"/></g>
</svg>
