<?xml version="1.0" standalone="no"?>
<!DOCTYPE svg PUBLIC "-//W3C//DTD SVG 1.1//EN"
"http://www.w3.org/Graphics/SVG/1.1/DTD/svg11.dtd">
<svg  version="1.1" xmlns="http://www.w3.org/2000/svg" xmlns:xlink="http://www.w3.org/1999/xlink" viewBox="0 0 10 10">
<g title="A + B (CGAL EPECK)" fill-rule="evenodd">
<path d="M -0,4 L 1,4 L 1,3 L 3,3 L 3,4 L 3,5 L 3,6 L 2,6 L 1,6 L -0,6 L -0,4 M 2,5 L 2,4 L 1,4 L 1,5 L 2,5 z" style="fill-opacity:0.3;fill:rgb(0,0,255);stroke:rgb(51,51,153);stroke-width:0.025000" />
<path d="M -0,7 L 1,7 L 2,7 L 2,8 L -0,8 L -0,7 z" style="fill-opacity:0.3;fill:rgb(0,0,255);stroke:rgb(51,51,153);stroke-width:0.025000" />
<path d="M 1,-0 L 4,-0 L 5,-0 L 5,1 L 3,1 L 3,2 L 2,2 L 2,1 L 1,1 L 1,-0 z" style="fill-opacity:0.3;fill:rgb(0,0,255);stroke:rgb(51,51,153);stroke-width:0.025000" />
<path d="M 2,9 L 3,9 L 3,10 L 2,10 L 2,9 z" style="fill-opacity:0.3;fill:rgb(0,0,255);stroke:rgb(51,51,153);stroke-width:0.025000" />
<path d="M 4,5 L 6,5 L 6,6 L 5,6 L 5,7 L 5,8 L 4,8 L 4,7 L 4,6 L 4,5 z" style="fill-opacity:0.3;fill:rgb(0,0,255);stroke:rgb(51,51,153);stroke-width:0.025000" />
<path d="M 6,9 L 7,9 L 7,10 L 6,10 L 6,9 z" style="fill-opacity:0.3;fill:rgb(0,0,255);stroke:rgb(51,51,153);stroke-width:0.025000" />
<path d="M 7,-0 L 9,-0 L 10,-0 L 10,2 L 9,2 L 9,1 L 8,1 L 7,1 L 7,-0 z" style="fill-opacity:0.3;fill:rgb(0,0,255);stroke:rgb(51,51,153);stroke-width:0.025000" />
<path d="M 7,2 L 8,2 L 8,3 L 7,3 L 7,2 z" style="fill-opacity:0.3;fill:rgb(0,0,255);stroke:rgb(51,51,153);stroke-width:0.025000" />
<path d="M 8,7 L 9,7 L 9,8 L 8,8 L 8,7 z" style="fill-opacity:0.3;fill:rgb(0,0,255);stroke:rgb(51,51,153);stroke-width:0.025000" />
</g></svg>