<?xml version="1.0" standalone="no"?>
<!DOCTYPE svg PUBLIC "-//W3C//DTD SVG 1.1//EN"
"http://www.w3.org/Graphics/SVG/1.1/DTD/svg11.dtd">
<svg viewBox="0 0 300 300" version="1.1"
xmlns="http://www.w3.org/2000/svg"
xmlns:xlink="http://www.w3.org/1999/xlink">
<g fill-rule="evenodd"><path d="M 112.5,162.5 L 100,175 L 125,200 L 137.5,187.5 L 150,200 L 100,250 L 0,150 L 100,50 L 150,100 L 100,150 L 112.5,162.5 z " style="fill-opacity:0.3;fill:rgb(0,0,255);stroke:rgb(51,51,153);stroke-width:1"/></g>
<g fill-rule="evenodd"><path d="M 112.5,162.5 L 125,150 L 150,175 L 137.5,187.5 L 112.5,162.5 z " style="fill-opacity:0.3;fill:rgb(0,0,255);stroke:rgb(51,51,153);stroke-width:1"/></g>
<g fill-rule="evenodd"><path d="M 150,200 L 187.5,162.5 L 200,175 L 225,150 L 200,125 L 187.5,137.5 L 150,100 L 200,50 L 300,150 L 200,250 L 150,200 z " style="fill-opacity:0.3;fill:rgb(0,0,255);stroke:rgb(51,51,153);stroke-width:1"/></g>
<g fill-rule="evenodd"><path d="M 187.5,162.5 L 175,150 L 187.5,137.5 L 200,150 L 187.5,162.5 z " style="fill-opacity:0.3;fill:rgb(0,0,255);stroke:rgb(51,51,153);stroke-width:1"/></g>
</svg>
