<?xml version="1.0" standalone="no"?>
<!DOCTYPE svg PUBLIC "-//W3C//DTD SVG 1.1//EN"
"http://www.w3.org/Graphics/SVG/1.1/DTD/svg11.dtd">
<svg viewBox="0 0 300 300" version="1.1"
xmlns="http://www.w3.org/2000/svg"
xmlns:xlink="http://www.w3.org/1999/xlink">
<g fill-rule="evenodd"><path d="M 60,30 L 30,30 L 30,0 L 60,0 L 60,30 z " style="fill-opacity:0.3;fill:rgb(0,0,255);stroke:rgb(51,51,153);stroke-width:1"/></g>
<g fill-rule="evenodd"><path d="M 150,180 L 120,180 L 120,150 L 150,150 L 150,120 L 120,120 L 120,90 L 180,90 L 180,120 L 180,150 L 240,150 L 240,120 L 210,120 L 210,30 L 180,30 L 180,60 L 150,60 L 150,0 L 240,0 L 270,0 L 300,0 L 300,30 L 270,30 L 270,60 L 240,60 L 240,90 L 300,90 L 300,120 L 300,270 L 270,270 L 270,240 L 210,240 L 210,180 L 180,180 L 180,240 L 150,240 L 150,180M 270,180 L 240,180 L 240,210 L 270,210 L 270,180 z " style="fill-opacity:0.3;fill:rgb(0,0,255);stroke:rgb(51,51,153);stroke-width:1"/></g>
<g fill-rule="evenodd"><path d="M 90,300 L 90,270 L 120,270 L 180,270 L 180,240 L 210,240 L 210,270 L 270,270 L 270,300 L 90,300 z " style="fill-opacity:0.3;fill:rgb(0,0,255);stroke:rgb(51,51,153);stroke-width:1"/></g>
<g fill-rule="evenodd"><path d="M 120,150 L 90,150 L 90,180 L 30,180 L 0,180 L 0,90 L 0,60 L 90,60 L 90,120 L 120,120 L 120,150M 30,150 L 60,150 L 60,120 L 30,120 L 30,150 z " style="fill-opacity:0.3;fill:rgb(0,0,255);stroke:rgb(51,51,153);stroke-width:1"/></g>
<g fill-rule="evenodd"><path d="M 90,180 L 120,180 L 120,210 L 120,240 L 90,240 L 90,180 z " style="fill-opacity:0.3;fill:rgb(0,0,255);stroke:rgb(51,51,153);stroke-width:1"/></g>
<g fill-rule="evenodd"><path d="M 0,240 L 0,210 L 30,210 L 60,210 L 60,240 L 0,240 z " style="fill-opacity:0.3;fill:rgb(0,0,255);stroke:rgb(51,51,153);stroke-width:1"/></g>
<g fill-rule="evenodd"><path d="M 90,60 L 90,30 L 120,30 L 120,60 L 90,60 z " style="fill-opacity:0.3;fill:rgb(0,0,255);stroke:rgb(51,51,153);stroke-width:1"/></g>
</svg>
