<?xml version="1.0" standalone="no"?>
<!DOCTYPE svg PUBLIC "-//W3C//DTD SVG 1.1//EN"
"http://www.w3.org/Graphics/SVG/1.1/DTD/svg11.dtd">
<svg  version="1.1" xmlns="http://www.w3.org/2000/svg" xmlns:xlink="http://www.w3.org/1999/xlink" viewBox="0 0 7 7">
<g title="A + B (CGAL EPECK)" fill-rule="evenodd">
<path d="M -0,-0 L 7,-0 L 7,7 L -0,7 L -0,-0 M 1,6 L 2,6 L 2,5 L 3,5 L 2,4 L 1,5 L 1,6 M 3,6 L 3,5 L 2,6 L 3,6 M 4,6 L 4,5 L 3,6 L 4,6 M 4,5 L 3.5,4.5 L 3,5 L 4,5 M 5,5 L 4,4 L 4,5 L 5,5 M 6,5 L 6,4 L 5,4 L 5,5 L 6,5 M 3,4 L 3,3 L 2,3 L 2,4 L 3,4 M 3,3 L 3,2 L 2,2 L 3,3 M 4,2 L 3,2 L 4,3 L 5,3 L 5,2 L 6,2 L 6,1 L 4,1 L 4,2 M 6,3 L 6,2 L 5,3 L 6,3 M 2,2 L 1.5,1.5 L 1,2 L 2,2 M 2,4 L 1.5,3.5 L 1,4 L 2,4 z" style="fill-opacity:0.3;fill:rgb(0,0,255);stroke:rgb(51,51,153);stroke-width:0.017500" />
</g></svg>