<?xml version="1.0" standalone="no"?>
<!DOCTYPE svg PUBLIC "-//W3C//DTD SVG 1.1//EN"
"http://www.w3.org/Graphics/SVG/1.1/DTD/svg11.dtd">
<svg viewBox="0 0 300 300" version="1.1"
xmlns="http://www.w3.org/2000/svg"
xmlns:xlink="http://www.w3.org/1999/xlink">
<g fill-rule="evenodd"><path d="M 180,0 L 210,0 L 180,30 L 180,0 z " style="fill-opacity:0.3;fill:rgb(0,0,255);stroke:rgb(51,51,153);stroke-width:1"/></g>
<g fill-rule="evenodd"><path d="M 120,300 L 120,270 L 30,270 L 0,300 L 0,210 L 30,210 L 30,180 L 60,180 L 75,195 L 90,180 L 90,210 L 120,180 L 150,180 L 135,195 L 150,210 L 120,210 L 120,240 L 135,255 L 150,240 L 180,270 L 180,240 L 195,255 L 210,240 L 240,240 L 240,180 L 270,150 L 270,180 L 270,210 L 300,240 L 300,270 L 240,270 L 210,270 L 180,300 L 120,300M 180,270 L 150,270 L 165,285 L 180,270M 30,210 L 60,240 L 60,210 L 30,210 z " style="fill-opacity:0.3;fill:rgb(0,0,255);stroke:rgb(51,51,153);stroke-width:1"/></g>
<g fill-rule="evenodd"><path d="M 150,240 L 150,180 L 150,150 L 120,180 L 60,180 L 60,150 L 30,180 L 0,180 L 0,150 L 45,105 L 60,120 L 75,135 L 90,120 L 90,150 L 120,120 L 120,90 L 90,90 L 60,120 L 60,90 L 90,60 L 60,60 L 90,30 L 0,30 L 0,0 L 180,0 L 165,15 L 180,30 L 195,45 L 210,30 L 210,60 L 240,60 L 270,90 L 270,120 L 300,90 L 300,150 L 270,150 L 240,150 L 240,180 L 210,210 L 180,210 L 180,240 L 150,240M 180,180 L 195,195 L 210,180 L 180,180M 120,30 L 90,60 L 105,75 L 120,60 L 150,90 L 150,30 L 120,30M 210,60 L 180,60 L 195,75 L 210,60M 180,150 L 210,120 L 210,90 L 180,90 L 180,150M 180,150 L 195,165 L 210,150 L 180,150 z " style="fill-opacity:0.3;fill:rgb(0,0,255);stroke:rgb(51,51,153);stroke-width:1"/></g>
<g fill-rule="evenodd"><path d="M 210,0 L 225,15 L 210,30 L 210,0 z " style="fill-opacity:0.3;fill:rgb(0,0,255);stroke:rgb(51,51,153);stroke-width:1"/></g>
<g fill-rule="evenodd"><path d="M 210,300 L 240,270 L 255,285 L 270,270 L 300,300 L 210,300 z " style="fill-opacity:0.3;fill:rgb(0,0,255);stroke:rgb(51,51,153);stroke-width:1"/></g>
<g fill-rule="evenodd"><path d="M 30,120 L 0,120 L 0,60 L 30,90 L 30,120 z " style="fill-opacity:0.3;fill:rgb(0,0,255);stroke:rgb(51,51,153);stroke-width:1"/></g>
<g fill-rule="evenodd"><path d="M 120,120 L 90,120 L 90,90 L 120,120 z " style="fill-opacity:0.3;fill:rgb(0,0,255);stroke:rgb(51,51,153);stroke-width:1"/></g>
<g fill-rule="evenodd"><path d="M 60,300 L 30,300 L 60,270 L 60,300 z " style="fill-opacity:0.3;fill:rgb(0,0,255);stroke:rgb(51,51,153);stroke-width:1"/></g>
<g fill-rule="evenodd"><path d="M 30,60 L 60,30 L 60,90 L 30,90 L 30,60 z " style="fill-opacity:0.3;fill:rgb(0,0,255);stroke:rgb(51,51,153);stroke-width:1"/></g>
<g fill-rule="evenodd"><path d="M 300,180 L 300,210 L 270,210 L 300,180 z " style="fill-opacity:0.3;fill:rgb(0,0,255);stroke:rgb(51,51,153);stroke-width:1"/></g>
<g fill-rule="evenodd"><path d="M 240,60 L 240,30 L 270,60 L 240,60 z " style="fill-opacity:0.3;fill:rgb(0,0,255);stroke:rgb(51,51,153);stroke-width:1"/></g>
<g fill-rule="evenodd"><path d="M 270,30 L 285,45 L 300,30 L 300,60 L 270,60 L 270,30 z " style="fill-opacity:0.3;fill:rgb(0,0,255);stroke:rgb(51,51,153);stroke-width:1"/></g>
<g fill-rule="evenodd"><path d="M 270,30 L 300,0 L 300,30 L 270,30 z " style="fill-opacity:0.3;fill:rgb(0,0,255);stroke:rgb(51,51,153);stroke-width:1"/></g>
</svg>
