<?xml version="1.0" standalone="no"?>
<!DOCTYPE svg PUBLIC "-//W3C//DTD SVG 1.1//EN"
"http://www.w3.org/Graphics/SVG/1.1/DTD/svg11.dtd">
<svg  version="1.1" xmlns="http://www.w3.org/2000/svg" xmlns:xlink="http://www.w3.org/1999/xlink" viewBox="0 0 8 10">
<g title="A + B (CGAL EPECK)" fill-rule="evenodd">
<path d="M -0,3 L 1,3 L 2,3 L 2,4 L 2,5 L 1,4 L -0,3 M 2,4 L 1,3 L 1,4 L 2,4 z" style="fill-opacity:0.3;fill:rgb(0,0,255);stroke:rgb(51,51,153);stroke-width:0.025000" />
<path d="M 1,-0 L 2,-0 L 2,1 L 1,-0 z" style="fill-opacity:0.3;fill:rgb(0,0,255);stroke:rgb(51,51,153);stroke-width:0.025000" />
<path d="M 2,9 L 3,9 L 2,10 L 2,9 z" style="fill-opacity:0.3;fill:rgb(0,0,255);stroke:rgb(51,51,153);stroke-width:0.025000" />
<path d="M 4,2 L 5,3 L 6,3 L 6,4 L 5,4 L 5,3 L 4,3 L 4,2 z" style="fill-opacity:0.3;fill:rgb(0,0,255);stroke:rgb(51,51,153);stroke-width:0.025000" />
<path d="M 7,7 L 8,8 L 7,8 L 7,7 z" style="fill-opacity:0.3;fill:rgb(0,0,255);stroke:rgb(51,51,153);stroke-width:0.025000" />
</g></svg>