<?xml version="1.0" standalone="no"?>
<!DOCTYPE svg PUBLIC "-//W3C//DTD SVG 1.1//EN"
"http://www.w3.org/Graphics/SVG/1.1/DTD/svg11.dtd">
<svg viewBox="0 0 300 300" version="1.1"
xmlns="http://www.w3.org/2000/svg"
xmlns:xlink="http://www.w3.org/1999/xlink">
<g fill-rule="evenodd"><path d="M 120,60 L 120,30 L 150,30 L 150,60 L 120,60 z " style="fill-opacity:0.3;fill:rgb(0,0,255);stroke:rgb(51,51,153);stroke-width:1"/></g>
<g fill-rule="evenodd"><path d="M 150,210 L 150,240 L 120,240 L 150,210 z " style="fill-opacity:0.3;fill:rgb(0,0,255);stroke:rgb(51,51,153);stroke-width:1"/></g>
<g fill-rule="evenodd"><path d="M 150,300 L 150,270 L 180,270 L 150,300 z " style="fill-opacity:0.3;fill:rgb(0,0,255);stroke:rgb(51,51,153);stroke-width:1"/></g>
<g fill-rule="evenodd"><path d="M 150,240 L 180,240 L 180,270 L 150,240 z " style="fill-opacity:0.3;fill:rgb(0,0,255);stroke:rgb(51,51,153);stroke-width:1"/></g>
<g fill-rule="evenodd"><path d="M 180,120 L 180,180 L 90,180 L 60,180 L 90,150 L 120,150 L 135,165 L 180,120 z " style="fill-opacity:0.3;fill:rgb(0,0,255);stroke:rgb(51,51,153);stroke-width:1"/></g>
<g fill-rule="evenodd"><path d="M 180,180 L 195,165 L 210,180 L 180,180 z " style="fill-opacity:0.3;fill:rgb(0,0,255);stroke:rgb(51,51,153);stroke-width:1"/></g>
<g fill-rule="evenodd"><path d="M 180,0 L 150,30 L 150,0 L 180,0 z " style="fill-opacity:0.3;fill:rgb(0,0,255);stroke:rgb(51,51,153);stroke-width:1"/></g>
<g fill-rule="evenodd"><path d="M 60,120 L 90,120 L 60,150 L 60,120 z " style="fill-opacity:0.3;fill:rgb(0,0,255);stroke:rgb(51,51,153);stroke-width:1"/></g>
<g fill-rule="evenodd"><path d="M 120,120 L 120,150 L 105,135 L 120,120 z " style="fill-opacity:0.3;fill:rgb(0,0,255);stroke:rgb(51,51,153);stroke-width:1"/></g>
<g fill-rule="evenodd"><path d="M 180,120 L 180,90 L 210,60 L 210,90 L 240,90 L 210,120 L 180,120 z " style="fill-opacity:0.3;fill:rgb(0,0,255);stroke:rgb(51,51,153);stroke-width:1"/></g>
<g fill-rule="evenodd"><path d="M 180,240 L 210,210 L 210,240 L 180,240 z " style="fill-opacity:0.3;fill:rgb(0,0,255);stroke:rgb(51,51,153);stroke-width:1"/></g>
<g fill-rule="evenodd"><path d="M 0,150 L 30,150 L 30,180 L 0,180 L 0,150 z " style="fill-opacity:0.3;fill:rgb(0,0,255);stroke:rgb(51,51,153);stroke-width:1"/></g>
<g fill-rule="evenodd"><path d="M 75,285 L 90,300 L 60,300 L 75,285 z " style="fill-opacity:0.3;fill:rgb(0,0,255);stroke:rgb(51,51,153);stroke-width:1"/></g>
<g fill-rule="evenodd"><path d="M 60,270 L 60,210 L 90,240 L 90,270 L 60,270 z " style="fill-opacity:0.3;fill:rgb(0,0,255);stroke:rgb(51,51,153);stroke-width:1"/></g>
<g fill-rule="evenodd"><path d="M 60,30 L 90,0 L 120,0 L 120,30 L 60,30 z " style="fill-opacity:0.3;fill:rgb(0,0,255);stroke:rgb(51,51,153);stroke-width:1"/></g>
<g fill-rule="evenodd"><path d="M 30,30 L 0,30 L 0,0 L 30,0 L 30,30 z " style="fill-opacity:0.3;fill:rgb(0,0,255);stroke:rgb(51,51,153);stroke-width:1"/></g>
<g fill-rule="evenodd"><path d="M 240,150 L 240,120 L 270,120 L 270,150 L 255,165 L 240,150 z " style="fill-opacity:0.3;fill:rgb(0,0,255);stroke:rgb(51,51,153);stroke-width:1"/></g>
<g fill-rule="evenodd"><path d="M 270,150 L 300,150 L 300,180 L 270,180 L 270,150 z " style="fill-opacity:0.3;fill:rgb(0,0,255);stroke:rgb(51,51,153);stroke-width:1"/></g>
<g fill-rule="evenodd"><path d="M 240,300 L 210,300 L 240,270 L 240,300 z " style="fill-opacity:0.3;fill:rgb(0,0,255);stroke:rgb(51,51,153);stroke-width:1"/></g>
<g fill-rule="evenodd"><path d="M 270,210 L 300,240 L 270,240 L 270,210 z " style="fill-opacity:0.3;fill:rgb(0,0,255);stroke:rgb(51,51,153);stroke-width:1"/></g>
<g fill-rule="evenodd"><path d="M 270,60 L 270,90 L 240,90 L 270,60 z " style="fill-opacity:0.3;fill:rgb(0,0,255);stroke:rgb(51,51,153);stroke-width:1"/></g>
<g fill-rule="evenodd"><path d="M 270,90 L 300,90 L 270,120 L 270,90 z " style="fill-opacity:0.3;fill:rgb(0,0,255);stroke:rgb(51,51,153);stroke-width:1"/></g>
<g fill-rule="evenodd"><path d="M 210,30 L 195,15 L 210,0 L 210,30 z " style="fill-opacity:0.3;fill:rgb(0,0,255);stroke:rgb(51,51,153);stroke-width:1"/></g>
<g fill-rule="evenodd"><path d="M 240,30 L 270,30 L 300,30 L 270,60 L 240,60 L 240,30 z " style="fill-opacity:0.3;fill:rgb(0,0,255);stroke:rgb(51,51,153);stroke-width:1"/></g>
</svg>
