<?xml version="1.0" standalone="no"?>
<!DOCTYPE svg PUBLIC "-//W3C//DTD SVG 1.1//EN"
"http://www.w3.org/Graphics/SVG/1.1/DTD/svg11.dtd">
<svg viewBox="0 0 300 300" version="1.1"
xmlns="http://www.w3.org/2000/svg"
xmlns:xlink="http://www.w3.org/1999/xlink">
<g fill-rule="evenodd"><path d="M 60,150 L 60,30 L 120,30 L 120,90 L 90,120 L 120,150 L 60,150 z " style="fill-opacity:0.3;fill:rgb(255,0,0);stroke:rgb(0,0,0);stroke-width:1"/></g>
<g fill-rule="evenodd"><path d="M 60,150 L 120,210 L 0,210 L 60,150 z " style="fill-opacity:0.3;fill:rgb(255,0,0);stroke:rgb(0,0,0);stroke-width:1"/></g>
<g fill-rule="evenodd"><path d="M 120,210 L 180,210 L 180,270 L 120,270 L 120,210 z " style="fill-opacity:0.3;fill:rgb(255,0,0);stroke:rgb(0,0,0);stroke-width:1"/></g>
<g fill-rule="evenodd"><path d="M 180,210 L 180,150 L 240,150 L 240,210 L 180,210 z " style="fill-opacity:0.3;fill:rgb(255,0,0);stroke:rgb(0,0,0);stroke-width:1"/></g>
<g fill-rule="evenodd"><path d="M 60,90 L 60,150 L 0,150 L 0,90 L 60,30 L 60,90 z " style="fill-opacity:0.3;fill:rgb(0,255,0);stroke:rgb(0,0,0);stroke-width:1"/></g>
<g fill-rule="evenodd"><path d="M 180,30 L 240,30 L 240,90 L 120,90 L 120,30 L 180,30 z " style="fill-opacity:0.3;fill:rgb(0,255,0);stroke:rgb(0,0,0);stroke-width:1"/></g>
<g fill-rule="evenodd"><path d="M 180,270 L 180,210 L 300,210 L 300,270 L 180,270 z " style="fill-opacity:0.3;fill:rgb(0,255,0);stroke:rgb(0,0,0);stroke-width:1"/></g>
</svg>
