<?xml version="1.0" standalone="no"?>
<!DOCTYPE svg PUBLIC "-//W3C//DTD SVG 1.1//EN"
"http://www.w3.org/Graphics/SVG/1.1/DTD/svg11.dtd">
<svg viewBox="0 0 300 300" version="1.1"
xmlns="http://www.w3.org/2000/svg"
xmlns:xlink="http://www.w3.org/1999/xlink">
<g fill-rule="evenodd"><path d="M 183.333,233.333 L 183.333,200.000 L 150.000,200.000 L 150.000,100.000 L 216.667,100.000 L 216.667,133.333 L 283.333,133.333 L 283.333,266.667 L 183.333,266.667 L 183.333,233.333 z " style="fill-opacity:0.3;fill:rgb(255,0,0);stroke:rgb(0,0,0);stroke-width:1"/></g>
<g fill-rule="evenodd"><path d="M 150.000,66.6667 L 150.000,100.000 L 50.0000,100.000 L 50.0000,166.667 L 16.6667,166.667 L 16.6667,66.6667 L 83.3333,66.6667 L 83.3333,33.3333 L 116.667,33.3333 L 116.667,66.6667 L 150.000,66.6667 z " style="fill-opacity:0.3;fill:rgb(255,0,0);stroke:rgb(0,0,0);stroke-width:1"/></g>
<g fill-rule="evenodd"><path d="M 116.667,200.000 L 83.3333,200.000 L 83.3333,133.333 L 116.667,133.333 L 116.667,200.000 z " style="fill-opacity:0.3;fill:rgb(255,0,0);stroke:rgb(0,0,0);stroke-width:1"/></g>
<g fill-rule="evenodd"><path d="M 116.667,200.000 L 150.000,200.000 L 150.000,300.0 L 116.667,300.0 L 116.667,266.667 L 83.3333,266.667 L 83.3333,233.333 L 116.667,233.333 L 116.667,200.000 z " style="fill-opacity:0.3;fill:rgb(255,0,0);stroke:rgb(0,0,0);stroke-width:1"/></g>
<g fill-rule="evenodd"><path d="M 50.0000,266.667 L 83.3333,266.667 L 83.3333,300.0 L 50.0000,300.0 L 50.0000,266.667 z " style="fill-opacity:0.3;fill:rgb(255,0,0);stroke:rgb(0,0,0);stroke-width:1"/></g>
<g fill-rule="evenodd"><path d="M 50.0000,266.667 L 16.6667,266.667 L 16.6667,233.333 L 50.0000,233.333 L 50.0000,266.667 z " style="fill-opacity:0.3;fill:rgb(255,0,0);stroke:rgb(0,0,0);stroke-width:1"/></g>
<g fill-rule="evenodd"><path d="M 83.3333,200.000 L 83.3333,233.333 L 50.0000,233.333 L 50.0000,200.000 L 83.3333,200.000 z " style="fill-opacity:0.3;fill:rgb(255,0,0);stroke:rgb(0,0,0);stroke-width:1"/></g>
<g fill-rule="evenodd"><path d="M 183.333,266.667 L 150.000,266.667 L 150.000,233.333 L 250.000,233.333 L 250.000,266.667 L 183.333,266.667 z " style="fill-opacity:0.3;fill:rgb(0,255,0);stroke:rgb(0,0,0);stroke-width:1"/></g>
<g fill-rule="evenodd"><path d="M 250.000,100.000 L 250.000,166.667 L 216.667,166.667 L 216.667,200.000 L 150.000,200.000 L 150.000,166.667 L 116.667,166.667 L 116.667,133.333 L 216.667,133.333 L 216.667,100.000 L 116.667,100.000 L 116.667,33.3333 L 83.3333,33.3333 L 83.3333,0 L 250.000,0 L 250.000,100.000 z " style="fill-opacity:0.3;fill:rgb(0,255,0);stroke:rgb(0,0,0);stroke-width:1"/></g>
<g fill-rule="evenodd"><path d="M 116.667,166.667 L 116.667,233.333 L 50.0000,233.333 L 50.0000,266.667 L 16.6667,266.667 L 16.6667,166.667 L 50.0000,166.667 L 50.0000,200.000 L 83.3333,200.000 L 83.3333,166.667 L 116.667,166.667 z " style="fill-opacity:0.3;fill:rgb(0,255,0);stroke:rgb(0,0,0);stroke-width:1"/></g>
<g fill-rule="evenodd"><path d="M 150.000,266.667 L 150.000,300.0 L 83.3333,300.0 L 83.3333,266.667 L 150.000,266.667 z " style="fill-opacity:0.3;fill:rgb(0,255,0);stroke:rgb(0,0,0);stroke-width:1"/></g>
<g fill-rule="evenodd"><path d="M 83.3333,166.667 L 50.0000,166.667 L 50.0000,133.333 L 83.3333,133.333 L 83.3333,166.667 z " style="fill-opacity:0.3;fill:rgb(0,255,0);stroke:rgb(0,0,0);stroke-width:1"/></g>
</svg>
