<?xml version="1.0" standalone="no"?>
<!DOCTYPE svg PUBLIC "-//W3C//DTD SVG 1.1//EN"
"http://www.w3.org/Graphics/SVG/1.1/DTD/svg11.dtd">
<svg  version="1.1" xmlns="http://www.w3.org/2000/svg" xmlns:xlink="http://www.w3.org/1999/xlink" viewBox="0 0 10 10">
<g title="A + B (CGAL Real)" fill-rule="evenodd">
<path d="M 0,5.0 L 1.0,6.0 L 1.50000,6.50000 L 2.0,6.0 L 2.50000,5.50000 L 3.0,6.0 L 3.0,5.0 L 4.0,6.0 L 4.0,7.0 L 3.0,7.0 L 2.0,6.0 L 2.0,7.0 L 3.0,8.0 L 3.50000,7.50000 L 4.0,8.0 L 5.0,7.0 L 5.0,9.0 L 4.0,9.0 L 3.0,8.0 L 2.0,8.0 L 3.0,9.0 L 2.0,9.0 L 1.0,9.0 L 0,8.0 L 1.0,7.0 L 1.0,6.0 L 0,6.0 L 0,5.0 M 2.0,9.0 L 2.0,8.0 L 2.0,7.0 L 1.0,7.0 L 1.0,8.0 L 2.0,9.0 M 4.0,6.0 L 3.0,6.0 L 3.0,7.0 L 4.0,6.0 z" style="fill-opacity:0.3;fill:rgb(0,0,255);stroke:rgb(51,51,153);stroke-width:0.025000" />
<path d="M 1.0,0 L 2.0,1.0 L 2.0,0 L 3.0,0 L 4.0,0 L 4.0,1.0 L 3.0,1.0 L 2.0,1.0 L 1.0,1.0 L 0,0 L 1.0,0 z" style="fill-opacity:0.3;fill:rgb(0,0,255);stroke:rgb(51,51,153);stroke-width:0.025000" />
<path d="M 1.0,3.0 L 2.0,2.0 L 2.0,3.0 L 1.0,3.0 L 1.0,4.0 L 2.0,4.0 L 2.50000,3.50000 L 3.0,4.0 L 3.0,3.0 L 4.0,4.0 L 5.0,4.0 L 4.50000,3.50000 L 5.0,3.0 L 4.0,3.0 L 4.0,2.0 L 4.50000,1.50000 L 5.0,2.0 L 6.0,1.0 L 5.0,1.0 L 5.50000,0.50000 L 6.0,1.0 L 6.0,2.0 L 6.50000,1.50000 L 7.0,2.0 L 8.0,2.0 L 8.0,3.0 L 7.0,2.0 L 7.0,3.0 L 6.0,3.0 L 6.0,2.0 L 5.0,2.0 L 5.0,3.0 L 5.0,4.0 L 5.0,5.0 L 4.0,4.0 L 3.0,4.0 L 2.0,4.0 L 2.0,5.0 L 1.0,4.0 L 0,3.0 L 1.0,3.0 z" style="fill-opacity:0.3;fill:rgb(0,0,255);stroke:rgb(51,51,153);stroke-width:0.025000" />
<path d="M 6.0,5.0 L 6.50000,4.50000 L 7.0,5.0 L 6.0,5.0 L 7.0,6.0 L 7.0,7.0 L 6.0,7.0 L 6.0,5.0 z" style="fill-opacity:0.3;fill:rgb(0,0,255);stroke:rgb(51,51,153);stroke-width:0.025000" />
<path d="M 6.0,9.0 L 6.50000,8.50000 L 7.0,9.0 L 7.0,8.0 L 6.0,8.0 L 6.50000,7.50000 L 7.0,8.0 L 8.0,8.0 L 9.0,7.0 L 9.0,6.0 L 10.0,7.0 L 9.50000,7.50000 L 10.0,8.0 L 9.0,8.0 L 9.0,9.0 L 9.50000,8.50000 L 10.0,9.0 L 9.0,9.0 L 10.0,10.0 L 9.0,10.0 L 8.0,9.0 L 8.0,10.0 L 7.0,10.0 L 6.0,9.0 L 6.0,10.0 L 5.50000,9.50000 L 6.0,9.0 M 7.50000,9.50000 L 7.0,9.0 L 7.0,10.0 L 7.50000,9.50000 M 9.0,8.0 L 8.0,8.0 L 8.0,9.0 L 9.0,8.0 z" style="fill-opacity:0.3;fill:rgb(0,0,255);stroke:rgb(51,51,153);stroke-width:0.025000" />
<path d="M 6.50000,3.50000 L 7.0,4.0 L 6.0,4.0 L 6.50000,3.50000 z" style="fill-opacity:0.3;fill:rgb(0,0,255);stroke:rgb(51,51,153);stroke-width:0.025000" />
<path d="M 7.0,0 L 8.0,1.0 L 8.50000,0.50000 L 9.0,1.0 L 10.0,0 L 10.0,1.0 L 9.0,1.0 L 8.0,1.0 L 7.0,1.0 L 6.0,0 L 7.0,0 z" style="fill-opacity:0.3;fill:rgb(0,0,255);stroke:rgb(51,51,153);stroke-width:0.025000" />
<path d="M 8.0,4.0 L 9.0,5.0 L 8.0,5.0 L 8.0,4.0 z" style="fill-opacity:0.3;fill:rgb(0,0,255);stroke:rgb(51,51,153);stroke-width:0.025000" />
<path d="M 9.0,3.0 L 10.0,2.0 L 10.0,3.0 L 9.0,3.0 L 10.0,4.0 L 10.0,5.0 L 9.0,4.0 L 9.0,3.0 z" style="fill-opacity:0.3;fill:rgb(0,0,255);stroke:rgb(51,51,153);stroke-width:0.025000" />
</g></svg>