<?xml version="1.0" standalone="no"?>
<!DOCTYPE svg PUBLIC "-//W3C//DTD SVG 1.1//EN"
"http://www.w3.org/Graphics/SVG/1.1/DTD/svg11.dtd">
<svg  version="1.1" xmlns="http://www.w3.org/2000/svg" xmlns:xlink="http://www.w3.org/1999/xlink" viewBox="0 0 6 5">
<g title="A + B (CGAL EPECK)" fill-rule="evenodd">
<path d="M 3,-0 L 4,-0 L 4,2 L 6,2 L 6,3 L 5,3 L 4,3 L 3,3 L 3,4 L 4,4 L 5,4 L 5,5 L 4,5 L 3,5 L 3,4 L 2,4 L 2,3 L 1,3 L 1,4 L -0,4 L -0,3 L 1,3 L 1,2 L -0,2 L -0,1 L 1,1 L 1,2 L 2,2 L 2,1 L 3,1 L 3,-0 M 3,3 L 3,2 L 2,2 L 2,3 L 3,3 z" style="fill-opacity:0.3;fill:rgb(0,0,255);stroke:rgb(51,51,153);stroke-width:0.015000" />
</g></svg>