<?xml version="1.0" standalone="no"?>
<!DOCTYPE svg PUBLIC "-//W3C//DTD SVG 1.1//EN"
"http://www.w3.org/Graphics/SVG/1.1/DTD/svg11.dtd">
<svg viewBox="0 0 300 300" version="1.1"
xmlns="http://www.w3.org/2000/svg"
xmlns:xlink="http://www.w3.org/1999/xlink">
<g fill-rule="evenodd"><path d="M 300,0 L 300,90 L 270,60 L 240,90 L 210,60 L 240,30 L 210,0 L 300,0 z " style="fill-opacity:0.3;fill:rgb(0,0,255);stroke:rgb(51,51,153);stroke-width:1"/></g>
<g fill-rule="evenodd"><path d="M 0,300 L 0,0 L 210,0 L 180,30 L 210,60 L 180,90 L 210,120 L 240,90 L 270,120 L 300,90 L 300,300 L 0,300M 0,150 L 60,210 L 120,150 L 60,90 L 0,150M 90,240 L 60,210 L 30,240 L 60,270 L 90,240M 90,240 L 120,270 L 150,240 L 120,210 L 90,240M 90,60 L 60,30 L 30,60 L 60,90 L 90,60M 90,60 L 120,90 L 150,60 L 120,30 L 90,60M 300,210 L 270,180 L 240,210 L 210,240 L 240,270 L 300,210 z " style="fill-opacity:0.3;fill:rgb(0,0,255);stroke:rgb(51,51,153);stroke-width:1"/></g>
<g fill-rule="evenodd"><path d="M 240,210 L 270,240 L 240,240 L 240,210 z " style="fill-opacity:0.3;fill:rgb(0,0,255);stroke:rgb(51,51,153);stroke-width:1"/></g>
</svg>
