<?xml version="1.0" standalone="no"?>
<!DOCTYPE svg PUBLIC "-//W3C//DTD SVG 1.1//EN"
"http://www.w3.org/Graphics/SVG/1.1/DTD/svg11.dtd">
<svg  version="1.1" xmlns="http://www.w3.org/2000/svg" xmlns:xlink="http://www.w3.org/1999/xlink" viewBox="0 0 10 10">
<g title="A + B (CGAL EPECK)" fill-rule="evenodd">
<path d="M 2,7 L 3,7 L 3,8 L 4,8 L 4,9 L 2,9 L 2,7 z" style="fill-opacity:0.3;fill:rgb(0,0,255);stroke:rgb(51,51,153);stroke-width:0.025000" />
<path d="M 3,5 L 4,5 L 4,6 L 3,6 L 3,5 z" style="fill-opacity:0.3;fill:rgb(0,0,255);stroke:rgb(51,51,153);stroke-width:0.025000" />
<path d="M 4,1 L 5,1 L 7,1 L 7,2 L 6,2 L 6,3 L 5,3 L 5,4 L 4,4 L 4,3 L 5,3 L 5,2 L 4,2 L 4,1 z" style="fill-opacity:0.3;fill:rgb(0,0,255);stroke:rgb(51,51,153);stroke-width:0.025000" />
<path d="M 6,6 L 7,6 L 7,7 L 8,7 L 9,7 L 9,8 L 10,8 L 10,9 L 9,9 L 9,10 L 7,10 L 7,9 L 6,9 L 6,8 L 6,6 M 8,9 L 8,8 L 7,8 L 7,9 L 8,9 z" style="fill-opacity:0.3;fill:rgb(0,0,255);stroke:rgb(51,51,153);stroke-width:0.025000" />
<path d="M 8,4 L 9,4 L 9,5 L 10,5 L 10,6 L 9,6 L 9,5 L 8,5 L 8,4 z" style="fill-opacity:0.3;fill:rgb(0,0,255);stroke:rgb(51,51,153);stroke-width:0.025000" />
</g></svg>