<?xml version="1.0" standalone="no"?>
<!DOCTYPE svg PUBLIC "-//W3C//DTD SVG 1.1//EN"
"http://www.w3.org/Graphics/SVG/1.1/DTD/svg11.dtd">
<svg  version="1.1" xmlns="http://www.w3.org/2000/svg" xmlns:xlink="http://www.w3.org/1999/xlink" viewBox="0 0 300 150">
<g title="A + B (CGAL EPECK)" fill-rule="evenodd">
<path d="M 200,150 L 200,100 L 100,100 L 100,150 L -0,150 L -0,50 L 50,50 L 50,-0 L 250,-0 L 250,50 L 300,50 L 300,150 L 200,150 M 250,75 L 250,50 L 200,50 L 200,100 L 225,100 L 225,75 L 250,75 M 275,125 L 275,75 L 250,75 L 250,100 L 225,100 L 225,125 L 275,125 M 100,100 L 100,50 L 50,50 L 50,100 L 100,100 z" style="fill-opacity:0.3;fill:rgb(0,0,255);stroke:rgb(51,51,153);stroke-width:0.750000" />
</g></svg>