<?xml version="1.0" standalone="no"?>
<!DOCTYPE svg PUBLIC "-//W3C//DTD SVG 1.1//EN"
"http://www.w3.org/Graphics/SVG/1.1/DTD/svg11.dtd">
<svg  version="1.1" xmlns="http://www.w3.org/2000/svg" xmlns:xlink="http://www.w3.org/1999/xlink" viewBox="0 0 8 9">
<g title="A + B (CGAL EPECK)" fill-rule="evenodd">
<path d="M -0,2 L 1,2 L 1,3 L 3,3 L 3,4 L 2,4 L 2,5 L 3,5 L 3,6 L 1,6 L 1,7 L -0,7 L -0,5 L 1,5 L 1,4 L -0,4 L -0,2 z" style="fill-opacity:0.3;fill:rgb(0,0,255);stroke:rgb(51,51,153);stroke-width:0.022500" />
<path d="M 2,1 L 3,1 L 3,-0 L 5,-0 L 5,1 L 6,1 L 6,2 L 5,2 L 5,1 L 3,1 L 3,2 L 2,2 L 2,1 z" style="fill-opacity:0.3;fill:rgb(0,0,255);stroke:rgb(51,51,153);stroke-width:0.022500" />
<path d="M 2,7 L 3,7 L 3,8 L 5,8 L 5,7 L 6,7 L 6,8 L 5,8 L 5,9 L 3,9 L 3,8 L 2,8 L 2,7 z" style="fill-opacity:0.3;fill:rgb(0,0,255);stroke:rgb(51,51,153);stroke-width:0.022500" />
<path d="M 5,3 L 7,3 L 7,2 L 8,2 L 8,4 L 7,4 L 7,5 L 8,5 L 8,7 L 7,7 L 7,6 L 5,6 L 5,5 L 6,5 L 6,4 L 5,4 L 5,3 z" style="fill-opacity:0.3;fill:rgb(0,0,255);stroke:rgb(51,51,153);stroke-width:0.022500" />
</g></svg>