<?xml version="1.0" standalone="no"?>
<!DOCTYPE svg PUBLIC "-//W3C//DTD SVG 1.1//EN"
"http://www.w3.org/Graphics/SVG/1.1/DTD/svg11.dtd">
<svg viewBox="0 0 300 300" version="1.1"
xmlns="http://www.w3.org/2000/svg"
xmlns:xlink="http://www.w3.org/1999/xlink">
<g fill-rule="evenodd"><path d="M 191.087,22.3576 L 233.042,12.7899 L 243.233,54.5986 L 279.665,77.5003 L 257.308,114.269 L 266.875,156.225 L 225.066,166.415 L 202.165,202.847 L 165.396,180.49 L 123.441,190.057 L 113.25,148.249 L 76.8179,125.347 L 99.1755,88.5781 L 89.6079,46.6226 L 131.416,36.4323 L 154.318,0 L 191.087,22.3576 z " style="fill-opacity:0.3;fill:rgb(255,0,0);stroke:rgb(0,0,0);stroke-width:1"/></g>
<g fill-rule="evenodd"><path d="M 102.101,138.916 L 113.369,182.039 L 146.452,152.171 L 132.617,194.54 L 176.596,187.3 L 142.051,215.464 L 182.963,233.149 L 138.675,238.165 L 163.531,275.162 L 123.562,255.438 L 124.469,300 L 101.509,261.798 L 78.1807,299.777 L 79.5184,255.226 L 39.3609,274.563 L 64.5721,237.808 L 20.3349,232.365 L 61.4154,215.075 L 27.1435,186.579 L 71.0504,194.243 L 57.6249,151.743 L 90.4181,181.928 L 102.101,138.916 z " style="fill-opacity:0.3;fill:rgb(0,255,0);stroke:rgb(0,0,0);stroke-width:1"/></g>
</svg>
