<?xml version="1.0" standalone="no"?>
<!DOCTYPE svg PUBLIC "-//W3C//DTD SVG 1.1//EN"
"http://www.w3.org/Graphics/SVG/1.1/DTD/svg11.dtd">
<svg  version="1.1" xmlns="http://www.w3.org/2000/svg" xmlns:xlink="http://www.w3.org/1999/xlink" viewBox="0 0 52.3 60.502">
<g title="A + B (CGAL Real)" fill-rule="evenodd">
<path d="M 24.5469,17.0488 L 31.5137,22.7286 L 36.6702,19.5931 L 41.2889,26.9406 L 49.7206,28.9957 L 47.7911,37.4570 L 52.3000,44.8723 L 44.9526,49.4909 L 42.8974,57.9226 L 34.4361,55.9931 L 27.0209,60.5020 L 22.4022,53.1546 L 13.9705,51.0995 L 15.9000,42.6382 L 11.3911,35.2229 L 16.3814,32.0860 L 14.1339,23.8120 L 7.52039,29.8996 L 10.2280,21.3283 L 1.37310,22.8740 L 8.28483,17.1272 L -3.75000e-17,13.6402 L 8.92146,12.5425 L 3.83703,5.12989 L 11.9357,9.02972 L 11.6660,0.04502 L 16.3706,7.70425 L 21.0012,2.65625e-18 L 20.8181,8.98688 L 28.8788,5.00911 L 23.8661,12.4704 L 32.7977,13.4820 L 24.5469,17.0488 M 20.1043,25.0009 L 18.7626,23.7896 L 16.6367,31.9255 L 18.7385,30.6042 L 20.1043,25.0009 M 31.5137,22.7286 L 22.6444,21.2684 L 23.1123,22.7013 L 29.2550,24.1021 L 31.5137,22.7286 z" style="fill-opacity:0.3;fill:rgb(0,0,255);stroke:rgb(51,51,153);stroke-width:0.151255" />
</g></svg>