<?xml version="1.0" standalone="no"?>
<!DOCTYPE svg PUBLIC "-//W3C//DTD SVG 1.1//EN"
"http://www.w3.org/Graphics/SVG/1.1/DTD/svg11.dtd">
<svg viewBox="0 0 300 300" version="1.1"
xmlns="http://www.w3.org/2000/svg"
xmlns:xlink="http://www.w3.org/1999/xlink">
<g fill-rule="evenodd"><path d="M 190.559,22.0701 L 231.975,12.6255 L 242.034,53.8965 L 277.998,76.5038 L 255.928,112.800 L 265.372,154.216 L 224.101,164.275 L 201.494,200.239 L 165.198,178.169 L 123.782,187.613 L 113.723,146.342 L 77.7589,123.735 L 99.8290,87.4392 L 90.3844,46.0231 L 131.655,35.9639 L 154.263,0 L 190.559,22.0701 z " style="fill-opacity:0.3;fill:rgb(255,0,0);stroke:rgb(0,0,0);stroke-width:1"/></g>
<g fill-rule="evenodd"><path d="M 102.717,137.130 L 113.840,179.698 L 146.498,150.214 L 132.841,192.039 L 176.254,184.892 L 142.153,212.693 L 182.539,230.151 L 138.821,235.103 L 163.357,271.624 L 123.902,252.154 L 124.798,296.143 L 102.132,258.432 L 79.1042,295.922 L 80.4246,251.944 L 40.7835,271.033 L 65.6705,234.750 L 22.0022,229.377 L 62.5544,212.309 L 28.7232,184.180 L 72.0655,191.746 L 58.8126,149.792 L 91.1842,179.589 L 102.717,137.130 z " style="fill-opacity:0.3;fill:rgb(0,255,0);stroke:rgb(0,0,0);stroke-width:1"/></g>
</svg>
