<?xml version="1.0" standalone="no"?>
<!DOCTYPE svg PUBLIC "-//W3C//DTD SVG 1.1//EN"
"http://www.w3.org/Graphics/SVG/1.1/DTD/svg11.dtd">
<svg  version="1.1" xmlns="http://www.w3.org/2000/svg" xmlns:xlink="http://www.w3.org/1999/xlink" viewBox="0 0 58.7728 51.3988">
<g title="A + B (CGAL EPECK)" fill-rule="evenodd">
<path d="M 28.4591,13.4748 L 24.4140,14.3038 L 17.9521,9.86490 L 13.0805,16.0072 L 5.27717,16.7604 L 5.49353,24.5971 L 4.14062e-17,30.1900 L 5.20303,36.0541 L 4.58980,43.8697 L 12.3450,45.0175 L 16.8990,51.3988 L 23.5775,47.2931 L 31.1679,49.2541 L 33.6449,41.8161 L 40.7200,38.4394 L 37.8364,31.1494 L 39.9271,26.5589 L 39.6830,25.8479 L 32.4936,30.9227 L 35.0735,22.5094 L 26.2743,22.3891 L 33.3068,17.0991 L 33.3068,17.0991 L 28.4591,13.4748 z" style="fill-opacity:0.3;fill:rgb(0,0,255);stroke:rgb(51,51,153);stroke-width:0.146932" />
<path d="M 28.4591,13.4748 L 32.0940,12.7299 L 33.3068,17.0991 L 33.3068,17.0991 L 33.3068,17.0991 L 34.1908,20.2839 L 41.0857,24.0148 L 39.9271,26.5589 L 42.5410,34.1709 L 45.3744,25.8395 L 52.5787,30.8931 L 49.9740,22.4874 L 58.7728,22.3412 L 51.7247,17.0719 L 58.7572,11.7818 L 49.9580,11.6616 L 52.5379,3.24821 L 45.3486,8.32300 L 42.4905,4.37500e-16 L 39.6571,8.33140 L 32.4528,3.27786 L 35.0575,11.6836 L 26.2587,11.8297 L 28.4591,13.4748 z" style="fill-opacity:0.3;fill:rgb(0,0,255);stroke:rgb(51,51,153);stroke-width:0.146932" />
</g></svg>