<?xml version="1.0" standalone="no"?>
<!DOCTYPE svg PUBLIC "-//W3C//DTD SVG 1.1//EN"
"http://www.w3.org/Graphics/SVG/1.1/DTD/svg11.dtd">
<svg viewBox="0 0 300 300" version="1.1"
xmlns="http://www.w3.org/2000/svg"
xmlns:xlink="http://www.w3.org/1999/xlink">
<g fill-rule="evenodd"><path d="M 120.349,39.7771 L 159.093,29.767 L 171.737,67.7337 L 207.851,84.9699 L 193.132,122.181 L 209.718,158.599 L 174.524,177.643 L 163.821,216.202 L 124.619,208.168 L 91.6346,230.826 L 66.7683,199.473 L 26.9368,195.628 L 28.0412,155.627 L -1.77636e-15,127.078 L 26.5584,97.1451 L 23.4282,57.2512 L 63.0136,51.3926 L 86.2591,18.82 L 120.349,39.7771 z " style="fill-opacity:0.3;fill:rgb(255,0,0);stroke:rgb(0,0,0);stroke-width:1"/></g>
<g fill-rule="evenodd"><path d="M 217.146,106.758 L 231.609,149.285 L 268.383,123.489 L 255.087,166.395 L 300,167.142 L 264.024,194.038 L 299.92,221.041 L 255.006,221.655 L 268.175,264.6 L 231.477,238.696 L 216.889,281.18 L 202.426,238.653 L 165.652,264.448 L 178.948,221.542 L 134.035,220.796 L 170.011,193.9 L 134.115,166.897 L 179.029,166.283 L 165.86,123.338 L 202.558,149.242 L 217.146,106.758 z " style="fill-opacity:0.3;fill:rgb(0,255,0);stroke:rgb(0,0,0);stroke-width:1"/></g>
</svg>
