<?xml version="1.0" standalone="no"?>
<!DOCTYPE svg PUBLIC "-//W3C//DTD SVG 1.1//EN"
"http://www.w3.org/Graphics/SVG/1.1/DTD/svg11.dtd">
<svg viewBox="0 0 300 300" version="1.1"
xmlns="http://www.w3.org/2000/svg"
xmlns:xlink="http://www.w3.org/1999/xlink">
<g fill-rule="evenodd"><path d="M 125.572,18.9107 L 160.533,9.87803 L 171.941,44.1373 L 204.529,59.6904 L 191.247,93.2681 L 206.214,126.129 L 174.456,143.314 L 164.798,178.108 L 129.424,170.858 L 99.6610,191.304 L 77.2228,163.012 L 41.2808,159.543 L 42.2773,123.448 L 16.9743,97.6868 L 40.9393,70.6768 L 38.1148,34.6784 L 73.8348,29.3919 L 94.8104,0 L 125.572,18.9107 z " style="fill-opacity:0.3;fill:rgb(255,0,0);stroke:rgb(0,0,0);stroke-width:1"/></g>
<g fill-rule="evenodd"><path d="M 212.917,79.3509 L 225.967,117.725 L 259.150,94.4486 L 247.153,133.165 L 287.680,133.838 L 255.217,158.109 L 287.608,182.474 L 247.079,183.028 L 258.962,221.780 L 225.848,198.405 L 212.684,236.741 L 199.634,198.367 L 166.451,221.643 L 178.448,182.927 L 137.921,182.254 L 170.384,157.983 L 137.993,133.617 L 178.522,133.064 L 166.639,94.3120 L 199.753,117.686 L 212.917,79.3509 z " style="fill-opacity:0.3;fill:rgb(0,255,0);stroke:rgb(0,0,0);stroke-width:1"/></g>
</svg>
