<?xml version="1.0" standalone="no"?>
<!DOCTYPE svg PUBLIC "-//W3C//DTD SVG 1.1//EN"
"http://www.w3.org/Graphics/SVG/1.1/DTD/svg11.dtd">
<svg  version="1.1" xmlns="http://www.w3.org/2000/svg" xmlns:xlink="http://www.w3.org/1999/xlink" viewBox="0 0 65.7365 60.7356">
<g title="A + B (CGAL EPECK)" fill-rule="evenodd">
<path d="M 54.8427,40.7679 L 62.8339,48.7165 L 51.8439,46.2145 L 55.2259,56.9663 L 46.6575,49.6437 L 44.6555,60.7356 L 40.4716,50.2698 L 33.5442,59.1608 L 34.536,49.5672 L 33.812,48.3533 L 24.4375,52.6027 L 30.6739,43.2141 L 20.9635,42.6528 L 16.9995,49.8871 L 19.8208,32.4488 L 3.36016,38.8599 L 16.7305,27.3149 L -0,21.6453 L 17.6633,21.3956 L 8.49125,6.29838 L 22.1826,17.4608 L 24.8608,-0 L 28.1739,17.3516 L 41.4491,5.69728 L 35.3479,16.6185 L 38.4837,20.9927 L 42.5873,20.901 L 45.5847,14.1933 L 46.5085,20.8134 L 50.4943,20.7244 L 46.6974,22.1674 L 47.1424,25.3563 L 55.9963,18.3814 L 52.1878,28.9897 L 63.2689,26.9284 L 54.9668,34.5516 L 65.7365,37.876 L 54.8427,40.7679 M 27.6661,38.0475 L 25.9146,35.1104 L 25.2989,34.7405 L 21.6945,41.3186 L 27.6661,38.0475 M 34.7032,47.9494 L 34.2539,48.153 L 34.536,49.5672 L 34.7032,47.9494 M 34.7828,21.0754 L 34.5872,17.98 L 32.8337,21.119 L 34.7828,21.0754 M 35.13,26.5721 L 35.1295,26.564 L 35.1206,26.5673 L 35.13,26.5721 M 41.0649,24.3082 L 40.9043,24.3692 L 40.9864,24.4838 L 41.0649,24.3082 z" style="fill-opacity:0.3;fill:rgb(0,0,255);stroke:rgb(51,51,153);stroke-width:0.164341" />
</g></svg>