<?xml version="1.0" standalone="no"?>
<!DOCTYPE svg PUBLIC "-//W3C//DTD SVG 1.1//EN"
"http://www.w3.org/Graphics/SVG/1.1/DTD/svg11.dtd">
<svg  version="1.1" xmlns="http://www.w3.org/2000/svg" xmlns:xlink="http://www.w3.org/1999/xlink" viewBox="0 0 65.7365 60.7356">
<g title="A + B (CGAL EPECK)" fill-rule="evenodd">
<path d="M 33.8120,48.3533 L 34.2539,48.1530 L 31.0807,32.2434 L 47.7641,38.0500 L 33.9817,27.0002 L 35.1206,26.5673 L 25.0582,21.5127 L 30.9149,31.1427 L 19.6456,31.3435 L 25.2989,34.7405 L 25.4881,34.3953 L 25.9146,35.1104 L 29.3068,37.1487 L 27.6661,38.0475 L 33.8120,48.3533 z" style="fill-opacity:0.3;fill:rgb(0,0,255);stroke:rgb(51,51,153);stroke-width:0.164341" />
<path d="M 46.5085,20.8134 L 42.5873,20.9010 L 41.0649,24.3082 L 46.6974,22.1674 L 46.5085,20.8134 z" style="fill-opacity:0.3;fill:rgb(0,0,255);stroke:rgb(51,51,153);stroke-width:0.164341" />
<path d="M 38.4837,20.9927 L 34.7828,21.0754 L 35.1295,26.5640 L 40.9043,24.3692 L 38.4837,20.9927 z" style="fill-opacity:0.3;fill:rgb(0,0,255);stroke:rgb(51,51,153);stroke-width:0.164341" />
<path d="M 35.3479,16.6185 L 34.4194,15.3233 L 34.5872,17.9800 L 35.3479,16.6185 z" style="fill-opacity:0.3;fill:rgb(0,0,255);stroke:rgb(51,51,153);stroke-width:0.164341" />
<path d="M 34.5360,49.5672 L 34.5360,49.5672 L 34.5360,49.5672 L 34.5360,49.5672 z" style="fill-opacity:0.3;fill:rgb(0,0,255);stroke:rgb(51,51,153);stroke-width:0.164341" />
<path d="M 21.6945,41.3186 L 19.4216,42.5636 L 20.9635,42.6528 L 21.6945,41.3186 z" style="fill-opacity:0.3;fill:rgb(0,0,255);stroke:rgb(51,51,153);stroke-width:0.164341" />
</g></svg>