<?xml version="1.0" standalone="no"?>
<!DOCTYPE svg PUBLIC "-//W3C//DTD SVG 1.1//EN"
"http://www.w3.org/Graphics/SVG/1.1/DTD/svg11.dtd">
<svg  version="1.1" xmlns="http://www.w3.org/2000/svg" xmlns:xlink="http://www.w3.org/1999/xlink" viewBox="0 0 65.7365 60.7356">
<g title="A + B (CGAL EPECK)" fill-rule="evenodd">
<path d="M 34.2539,48.1530 L 34.7032,47.9494 L 34.5360,49.5672 L 34.5360,49.5672 L 34.5360,49.5672 L 33.5442,59.1608 L 40.4716,50.2698 L 44.6555,60.7356 L 46.6575,49.6437 L 55.2259,56.9663 L 51.8439,46.2145 L 62.8339,48.7165 L 54.8427,40.7679 L 65.7365,37.8760 L 54.9668,34.5516 L 63.2689,26.9284 L 52.1878,28.9897 L 55.9963,18.3814 L 47.1424,25.3563 L 46.6974,22.1674 L 41.0649,24.3082 L 40.9864,24.4838 L 40.9043,24.3692 L 35.1295,26.5640 L 35.1300,26.5721 L 35.1206,26.5673 L 33.9817,27.0002 L 47.7641,38.0500 L 31.0807,32.2434 L 34.2539,48.1530 z" style="fill-opacity:0.3;fill:rgb(0,0,255);stroke:rgb(51,51,153);stroke-width:0.164341" />
<path d="M 33.8120,48.3533 L 27.6661,38.0475 L 21.6945,41.3186 L 20.9635,42.6528 L 30.6739,43.2141 L 24.4375,52.6027 L 33.8120,48.3533 z" style="fill-opacity:0.3;fill:rgb(0,0,255);stroke:rgb(51,51,153);stroke-width:0.164341" />
<path d="M 25.9146,35.1104 L 25.4881,34.3953 L 25.2989,34.7405 L 25.9146,35.1104 z" style="fill-opacity:0.3;fill:rgb(0,0,255);stroke:rgb(51,51,153);stroke-width:0.164341" />
<path d="M 46.5085,20.8134 L 45.5847,14.1933 L 42.5873,20.9010 L 46.5085,20.8134 z" style="fill-opacity:0.3;fill:rgb(0,0,255);stroke:rgb(51,51,153);stroke-width:0.164341" />
<path d="M 35.3479,16.6185 L 34.5872,17.9800 L 34.7828,21.0754 L 38.4837,20.9927 L 35.3479,16.6185 z" style="fill-opacity:0.3;fill:rgb(0,0,255);stroke:rgb(51,51,153);stroke-width:0.164341" />
</g></svg>