<?xml version="1.0" standalone="no"?>
<!DOCTYPE svg PUBLIC "-//W3C//DTD SVG 1.1//EN"
"http://www.w3.org/Graphics/SVG/1.1/DTD/svg11.dtd">
<svg viewBox="0 0 300 300" version="1.1"
xmlns="http://www.w3.org/2000/svg"
xmlns:xlink="http://www.w3.org/1999/xlink">
<g fill-rule="evenodd"><path d="M 203.793,11.4114 L 212.93,62.0312 L 252.033,28.613 L 236.599,77.6806 L 286.753,66.2625 L 250.284,102.537 L 300,115.735 L 250.85,130.906 L 288.738,165.696 L 238.168,156.289 L 255.549,204.702 L 215.143,172.871 L 208.034,223.815 L 187.048,176.853 L 157.079,218.658 L 160.322,167.322 L 114.357,190.412 L 141.086,146.463 L 89.656,145.547 L 133.747,119.054 L 88.6337,94.3421 L 139.986,91.3737 L 111.525,48.5274 L 158.374,69.7634 L 153.085,18.5983 L 184.699,59.174 L 203.793,11.4114 z " style="fill-opacity:0.3;fill:rgb(255,0,0);stroke:rgb(0,0,0);stroke-width:1"/></g>
<g fill-rule="evenodd"><path d="M 116.319,131.62 L 157.611,62.38 L 141.842,141.44 L 217.98,114.941 L 155.081,165.368 L 230.439,194.009 L 149.842,192.209 L 189.16,262.588 L 128.576,209.402 L 113.456,288.589 L 101.234,208.903 L 38.7513,259.845 L 80.6093,190.946 L 0,189.806 L 76.3525,163.933 L 15.3347,111.245 L 90.4555,140.503 L 77.58,60.9203 L 116.319,131.62 z " style="fill-opacity:0.3;fill:rgb(0,255,0);stroke:rgb(0,0,0);stroke-width:1"/></g>
</svg>
