<?xml version="1.0" standalone="no"?>
<!DOCTYPE svg PUBLIC "-//W3C//DTD SVG 1.1//EN"
"http://www.w3.org/Graphics/SVG/1.1/DTD/svg11.dtd">
<svg viewBox="0 0 300 300" version="1.1"
xmlns="http://www.w3.org/2000/svg"
xmlns:xlink="http://www.w3.org/1999/xlink">
<g fill-rule="evenodd"><path d="M 156.324,68.8339 L 158.374,69.7634 L 157.611,62.38 L 157.611,62.38 L 157.611,62.38 L 153.085,18.5983 L 184.699,59.174 L 203.793,11.4114 L 212.93,62.0312 L 252.033,28.613 L 236.599,77.6806 L 286.753,66.2625 L 250.284,102.537 L 300,115.735 L 250.85,130.906 L 288.738,165.696 L 238.168,156.289 L 255.549,204.702 L 215.143,172.871 L 213.112,187.424 L 187.407,177.654 L 187.048,176.853 L 186.674,177.376 L 160.32,167.359 L 160.322,167.322 L 160.279,167.344 L 155.081,165.368 L 217.98,114.941 L 141.842,141.44 L 156.324,68.8339 z " style="fill-opacity:0.3;fill:rgb(0,0,255);stroke:rgb(51,51,153);stroke-width:1"/></g>
<g fill-rule="evenodd"><path d="M 154.307,67.9199 L 126.259,114.953 L 99.0067,100.024 L 95.6704,93.9354 L 139.986,91.3737 L 111.525,48.5274 L 154.307,67.9199 z " style="fill-opacity:0.3;fill:rgb(0,0,255);stroke:rgb(51,51,153);stroke-width:1"/></g>
<g fill-rule="evenodd"><path d="M 118.266,128.356 L 116.319,131.62 L 115.456,130.044 L 118.266,128.356 z " style="fill-opacity:0.3;fill:rgb(0,0,255);stroke:rgb(51,51,153);stroke-width:1"/></g>
<g fill-rule="evenodd"><path d="M 212.25,193.603 L 208.034,223.815 L 194.355,193.203 L 212.25,193.603 z " style="fill-opacity:0.3;fill:rgb(0,0,255);stroke:rgb(51,51,153);stroke-width:1"/></g>
<g fill-rule="evenodd"><path d="M 161.316,212.747 L 157.845,206.534 L 158.737,192.407 L 175.627,192.785 L 161.316,212.747 z " style="fill-opacity:0.3;fill:rgb(0,0,255);stroke:rgb(51,51,153);stroke-width:1"/></g>
</svg>
