<?xml version="1.0" standalone="no"?>
<!DOCTYPE svg PUBLIC "-//W3C//DTD SVG 1.1//EN"
"http://www.w3.org/Graphics/SVG/1.1/DTD/svg11.dtd">
<svg viewBox="0 0 300 300" version="1.1"
xmlns="http://www.w3.org/2000/svg"
xmlns:xlink="http://www.w3.org/1999/xlink">
<g fill-rule="evenodd"><path d="M 198.400,0 L 206.621,45.5454 L 241.804,15.4772 L 227.917,59.6259 L 273.044,49.3524 L 240.231,81.9906 L 284.963,93.8652 L 240.740,107.516 L 274.830,138.818 L 229.330,130.354 L 244.968,173.913 L 208.612,145.274 L 202.216,191.111 L 183.334,148.856 L 156.369,186.471 L 159.287,140.281 L 117.930,161.056 L 141.979,121.513 L 95.7054,120.689 L 135.376,96.8518 L 94.7855,74.6172 L 140.990,71.9463 L 115.382,33.3952 L 157.535,52.5024 L 152.775,6.46649 L 181.220,42.9745 L 198.400,0 z " style="fill-opacity:0.3;fill:rgb(255,0,0);stroke:rgb(0,0,0);stroke-width:1"/></g>
<g fill-rule="evenodd"><path d="M 119.696,108.158 L 156.848,45.8591 L 142.660,116.994 L 211.165,93.1510 L 154.572,138.523 L 222.376,164.293 L 149.858,162.673 L 185.234,225.997 L 130.724,178.142 L 117.120,249.391 L 106.123,177.694 L 49.9037,223.529 L 87.5656,161.537 L 15.0372,160.511 L 83.7355,137.231 L 28.8346,89.8255 L 96.4247,116.150 L 84.8400,44.5458 L 119.696,108.158 z " style="fill-opacity:0.3;fill:rgb(0,255,0);stroke:rgb(0,0,0);stroke-width:1"/></g>
</svg>
