<?xml version="1.0" standalone="no"?>
<!DOCTYPE svg PUBLIC "-//W3C//DTD SVG 1.1//EN"
"http://www.w3.org/Graphics/SVG/1.1/DTD/svg11.dtd">
<svg viewBox="0 0 300 300" version="1.1"
xmlns="http://www.w3.org/2000/svg"
xmlns:xlink="http://www.w3.org/1999/xlink">
<g fill-rule="evenodd"><path d="M 188.419,50.1407 L 210.695,102.126 L 265.635,88.6996 L 249.284,142.841 L 300,167.871 L 252.673,198.835 L 275.435,250.609 L 219.277,243.907 L 203.434,298.2 L 164.722,256.968 L 117.688,288.375 L 114.535,231.907 L 58.3169,225.732 L 92.1994,180.449 L 53.1022,139.583 L 108.166,126.672 L 104.484,70.2359 L 154.963,95.7402 L 188.419,50.1407 z " style="fill-opacity:0.3;fill:rgb(255,0,0);stroke:rgb(0,0,0);stroke-width:1"/></g>
<g fill-rule="evenodd"><path d="M 112.842,1.80035 L 131.123,56.4435 L 179.669,25.4065 L 162.341,80.359 L 219.859,83.7846 L 173.539,118.057 L 218.059,154.636 L 160.441,155.137 L 174.957,210.898 L 128.049,177.437 L 107.017,231.081 L 88.736,176.438 L 40.1894,207.475 L 57.5181,152.522 L 1.77636e-15,149.097 L 46.3195,114.825 L 1.79986,78.2452 L 59.4177,77.7445 L 44.9015,21.9829 L 91.8096,55.4448 L 112.842,1.80035 z " style="fill-opacity:0.3;fill:rgb(0,255,0);stroke:rgb(0,0,0);stroke-width:1"/></g>
</svg>
