<?xml version="1.0" standalone="no"?>
<!DOCTYPE svg PUBLIC "-//W3C//DTD SVG 1.1//EN"
"http://www.w3.org/Graphics/SVG/1.1/DTD/svg11.dtd">
<svg  version="1.1" xmlns="http://www.w3.org/2000/svg" xmlns:xlink="http://www.w3.org/1999/xlink" viewBox="0 0 62.2895 61.5419">
<g title="A - B (CGAL Real)" fill-rule="evenodd">
<path d="M 18.3763,25.2508 L 18.4662,25.1568 L 18.4244,25.2816 L 18.3763,25.2508 z" style="fill-opacity:0.3;fill:rgb(0,0,255);stroke:rgb(51,51,153);stroke-width:0.155724" />
<path d="M 12.1084,15.0465 L 22.2202,13.9360 L 18.8391,24.0420 L 12.1084,15.0465 z" style="fill-opacity:0.3;fill:rgb(0,0,255);stroke:rgb(51,51,153);stroke-width:0.155724" />
<path d="M 23.7812,13.7645 L 24.4357,2.03985 L 34.2016,8.56090 L 42.2394,-3.20312e-18 L 45.5289,11.2728 L 57.1891,9.88141 L 52.4629,20.6313 L 62.2895,27.0605 L 51.7592,32.2574 L 55.1542,43.4989 L 43.7470,40.7112 L 42.9660,42.5338 L 36.0323,37.4034 L 45.2760,29.8083 L 33.3127,29.7044 L 36.3267,18.1265 L 26.5871,25.0743 L 22.2202,13.9360 L 23.7812,13.7645 z" style="fill-opacity:0.3;fill:rgb(0,0,255);stroke:rgb(51,51,153);stroke-width:0.155724" />
<path d="M 34.4845,45.1843 L 42.0226,44.7354 L 39.1219,51.5049 L 34.4845,45.1843 z" style="fill-opacity:0.3;fill:rgb(0,0,255);stroke:rgb(51,51,153);stroke-width:0.155724" />
</g></svg>