<?xml version="1.0" standalone="no"?>
<!DOCTYPE svg PUBLIC "-//W3C//DTD SVG 1.1//EN"
"http://www.w3.org/Graphics/SVG/1.1/DTD/svg11.dtd">
<svg viewBox="0 0 300 300" version="1.1"
xmlns="http://www.w3.org/2000/svg"
xmlns:xlink="http://www.w3.org/1999/xlink">
<g fill-rule="evenodd"><path d="M 107.017,231.081 L 58.3169,225.732 L 90.7334,182.408 L 107.017,231.081 z " style="fill-opacity:0.3;fill:rgb(0,0,255);stroke:rgb(51,51,153);stroke-width:1"/></g>
<g fill-rule="evenodd"><path d="M 107.017,231.081 L 128.049,177.437 L 174.957,210.898 L 160.441,155.137 L 218.059,154.636 L 173.539,118.057 L 206.934,93.3478 L 210.695,102.126 L 265.635,88.6996 L 249.284,142.841 L 300,167.871 L 252.673,198.835 L 275.435,250.609 L 219.277,243.907 L 203.434,298.2 L 164.722,256.968 L 117.688,288.375 L 114.535,231.907 L 107.017,231.081 z " style="fill-opacity:0.3;fill:rgb(0,0,255);stroke:rgb(51,51,153);stroke-width:1"/></g>
<g fill-rule="evenodd"><path d="M 88.504,176.586 L 88.736,176.438 L 88.9371,177.039 L 88.504,176.586 z " style="fill-opacity:0.3;fill:rgb(0,0,255);stroke:rgb(51,51,153);stroke-width:1"/></g>
<g fill-rule="evenodd"><path d="M 202.39,82.7442 L 166.085,80.582 L 188.419,50.1407 L 202.39,82.7442 z " style="fill-opacity:0.3;fill:rgb(0,0,255);stroke:rgb(51,51,153);stroke-width:1"/></g>
</svg>
