<?xml version="1.0" standalone="no"?>
<!DOCTYPE svg PUBLIC "-//W3C//DTD SVG 1.1//EN"
"http://www.w3.org/Graphics/SVG/1.1/DTD/svg11.dtd">
<svg viewBox="0 0 300 300" version="1.1"
xmlns="http://www.w3.org/2000/svg"
xmlns:xlink="http://www.w3.org/1999/xlink">
<g fill-rule="evenodd"><path d="M 123.516,277.113 L 130.938,272.94 L 136.28,269.944 L 143.252,266.029 L 154.384,261.46 L 143.256,266.033 L 136.282,269.948 L 130.938,272.946 L 123.516,277.113 z " style="fill-opacity:0.3;fill:rgb(0,0,255);stroke:rgb(51,51,153);stroke-width:1"/></g>
<g fill-rule="evenodd"><path d="M 123.516,277.113 L 123.503,277.12 L 122.418,277.729 L 121.986,277.972 L 122.419,277.729 L 123.516,277.113 z " style="fill-opacity:0.3;fill:rgb(0,0,255);stroke:rgb(51,51,153);stroke-width:1"/></g>
<g fill-rule="evenodd"><path d="M 154.384,261.46 L 164.66,257.236 L 174.039,252.498 L 164.66,257.236 L 154.416,261.447 L 154.384,261.46 z " style="fill-opacity:0.3;fill:rgb(0,0,255);stroke:rgb(51,51,153);stroke-width:1"/></g>
<g fill-rule="evenodd"><path d="M 203.715,191.236 L 196.013,200.485 L 191.564,203.779 L 186.674,207.405 L 174.793,213.292 L 161.682,217.838 L 161.457,217.916 L 154.648,220.872 L 154.2,221.056 L 134.017,229.353 L 116.688,236.856 L 115.995,235.184 L 86.6374,246.07 L 87.2694,247.803 L 38.0349,266.029 L 29.3909,268.598 L 29.3908,268.598 L 38.0349,266.029 L 87.2694,247.803 L 86.6374,246.07 L 115.995,235.184 L 116.688,236.855 L 134.017,229.353 L 154.204,221.049 L 154.644,220.868 L 161.451,217.918 L 174.793,213.292 L 186.674,207.405 L 196.005,200.485 L 203.715,191.236 z " style="fill-opacity:0.3;fill:rgb(0,0,255);stroke:rgb(51,51,153);stroke-width:1"/></g>
<g fill-rule="evenodd"><path d="M 203.715,191.236 L 203.754,191.19 L 205.043,189.643 L 206.087,188.413 L 206.107,188.389 L 205.043,189.643 L 203.715,191.236 z " style="fill-opacity:0.3;fill:rgb(0,0,255);stroke:rgb(51,51,153);stroke-width:1"/></g>
<g fill-rule="evenodd"><path d="M 97.086,291.133 L 118.665,279.831 L 121.901,278.02 L 121.986,277.972 L 118.657,279.841 L 97.086,291.133 z " style="fill-opacity:0.3;fill:rgb(0,0,255);stroke:rgb(51,51,153);stroke-width:1"/></g>
<g fill-rule="evenodd"><path d="M 97.086,291.133 L 97.0198,291.167 L 96.313,291.537 L 94.2734,292.605 L 96.313,291.537 L 97.086,291.133 z " style="fill-opacity:0.3;fill:rgb(0,0,255);stroke:rgb(51,51,153);stroke-width:1"/></g>
<g fill-rule="evenodd"><path d="M 29.3909,268.598 L 29.4738,268.649 L 29.3908,268.598 L 29.3909,268.598 z " style="fill-opacity:0.3;fill:rgb(0,0,255);stroke:rgb(51,51,153);stroke-width:1"/></g>
<g fill-rule="evenodd"><path d="M 94.2734,292.605 L 92.2336,293.672 L 80.1441,300 L 29.4738,268.649 L 80.1543,299.994 L 81.3113,299.389 L 92.2336,293.672 L 94.2734,292.605 z " style="fill-opacity:0.3;fill:rgb(0,0,255);stroke:rgb(51,51,153);stroke-width:1"/></g>
<g fill-rule="evenodd"><path d="M 228.87,153.105 L 228.294,154.341 L 226.351,158.433 L 223.829,162.89 L 223.074,164.358 L 223.829,162.89 L 226.351,158.433 L 228.294,154.341 L 228.87,153.105 z " style="fill-opacity:0.3;fill:rgb(0,0,255);stroke:rgb(51,51,153);stroke-width:1"/></g>
<g fill-rule="evenodd"><path d="M 228.87,153.105 L 230.353,149.926 L 231.071,147.898 L 231.071,147.897 L 230.353,149.926 L 228.87,153.105 z " style="fill-opacity:0.3;fill:rgb(0,0,255);stroke:rgb(51,51,153);stroke-width:1"/></g>
<g fill-rule="evenodd"><path d="M 268.08,155.238 L 266.872,161.191 L 266.212,164.459 L 266.489,163.087 L 266.49,163.08 L 266.872,161.191 L 268.08,155.238 z " style="fill-opacity:0.3;fill:rgb(0,0,255);stroke:rgb(51,51,153);stroke-width:1"/></g>
<g fill-rule="evenodd"><path d="M 268.08,155.238 L 268.885,151.269 L 269.304,149.192 L 269.321,149.142 L 269.304,149.192 L 268.885,151.269 L 268.08,155.238 z " style="fill-opacity:0.3;fill:rgb(0,0,255);stroke:rgb(51,51,153);stroke-width:1"/></g>
<g fill-rule="evenodd"><path d="M 231.071,147.897 L 231.905,145.544 L 233.646,140.124 L 235.419,119.326 L 233.648,140.119 L 231.915,145.542 L 231.071,147.897 z " style="fill-opacity:0.3;fill:rgb(0,0,255);stroke:rgb(51,51,153);stroke-width:1"/></g>
<g fill-rule="evenodd"><path d="M 269.321,149.142 L 269.362,149.018 L 269.362,149.018 L 269.321,149.142 z " style="fill-opacity:0.3;fill:rgb(0,0,255);stroke:rgb(51,51,153);stroke-width:1"/></g>
<g fill-rule="evenodd"><path d="M 209.61,234.251 L 209.999,233.981 L 213.543,230.922 L 209.999,233.981 L 209.61,234.251 z " style="fill-opacity:0.3;fill:rgb(0,0,255);stroke:rgb(51,51,153);stroke-width:1"/></g>
<g fill-rule="evenodd"><path d="M 209.61,234.251 L 209.492,234.334 L 208.119,235.28 L 197.999,240.393 L 208.119,235.28 L 209.492,234.334 L 209.61,234.251 z " style="fill-opacity:0.3;fill:rgb(0,0,255);stroke:rgb(51,51,153);stroke-width:1"/></g>
<g fill-rule="evenodd"><path d="M 206.107,188.389 L 214.82,178.119 L 214.242,177.318 L 214.28,177.371 L 214.83,178.121 L 206.107,188.389 z " style="fill-opacity:0.3;fill:rgb(0,0,255);stroke:rgb(51,51,153);stroke-width:1"/></g>
<g fill-rule="evenodd"><path d="M 213.543,230.922 L 216.602,228.283 L 216.558,228.321 L 213.543,230.922 z " style="fill-opacity:0.3;fill:rgb(0,0,255);stroke:rgb(51,51,153);stroke-width:1"/></g>
<g fill-rule="evenodd"><path d="M 216.558,228.321 L 216.602,228.283 L 222.498,223.192 L 223.704,224.927 L 224.53,224.545 L 223.704,224.927 L 222.498,223.192 L 209.995,233.987 L 216.558,228.321 z " style="fill-opacity:0.3;fill:rgb(0,0,255);stroke:rgb(51,51,153);stroke-width:1"/></g>
<g fill-rule="evenodd"><path d="M 174.039,252.498 L 189.583,244.645 L 197.999,240.393 L 189.583,244.645 L 174.039,252.498 z " style="fill-opacity:0.3;fill:rgb(0,0,255);stroke:rgb(51,51,153);stroke-width:1"/></g>
<g fill-rule="evenodd"><path d="M 239.466,216.181 L 240.797,215.584 L 242.909,212.499 L 240.797,215.584 L 239.466,216.181 z " style="fill-opacity:0.3;fill:rgb(0,0,255);stroke:rgb(51,51,153);stroke-width:1"/></g>
<g fill-rule="evenodd"><path d="M 239.466,216.181 L 237.749,216.952 L 233.794,218.481 L 233.06,218.776 L 233.794,218.481 L 237.749,216.952 L 239.466,216.181 z " style="fill-opacity:0.3;fill:rgb(0,0,255);stroke:rgb(51,51,153);stroke-width:1"/></g>
<g fill-rule="evenodd"><path d="M 242.909,212.499 L 243.073,212.259 L 243.073,212.259 L 242.909,212.499 z " style="fill-opacity:0.3;fill:rgb(0,0,255);stroke:rgb(51,51,153);stroke-width:1"/></g>
<g fill-rule="evenodd"><path d="M 224.53,224.545 L 225.8,223.958 L 225.789,223.963 L 224.53,224.545 z " style="fill-opacity:0.3;fill:rgb(0,0,255);stroke:rgb(51,51,153);stroke-width:1"/></g>
<g fill-rule="evenodd"><path d="M 231.515,219.395 L 232.474,219.012 L 233.06,218.776 L 232.474,219.012 L 231.515,219.395 z " style="fill-opacity:0.3;fill:rgb(0,0,255);stroke:rgb(51,51,153);stroke-width:1"/></g>
<g fill-rule="evenodd"><path d="M 231.515,219.395 L 229.958,220.016 L 229.958,220.016 L 231.515,219.395 z " style="fill-opacity:0.3;fill:rgb(0,0,255);stroke:rgb(51,51,153);stroke-width:1"/></g>
<g fill-rule="evenodd"><path d="M 229.96,220.024 L 229.958,220.016 L 229.958,220.016 L 229.96,220.024 L 229.96,220.024 z " style="fill-opacity:0.3;fill:rgb(0,0,255);stroke:rgb(51,51,153);stroke-width:1"/></g>
<g fill-rule="evenodd"><path d="M 229.96,220.024 L 229.96,220.024 L 229.953,220.026 L 230.437,221.802 L 230.437,221.802 L 229.953,220.026 L 229.96,220.024 z " style="fill-opacity:0.3;fill:rgb(0,0,255);stroke:rgb(51,51,153);stroke-width:1"/></g>
<g fill-rule="evenodd"><path d="M 228.81,222.558 L 230.437,221.802 L 230.437,221.802 L 228.81,222.558 z " style="fill-opacity:0.3;fill:rgb(0,0,255);stroke:rgb(51,51,153);stroke-width:1"/></g>
<g fill-rule="evenodd"><path d="M 228.81,222.558 L 225.8,223.958 L 225.793,223.961 L 228.81,222.558 z " style="fill-opacity:0.3;fill:rgb(0,0,255);stroke:rgb(51,51,153);stroke-width:1"/></g>
<g fill-rule="evenodd"><path d="M 225.789,223.963 L 225.793,223.961 L 223.707,224.931 L 225.789,223.963 z " style="fill-opacity:0.3;fill:rgb(0,0,255);stroke:rgb(51,51,153);stroke-width:1"/></g>
<g fill-rule="evenodd"><path d="M 214.242,177.318 L 213.715,176.588 L 213.715,176.588 L 214.242,177.318 z " style="fill-opacity:0.3;fill:rgb(0,0,255);stroke:rgb(51,51,153);stroke-width:1"/></g>
<g fill-rule="evenodd"><path d="M 213.715,176.588 L 213.715,176.588 L 217.272,172.233 L 220.558,168.211 L 217.272,172.233 L 213.715,176.588 z " style="fill-opacity:0.3;fill:rgb(0,0,255);stroke:rgb(51,51,153);stroke-width:1"/></g>
<g fill-rule="evenodd"><path d="M 220.558,168.211 L 222.007,166.439 L 222.49,165.494 L 222.007,166.439 L 220.558,168.211 z " style="fill-opacity:0.3;fill:rgb(0,0,255);stroke:rgb(51,51,153);stroke-width:1"/></g>
<g fill-rule="evenodd"><path d="M 222.554,165.37 L 222.49,165.494 L 222.553,165.371 L 222.554,165.37 z " style="fill-opacity:0.3;fill:rgb(0,0,255);stroke:rgb(51,51,153);stroke-width:1"/></g>
<g fill-rule="evenodd"><path d="M 222.554,165.37 L 222.556,165.365 L 223.074,164.358 L 222.554,165.37 z " style="fill-opacity:0.3;fill:rgb(0,0,255);stroke:rgb(51,51,153);stroke-width:1"/></g>
<g fill-rule="evenodd"><path d="M 266.489,163.087 L 266.266,164.168 L 266.49,163.08 L 266.489,163.087 z " style="fill-opacity:0.3;fill:rgb(0,0,255);stroke:rgb(51,51,153);stroke-width:1"/></g>
<g fill-rule="evenodd"><path d="M 264.229,174.225 L 265.855,166.209 L 266.026,165.368 L 266.206,164.461 L 266.266,164.168 L 266.206,164.461 L 266.026,165.368 L 265.855,166.209 L 264.229,174.225 z " style="fill-opacity:0.3;fill:rgb(0,0,255);stroke:rgb(51,51,153);stroke-width:1"/></g>
<g fill-rule="evenodd"><path d="M 264.229,174.225 L 263.423,178.198 L 259.5,186.472 L 263.423,178.198 L 264.229,174.225 z " style="fill-opacity:0.3;fill:rgb(0,0,255);stroke:rgb(51,51,153);stroke-width:1"/></g>
<g fill-rule="evenodd"><path d="M 255.722,194.758 L 255.965,193.929 L 259.5,186.472 L 255.965,193.929 L 255.722,194.758 z " style="fill-opacity:0.3;fill:rgb(0,0,255);stroke:rgb(51,51,153);stroke-width:1"/></g>
<g fill-rule="evenodd"><path d="M 255.722,194.758 L 255.322,196.12 L 255.321,196.126 L 255.722,194.758 z " style="fill-opacity:0.3;fill:rgb(0,0,255);stroke:rgb(51,51,153);stroke-width:1"/></g>
<g fill-rule="evenodd"><path d="M 243.073,212.259 L 244.677,209.904 L 249.733,203.91 L 254.3,199.588 L 255.321,196.126 L 254.304,199.594 L 249.737,203.912 L 244.681,209.91 L 243.073,212.259 z " style="fill-opacity:0.3;fill:rgb(0,0,255);stroke:rgb(51,51,153);stroke-width:1"/></g>
<g fill-rule="evenodd"><path d="M 203.267,18.9162 L 204.657,23.2615 L 208.633,35.0656 L 210.413,37.3897 L 210.413,37.3897 L 208.633,35.0656 L 204.657,23.2616 L 203.267,18.9162 z " style="fill-opacity:0.3;fill:rgb(0,0,255);stroke:rgb(51,51,153);stroke-width:1"/></g>
<g fill-rule="evenodd"><path d="M 203.267,18.9162 L 200.399,9.95496 L 200.398,9.94813 L 200.399,9.95494 L 203.267,18.9162 z " style="fill-opacity:0.3;fill:rgb(0,0,255);stroke:rgb(51,51,153);stroke-width:1"/></g>
<g fill-rule="evenodd"><path d="M 210.65,40.5226 L 209.55,37.8994 L 209.55,37.8994 L 210.65,40.5226 z " style="fill-opacity:0.3;fill:rgb(0,0,255);stroke:rgb(51,51,153);stroke-width:1"/></g>
<g fill-rule="evenodd"><path d="M 210.65,40.5226 L 211.962,43.6505 L 217.542,63.0772 L 217.72,62.9652 L 217.542,63.0772 L 211.962,43.6505 L 210.65,40.5226 z " style="fill-opacity:0.3;fill:rgb(0,0,255);stroke:rgb(51,51,153);stroke-width:1"/></g>
<g fill-rule="evenodd"><path d="M 209.55,37.8994 L 209.55,37.8993 L 210.413,37.3897 L 210.413,37.3897 L 209.55,37.8994 z " style="fill-opacity:0.3;fill:rgb(0,0,255);stroke:rgb(51,51,153);stroke-width:1"/></g>
<g fill-rule="evenodd"><path d="M 200.398,9.94797 L 200.398,9.94813 L 200.398,9.94797 L 200.398,9.94797 z " style="fill-opacity:0.3;fill:rgb(0,0,255);stroke:rgb(51,51,153);stroke-width:1"/></g>
<g fill-rule="evenodd"><path d="M 200.398,9.94797 L 200.398,9.94795 L 210.866,4.97399 L 200.398,9.94797 z " style="fill-opacity:0.3;fill:rgb(0,0,255);stroke:rgb(51,51,153);stroke-width:1"/></g>
<g fill-rule="evenodd"><path d="M 210.866,4.97399 L 221.334,0 L 222.161,4.42195 L 223.079,9.37186 L 226.736,18.863 L 226.736,18.8631 L 223.079,9.3719 L 222.161,4.42197 L 221.334,2.03867e-05 L 210.866,4.97399 z " style="fill-opacity:0.3;fill:rgb(0,0,255);stroke:rgb(51,51,153);stroke-width:1"/></g>
<g fill-rule="evenodd"><path d="M 225.382,76.9794 L 219.46,61.8764 L 219.46,61.8764 L 225.382,76.9794 z " style="fill-opacity:0.3;fill:rgb(0,0,255);stroke:rgb(51,51,153);stroke-width:1"/></g>
<g fill-rule="evenodd"><path d="M 225.382,76.9794 L 230.025,88.8218 L 231.16,91.7208 L 233.939,109.714 L 235.09,117.159 L 233.939,109.714 L 231.16,91.7209 L 230.025,88.8218 L 225.382,76.9794 z " style="fill-opacity:0.3;fill:rgb(0,0,255);stroke:rgb(51,51,153);stroke-width:1"/></g>
<g fill-rule="evenodd"><path d="M 257.481,81.6495 L 257.48,81.6497 L 228.918,27.4816 L 227.574,24.36 L 228.926,27.4755 L 257.481,81.6495 z " style="fill-opacity:0.3;fill:rgb(0,0,255);stroke:rgb(51,51,153);stroke-width:1"/></g>
<g fill-rule="evenodd"><path d="M 257.481,81.6495 L 257.481,81.6495 L 257.484,81.6558 L 261.251,80.7903 L 257.484,81.6559 L 257.481,81.6495 z " style="fill-opacity:0.3;fill:rgb(0,0,255);stroke:rgb(51,51,153);stroke-width:1"/></g>
<g fill-rule="evenodd"><path d="M 219.46,61.8764 L 219.459,61.8771 L 219.459,61.877 L 219.46,61.8764 L 219.46,61.8764 z " style="fill-opacity:0.3;fill:rgb(0,0,255);stroke:rgb(51,51,153);stroke-width:1"/></g>
<g fill-rule="evenodd"><path d="M 227.574,24.36 L 227.571,24.355 L 226.508,21.9058 L 226.612,20.5183 L 226.508,21.9058 L 227.571,24.3549 L 227.574,24.36 z " style="fill-opacity:0.3;fill:rgb(0,0,255);stroke:rgb(51,51,153);stroke-width:1"/></g>
<g fill-rule="evenodd"><path d="M 235.419,119.326 L 235.421,119.304 L 235.421,119.304 L 235.419,119.326 z " style="fill-opacity:0.3;fill:rgb(0,0,255);stroke:rgb(51,51,153);stroke-width:1"/></g>
<g fill-rule="evenodd"><path d="M 235.09,117.159 L 235.421,119.304 L 235.421,119.304 L 235.09,117.159 z " style="fill-opacity:0.3;fill:rgb(0,0,255);stroke:rgb(51,51,153);stroke-width:1"/></g>
<g fill-rule="evenodd"><path d="M 269.241,131.628 L 269.264,131.414 L 270.609,107.276 L 269.36,102.903 L 270.609,107.276 L 269.264,131.414 L 269.241,131.628 z " style="fill-opacity:0.3;fill:rgb(0,0,255);stroke:rgb(51,51,153);stroke-width:1"/></g>
<g fill-rule="evenodd"><path d="M 269.241,131.628 L 269.223,131.802 L 267.245,148.947 L 267.245,148.947 L 269.223,131.802 L 269.241,131.628 z " style="fill-opacity:0.3;fill:rgb(0,0,255);stroke:rgb(51,51,153);stroke-width:1"/></g>
<g fill-rule="evenodd"><path d="M 269.362,149.018 L 267.943,148.97 L 269.362,149.018 L 269.362,149.018 z " style="fill-opacity:0.3;fill:rgb(0,0,255);stroke:rgb(51,51,153);stroke-width:1"/></g>
<g fill-rule="evenodd"><path d="M 267.245,148.947 L 267.943,148.97 L 267.245,148.947 L 267.245,148.947 z " style="fill-opacity:0.3;fill:rgb(0,0,255);stroke:rgb(51,51,153);stroke-width:1"/></g>
<g fill-rule="evenodd"><path d="M 262.923,80.4061 L 261.251,80.7903 L 262.923,80.4061 L 262.923,80.4061 z " style="fill-opacity:0.3;fill:rgb(0,0,255);stroke:rgb(51,51,153);stroke-width:1"/></g>
<g fill-rule="evenodd"><path d="M 262.923,80.4061 L 262.923,80.4061 L 263.168,81.2522 L 262.923,80.4061 z " style="fill-opacity:0.3;fill:rgb(0,0,255);stroke:rgb(51,51,153);stroke-width:1"/></g>
<g fill-rule="evenodd"><path d="M 267.736,97.222 L 266.401,92.5567 L 263.413,82.0982 L 263.168,81.2522 L 263.413,82.0983 L 266.401,92.5568 L 267.736,97.222 z " style="fill-opacity:0.3;fill:rgb(0,0,255);stroke:rgb(51,51,153);stroke-width:1"/></g>
<g fill-rule="evenodd"><path d="M 267.736,97.222 L 268.805,100.96 L 269.36,102.903 L 268.805,100.96 L 267.736,97.222 z " style="fill-opacity:0.3;fill:rgb(0,0,255);stroke:rgb(51,51,153);stroke-width:1"/></g>
<g fill-rule="evenodd"><path d="M 217.72,62.9652 L 219.458,61.8744 L 219.459,61.877 L 219.459,61.8771 L 219.458,61.8744 L 217.72,62.9652 z " style="fill-opacity:0.3;fill:rgb(0,0,255);stroke:rgb(51,51,153);stroke-width:1"/></g>
<g fill-rule="evenodd"><path d="M 226.736,18.8631 L 226.736,18.8631 L 226.731,18.9291 L 226.736,18.8631 z " style="fill-opacity:0.3;fill:rgb(0,0,255);stroke:rgb(51,51,153);stroke-width:1"/></g>
<g fill-rule="evenodd"><path d="M 226.612,20.5183 L 226.709,19.2277 L 226.731,18.9291 L 226.709,19.2277 L 226.612,20.5183 z " style="fill-opacity:0.3;fill:rgb(0,0,255);stroke:rgb(51,51,153);stroke-width:1"/></g>
</svg>
