<?xml version="1.0" standalone="no"?>
<!DOCTYPE svg PUBLIC "-//W3C//DTD SVG 1.1//EN"
"http://www.w3.org/Graphics/SVG/1.1/DTD/svg11.dtd">
<svg  version="1.1" xmlns="http://www.w3.org/2000/svg" xmlns:xlink="http://www.w3.org/1999/xlink" viewBox="0 0 118.32 147.153">
<g title="A - B (CGAL Real)" fill-rule="evenodd">
<path d="M 0.00001,15.4030 L 4.24000,16.6630 L 28.3900,25.6030 L 28.0800,26.4530 L 42.4800,31.7930 L 42.8200,30.9730 L 51.3200,34.6530 L 61.2200,38.7230 L 61.4400,38.8130 L 64.7800,40.2630 L 64.8901,40.3012 L 71.3210,42.5310 L 77.1490,45.4190 L 79.5475,47.1976 L 81.7300,48.8130 L 85.5077,53.3497 L 81.7260,48.8130 L 77.1490,45.4190 L 71.3210,42.5310 L 64.7770,40.2620 L 61.4380,38.8150 L 61.2220,38.7260 L 51.3200,34.6530 L 42.8200,30.9730 L 42.4800,31.7930 L 28.0800,26.4530 L 28.3900,25.6030 L 4.23999,16.6630 L -4.09782e-10,15.4030 L 0.00001,15.4030 z" style="fill-opacity:0.3;fill:rgb(0,0,255);stroke:rgb(51,51,153);stroke-width:0.367883" />
<path d="M 24.8950,-2.33054e-10 L 30.8250,3.10401 L 31.8255,3.62751 L 30.8250,3.10401 L 25.4675,0.29968 L 24.9000,0.00301 L 0.04069,15.3778 L 24.8950,-2.33054e-10 z" style="fill-opacity:0.3;fill:rgb(0,0,255);stroke:rgb(51,51,153);stroke-width:0.367883" />
<path d="M 43.7860,9.88801 L 45.4187,10.8048 L 45.3773,10.7815 L 43.7900,9.89301 L 33.2052,4.34948 L 43.7860,9.88801 z" style="fill-opacity:0.3;fill:rgb(0,0,255);stroke:rgb(51,51,153);stroke-width:0.367883" />
<path d="M 49.8100,13.2700 L 52.4310,14.7410 L 55.8520,16.6610 L 61.3102,18.9043 L 55.8500,16.6630 L 52.4300,14.7430 L 49.8100,13.2730 L 46.1693,11.2262 L 49.8100,13.2700 z" style="fill-opacity:0.3;fill:rgb(0,0,255);stroke:rgb(51,51,153);stroke-width:0.367883" />
<path d="M 78.5760,27.1520 L 82.7040,29.2378 L 78.5760,27.1520 L 70.9512,23.3000 L 78.5760,27.1520 z" style="fill-opacity:0.3;fill:rgb(0,0,255);stroke:rgb(51,51,153);stroke-width:0.367883" />
<path d="M 83.8809,142.273 L 83.8809,142.273 L 83.8809,142.273 L 83.8809,142.273 z" style="fill-opacity:0.3;fill:rgb(0,0,255);stroke:rgb(51,51,153);stroke-width:0.367883" />
<path d="M 85.9700,135.743 L 87.9200,129.953 L 88.7930,128.813 L 88.7930,128.813 L 87.9200,129.953 L 85.9700,135.743 L 85.2878,137.874 L 85.9700,135.743 z" style="fill-opacity:0.3;fill:rgb(0,0,255);stroke:rgb(51,51,153);stroke-width:0.367883" />
<path d="M 88.3700,128.563 L 88.9096,127.276 L 88.3700,128.563 L 88.3700,128.563 z" style="fill-opacity:0.3;fill:rgb(0,0,255);stroke:rgb(51,51,153);stroke-width:0.367883" />
<path d="M 88.5900,32.3830 L 90.3285,33.8833 L 88.5900,32.3830 L 88.3994,32.2504 L 88.5900,32.3830 z" style="fill-opacity:0.3;fill:rgb(0,0,255);stroke:rgb(51,51,153);stroke-width:0.367883" />
<path d="M 90.4130,60.5350 L 92.1574,62.6711 L 93.7695,64.6437 L 92.1574,62.6711 L 90.4130,60.5350 L 90.4130,60.5350 z" style="fill-opacity:0.3;fill:rgb(0,0,255);stroke:rgb(51,51,153);stroke-width:0.367883" />
<path d="M 90.6715,60.1769 L 90.9550,59.7840 L 86.6811,54.7464 L 90.9600,59.7830 L 90.6902,60.1509 L 90.6715,60.1769 z" style="fill-opacity:0.3;fill:rgb(0,0,255);stroke:rgb(51,51,153);stroke-width:0.367883" />
<path d="M 88.5880,32.3800 L 94.7210,37.6750 L 95.3125,36.8242 L 95.7176,37.0114 L 95.3125,36.8242 L 94.7210,37.6750 L 91.8288,35.1780 L 91.8073,35.1594 L 88.5880,32.3800 z" style="fill-opacity:0.3;fill:rgb(0,0,255);stroke:rgb(51,51,153);stroke-width:0.367883" />
<path d="M 92.3775,116.268 L 93.2300,116.803 L 93.2305,116.802 L 93.2305,116.802 L 93.2300,116.803 L 92.3775,116.268 z" style="fill-opacity:0.3;fill:rgb(0,0,255);stroke:rgb(51,51,153);stroke-width:0.367883" />
<path d="M 93.2310,116.802 L 96.1355,109.394 L 93.2310,116.802 L 93.2310,116.802 z" style="fill-opacity:0.3;fill:rgb(0,0,255);stroke:rgb(51,51,153);stroke-width:0.367883" />
<path d="M 94.1500,147.153 L 94.5555,144.984 L 95.0060,142.556 L 96.7998,137.900 L 96.7998,137.901 L 95.0060,142.556 L 94.5555,144.984 L 94.1500,147.153 L 89.0155,144.713 L 94.1500,147.153 z" style="fill-opacity:0.3;fill:rgb(0,0,255);stroke:rgb(51,51,153);stroke-width:0.367883" />
<path d="M 94.7171,65.9765 L 94.7483,66.0375 L 94.7481,66.0371 L 94.7171,65.9765 z" style="fill-opacity:0.3;fill:rgb(0,0,255);stroke:rgb(51,51,153);stroke-width:0.367883" />
<path d="M 95.3740,67.2540 L 96.6110,69.4400 L 97.5640,71.4470 L 97.8467,72.0534 L 97.5640,71.4470 L 96.6110,69.4400 L 95.3740,67.2540 L 95.0035,66.5337 L 95.3740,67.2540 z" style="fill-opacity:0.3;fill:rgb(0,0,255);stroke:rgb(51,51,153);stroke-width:0.367883" />
<path d="M 95.3140,36.8220 L 96.3371,37.2978 L 96.3351,37.2969 L 95.3140,36.8220 z" style="fill-opacity:0.3;fill:rgb(0,0,255);stroke:rgb(51,51,153);stroke-width:0.367883" />
<path d="M 96.7391,137.089 L 96.7866,137.722 L 96.7974,137.868 L 96.7866,137.722 L 96.7391,137.089 z" style="fill-opacity:0.3;fill:rgb(0,0,255);stroke:rgb(51,51,153);stroke-width:0.367883" />
<path d="M 97.8700,133.673 L 111.880,107.103 L 111.880,107.103 L 97.8740,133.676 L 97.2106,135.204 L 97.8700,133.673 z" style="fill-opacity:0.3;fill:rgb(0,0,255);stroke:rgb(51,51,153);stroke-width:0.367883" />
<path d="M 98.3800,39.2330 L 98.3810,39.2293 L 98.3810,39.2293 L 98.3800,39.2330 L 98.3800,39.2330 z" style="fill-opacity:0.3;fill:rgb(0,0,255);stroke:rgb(51,51,153);stroke-width:0.367883" />
<path d="M 97.8172,37.9860 L 98.6150,38.3570 L 98.6150,38.3570 L 97.8172,37.9860 z" style="fill-opacity:0.3;fill:rgb(0,0,255);stroke:rgb(51,51,153);stroke-width:0.367883" />
<path d="M 98.9263,74.6079 L 99.3400,75.7630 L 100.190,78.4230 L 101.059,88.6225 L 100.189,78.4210 L 99.3350,75.7620 L 98.9263,74.6079 z" style="fill-opacity:0.3;fill:rgb(0,0,255);stroke:rgb(51,51,153);stroke-width:0.367883" />
<path d="M 99.6142,39.7253 L 99.9019,39.8411 L 99.6142,39.7254 L 99.1439,39.5378 L 99.6142,39.7253 z" style="fill-opacity:0.3;fill:rgb(0,0,255);stroke:rgb(51,51,153);stroke-width:0.367883" />
<path d="M 101.060,88.6330 L 101.060,88.6330 L 100.897,89.6852 L 101.060,88.6330 z" style="fill-opacity:0.3;fill:rgb(0,0,255);stroke:rgb(51,51,153);stroke-width:0.367883" />
<path d="M 103.697,41.4070 L 104.733,42.9203 L 103.697,41.4070 L 103.044,41.1139 L 103.697,41.4070 z" style="fill-opacity:0.3;fill:rgb(0,0,255);stroke:rgb(51,51,153);stroke-width:0.367883" />
<path d="M 104.813,43.0381 L 105.602,44.1900 L 108.082,47.1320 L 110.322,49.2500 L 110.821,50.9511 L 110.320,49.2530 L 108.080,47.1330 L 105.600,44.1930 L 104.813,43.0381 z" style="fill-opacity:0.3;fill:rgb(0,0,255);stroke:rgb(51,51,153);stroke-width:0.367883" />
<path d="M 111.137,52.0290 L 112.871,55.6870 L 111.137,52.0290 L 111.018,51.6221 L 111.137,52.0290 z" style="fill-opacity:0.3;fill:rgb(0,0,255);stroke:rgb(51,51,153);stroke-width:0.367883" />
<path d="M 113.730,107.525 L 114.550,107.713 L 114.550,107.713 L 113.730,107.525 z" style="fill-opacity:0.3;fill:rgb(0,0,255);stroke:rgb(51,51,153);stroke-width:0.367883" />
<path d="M 114.790,106.883 L 116.256,101.753 L 116.911,99.4645 L 116.256,101.753 L 114.790,106.883 L 114.670,107.298 L 114.790,106.883 z" style="fill-opacity:0.3;fill:rgb(0,0,255);stroke:rgb(51,51,153);stroke-width:0.367883" />
<path d="M 115.190,61.6937 L 115.988,65.6260 L 116.072,66.0384 L 116.160,66.4830 L 116.190,66.6271 L 116.160,66.4830 L 116.072,66.0384 L 115.988,65.6260 L 115.190,61.6937 z" style="fill-opacity:0.3;fill:rgb(0,0,255);stroke:rgb(51,51,153);stroke-width:0.367883" />
<path d="M 116.163,66.4840 L 116.487,68.0870 L 117.079,71.0073 L 116.487,68.0870 L 116.300,67.1606 L 116.299,67.1572 L 116.163,66.4840 z" style="fill-opacity:0.3;fill:rgb(0,0,255);stroke:rgb(51,51,153);stroke-width:0.367883" />
<path d="M 116.670,74.0930 L 117.012,74.0815 L 116.670,74.0930 L 116.670,74.0930 z" style="fill-opacity:0.3;fill:rgb(0,0,255);stroke:rgb(51,51,153);stroke-width:0.367883" />
<path d="M 117.649,82.5880 L 117.660,82.6930 L 118.320,94.5330 L 117.707,96.6779 L 118.320,94.5330 L 117.660,82.6930 L 117.649,82.5880 z" style="fill-opacity:0.3;fill:rgb(0,0,255);stroke:rgb(51,51,153);stroke-width:0.367883" />
<path d="M 117.688,73.9973 L 117.708,74.0581 L 117.708,74.0581 L 117.688,73.9973 z" style="fill-opacity:0.3;fill:rgb(0,0,255);stroke:rgb(51,51,153);stroke-width:0.367883" />
</g></svg>