<?xml version="1.0" standalone="no"?>
<!DOCTYPE svg PUBLIC "-//W3C//DTD SVG 1.1//EN"
"http://www.w3.org/Graphics/SVG/1.1/DTD/svg11.dtd">
<svg  version="1.1" xmlns="http://www.w3.org/2000/svg" xmlns:xlink="http://www.w3.org/1999/xlink" viewBox="0 0 9690 5586">
<g title="A + B (CGAL EPECK)" fill-rule="evenodd">
<path d="M 4812,3409 L 5044,3282 L 5044,3282 L 5044,3282 L 4954,2930 L 4966,2536 L 5866,1664 L 6067,903 L 6636,819 L 7227,914 L 7617,766 L 7954,565 L 8038,68 L 8219,-0 L 8588,104 L 8987,998 L 9145,1072 L 9093,1411 L 9293,1897 L 9567,2003 L 9536,2405 L 9690,2920 L 9590,3865 L 9506,4318 L 9042,5058 L 7225,4695 L 6689,4392 L 5655,4287 L 5750,4096 L 5054,4107 L 5054,3694 L 4694,3790 L 4812,3409 z" style="fill-opacity:0.3;fill:rgb(0,0,255);stroke:rgb(51,51,153);stroke-width:24.225000" />
</g></svg>