<?xml version="1.0" standalone="no"?>
<!DOCTYPE svg PUBLIC "-//W3C//DTD SVG 1.1//EN"
"http://www.w3.org/Graphics/SVG/1.1/DTD/svg11.dtd">
<svg viewBox="0 0 300 300" version="1.1"
xmlns="http://www.w3.org/2000/svg"
xmlns:xlink="http://www.w3.org/1999/xlink">
<g fill-rule="evenodd"><path d="M 293.599,0.00780 L 293.598,0.00699 L 293.598,0.00692 L 293.599,0.00644 L 293.599,0.00640 L 293.600,0.00612 L 293.600,0.00616 L 293.600,0.00596 L 293.601,0.00575 L 293.601,0.00574 L 293.601,0.00567 L 293.601,0.00555 L 293.602,0.00539 L 293.602,0.00521 L 293.602,0.00493 L 293.602,0.00463 L 293.602,0.00459 L 293.603,0.00448 L 293.603,0.00433 L 293.603,0.00430 L 293.603,0.00424 L 293.603,0.00412 L 293.603,0.00401 L 293.603,0.00390 L 293.603,0.00379 L 293.603,0.00364 L 293.603,0.00310 L 293.603,0.00285 L 293.603,0.00239 L 293.603,0.00231 L 293.603,0.00161 L 293.603,0.00161 L 293.603,0.00161 L 293.603,0.00164 L 293.602,0.00114 L 293.602,0.00099 L 293.602,0.00097 L 293.602,0.00091 L 293.602,0.00060 L 293.602,0.00026 L 293.602,0.00026 L 293.603,0 L 293.603,0.00011 L 293.603,0.00024 L 293.603,0.00049 L 293.603,0.00050 L 293.603,0.00057 L 293.603,0.00063 L 293.603,0.00071 L 293.604,0.00212 L 293.604,0.00209 L 293.604,0.00214 L 293.604,0.00241 L 293.604,0.00263 L 293.604,0.00279 L 293.604,0.00342 L 293.604,0.00343 L 293.604,0.00387 L 293.604,0.00388 L 293.604,0.00388 L 293.604,0.00393 L 293.604,0.00419 L 293.604,0.00428 L 293.604,0.00424 L 293.604,0.00428 L 293.604,0.00430 L 293.604,0.00432 L 293.604,0.00463 L 293.604,0.00504 L 293.604,0.00519 L 293.603,0.00530 L 293.603,0.00546 L 293.603,0.00561 L 293.603,0.00564 L 293.603,0.00568 L 293.603,0.00570 L 293.603,0.00572 L 293.603,0.00572 L 293.603,0.00572 L 293.603,0.00577 L 293.603,0.00585 L 293.603,0.00582 L 293.603,0.00585 L 293.603,0.00580 L 293.602,0.00609 L 293.603,0.00594 L 293.602,0.00608 L 293.602,0.00609 L 293.602,0.00612 L 293.602,0.00636 L 293.601,0.00669 L 293.601,0.00692 L 293.600,0.00702 L 293.600,0.00710 L 293.600,0.00722 L 293.600,0.00728 L 293.599,0.00758 L 293.599,0.00764 L 293.599,0.00780 z " style="fill-opacity:0.3;fill:rgb(255,0,0);stroke:rgb(0,0,0);stroke-width:1"/></g>
<g fill-rule="evenodd"><path d="M 293.602,0.00091 L 293.602,0.00060 L 293.602,0.00026 L 293.602,0.00026 L 293.603,5.30180e-10 L 293.603,0.00011 L 293.603,0.00024 L 293.603,0.00049 L 293.603,0.00050 L 293.603,0.00057 L 293.603,0.00063 L 293.603,0.00071 L 293.604,0.00212 L 293.604,0.00212 L 293.604,0.00212 L 293.604,0.00209 L 293.604,0.00214 L 293.604,0.00241 L 293.604,0.00263 L 293.604,0.00279 L 293.604,0.00342 L 293.604,0.00343 L 293.604,0.00387 L 293.604,0.00388 L 293.604,0.00388 L 293.604,0.00393 L 293.604,0.00419 L 293.604,0.00424 L 293.604,0.00428 L 293.604,0.00430 L 293.604,0.00432 L 293.604,0.00463 L 293.604,0.00504 L 293.604,0.00510 L 293.604,0.00519 L 293.603,0.00530 L 293.603,0.00546 L 293.603,0.00552 L 293.603,0.00561 L 293.603,0.00564 L 293.603,0.00568 L 293.603,0.00570 L 293.603,0.00572 L 293.603,0.00572 L 293.603,0.00572 L 293.603,0.00577 L 293.603,0.00582 L 293.603,0.00585 L 293.603,0.00580 L 293.603,0.00594 L 293.602,0.00608 L 293.602,0.00609 L 293.602,0.00612 L 293.602,0.00636 L 293.601,0.00669 L 293.601,0.00680 L 293.601,0.00692 L 293.600,0.00702 L 293.600,0.00710 L 293.600,0.00721 L 293.600,0.00722 L 293.600,0.00723 L 293.600,0.00728 L 293.599,0.00757 L 293.599,0.00758 L 293.599,0.00764 L 293.599,0.00779 L 293.599,0.00780 L 293.598,0.00699 L 293.598,0.00692 L 293.599,0.00644 L 293.599,0.00640 L 293.600,0.00612 L 293.600,0.00616 L 293.600,0.00596 L 293.601,0.00575 L 293.601,0.00574 L 293.601,0.00567 L 293.601,0.00567 L 293.601,0.00555 L 293.602,0.00539 L 293.602,0.00530 L 293.602,0.00521 L 293.602,0.00497 L 293.602,0.00493 L 293.602,0.00490 L 293.602,0.00463 L 293.602,0.00461 L 293.602,0.00459 L 293.603,0.00448 L 293.603,0.00433 L 293.603,0.00430 L 293.603,0.00424 L 293.603,0.00412 L 293.603,0.00401 L 293.603,0.00390 L 293.603,0.00385 L 293.603,0.00378 L 293.603,0.00364 L 293.603,0.00310 L 293.603,0.00285 L 293.603,0.00239 L 293.603,0.00231 L 293.603,0.00161 L 293.603,0.00161 L 293.603,0.00161 L 293.603,0.00164 L 293.602,0.00114 L 293.602,0.00099 L 293.602,0.00097 L 293.602,0.00091 z " style="fill-opacity:0.3;fill:rgb(0,255,0);stroke:rgb(0,0,0);stroke-width:1"/></g>
</svg>
