<?xml version="1.0" standalone="no"?>
<!DOCTYPE svg PUBLIC "-//W3C//DTD SVG 1.1//EN"
"http://www.w3.org/Graphics/SVG/1.1/DTD/svg11.dtd">
<svg  version="1.1" xmlns="http://www.w3.org/2000/svg" xmlns:xlink="http://www.w3.org/1999/xlink" viewBox="0 0 118.32 147.153">
<g title="A + B (CGAL EPECK)" fill-rule="evenodd">
<path d="M 1.09189e-05,15.403 L 4.24,16.663 L 28.39,25.603 L 28.08,26.453 L 42.48,31.793 L 42.82,30.973 L 51.32,34.653 L 61.22,38.723 L 61.44,38.813 L 64.78,40.263 L 64.8901,40.3012 L 71.321,42.531 L 77.149,45.419 L 79.5475,47.1976 L 81.73,48.813 L 85.5077,53.3497 L 81.726,48.813 L 77.149,45.419 L 71.321,42.531 L 64.777,40.262 L 61.438,38.815 L 61.222,38.726 L 51.32,34.653 L 42.82,30.973 L 42.48,31.793 L 28.08,26.453 L 28.39,25.603 L 4.23999,16.663 L -0,15.403 L 1.09189e-05,15.403 z" style="fill-opacity:0.3;fill:rgb(0,0,255);stroke:rgb(51,51,153);stroke-width:0.367883" />
<path d="M 24.895,-0 L 30.825,3.10401 L 31.8255,3.62753 L 30.825,3.10401 L 25.4675,0.29968 L 24.9,0.00301 L 0.0406899,15.3778 L 24.895,-0 z" style="fill-opacity:0.3;fill:rgb(0,0,255);stroke:rgb(51,51,153);stroke-width:0.367883" />
<path d="M 43.786,9.88801 L 45.4187,10.8048 L 45.3773,10.7815 L 43.79,9.89301 L 33.2052,4.34948 L 43.786,9.88801 z" style="fill-opacity:0.3;fill:rgb(0,0,255);stroke:rgb(51,51,153);stroke-width:0.367883" />
<path d="M 49.81,13.27 L 52.431,14.741 L 55.852,16.661 L 61.3102,18.9043 L 55.85,16.663 L 52.43,14.743 L 49.81,13.273 L 46.1693,11.2262 L 49.81,13.27 z" style="fill-opacity:0.3;fill:rgb(0,0,255);stroke:rgb(51,51,153);stroke-width:0.367883" />
<path d="M 78.576,27.152 L 82.704,29.2378 L 78.576,27.152 L 70.9514,23.3001 L 78.576,27.152 z" style="fill-opacity:0.3;fill:rgb(0,0,255);stroke:rgb(51,51,153);stroke-width:0.367883" />
<path d="M 83.8809,142.273 L 83.8809,142.273 L 83.8809,142.273 L 83.8809,142.273 z" style="fill-opacity:0.3;fill:rgb(0,0,255);stroke:rgb(51,51,153);stroke-width:0.367883" />
<path d="M 85.97,135.743 L 87.92,129.953 L 88.793,128.813 L 88.793,128.813 L 87.92,129.953 L 85.97,135.743 L 85.2878,137.874 L 85.97,135.743 z" style="fill-opacity:0.3;fill:rgb(0,0,255);stroke:rgb(51,51,153);stroke-width:0.367883" />
<path d="M 88.37,128.563 L 88.9096,127.276 L 88.37,128.563 L 88.37,128.563 z" style="fill-opacity:0.3;fill:rgb(0,0,255);stroke:rgb(51,51,153);stroke-width:0.367883" />
<path d="M 88.59,32.383 L 90.3286,33.8833 L 88.59,32.383 L 88.3993,32.2504 L 88.59,32.383 z" style="fill-opacity:0.3;fill:rgb(0,0,255);stroke:rgb(51,51,153);stroke-width:0.367883" />
<path d="M 90.413,60.535 L 92.1574,62.6711 L 93.7696,64.6437 L 92.1574,62.6711 L 90.413,60.535 L 90.413,60.535 z" style="fill-opacity:0.3;fill:rgb(0,0,255);stroke:rgb(51,51,153);stroke-width:0.367883" />
<path d="M 90.6715,60.1769 L 90.955,59.784 L 86.6811,54.7464 L 90.96,59.783 L 90.6902,60.1509 L 90.6715,60.1769 z" style="fill-opacity:0.3;fill:rgb(0,0,255);stroke:rgb(51,51,153);stroke-width:0.367883" />
<path d="M 88.588,32.38 L 94.721,37.675 L 95.3125,36.8242 L 95.7177,37.0114 L 95.3125,36.8242 L 94.721,37.675 L 91.8288,35.178 L 91.8073,35.1594 L 88.588,32.38 z" style="fill-opacity:0.3;fill:rgb(0,0,255);stroke:rgb(51,51,153);stroke-width:0.367883" />
<path d="M 92.3775,116.268 L 93.23,116.803 L 93.2305,116.802 L 93.2305,116.802 L 93.23,116.803 L 92.3775,116.268 z" style="fill-opacity:0.3;fill:rgb(0,0,255);stroke:rgb(51,51,153);stroke-width:0.367883" />
<path d="M 93.231,116.802 L 96.1355,109.394 L 93.231,116.802 L 93.231,116.802 z" style="fill-opacity:0.3;fill:rgb(0,0,255);stroke:rgb(51,51,153);stroke-width:0.367883" />
<path d="M 94.15,147.153 L 94.5555,144.984 L 95.006,142.556 L 96.7998,137.9 L 96.7998,137.901 L 95.006,142.556 L 94.5555,144.984 L 94.15,147.153 L 89.0155,144.713 L 94.15,147.153 z" style="fill-opacity:0.3;fill:rgb(0,0,255);stroke:rgb(51,51,153);stroke-width:0.367883" />
<path d="M 94.717,65.9764 L 94.7483,66.0375 L 94.7481,66.0371 L 94.717,65.9764 z" style="fill-opacity:0.3;fill:rgb(0,0,255);stroke:rgb(51,51,153);stroke-width:0.367883" />
<path d="M 95.374,67.254 L 96.611,69.44 L 97.564,71.447 L 97.8467,72.0534 L 97.564,71.447 L 96.611,69.44 L 95.374,67.254 L 95.0035,66.5336 L 95.374,67.254 z" style="fill-opacity:0.3;fill:rgb(0,0,255);stroke:rgb(51,51,153);stroke-width:0.367883" />
<path d="M 95.314,36.822 L 96.3371,37.2978 L 96.3351,37.2969 L 95.314,36.822 z" style="fill-opacity:0.3;fill:rgb(0,0,255);stroke:rgb(51,51,153);stroke-width:0.367883" />
<path d="M 96.7391,137.089 L 96.7866,137.722 L 96.7974,137.868 L 96.7866,137.722 L 96.7391,137.089 z" style="fill-opacity:0.3;fill:rgb(0,0,255);stroke:rgb(51,51,153);stroke-width:0.367883" />
<path d="M 97.87,133.673 L 111.88,107.103 L 111.88,107.103 L 97.874,133.676 L 97.2106,135.204 L 97.87,133.673 z" style="fill-opacity:0.3;fill:rgb(0,0,255);stroke:rgb(51,51,153);stroke-width:0.367883" />
<path d="M 98.38,39.233 L 98.381,39.2293 L 98.381,39.2293 L 98.38,39.233 L 98.38,39.233 z" style="fill-opacity:0.3;fill:rgb(0,0,255);stroke:rgb(51,51,153);stroke-width:0.367883" />
<path d="M 97.8172,37.986 L 98.615,38.357 L 98.615,38.357 L 97.8172,37.986 z" style="fill-opacity:0.3;fill:rgb(0,0,255);stroke:rgb(51,51,153);stroke-width:0.367883" />
<path d="M 98.9263,74.6079 L 99.34,75.763 L 100.19,78.423 L 101.059,88.6225 L 100.189,78.421 L 99.335,75.762 L 98.9263,74.6079 z" style="fill-opacity:0.3;fill:rgb(0,0,255);stroke:rgb(51,51,153);stroke-width:0.367883" />
<path d="M 99.6142,39.7253 L 99.9019,39.8411 L 99.6142,39.7254 L 99.1439,39.5378 L 99.6142,39.7253 z" style="fill-opacity:0.3;fill:rgb(0,0,255);stroke:rgb(51,51,153);stroke-width:0.367883" />
<path d="M 101.06,88.633 L 101.06,88.633 L 100.897,89.6853 L 101.06,88.633 z" style="fill-opacity:0.3;fill:rgb(0,0,255);stroke:rgb(51,51,153);stroke-width:0.367883" />
<path d="M 103.697,41.407 L 104.733,42.9203 L 103.697,41.407 L 103.044,41.1139 L 103.697,41.407 z" style="fill-opacity:0.3;fill:rgb(0,0,255);stroke:rgb(51,51,153);stroke-width:0.367883" />
<path d="M 104.813,43.0381 L 105.602,44.19 L 108.082,47.132 L 110.322,49.25 L 110.821,50.9511 L 110.32,49.253 L 108.08,47.133 L 105.6,44.193 L 104.813,43.0381 z" style="fill-opacity:0.3;fill:rgb(0,0,255);stroke:rgb(51,51,153);stroke-width:0.367883" />
<path d="M 111.137,52.029 L 112.871,55.6867 L 111.137,52.029 L 111.018,51.6221 L 111.137,52.029 z" style="fill-opacity:0.3;fill:rgb(0,0,255);stroke:rgb(51,51,153);stroke-width:0.367883" />
<path d="M 113.73,107.525 L 114.55,107.713 L 114.55,107.713 L 113.73,107.525 z" style="fill-opacity:0.3;fill:rgb(0,0,255);stroke:rgb(51,51,153);stroke-width:0.367883" />
<path d="M 114.79,106.883 L 116.256,101.753 L 116.911,99.4646 L 116.256,101.753 L 114.79,106.883 L 114.67,107.298 L 114.79,106.883 z" style="fill-opacity:0.3;fill:rgb(0,0,255);stroke:rgb(51,51,153);stroke-width:0.367883" />
<path d="M 115.19,61.6938 L 115.988,65.626 L 116.072,66.0384 L 116.16,66.483 L 116.19,66.6271 L 116.16,66.483 L 116.072,66.0384 L 115.988,65.626 L 115.19,61.6938 z" style="fill-opacity:0.3;fill:rgb(0,0,255);stroke:rgb(51,51,153);stroke-width:0.367883" />
<path d="M 116.163,66.484 L 116.487,68.087 L 117.079,71.0073 L 116.487,68.087 L 116.3,67.1606 L 116.299,67.1572 L 116.163,66.484 z" style="fill-opacity:0.3;fill:rgb(0,0,255);stroke:rgb(51,51,153);stroke-width:0.367883" />
<path d="M 116.67,74.093 L 117.012,74.0815 L 116.67,74.093 L 116.67,74.093 z" style="fill-opacity:0.3;fill:rgb(0,0,255);stroke:rgb(51,51,153);stroke-width:0.367883" />
<path d="M 117.649,82.588 L 117.66,82.693 L 118.32,94.533 L 117.707,96.6779 L 118.32,94.533 L 117.66,82.693 L 117.649,82.588 z" style="fill-opacity:0.3;fill:rgb(0,0,255);stroke:rgb(51,51,153);stroke-width:0.367883" />
<path d="M 117.688,73.9973 L 117.708,74.0581 L 117.708,74.0581 L 117.688,73.9973 z" style="fill-opacity:0.3;fill:rgb(0,0,255);stroke:rgb(51,51,153);stroke-width:0.367883" />
</g></svg>