<?xml version="1.0" standalone="no"?>
<!DOCTYPE svg PUBLIC "-//W3C//DTD SVG 1.1//EN"
"http://www.w3.org/Graphics/SVG/1.1/DTD/svg11.dtd">
<svg viewBox="0 0 300 300" version="1.1"
xmlns="http://www.w3.org/2000/svg"
xmlns:xlink="http://www.w3.org/1999/xlink">
<g fill-rule="evenodd"><path d="M 188.819,0.21776 L 188.832,0.33733 L 188.812,0.40249 L 188.816,0.45336 L 188.781,0.46677 L 188.756,0.52826 L 188.763,0.57115 L 188.743,0.58052 L 188.692,0.69363 L 188.646,0.70679 L 188.623,0.69819 L 188.612,0.63530 L 188.569,0.60987 L 188.520,0.59115 L 188.445,0.60317 L 188.373,0.59254 L 188.348,0.49625 L 188.234,0.38591 L 188.232,0.33606 L 188.244,0.29152 L 188.214,0.27545 L 188.200,0.22725 L 188.245,0.23939 L 188.245,0.18714 L 188.333,0.18853 L 188.321,0.16436 L 188.452,0.15108 L 188.520,0.11274 L 188.750,0.06681 L 188.808,0.16044 L 188.819,0.21776 z " style="fill-opacity:0.3;fill:rgb(255,0,0);stroke:rgb(0,0,0);stroke-width:1"/></g>
<g fill-rule="evenodd"><path d="M 187.999,0.04618 L 188.114,0.08553 L 188.138,0.11223 L 188.140,0.14171 L 188.180,0.14437 L 188.200,0.22725 L 188.214,0.27545 L 188.244,0.29152 L 188.232,0.33606 L 188.174,0.36238 L 188.096,0.43058 L 188.009,0.49675 L 187.877,0.54294 L 187.776,0.41869 L 187.732,0.33037 L 187.707,0.24104 L 187.616,0.16057 L 187.606,0.11780 L 187.626,0.07478 L 187.610,0.02784 L 187.663,0.06833 L 187.711,0.07364 L 187.777,0.02480 L 187.838,0.00544 L 187.891,0.01215 L 187.957,0 L 187.999,0.04618 z " style="fill-opacity:0.3;fill:rgb(0,255,0);stroke:rgb(0,0,0);stroke-width:1"/></g>
</svg>
