<?xml version="1.0" standalone="no"?>
<!DOCTYPE svg PUBLIC "-//W3C//DTD SVG 1.1//EN"
"http://www.w3.org/Graphics/SVG/1.1/DTD/svg11.dtd">
<svg  version="1.1" xmlns="http://www.w3.org/2000/svg" xmlns:xlink="http://www.w3.org/1999/xlink" viewBox="0 0 118.32 147.153">
<g title="A + B (CGAL EPECK)" fill-rule="evenodd">
<path d="M 116.163,66.484 L 116.487,68.087 L 117.079,71.0073 L 117.474,72.9541 L 117.68,73.973 L 117.688,73.9973 L 117.708,74.0581 L 117.708,74.0581 L 117.708,74.0581 L 117.012,74.0815 L 116.67,74.093 L 117.64,82.503 L 117.649,82.588 L 117.66,82.693 L 118.32,94.533 L 117.707,96.6779 L 117.435,97.631 L 116.911,99.4646 L 116.256,101.753 L 114.79,106.883 L 114.67,107.298 L 114.55,107.713 L 114.55,107.713 L 114.55,107.713 L 113.73,107.525 L 111.882,107.1 L 111.88,107.103 L 111.88,107.103 L 97.874,133.676 L 97.2106,135.204 L 97.2095,135.207 L 96.688,136.408 L 96.7391,137.089 L 96.7866,137.722 L 96.7974,137.868 L 96.7998,137.9 L 96.7998,137.9 L 96.7998,137.901 L 95.006,142.556 L 94.5555,144.984 L 94.15,147.153 L 89.0155,144.713 L 83.8809,142.273 L 83.8809,142.273 L 83.8809,142.273 L 83.8809,142.273 L 83.881,142.27 L 85.2878,137.874 L 85.97,135.743 L 87.92,129.953 L 88.793,128.813 L 88.37,128.563 L 88.37,128.563 L 88.37,128.563 L 88.9096,127.276 L 89.553,125.742 L 92.29,116.213 L 92.3775,116.268 L 93.23,116.803 L 93.2305,116.802 L 93.2305,116.802 L 93.2305,116.802 L 93.231,116.802 L 96.1355,109.394 L 98.413,103.585 L 98.97,102.163 L 100.333,93.337 L 100.897,89.6853 L 101.06,88.633 L 101.059,88.6225 L 100.189,78.421 L 99.335,75.762 L 98.9263,74.6079 L 98.9262,74.6077 L 98.574,73.613 L 97.8467,72.0534 L 97.564,71.447 L 96.611,69.44 L 95.374,67.254 L 95.0035,66.5336 L 94.7496,66.04 L 94.7483,66.0375 L 94.7481,66.0371 L 94.717,65.9764 L 94.48,65.513 L 93.7696,64.6437 L 92.1574,62.6711 L 90.413,60.535 L 90.413,60.535 L 90.413,60.535 L 90.6715,60.1769 L 90.955,59.784 L 86.6811,54.7464 L 86.671,54.7345 L 86.159,54.131 L 85.5267,53.3725 L 85.5077,53.3497 L 81.726,48.813 L 77.149,45.419 L 71.321,42.531 L 64.777,40.262 L 61.438,38.815 L 61.222,38.726 L 51.32,34.653 L 42.82,30.973 L 42.48,31.793 L 28.08,26.453 L 28.39,25.603 L 4.23999,16.663 L -0,15.403 L 1.09189e-05,15.403 L -0,15.403 L 0.0406899,15.3778 L 24.895,-0 L 30.825,3.10401 L 31.8255,3.62753 L 32.826,4.15101 L 33.1727,4.33247 L 33.2052,4.34948 L 43.786,9.88801 L 45.4187,10.8048 L 45.631,10.924 L 46.1632,11.2228 L 46.1693,11.2262 L 49.81,13.27 L 52.431,14.741 L 55.852,16.661 L 61.3102,18.9043 L 61.326,18.9108 L 66.351,20.976 L 70.9514,23.3001 L 78.576,27.152 L 82.704,29.2378 L 87.668,31.746 L 88.3413,32.21 L 88.3993,32.2504 L 88.59,32.383 L 90.3286,33.8833 L 91.8073,35.1594 L 88.588,32.38 L 94.721,37.675 L 95.3125,36.8242 L 95.7177,37.0114 L 96.3351,37.2969 L 95.314,36.822 L 96.3371,37.2978 L 96.3407,37.2994 L 97.8172,37.986 L 98.615,38.357 L 98.615,38.357 L 98.615,38.357 L 98.378,39.228 L 98.381,39.2292 L 98.381,39.2293 L 98.381,39.2293 L 98.38,39.233 L 99.1439,39.5378 L 99.6142,39.7253 L 99.9019,39.8411 L 100.262,39.986 L 102.202,40.736 L 103.044,41.1139 L 103.697,41.407 L 104.733,42.9203 L 104.813,43.038 L 104.813,43.0381 L 105.602,44.19 L 108.082,47.132 L 110.322,49.25 L 110.821,50.9511 L 110.822,50.9539 L 111.018,51.6221 L 111.137,52.029 L 112.871,55.6867 L 114.795,59.745 L 115.19,61.6938 L 115.988,65.626 L 116.072,66.0384 L 116.16,66.483 L 116.19,66.6271 L 116.299,67.1572 L 116.163,66.484 z" style="fill-opacity:0.3;fill:rgb(0,0,255);stroke:rgb(51,51,153);stroke-width:0.367883" />
</g></svg>