<?xml version="1.0" standalone="no"?>
<!DOCTYPE svg PUBLIC "-//W3C//DTD SVG 1.1//EN"
"http://www.w3.org/Graphics/SVG/1.1/DTD/svg11.dtd">
<svg  version="1.1" xmlns="http://www.w3.org/2000/svg" xmlns:xlink="http://www.w3.org/1999/xlink" viewBox="0 0 9690 5586">
<g title="A + B (CGAL EPECK)" fill-rule="evenodd">
<path d="M 5044.00,3282.00 L 4954.00,2930.00 L 4495.00,2722.00 L 3873.00,2183.00 L 3188.00,1660.00 L 2144.00,1295.00 L 1349.00,2277.00 L 1001.00,2975.00 L 799.000,3681.00 L 84.0000,4317.00 L 3.55759e-18,4655.00 L 157.000,4995.00 L 34.0000,5366.00 L 454.000,5046.00 L 833.000,5004.00 L 1353.00,5390.00 L 1835.00,5543.00 L 2257.00,5490.00 L 2774.00,5586.00 L 3109.00,5221.00 L 4021.00,4910.00 L 4210.00,4699.00 L 4221.00,4466.00 L 4537.00,4445.00 L 4694.00,3790.00 L 4694.00,3790.00 L 5054.00,3694.00 L 5054.00,4107.00 L 5750.00,4096.00 L 5655.00,4287.00 L 6689.00,4392.00 L 7225.00,4695.00 L 9042.00,5058.00 L 9506.00,4318.00 L 9590.00,3865.00 L 9690.00,2920.00 L 9536.00,2405.00 L 9567.00,2003.00 L 9293.00,1897.00 L 9093.00,1411.00 L 9145.00,1072.00 L 8987.00,998.000 L 8588.00,104.000 L 8219.00,-9.43298e-18 L 8038.00,68.0000 L 7954.00,565.000 L 7617.00,766.000 L 7227.00,914.000 L 6636.00,819.000 L 6067.00,903.000 L 5866.00,1664.00 L 4966.00,2536.00 L 4954.00,2930.00 L 5044.00,3282.00 L 5044.00,3282.00 z" style="fill-opacity:0.3;fill:rgb(0,0,255);stroke:rgb(51,51,153);stroke-width:24.225000" />
</g></svg>