<?xml version="1.0" standalone="no"?>
<!DOCTYPE svg PUBLIC "-//W3C//DTD SVG 1.1//EN"
"http://www.w3.org/Graphics/SVG/1.1/DTD/svg11.dtd">
<svg viewBox="0 0 300 300" version="1.1"
xmlns="http://www.w3.org/2000/svg"
xmlns:xlink="http://www.w3.org/1999/xlink">
<g fill-rule="evenodd"><path d="M 145.325,119.133 L 156.471,122.105 L 156.471,109.319 L 178.019,109.659 L 175.077,103.746 L 207.09,100.495 L 223.684,91.1146 L 279.938,79.8762 L 294.303,102.786 L 296.904,116.811 L 300,146.068 L 295.232,162.012 L 296.192,174.458 L 287.709,177.74 L 281.517,192.786 L 283.127,203.282 L 278.235,205.573 L 265.882,233.251 L 254.458,236.471 L 248.854,234.365 L 246.254,218.978 L 235.82,212.755 L 223.746,208.173 L 205.449,211.115 L 187.833,208.514 L 181.61,184.954 L 153.746,157.957 L 153.375,145.759 L 156.161,134.861 L 156.161,134.861 L 148.978,130.929 L 145.325,119.133 z " style="fill-opacity:0.3;fill:rgb(0,0,255);stroke:rgb(51,51,153);stroke-width:1"/></g>
<g fill-rule="evenodd"><path d="M 145.325,119.133 L 145.325,119.133 L 148.978,130.929 L 156.161,134.861 L 153.375,145.759 L 139.164,152.198 L 119.907,168.885 L 98.6997,185.077 L 66.3777,196.378 L 41.7647,165.975 L 30.9907,144.365 L 24.7368,122.508 L 2.60062,102.817 L 0,92.3529 L 4.86068,81.8266 L 1.05263,70.3406 L 14.0557,80.2477 L 25.7895,81.548 L 41.8885,69.5975 L 56.8111,64.8607 L 69.8762,66.5015 L 85.8824,63.5294 L 96.2539,74.8297 L 124.489,84.4582 L 130.341,90.9907 L 130.681,98.2043 L 140.464,98.8545 L 145.325,119.133 z " style="fill-opacity:0.3;fill:rgb(0,0,255);stroke:rgb(51,51,153);stroke-width:1"/></g>
</svg>
