<?xml version="1.0" standalone="no"?>
<!DOCTYPE svg PUBLIC "-//W3C//DTD SVG 1.1//EN"
"http://www.w3.org/Graphics/SVG/1.1/DTD/svg11.dtd">
<svg  version="1.1" xmlns="http://www.w3.org/2000/svg" xmlns:xlink="http://www.w3.org/1999/xlink" viewBox="0 0 2 2">
<g title="A + B (CGAL EPECK)" fill-rule="evenodd">
<path d="M 1.2886e-07,2 L 2.42707e-07,1.08627 L 8.92e-09,1.08627 L -0,0.937572 L 2.61235e-07,0.937572 L 2.61235e-07,0.937572 L 0.0900002,0.974093 L 0.0900002,0.974093 L 0.401827,1.10063 L 6.4e-10,0.506078 L 2.155e-08,0.286381 L 1.48629e-07,0.286381 L 1.2886e-07,-0 L 2,-0 L 2,2 L 1.2886e-07,2 M 0.0900002,0.974093 L 2.61235e-07,0.937572 L 2.42707e-07,1.08627 L 0.0900002,1.1228 L 0.0900002,0.974093 M 1.91,0.09 L 0.0900001,0.09 L 0.0900001,0.393172 L 0.642724,1.211 L 0.639172,1.29295 L 0.559738,1.31341 L 0.0900002,1.1228 L 0.0900001,1.91 L 1.91,1.91 L 1.91,0.09 M 0.0900001,0.639244 L 0.0900001,0.393172 L 0.0298566,0.304182 L 1.48629e-07,0.286381 L 1.63794e-07,0.506078 L 0.0900001,0.639244 z" style="fill-opacity:0.3;fill:rgb(0,0,255);stroke:rgb(51,51,153);stroke-width:0.005000" />
</g></svg>