<?xml version="1.0" standalone="no"?>
<!DOCTYPE svg PUBLIC "-//W3C//DTD SVG 1.1//EN"
"http://www.w3.org/Graphics/SVG/1.1/DTD/svg11.dtd">
<svg  version="1.1" xmlns="http://www.w3.org/2000/svg" xmlns:xlink="http://www.w3.org/1999/xlink" viewBox="0 0 2203 1800">
<g title="A + B (CGAL EPECK)" fill-rule="evenodd">
<path d="M 1538.65,1632.10 L 2201.0,1476.47 L 2201.00,1524.33 L 2203.0,1524.0 L 2203.0,1476.0 L 1527.0,1634.0 L 1538.65,1632.10 z" style="fill-opacity:0.3;fill:rgb(0,0,255);stroke:rgb(51,51,153);stroke-width:5.507500" />
<path d="M 1538.65,1632.10 L 1105.0,1734.0 L 1021.0,1656.0 L 1.0,1074.0 L 1.0,708.0 L 1.0,402.0 L 1.0,156.0 L 1105.0,1272.0 L 2201.0,1164.20 L 2201.0,0 L 0,0 L 0,1800.0 L 2201.0,1800.0 L 2201.0,1524.33 L 1538.65,1632.10 z" style="fill-opacity:0.3;fill:rgb(0,0,255);stroke:rgb(51,51,153);stroke-width:5.507500" />
<path d="M 1105.00,1734.00 L 1527.0,1634.0 L 1105.0,1704.0 L 1021.18,1656.10 L 1105.00,1734.00 z" style="fill-opacity:0.3;fill:rgb(0,0,255);stroke:rgb(51,51,153);stroke-width:5.507500" />
<path d="M 1021.18,1656.10 L 1.0,708.0 L 1021.0,1656.0 L 1021.18,1656.10 z" style="fill-opacity:0.3;fill:rgb(0,0,255);stroke:rgb(51,51,153);stroke-width:5.507500" />
</g></svg>