<?xml version="1.0" standalone="no"?>
<!DOCTYPE svg PUBLIC "-//W3C//DTD SVG 1.1//EN"
"http://www.w3.org/Graphics/SVG/1.1/DTD/svg11.dtd">
<svg  version="1.1" xmlns="http://www.w3.org/2000/svg" xmlns:xlink="http://www.w3.org/1999/xlink" viewBox="0 0 43.3279 50.0071">
<g title="A + B (CGAL EPECK)" fill-rule="evenodd">
<path d="M 43.3145,26.2832 L 43.3204,37.5196 L 43.3279,37.5152 L 43.3145,26.2832 z" style="fill-opacity:0.3;fill:rgb(0,0,255);stroke:rgb(51,51,153);stroke-width:0.125018" />
<path d="M 43.3145,26.2832 L 43.3073,12.5187 L 21.6634,0.00257 L 21.6609,0.00398 L 43.2980,12.5140 L 43.3145,26.2832 z" style="fill-opacity:0.3;fill:rgb(0,0,255);stroke:rgb(51,51,153);stroke-width:0.125018" />
<path d="M 43.3204,37.5196 L 29.7060,45.3686 L 43.3204,37.5209 L 43.3204,37.5196 z" style="fill-opacity:0.3;fill:rgb(0,0,255);stroke:rgb(51,51,153);stroke-width:0.125018" />
<path d="M 21.6678,50.0021 L 21.6685,50.0025 L 29.7060,45.3686 L 21.6678,50.0021 z" style="fill-opacity:0.3;fill:rgb(0,0,255);stroke:rgb(51,51,153);stroke-width:0.125018" />
<path d="M 21.6678,50.0021 L 10.5145,43.5805 L 21.6591,50.0071 L 21.6678,50.0021 z" style="fill-opacity:0.3;fill:rgb(0,0,255);stroke:rgb(51,51,153);stroke-width:0.125018" />
<path d="M 12.8076,5.12160 L 21.6609,0.00398 L 21.6540,-3.34473e-19 L 12.8076,5.12160 z" style="fill-opacity:0.3;fill:rgb(0,0,255);stroke:rgb(51,51,153);stroke-width:0.125018" />
<path d="M 12.8076,5.12160 L 0.01730,12.5150 L 0.01730,12.5265 L 12.8076,5.12160 z" style="fill-opacity:0.3;fill:rgb(0,0,255);stroke:rgb(51,51,153);stroke-width:0.125018" />
<path d="M 10.5145,43.5805 L 0.00184,37.5183 L 0.00184,37.5278 L 10.5145,43.5805 z" style="fill-opacity:0.3;fill:rgb(0,0,255);stroke:rgb(51,51,153);stroke-width:0.125018" />
<path d="M 0.00184,37.5183 L 0.01730,12.5284 L 2.96875e-17,37.5173 L 0.00184,37.5183 z" style="fill-opacity:0.3;fill:rgb(0,0,255);stroke:rgb(51,51,153);stroke-width:0.125018" />
<path d="M 0.01730,12.5284 L 0.01730,12.5265 L 0.01730,12.5265 L 0.01730,12.5284 z" style="fill-opacity:0.3;fill:rgb(0,0,255);stroke:rgb(51,51,153);stroke-width:0.125018" />
</g></svg>