<?xml version="1.0" standalone="no"?>
<!DOCTYPE svg PUBLIC "-//W3C//DTD SVG 1.1//EN"
"http://www.w3.org/Graphics/SVG/1.1/DTD/svg11.dtd">
<svg viewBox="0 0 300 300" version="1.1"
xmlns="http://www.w3.org/2000/svg"
xmlns:xlink="http://www.w3.org/1999/xlink">
<g fill-rule="evenodd"><path d="M 279.885,142.323 L 279.92,74.9143 L 279.965,74.9405 L 279.885,142.323 z " style="fill-opacity:0.3;fill:rgb(0,0,255);stroke:rgb(51,51,153);stroke-width:1"/></g>
<g fill-rule="evenodd"><path d="M 279.885,142.323 L 279.842,224.899 L 149.996,299.985 L 149.982,299.976 L 149.982,299.976 L 279.786,224.927 L 279.885,142.323 z " style="fill-opacity:0.3;fill:rgb(0,0,255);stroke:rgb(51,51,153);stroke-width:1"/></g>
<g fill-rule="evenodd"><path d="M 279.92,74.9143 L 198.245,27.8267 L 279.92,74.9062 L 279.92,74.9143 z " style="fill-opacity:0.3;fill:rgb(0,0,255);stroke:rgb(51,51,153);stroke-width:1"/></g>
<g fill-rule="evenodd"><path d="M 150.023,0.0300416 L 150.027,0.0276679 L 198.245,27.8267 L 150.023,0.0300416 z " style="fill-opacity:0.3;fill:rgb(0,0,255);stroke:rgb(51,51,153);stroke-width:1"/></g>
<g fill-rule="evenodd"><path d="M 150.023,0.0300416 L 83.1126,38.5541 L 149.971,0 L 150.023,0.0300416 z " style="fill-opacity:0.3;fill:rgb(0,0,255);stroke:rgb(51,51,153);stroke-width:1"/></g>
<g fill-rule="evenodd"><path d="M 149.982,299.976 L 149.94,300 L 96.8695,269.275 L 149.982,299.976 z " style="fill-opacity:0.3;fill:rgb(0,0,255);stroke:rgb(51,51,153);stroke-width:1"/></g>
<g fill-rule="evenodd"><path d="M 83.1126,38.5541 L 20.0456,74.9218 L 20.0456,74.8652 L 83.1126,38.5541 z " style="fill-opacity:0.3;fill:rgb(0,0,255);stroke:rgb(51,51,153);stroke-width:1"/></g>
<g fill-rule="evenodd"><path d="M 20.0456,74.9218 L 20.1383,224.84 L 20.0346,74.9282 L 20.0456,74.9218 z " style="fill-opacity:0.3;fill:rgb(0,0,255);stroke:rgb(51,51,153);stroke-width:1"/></g>
<g fill-rule="evenodd"><path d="M 20.1383,224.84 L 20.1383,224.851 L 20.1383,224.851 L 20.1383,224.84 z " style="fill-opacity:0.3;fill:rgb(0,0,255);stroke:rgb(51,51,153);stroke-width:1"/></g>
<g fill-rule="evenodd"><path d="M 20.1383,224.851 L 96.8695,269.275 L 20.1384,224.921 L 20.1383,224.851 z " style="fill-opacity:0.3;fill:rgb(0,0,255);stroke:rgb(51,51,153);stroke-width:1"/></g>
</svg>
