<?xml version="1.0" standalone="no"?>
<!DOCTYPE svg PUBLIC "-//W3C//DTD SVG 1.1//EN"
"http://www.w3.org/Graphics/SVG/1.1/DTD/svg11.dtd">
<svg  version="1.1" xmlns="http://www.w3.org/2000/svg" xmlns:xlink="http://www.w3.org/1999/xlink" viewBox="0 0 43.3168 50.0084">
<g title="A + B (CGAL EPECK)" fill-rule="evenodd">
<path d="M -0,12.4997 L 0.0171866,12.4898 L 0.0171866,12.4898 L 0.0186749,12.4889 L 21.6557,0.0052565 L 21.6595,0.00749971 L 21.6725,-0 L 30.672,5.20204 L 43.3168,12.4902 L 43.3095,37.4917 L 43.3046,37.4945 L 43.3046,37.5097 L 34.2278,42.7439 L 21.6666,50.0084 L 21.6485,49.9979 L 21.6484,49.998 L 21.0572,49.6563 L 0.0183141,37.5013 L 0.0183109,37.4969 L 0.00425696,37.4888 L 0.0100708,26.2479 L -0,12.4997 M 43.3158,12.5107 L 30.672,5.20204 L 21.6595,0.00749971 L 0.0186749,12.4889 L 0.0171866,12.4898 L 0.0100708,26.2479 L 0.0183109,37.4969 L 21.0572,49.6563 L 21.6485,49.9979 L 34.2278,42.7439 L 43.3046,37.4945 L 43.3158,12.5107 z" style="fill-opacity:0.3;fill:rgb(0,0,255);stroke:rgb(51,51,153);stroke-width:0.125021" />
</g></svg>