<?xml version="1.0" standalone="no"?>
<!DOCTYPE svg PUBLIC "-//W3C//DTD SVG 1.1//EN"
"http://www.w3.org/Graphics/SVG/1.1/DTD/svg11.dtd">
<svg viewBox="0 0 300 300" version="1.1"
xmlns="http://www.w3.org/2000/svg"
xmlns:xlink="http://www.w3.org/1999/xlink">
<g fill-rule="evenodd"><path d="M 279.873,198.364 L 279.916,101.724 L 299.985,150.06 L 279.873,198.364 z " style="fill-opacity:0.3;fill:rgb(0,0,255);stroke:rgb(51,51,153);stroke-width:1"/></g>
<g fill-rule="evenodd"><path d="M 279.873,198.364 L 279.861,224.987 L 265.282,233.407 L 279.873,198.364 z " style="fill-opacity:0.3;fill:rgb(0,0,255);stroke:rgb(51,51,153);stroke-width:1"/></g>
<g fill-rule="evenodd"><path d="M 279.916,101.724 L 265.319,66.5657 L 279.928,74.9979 L 279.916,101.724 z " style="fill-opacity:0.3;fill:rgb(0,0,255);stroke:rgb(51,51,153);stroke-width:1"/></g>
<g fill-rule="evenodd"><path d="M 150.023,0.0213828 L 150.075,0 L 255.991,44.0999 L 265.319,66.5657 L 150.023,0.0213828 z " style="fill-opacity:0.3;fill:rgb(0,0,255);stroke:rgb(51,51,153);stroke-width:1"/></g>
<g fill-rule="evenodd"><path d="M 150.023,0.0213828 L 150.023,0.0213845 L 150.023,0.0213825 L 150.023,0.0213828 z " style="fill-opacity:0.3;fill:rgb(0,0,255);stroke:rgb(51,51,153);stroke-width:1"/></g>
<g fill-rule="evenodd"><path d="M 34.6598,233.353 L 149.925,299.97 L 149.925,299.97 L 44.0092,255.87 L 34.6598,233.353 z " style="fill-opacity:0.3;fill:rgb(0,0,255);stroke:rgb(51,51,153);stroke-width:1"/></g>
<g fill-rule="evenodd"><path d="M 34.6598,233.353 L 20.1159,224.947 L 20.1122,198.315 L 34.6598,233.353 z " style="fill-opacity:0.3;fill:rgb(0,0,255);stroke:rgb(51,51,153);stroke-width:1"/></g>
<g fill-rule="evenodd"><path d="M 149.925,299.97 L 150.291,299.818 L 149.977,300 L 149.925,299.97 z " style="fill-opacity:0.3;fill:rgb(0,0,255);stroke:rgb(51,51,153);stroke-width:1"/></g>
<g fill-rule="evenodd"><path d="M 265.282,233.407 L 255.885,255.976 L 150.291,299.818 L 265.282,233.407 z " style="fill-opacity:0.3;fill:rgb(0,0,255);stroke:rgb(51,51,153);stroke-width:1"/></g>
<g fill-rule="evenodd"><path d="M 20.0987,101.674 L 20.1122,198.315 L 0.0148374,149.91 L 20.0987,101.674 z " style="fill-opacity:0.3;fill:rgb(0,0,255);stroke:rgb(51,51,153);stroke-width:1"/></g>
<g fill-rule="evenodd"><path d="M 20.0987,101.674 L 20.095,74.9576 L 34.7394,66.5114 L 20.0987,101.674 z " style="fill-opacity:0.3;fill:rgb(0,0,255);stroke:rgb(51,51,153);stroke-width:1"/></g>
<g fill-rule="evenodd"><path d="M 150.023,0.0213845 L 34.7394,66.5114 L 44.1148,43.9943 L 150.023,0.0213845 z " style="fill-opacity:0.3;fill:rgb(0,0,255);stroke:rgb(51,51,153);stroke-width:1"/></g>
</svg>
