<?xml version="1.0" standalone="no"?>
<!DOCTYPE svg PUBLIC "-//W3C//DTD SVG 1.1//EN"
"http://www.w3.org/Graphics/SVG/1.1/DTD/svg11.dtd">
<svg  version="1.1" xmlns="http://www.w3.org/2000/svg" xmlns:xlink="http://www.w3.org/1999/xlink" viewBox="0 0 31.0518 45.2235">
<g title="A + B (CGAL EPECK)" fill-rule="evenodd">
<path d="M 11.2425,39.3971 L 10.9615,39.2773 L 10.8220,39.5975 L 11.2425,39.3971 z" style="fill-opacity:0.3;fill:rgb(0,0,255);stroke:rgb(51,51,153);stroke-width:0.113059" />
<path d="M 11.2425,39.3971 L 24.8984,45.2235 L 24.7285,44.9810 L 16.2490,41.4657 L 16.2490,40.0414 L 15.9269,39.3029 L 17.1718,38.7687 L 17.2921,38.7467 L 22.5993,38.4221 L 21.9626,36.9942 L 21.3584,37.1096 L 20.7912,36.0223 L 20.2233,36.1979 L 19.8235,35.3088 L 11.2425,39.3971 z" style="fill-opacity:0.3;fill:rgb(0,0,255);stroke:rgb(51,51,153);stroke-width:0.113059" />
<path d="M 18.9169,33.2928 L 19.8235,35.3088 L 19.8235,35.3088 L 18.9169,33.2928 z" style="fill-opacity:0.3;fill:rgb(0,0,255);stroke:rgb(51,51,153);stroke-width:0.113059" />
<path d="M 18.9169,33.2928 L 21.1320,31.7195 L 21.1125,31.6757 L 18.9169,33.2928 z" style="fill-opacity:0.3;fill:rgb(0,0,255);stroke:rgb(51,51,153);stroke-width:0.113059" />
<path d="M 21.1125,31.6757 L 21.1125,31.6757 L 20.0514,29.2920 L 16.2274,33.3793 L 20.0870,29.3720 L 21.1125,31.6757 z" style="fill-opacity:0.3;fill:rgb(0,0,255);stroke:rgb(51,51,153);stroke-width:0.113059" />
<path d="M 24.6162,7.39910 L 30.8253,0.26040 L 30.8253,0.26040 L 24.6162,7.39910 z" style="fill-opacity:0.3;fill:rgb(0,0,255);stroke:rgb(51,51,153);stroke-width:0.113059" />
<path d="M 24.6162,7.39910 L 15.5162,17.8614 L 15.3490,18.5955 L 14.3281,20.5991 L 13.4943,20.1822 L 12.3512,21.5111 L 10.8536,20.6166 L 9.49098,22.3312 L 9.18384,22.1469 L 8.45859,21.5834 L 8.16172,21.9571 L 8.41376,23.6865 L 8.18584,23.9898 L 7.85620,23.8147 L 7.12628,23.2608 L 6.69237,23.8071 L 7.09376,25.3565 L 6.86701,25.6595 L 6.52630,25.4839 L 5.80208,24.9281 L 5.20998,25.6736 L 5.75376,27.0165 L 5.52812,27.3191 L 5.19664,27.1534 L 4.47526,26.5986 L 3.73452,27.5313 L 4.42376,28.6865 L 4.19812,28.9891 L 3.86664,28.8234 L 3.14748,28.2704 L 2.66258,28.8809 L 6.24631,33.4790 L 6.23565,35.4460 L 6.23561,35.4460 L 6.23561,35.4461 L 4.02865,35.4354 L 0.59737,33.5145 L 8.42920e-18,34.2691 L 10.4822,39.0670 L 10.6677,39.1519 L 24.5024,7.52991 L 24.6162,7.39910 z" style="fill-opacity:0.3;fill:rgb(0,0,255);stroke:rgb(51,51,153);stroke-width:0.113059" />
<path d="M 30.8253,0.26040 L 15.1175,30.6051 L 31.0518,1.69479e-16 L 30.8253,0.26040 z" style="fill-opacity:0.3;fill:rgb(0,0,255);stroke:rgb(51,51,153);stroke-width:0.113059" />
</g></svg>