<?xml version="1.0" standalone="no"?>
<!DOCTYPE svg PUBLIC "-//W3C//DTD SVG 1.1//EN"
"http://www.w3.org/Graphics/SVG/1.1/DTD/svg11.dtd">
<svg viewBox="0 0 300 300" version="1.1"
xmlns="http://www.w3.org/2000/svg"
xmlns:xlink="http://www.w3.org/1999/xlink">
<g fill-rule="evenodd"><path d="M 147.291,96.9747 L 252.994,300 L 251.492,298.273 L 147.291,96.9747 z " style="fill-opacity:0.3;fill:rgb(0,0,255);stroke:rgb(51,51,153);stroke-width:1"/></g>
<g fill-rule="evenodd"><path d="M 209.547,250.049 L 149.936,181.513 L 148.827,176.643 L 142.054,163.351 L 136.523,166.117 L 128.94,157.301 L 119.005,163.235 L 109.966,151.861 L 107.929,153.084 L 103.118,156.822 L 101.148,154.343 L 102.82,142.871 L 101.308,140.858 L 99.1214,142.02 L 94.2794,145.694 L 91.401,142.07 L 94.0637,131.792 L 92.5594,129.783 L 90.2993,130.947 L 85.495,134.634 L 81.5672,129.689 L 85.1745,120.78 L 83.6776,118.773 L 81.4787,119.872 L 76.6933,123.552 L 71.7794,117.365 L 76.3517,109.702 L 74.8548,107.695 L 72.6558,108.794 L 67.8852,112.462 L 64.6685,108.412 L 88.4419,77.9097 L 88.3712,64.8612 L 88.3709,64.8612 L 88.3709,64.8609 L 73.7306,64.932 L 50.9685,77.6742 L 47.0057,72.6685 L 117.772,40.2776 L 209.547,250.049 z " style="fill-opacity:0.3;fill:rgb(0,0,255);stroke:rgb(51,51,153);stroke-width:1"/></g>
<g fill-rule="evenodd"><path d="M 121.585,38.6508 L 119.721,39.446 L 118.796,37.3219 L 121.585,38.6508 z " style="fill-opacity:0.3;fill:rgb(0,0,255);stroke:rgb(51,51,153);stroke-width:1"/></g>
<g fill-rule="evenodd"><path d="M 121.585,38.6508 L 212.174,-7.10543e-15 L 211.047,1.60895 L 154.797,24.9285 L 154.797,34.3766 L 152.66,39.276 L 160.918,42.8196 L 161.716,42.9654 L 196.923,45.1188 L 192.699,54.5911 L 188.691,53.8255 L 184.928,61.0383 L 181.162,59.8738 L 178.509,65.7718 L 121.585,38.6508 z " style="fill-opacity:0.3;fill:rgb(0,0,255);stroke:rgb(51,51,153);stroke-width:1"/></g>
<g fill-rule="evenodd"><path d="M 187.06,89.8725 L 180.021,105.685 L 154.654,78.5712 L 180.257,105.155 L 187.06,89.8725 z " style="fill-opacity:0.3;fill:rgb(0,0,255);stroke:rgb(51,51,153);stroke-width:1"/></g>
<g fill-rule="evenodd"><path d="M 187.06,89.8725 L 172.495,79.145 L 187.19,89.5819 L 187.06,89.8725 z " style="fill-opacity:0.3;fill:rgb(0,0,255);stroke:rgb(51,51,153);stroke-width:1"/></g>
</svg>
