<?xml version="1.0" standalone="no"?>
<!DOCTYPE svg PUBLIC "-//W3C//DTD SVG 1.1//EN"
"http://www.w3.org/Graphics/SVG/1.1/DTD/svg11.dtd">
<svg viewBox="0 0 300 300" version="1.1"
xmlns="http://www.w3.org/2000/svg"
xmlns:xlink="http://www.w3.org/1999/xlink">
<g fill-rule="evenodd"><path d="M 194.498,61.4165 L 241.442,83.7828 L 236.714,94.2964 L 248.165,102.730 L 242.631,115.161 L 222.688,93.8452 L 222.052,94.1694 L 222.052,94.1698 L 212.565,99.0140 L 212.247,99.1760 L 216.900,108.313 L 298.819,266.567 L 265.844,228.655 L 193.693,63.7402 L 192.964,62.0738 L 194.498,61.4165 z " style="fill-opacity:0.3;fill:rgb(255,0,0);stroke:rgb(0,0,0);stroke-width:1"/></g>
<g fill-rule="evenodd"><path d="M 227.613,65.7386 L 228.241,65.8533 L 255.918,67.5462 L 252.598,74.9930 L 249.447,74.3910 L 246.489,80.0615 L 243.528,79.1460 L 236.714,94.2964 L 248.267,102.501 L 242.817,114.744 L 222.688,93.8452 L 222.052,94.1694 L 222.052,94.1698 L 212.565,99.0140 L 212.247,99.1760 L 216.900,108.313 L 300.000,267.925 L 218.979,174.774 L 218.107,170.946 L 212.783,160.496 L 208.434,162.671 L 202.473,155.740 L 194.663,160.405 L 187.556,151.463 L 185.955,152.424 L 182.172,155.363 L 180.624,153.414 L 181.938,144.395 L 180.750,142.813 L 179.031,143.726 L 175.224,146.615 L 172.961,143.766 L 175.054,135.686 L 173.872,134.106 L 172.095,135.021 L 168.318,137.920 L 165.230,134.032 L 168.066,127.029 L 166.889,125.450 L 165.161,126.315 L 161.398,129.208 L 157.535,124.344 L 161.130,118.319 L 159.953,116.741 L 158.224,117.605 L 154.474,120.489 L 151.945,117.305 L 170.635,93.3252 L 170.579,83.0670 L 170.579,83.0670 L 170.579,83.0667 L 159.069,83.1226 L 141.175,93.1400 L 138.059,89.2048 L 192.726,64.1830 L 193.693,63.7402 L 192.964,62.0738 L 194.498,61.4165 L 195.225,63.0864 L 267.909,32.0754 L 267.023,33.3403 L 222.801,51.6733 L 222.801,59.1010 L 221.121,62.9528 L 227.613,65.7386 z " style="fill-opacity:0.3;fill:rgb(0,255,0);stroke:rgb(0,0,0);stroke-width:1"/></g>
</svg>
