<?xml version="1.0" standalone="no"?>
<!DOCTYPE svg PUBLIC "-//W3C//DTD SVG 1.1//EN"
"http://www.w3.org/Graphics/SVG/1.1/DTD/svg11.dtd">
<svg viewBox="0 0 300 300" version="1.1"
xmlns="http://www.w3.org/2000/svg"
xmlns:xlink="http://www.w3.org/1999/xlink">
<g fill-rule="evenodd"><path d="M 53.7894,124.349 L 56.8274,118.243 L 69.9621,131.411 L 53.7894,124.349 z " style="fill-opacity:0.3;fill:rgb(0,0,255);stroke:rgb(51,51,153);stroke-width:1"/></g>
<g fill-rule="evenodd"><path d="M 81.1031,134.868 L 57.9667,115.953 L 65.7588,100.29 L 81.1031,134.868 z " style="fill-opacity:0.3;fill:rgb(0,0,255);stroke:rgb(51,51,153);stroke-width:1"/></g>
<g fill-rule="evenodd"><path d="M 81.1031,134.868 L 84.797,137.888 L 81.8775,136.613 L 81.1031,134.868 z " style="fill-opacity:0.3;fill:rgb(0,0,255);stroke:rgb(51,51,153);stroke-width:1"/></g>
<g fill-rule="evenodd"><path d="M 69.9621,131.411 L 81.8775,136.613 L 85.3518,144.443 L 84.1624,145.647 L 69.9621,131.411 z " style="fill-opacity:0.3;fill:rgb(0,0,255);stroke:rgb(51,51,153);stroke-width:1"/></g>
<g fill-rule="evenodd"><path d="M 57.9667,115.953 L 56.8274,118.243 L 51.0869,112.488 L 51.1386,110.37 L 57.9667,115.953 z " style="fill-opacity:0.3;fill:rgb(0,0,255);stroke:rgb(51,51,153);stroke-width:1"/></g>
<g fill-rule="evenodd"><path d="M 179.748,144.634 L 172.752,139.476 L 179.434,133.94 L 179.748,144.634 z " style="fill-opacity:0.3;fill:rgb(0,0,255);stroke:rgb(51,51,153);stroke-width:1"/></g>
<g fill-rule="evenodd"><path d="M 186.279,128.269 L 178.848,114.022 L 178.115,89.1286 L 181.68,86.1049 L 205.941,111.98 L 186.279,128.269 z " style="fill-opacity:0.3;fill:rgb(0,0,255);stroke:rgb(51,51,153);stroke-width:1"/></g>
<g fill-rule="evenodd"><path d="M 157.596,275.508 L 171.668,287.886 L 169.837,290.676 L 157.596,275.508 z " style="fill-opacity:0.3;fill:rgb(0,0,255);stroke:rgb(51,51,153);stroke-width:1"/></g>
<g fill-rule="evenodd"><path d="M 234.182,216.398 L 238.311,209.774 L 239.716,244.224 L 234.182,216.398 z " style="fill-opacity:0.3;fill:rgb(0,0,255);stroke:rgb(51,51,153);stroke-width:1"/></g>
<g fill-rule="evenodd"><path d="M 213.478,105.736 L 289.987,42.3523 L 234.699,121.163 L 234.57,117.985 L 224.968,132.275 L 222.497,129.639 L 213.478,105.736 z " style="fill-opacity:0.3;fill:rgb(0,0,255);stroke:rgb(51,51,153);stroke-width:1"/></g>
<g fill-rule="evenodd"><path d="M 156.918,71.9748 L 162.825,65.9934 L 177.908,82.0809 L 178.115,89.1286 L 169.622,96.332 L 156.918,71.9748 z " style="fill-opacity:0.3;fill:rgb(0,0,255);stroke:rgb(51,51,153);stroke-width:1"/></g>
<g fill-rule="evenodd"><path d="M 181.68,86.1049 L 177.908,82.0809 L 177.012,51.6279 L 182.752,45.8147 L 176.91,48.1886 L 175.654,5.48912 L 200.158,70.4343 L 181.68,86.1049 z " style="fill-opacity:0.3;fill:rgb(0,0,255);stroke:rgb(51,51,153);stroke-width:1"/></g>
<g fill-rule="evenodd"><path d="M 204.436,66.8069 L 199.132,40.1342 L 213.699,58.951 L 204.436,66.8069 z " style="fill-opacity:0.3;fill:rgb(0,0,255);stroke:rgb(51,51,153);stroke-width:1"/></g>
<g fill-rule="evenodd"><path d="M 212.361,106.662 L 215.431,122.103 L 205.941,111.98 L 212.361,106.662 z " style="fill-opacity:0.3;fill:rgb(0,0,255);stroke:rgb(51,51,153);stroke-width:1"/></g>
<g fill-rule="evenodd"><path d="M 154.622,57.2452 L 176.91,48.1886 L 177.012,51.6279 L 162.825,65.9934 L 154.622,57.2452 z " style="fill-opacity:0.3;fill:rgb(0,0,255);stroke:rgb(51,51,153);stroke-width:1"/></g>
</svg>
