<?xml version="1.0" standalone="no"?>
<!DOCTYPE svg PUBLIC "-//W3C//DTD SVG 1.1//EN"
"http://www.w3.org/Graphics/SVG/1.1/DTD/svg11.dtd">
<svg  version="1.1" xmlns="http://www.w3.org/2000/svg" xmlns:xlink="http://www.w3.org/1999/xlink" viewBox="0 0 0.912137 0.938214">
<g title="A + B (CGAL EPECK)" fill-rule="evenodd">
<path d="M 0.189876,0.855185 L 0.275461,0.782342 L 0.288587,0.758935 L 0.30076,0.760811 L 0.311748,0.751459 L 0.308041,0.724243 L 0.309033,0.722473 L 0.307092,0.717275 L 0.305073,0.702452 L 0.33753,0.671655 L 0.382653,0.591187 L 0.298687,0.655576 L 0.294591,0.625505 L 0.342558,0.568593 L 0.363328,0.550007 L 0.355681,0.546892 L 0.294272,0.623165 L 0.287961,0.576833 L 0.314283,0.545208 L 0.284814,0.553727 L 0.279664,0.515923 L 0.323719,0.53387 L 0.416946,0.421863 L 0.369786,0.403411 L 0.425733,0.411308 L 0.431788,0.404033 L 0.395074,0.362067 L 0.388801,0.362043 L 0.39168,0.358187 L 0.350889,0.311562 L 0.3848,0.271744 L 0.430994,0.305557 L 0.45864,0.268544 L 0.409489,0.167235 L 0.534995,0.245108 L 0.516854,0.301831 L 0.554166,0.257003 L 0.56595,0.264315 L 0.574452,0.249152 L 0.586917,0.259684 L 0.577446,0.271447 L 0.622237,0.299239 L 0.624327,0.316457 L 0.634833,0.307056 L 0.648421,0.315487 L 0.649991,0.312978 L 0.656089,0.318129 L 0.672447,0.29139 L 0.670413,0.288251 L 0.672967,0.29054 L 0.672447,0.29139 L 0.700251,0.334303 L 0.713138,0.326561 L 0.735362,0.346487 L 0.710697,0.388697 L 0.721313,0.402876 L 0.683707,0.434882 L 0.665821,0.465491 L 0.675994,0.484889 L 0.743974,0.534649 L 0.723278,0.57506 L 0.743089,0.612839 L 0.680841,0.657922 L 0.670894,0.677345 L 0.66435,0.669865 L 0.656203,0.675765 L 0.639634,0.641612 L 0.593631,0.589028 L 0.518222,0.718074 L 0.520553,0.737426 L 0.503329,0.743561 L 0.493726,0.759993 L 0.341822,0.810296 L 0.338783,0.802156 L 0.304444,0.814385 L 0.290874,0.827166 L 0.24108,0.843656 L 0.245777,0.835278 L 0.189876,0.855185 M 0.333228,0.787278 L 0.3179,0.746223 L 0.311748,0.751459 L 0.313285,0.762741 L 0.30076,0.760811 L 0.275461,0.782342 L 0.245777,0.835278 L 0.304444,0.814385 L 0.333228,0.787278 M 0.338783,0.802156 L 0.503329,0.743561 L 0.518222,0.718074 L 0.506862,0.623746 L 0.518175,0.613093 L 0.50493,0.607697 L 0.502673,0.588961 L 0.488517,0.601009 L 0.473487,0.594887 L 0.448132,0.635382 L 0.395985,0.679765 L 0.373831,0.749037 L 0.333228,0.787278 L 0.338783,0.802156 M 0.362176,0.772668 L 0.370551,0.759292 L 0.366721,0.771267 L 0.504763,0.728714 L 0.365343,0.775577 L 0.366721,0.771267 L 0.362176,0.772668 M 0.425175,0.588491 L 0.33753,0.671655 L 0.309033,0.722473 L 0.3179,0.746223 L 0.395985,0.679765 L 0.425175,0.588491 M 0.434973,0.579195 L 0.428935,0.576736 L 0.425175,0.588491 L 0.434973,0.579195 M 0.411018,0.569437 L 0.397857,0.564075 L 0.382653,0.591187 L 0.411018,0.569437 M 0.426652,0.512724 L 0.394657,0.521972 L 0.363328,0.550007 L 0.397857,0.564075 L 0.426652,0.512724 M 0.492772,0.506744 L 0.491243,0.49405 L 0.451725,0.505475 L 0.43785,0.54886 L 0.492772,0.506744 M 0.498563,0.554835 L 0.494675,0.522547 L 0.434973,0.579195 L 0.473487,0.594887 L 0.498563,0.554835 M 0.554777,0.544617 L 0.525741,0.511427 L 0.498563,0.554835 L 0.502673,0.588961 L 0.554777,0.544617 M 0.479276,0.446253 L 0.473357,0.45155 L 0.488163,0.468472 L 0.485794,0.448804 L 0.540444,0.470187 L 0.552122,0.461233 L 0.554325,0.465773 L 0.554057,0.466201 L 0.547108,0.472795 L 0.549374,0.473681 L 0.546648,0.478034 L 0.554613,0.475731 L 0.560222,0.477926 L 0.58153,0.521847 L 0.554777,0.544617 L 0.593631,0.589028 L 0.604827,0.569869 L 0.639634,0.641612 L 0.66435,0.669865 L 0.680841,0.657922 L 0.723278,0.57506 L 0.675994,0.484889 L 0.660929,0.473862 L 0.665821,0.465491 L 0.660243,0.454854 L 0.648552,0.464804 L 0.641729,0.459809 L 0.639504,0.44148 L 0.611237,0.437489 L 0.596833,0.426947 L 0.634256,0.39825 L 0.633369,0.390945 L 0.59604,0.426365 L 0.591782,0.423249 L 0.628644,0.362993 L 0.629977,0.362999 L 0.629756,0.361175 L 0.655151,0.319662 L 0.648421,0.315487 L 0.628141,0.347877 L 0.624327,0.316457 L 0.572569,0.362772 L 0.618701,0.362954 L 0.584354,0.417812 L 0.544038,0.388301 L 0.525004,0.405335 L 0.535412,0.426787 L 0.505714,0.422596 L 0.484883,0.441237 L 0.482239,0.419283 L 0.479418,0.418884 L 0.471623,0.443258 L 0.479276,0.446253 M 0.58746,0.434133 L 0.589505,0.432566 L 0.587802,0.434181 L 0.58746,0.434133 M 0.473357,0.45155 L 0.470146,0.447878 L 0.467213,0.457048 L 0.473357,0.45155 M 0.467213,0.457048 L 0.448466,0.473822 L 0.426652,0.512724 L 0.451725,0.505475 L 0.467213,0.457048 M 0.4658,0.442912 L 0.463231,0.439975 L 0.446905,0.433586 L 0.370006,0.529098 L 0.394657,0.521972 L 0.448466,0.473822 L 0.4658,0.442912 M 0.471623,0.443258 L 0.466688,0.441327 L 0.4658,0.442912 L 0.470146,0.447878 L 0.471623,0.443258 M 0.395074,0.362067 L 0.466481,0.362351 L 0.431788,0.404033 L 0.439901,0.413307 L 0.425733,0.411308 L 0.416946,0.421863 L 0.446905,0.433586 L 0.452051,0.427195 L 0.463231,0.439975 L 0.466688,0.441327 L 0.479284,0.418866 L 0.460852,0.416264 L 0.47914,0.393549 L 0.475386,0.362386 L 0.497459,0.362474 L 0.499601,0.355776 L 0.482421,0.343199 L 0.474257,0.353008 L 0.472172,0.335697 L 0.430994,0.305557 L 0.39168,0.358187 L 0.395074,0.362067 M 0.465883,0.283474 L 0.463329,0.262266 L 0.45864,0.268544 L 0.465883,0.283474 M 0.516854,0.301831 L 0.490279,0.333758 L 0.500141,0.354087 L 0.516854,0.301831 M 0.577446,0.271447 L 0.56595,0.264315 L 0.526389,0.334862 L 0.577446,0.271447 M 0.572569,0.362772 L 0.510876,0.362526 L 0.510279,0.363591 L 0.544038,0.388301 L 0.572569,0.362772 M 0.525004,0.405335 L 0.507316,0.368877 L 0.481675,0.414601 L 0.482239,0.419283 L 0.505714,0.422596 L 0.525004,0.405335 M 0.479611,0.418283 L 0.479284,0.418866 L 0.479418,0.418884 L 0.479611,0.418283 M 0.481675,0.414601 L 0.481432,0.412586 L 0.479611,0.418283 L 0.481675,0.414601 M 0.493044,0.376279 L 0.47914,0.393549 L 0.481432,0.412586 L 0.493044,0.376279 M 0.504138,0.362499 L 0.497459,0.362474 L 0.493044,0.376279 L 0.504138,0.362499 M 0.504223,0.362501 L 0.504191,0.362434 L 0.504138,0.362499 L 0.504223,0.362501 M 0.510279,0.363591 L 0.508814,0.362518 L 0.504223,0.362501 L 0.507316,0.368877 L 0.510279,0.363591 M 0.526389,0.334862 L 0.505862,0.360359 L 0.508814,0.362518 L 0.510876,0.362526 L 0.526389,0.334862 M 0.505862,0.360359 L 0.501708,0.357317 L 0.504191,0.362434 L 0.505862,0.360359 M 0.501708,0.357317 L 0.500141,0.354087 L 0.499601,0.355776 L 0.501708,0.357317 M 0.490279,0.333758 L 0.465883,0.283474 L 0.472172,0.335697 L 0.482421,0.343199 L 0.490279,0.333758 M 0.370006,0.529098 L 0.33608,0.538906 L 0.355681,0.546892 L 0.370006,0.529098 M 0.33608,0.538906 L 0.323719,0.53387 L 0.314283,0.545208 L 0.33608,0.538906 M 0.506645,0.489598 L 0.488163,0.468472 L 0.491243,0.49405 L 0.506645,0.489598 M 0.516965,0.501396 L 0.510052,0.493493 L 0.492772,0.506744 L 0.494675,0.522547 L 0.516965,0.501396 M 0.546648,0.478034 L 0.539368,0.480139 L 0.516965,0.501396 L 0.525741,0.511427 L 0.546648,0.478034 M 0.520266,0.48566 L 0.506645,0.489598 L 0.510052,0.493493 L 0.520266,0.48566 M 0.547108,0.472795 L 0.540444,0.470187 L 0.520266,0.48566 L 0.539368,0.480139 L 0.547108,0.472795 M 0.665511,0.32609 L 0.656089,0.318129 L 0.655151,0.319662 L 0.665511,0.32609 M 0.695411,0.351353 L 0.685629,0.343089 L 0.680657,0.346075 L 0.662685,0.363128 L 0.679966,0.363197 L 0.695411,0.351353 M 0.710697,0.388697 L 0.691639,0.363243 L 0.679966,0.363197 L 0.634256,0.39825 L 0.639504,0.44148 L 0.654327,0.443572 L 0.660243,0.454854 L 0.683707,0.434882 L 0.710697,0.388697 M 0.662685,0.363128 L 0.629977,0.362999 L 0.633369,0.390945 L 0.662685,0.363128 M 0.689326,0.340867 L 0.665511,0.32609 L 0.685629,0.343089 L 0.689326,0.340867 M 0.714707,0.356615 L 0.700251,0.334303 L 0.689326,0.340867 L 0.714707,0.356615 M 0.43785,0.54886 L 0.411018,0.569437 L 0.428935,0.576736 L 0.43785,0.54886 z" style="fill-opacity:0.3;fill:rgb(0,0,255);stroke:rgb(51,51,153);stroke-width:0.002346" />
<path d="M 0.57051,0.134057 L 0.60722,0.190717 L 0.602848,0.198514 L 0.588952,0.215209 L 0.55445,0.184274 L 0.57051,0.134057 z" style="fill-opacity:0.3;fill:rgb(0,0,255);stroke:rgb(51,51,153);stroke-width:0.002346" />
<path d="M 0.613437,0.226746 L 0.622926,0.214958 L 0.665068,0.28 L 0.663138,0.281728 L 0.614856,0.238436 L 0.613437,0.226746 z" style="fill-opacity:0.3;fill:rgb(0,0,255);stroke:rgb(51,51,153);stroke-width:0.002346" />
<path d="M 0.694437,0.126138 L 0.758523,0.139634 L 0.720313,0.200663 L 0.677265,0.147467 L 0.694437,0.126138 z" style="fill-opacity:0.3;fill:rgb(0,0,255);stroke:rgb(51,51,153);stroke-width:0.002346" />
</g></svg>