<?xml version="1.0" standalone="no"?>
<!DOCTYPE svg PUBLIC "-//W3C//DTD SVG 1.1//EN"
"http://www.w3.org/Graphics/SVG/1.1/DTD/svg11.dtd">
<svg  version="1.1" xmlns="http://www.w3.org/2000/svg" xmlns:xlink="http://www.w3.org/1999/xlink" viewBox="0 0 0.978947 0.982452">
<g title="A + B (CGAL Real)" fill-rule="evenodd">
<path d="M 0.69735,0.63618 L 0.68834,0.66006 L 0.66774,0.76367 L 0.69808,0.78940 L 0.65037,0.85102 L 0.63781,0.91418 L 0.59269,0.92552 L 0.65037,0.85102 L 0.66774,0.76367 L 0.65373,0.75179 L 0.57349,0.96448 L 0.57760,0.82464 L 0.50461,0.79498 L 0.46485,0.83739 L 0.45350,0.85916 L 0.36920,0.98245 L 0.21160,0.78544 L -7.48845e-19,0.94142 L 0.18587,0.75327 L 0.17537,0.74016 L 0.16897,0.75458 L 0.16841,0.73145 L 0.11393,0.66335 L 0.04315,0.72122 L 0.11376,0.66314 L 0.07734,0.61761 L 0.16471,0.57946 L 0.16410,0.55453 L 0.10656,0.43888 L 0.00980,0.52400 L 0.09508,0.41579 L 0.08448,0.39450 L 0.00237,0.42262 L 0.06830,0.36198 L 0.00270,0.23012 L 0.05653,0.24531 L 0.00081,0.19806 L 0.19424,0.24614 L 0.28301,0.16449 L 0.29091,0.16730 L 0.38660,0.04589 L 0.50844,0.08540 L 0.51435,0.08021 L 0.55443,0.03053 L 0.56043,0.03967 L 0.59839,0.00629 L 0.68300,0.14201 L 0.73212,0.15793 L 0.92529,5.22712e-20 L 0.94504,0.22698 L 0.96049,0.23199 L 0.94602,0.23831 L 0.97895,0.61670 L 0.78647,0.30798 L 0.77802,0.31167 L 0.77573,0.36777 L 0.82902,0.44898 L 0.76985,0.51209 L 0.76685,0.58566 L 0.94791,0.84376 L 0.69735,0.63618 M 0.72689,0.55791 L 0.70375,0.58258 L 0.69369,0.63315 L 0.69735,0.63618 L 0.72689,0.55791 M 0.69369,0.63315 L 0.67267,0.61573 L 0.59322,0.70047 L 0.65373,0.75179 L 0.68834,0.66006 L 0.69369,0.63315 M 0.53147,0.76633 L 0.51213,0.74675 L 0.49005,0.78907 L 0.50461,0.79498 L 0.53147,0.76633 M 0.59673,0.83242 L 0.57793,0.81338 L 0.57760,0.82464 L 0.59673,0.83242 M 0.58087,0.71365 L 0.53147,0.76633 L 0.57793,0.81338 L 0.58087,0.71365 M 0.49005,0.78907 L 0.46356,0.77830 L 0.38188,0.92588 L 0.46485,0.83739 L 0.49005,0.78907 M 0.19404,0.36194 L 0.18987,0.35839 L 0.12198,0.38165 L 0.09508,0.41579 L 0.10656,0.43888 L 0.16014,0.39176 L 0.16010,0.39028 L 0.16090,0.39109 L 0.19404,0.36194 M 0.16016,0.33320 L 0.12864,0.30647 L 0.06830,0.36198 L 0.08448,0.39450 L 0.12198,0.38165 L 0.16016,0.33320 M 0.26100,0.30304 L 0.19796,0.28524 L 0.16016,0.33320 L 0.18987,0.35839 L 0.20331,0.35379 L 0.26100,0.30304 M 0.35728,0.33022 L 0.31059,0.31704 L 0.20331,0.35379 L 0.19404,0.36194 L 0.30242,0.45385 L 0.35728,0.33022 M 0.44598,0.33293 L 0.43952,0.22026 L 0.41065,0.20997 L 0.37469,0.29099 L 0.38162,0.29271 L 0.37255,0.29581 L 0.35728,0.33022 L 0.42860,0.35036 L 0.44598,0.33293 M 0.37469,0.29099 L 0.29674,0.27161 L 0.26100,0.30304 L 0.31059,0.31704 L 0.37255,0.29581 L 0.37469,0.29099 M 0.22312,0.25332 L 0.19424,0.24614 L 0.16259,0.27526 L 0.19796,0.28524 L 0.22312,0.25332 M 0.16259,0.27526 L 0.05653,0.24531 L 0.12864,0.30647 L 0.16259,0.27526 M 0.37946,0.19885 L 0.29091,0.16730 L 0.22312,0.25332 L 0.29674,0.27161 L 0.37946,0.19885 M 0.43698,0.17607 L 0.43546,0.14959 L 0.37946,0.19885 L 0.41065,0.20997 L 0.41189,0.20716 L 0.43698,0.17607 M 0.53733,0.25511 L 0.46276,0.14413 L 0.43698,0.17607 L 0.43952,0.22026 L 0.53733,0.25511 M 0.45493,0.13247 L 0.43257,0.09920 L 0.43546,0.14959 L 0.45493,0.13247 M 0.50980,0.08584 L 0.50844,0.08540 L 0.45493,0.13247 L 0.46276,0.14413 L 0.50980,0.08584 M 0.74762,0.32494 L 0.67089,0.20799 L 0.59021,0.27395 L 0.59377,0.27522 L 0.59197,0.33643 L 0.62131,0.38009 L 0.69674,0.34716 L 0.71401,0.32576 L 0.70390,0.34403 L 0.74762,0.32494 M 0.70390,0.34403 L 0.69674,0.34716 L 0.64350,0.41312 L 0.65565,0.43121 L 0.70390,0.34403 M 0.71599,0.52101 L 0.65565,0.43121 L 0.63050,0.47666 L 0.66704,0.44972 L 0.60828,0.56239 L 0.67267,0.61573 L 0.70375,0.58258 L 0.71599,0.52101 M 0.73498,0.54927 L 0.73188,0.54466 L 0.72689,0.55791 L 0.73498,0.54927 M 0.76685,0.58566 L 0.73861,0.54541 L 0.73498,0.54927 L 0.76643,0.59607 L 0.76685,0.58566 M 0.77573,0.36777 L 0.75327,0.33355 L 0.71599,0.52101 L 0.73188,0.54466 L 0.73405,0.53891 L 0.73861,0.54541 L 0.76985,0.51209 L 0.77573,0.36777 M 0.60828,0.56239 L 0.59098,0.54806 L 0.58545,0.55806 L 0.58394,0.60905 L 0.60828,0.56239 M 0.58394,0.60905 L 0.55373,0.66698 L 0.58155,0.69057 L 0.58394,0.60905 M 0.55373,0.66698 L 0.53429,0.65049 L 0.49219,0.72656 L 0.51213,0.74675 L 0.55373,0.66698 M 0.58586,0.54382 L 0.56398,0.52569 L 0.46937,0.59543 L 0.53429,0.65049 L 0.58545,0.55806 L 0.58586,0.54382 M 0.63050,0.47666 L 0.58689,0.50880 L 0.58586,0.54382 L 0.59098,0.54806 L 0.63050,0.47666 M 0.58768,0.48227 L 0.55718,0.52006 L 0.56398,0.52569 L 0.58689,0.50880 L 0.58768,0.48227 M 0.64350,0.41312 L 0.62131,0.38009 L 0.59028,0.39364 L 0.58768,0.48227 L 0.64350,0.41312 M 0.59197,0.33643 L 0.56425,0.29518 L 0.47926,0.36466 L 0.55002,0.38464 L 0.50385,0.43138 L 0.59028,0.39364 L 0.59197,0.33643 M 0.59021,0.27395 L 0.53733,0.25511 L 0.56425,0.29518 L 0.59021,0.27395 M 0.70616,0.17915 L 0.68300,0.14201 L 0.61260,0.11918 L 0.67089,0.20799 L 0.70616,0.17915 M 0.61260,0.11918 L 0.56043,0.03967 L 0.51435,0.08021 L 0.50980,0.08584 L 0.61260,0.11918 M 0.94602,0.23831 L 0.94504,0.22698 L 0.73212,0.15793 L 0.70616,0.17915 L 0.76516,0.27378 L 0.78328,0.18266 L 0.77868,0.29547 L 0.78647,0.30798 L 0.94602,0.23831 M 0.77868,0.29547 L 0.76516,0.27378 L 0.75568,0.32142 L 0.77802,0.31167 L 0.77868,0.29547 M 0.31485,0.46439 L 0.30242,0.45385 L 0.28403,0.49529 L 0.31485,0.46439 M 0.30738,0.71484 L 0.24776,0.69061 L 0.18587,0.75327 L 0.21160,0.78544 L 0.30738,0.71484 M 0.26638,0.53507 L 0.22736,0.55210 L 0.18435,0.59523 L 0.18808,0.60273 L 0.26385,0.54078 L 0.26638,0.53507 M 0.35339,0.49707 L 0.33568,0.48205 L 0.28868,0.52048 L 0.29202,0.52387 L 0.35339,0.49707 z" style="fill-opacity:0.3;fill:rgb(0,0,255);stroke:rgb(51,51,153);stroke-width:0.002456" />
</g></svg>