<?xml version="1.0" standalone="no"?>
<!DOCTYPE svg PUBLIC "-//W3C//DTD SVG 1.1//EN"
"http://www.w3.org/Graphics/SVG/1.1/DTD/svg11.dtd">
<svg viewBox="0 0 300 300" version="1.1"
xmlns="http://www.w3.org/2000/svg"
xmlns:xlink="http://www.w3.org/1999/xlink">
<g fill-rule="evenodd"><path d="M 97.5735,162.453 L 91.9225,149.718 L 101.394,159.213 L 97.5735,162.453 z " style="fill-opacity:0.3;fill:rgb(0,0,255);stroke:rgb(51,51,153);stroke-width:1"/></g>
<g fill-rule="evenodd"><path d="M 73.2024,224.082 L 64.3268,226.288 L 54.5984,217.339 L 65.4697,214.27 L 73.2024,224.082 z " style="fill-opacity:0.3;fill:rgb(0,0,255);stroke:rgb(51,51,153);stroke-width:1"/></g>
<g fill-rule="evenodd"><path d="M 67.113,193.204 L 84.8451,208.8 L 65.4697,214.27 L 53.8535,199.531 L 62.9826,191.789 L 67.113,193.204 z " style="fill-opacity:0.3;fill:rgb(0,0,255);stroke:rgb(51,51,153);stroke-width:1"/></g>
<g fill-rule="evenodd"><path d="M 67.113,193.204 L 64.2663,190.7 L 97.5735,162.453 L 114.434,200.447 L 100.084,204.498 L 67.113,193.204 z " style="fill-opacity:0.3;fill:rgb(0,0,255);stroke:rgb(51,51,153);stroke-width:1"/></g>
<g fill-rule="evenodd"><path d="M 84.8451,208.8 L 100.084,204.498 L 119.126,211.021 L 119.784,212.504 L 95.8261,218.459 L 84.8451,208.8 z " style="fill-opacity:0.3;fill:rgb(0,0,255);stroke:rgb(51,51,153);stroke-width:1"/></g>
<g fill-rule="evenodd"><path d="M 22.0038,226.542 L 44.1675,207.745 L 54.5984,217.339 L 22.0038,226.542 z " style="fill-opacity:0.3;fill:rgb(0,0,255);stroke:rgb(51,51,153);stroke-width:1"/></g>
<g fill-rule="evenodd"><path d="M 25.6231,190.688 L 30.595,180.694 L 42.1195,184.642 L 53.8535,199.531 L 44.1675,207.745 L 25.6231,190.688 z " style="fill-opacity:0.3;fill:rgb(0,0,255);stroke:rgb(51,51,153);stroke-width:1"/></g>
</svg>
