<?xml version="1.0" standalone="no"?>
<!DOCTYPE svg PUBLIC "-//W3C//DTD SVG 1.1//EN"
"http://www.w3.org/Graphics/SVG/1.1/DTD/svg11.dtd">
<svg viewBox="0 0 300 300" version="1.1"
xmlns="http://www.w3.org/2000/svg"
xmlns:xlink="http://www.w3.org/1999/xlink">
<g fill-rule="evenodd"><path d="M 34.3505,29.0885 L 96.3219,103.544 L 91.6185,116.142 L 44.7952,102.606 L 109.724,178.847 L 27.9646,179.172 L 34.3505,29.0885 z " style="fill-opacity:0.3;fill:rgb(255,0,0);stroke:rgb(0,0,0);stroke-width:1"/></g>
<g fill-rule="evenodd"><path d="M 34.3505,29.0885 L 14.1191,4.78164 L 35.0675,12.2415 L 34.3505,29.0885 z " style="fill-opacity:0.3;fill:rgb(255,0,0);stroke:rgb(0,0,0);stroke-width:1"/></g>
<g fill-rule="evenodd"><path d="M 96.3219,103.544 L 100.683,91.8643 L 105.412,97.7392 L 105.511,97.0133 L 100.833,91.4619 L 103.253,84.9784 L 106.782,87.6842 L 108.763,73.1414 L 107.958,72.3776 L 109.390,68.5431 L 109.684,66.3814 L 103.649,55.6188 L 92.1617,57.3889 L 50.2965,17.6647 L 73.0252,25.7587 L 69.7876,23.0032 L 88.9104,29.3354 L 77.6998,9.34394 L 104.358,34.4509 L 120.164,39.6848 L 134.980,0 L 167.290,55.2902 L 176.104,58.2089 L 175.612,62.2913 L 206.440,73.2692 L 217.696,81.4209 L 219.410,77.8880 L 220.981,78.4476 L 222.253,80.9307 L 223.608,79.3827 L 250.866,89.0899 L 244.651,100.942 L 261.446,113.106 L 244.925,125.200 L 254.502,143.900 L 237.895,166.080 L 240.939,168.671 L 245.397,195.787 L 235.359,189.756 L 222.896,200.930 L 230.280,213.000 L 224.376,207.717 L 221.325,202.844 L 222.104,201.641 L 221.123,202.521 L 215.769,193.970 L 212.294,196.906 L 211.066,195.807 L 207.158,198.232 L 206.751,201.589 L 196.201,210.503 L 202.917,218.845 L 197.768,223.462 L 192.334,213.770 L 189.829,215.887 L 186.040,211.335 L 180.093,215.025 L 182.381,222.180 L 135.211,262.034 L 116.136,290.758 L 141.157,239.184 L 85.7280,273.577 L 93.7284,227.842 L 122.977,194.409 L 109.724,178.847 L 134.739,178.748 L 90.4039,119.394 L 91.6185,116.142 L 102.478,119.281 L 103.455,112.113 L 96.3219,103.544M 166.220,187.523 L 174.465,197.428 L 169.280,181.216 L 166.220,187.523M 161.250,181.551 L 161.600,178.642 L 158.837,178.653 L 161.250,181.551M 153.249,144.070 L 159.065,149.274 L 154.260,134.250 L 146.481,132.002 L 153.249,144.070M 199.277,158.613 L 197.004,156.870 L 199.031,158.793 L 199.277,158.613M 164.546,154.179 L 164.829,151.832 L 162.807,152.623 L 164.546,154.179M 208.990,183.143 L 209.491,179.017 L 209.146,178.453 L 206.061,178.465 L 208.990,183.143M 225.068,178.390 L 219.707,178.411 L 225.282,183.702 L 226.825,184.628 L 229.859,182.064 L 225.068,178.390M 150.591,162.844 L 157.091,161.927 L 154.361,158.536 L 150.591,162.844M 132.469,60.9259 L 153.145,93.9491 L 165.674,104.612 L 170.766,102.538 L 171.365,97.5587 L 132.469,60.9259M 132.469,60.9259 L 129.077,55.5077 L 130.094,58.6894 L 132.469,60.9259M 177.423,187.180 L 189.696,209.067 L 193.263,206.854 L 177.423,187.180M 186.108,146.531 L 186.090,146.568 L 188.417,150.285 L 185.406,147.976 L 180.222,158.662 L 192.571,156.919 L 195.406,161.447 L 197.710,159.760 L 195.702,156.477 L 196.369,156.383 L 195.004,155.336 L 194.473,154.468 L 196.475,156.368 L 203.746,155.342 L 213.205,148.417 L 213.574,145.380 L 215.322,146.868 L 219.162,144.058 L 214.668,136.368 L 215.183,132.129 L 212.748,133.082 L 201.757,114.273 L 194.530,129.172 L 203.415,136.734 L 187.919,142.797 L 187.415,143.835 L 186.179,143.478 L 184.554,144.114 L 186.007,146.435 L 186.108,146.531M 171.971,178.600 L 171.055,179.271 L 177.423,187.180 L 172.610,178.598 L 191.750,178.522 L 182.898,170.602 L 172.425,178.268 L 171.506,176.628 L 176.993,165.317 L 171.009,159.963 L 163.726,160.990 L 163.551,162.443 L 162.911,161.301 L 163.476,163.068 L 162.765,168.974 L 167.078,174.331 L 168.448,178.614 L 170.520,178.606 L 170.536,178.627 L 170.546,178.606 L 171.971,178.600 z " style="fill-opacity:0.3;fill:rgb(255,0,0);stroke:rgb(0,0,0);stroke-width:1"/></g>
<g fill-rule="evenodd"><path d="M 50.2965,17.6647 L 35.0675,12.2415 L 35.4366,3.56490 L 50.2965,17.6647 z " style="fill-opacity:0.3;fill:rgb(255,0,0);stroke:rgb(0,0,0);stroke-width:1"/></g>
<g fill-rule="evenodd"><path d="M 186.108,146.531 L 187.415,143.835 L 188.087,144.030 L 194.473,154.468 L 186.108,146.531 z " style="fill-opacity:0.3;fill:rgb(255,0,0);stroke:rgb(0,0,0);stroke-width:1"/></g>
<g fill-rule="evenodd"><path d="M 203.203,230.813 L 203.082,231.810 L 202.787,231.455 L 203.203,230.813 z " style="fill-opacity:0.3;fill:rgb(255,0,0);stroke:rgb(0,0,0);stroke-width:1"/></g>
<g fill-rule="evenodd"><path d="M 203.203,230.813 L 204.428,220.722 L 202.917,218.845 L 204.868,217.095 L 206.751,201.589 L 212.294,196.906 L 219.847,203.665 L 221.123,202.521 L 221.325,202.844 L 220.446,204.200 L 224.376,207.717 L 237.585,228.814 L 248.592,215.212 L 253.790,246.831 L 249.439,247.747 L 255.544,257.498 L 261.063,291.066 L 229.557,251.934 L 146.510,269.422 L 186.128,233.898 L 182.381,222.180 L 189.829,215.887 L 196.832,224.301 L 197.768,223.462 L 201.143,229.480 L 202.787,231.455 L 202.500,231.899 L 202.970,232.737 L 203.082,231.810 L 219.347,251.351 L 224.230,245.317 L 207.372,224.379 L 203.203,230.813 z " style="fill-opacity:0.3;fill:rgb(255,0,0);stroke:rgb(0,0,0);stroke-width:1"/></g>
<g fill-rule="evenodd"><path d="M 171.971,178.600 L 172.425,178.268 L 172.610,178.598 L 171.971,178.600 z " style="fill-opacity:0.3;fill:rgb(255,0,0);stroke:rgb(0,0,0);stroke-width:1"/></g>
<g fill-rule="evenodd"><path d="M 171.506,176.628 L 170.546,178.606 L 170.520,178.606 L 167.078,174.331 L 163.476,163.068 L 163.551,162.443 L 171.506,176.628 z " style="fill-opacity:0.3;fill:rgb(255,0,0);stroke:rgb(0,0,0);stroke-width:1"/></g>
<g fill-rule="evenodd"><path d="M 282.387,198.346 L 254.502,143.900 L 271.893,120.672 L 295.321,137.639 L 282.387,198.346 z " style="fill-opacity:0.3;fill:rgb(255,0,0);stroke:rgb(0,0,0);stroke-width:1"/></g>
<g fill-rule="evenodd"><path d="M 282.387,198.346 L 296.935,226.752 L 278.673,215.780 L 282.387,198.346 z " style="fill-opacity:0.3;fill:rgb(255,0,0);stroke:rgb(0,0,0);stroke-width:1"/></g>
<g fill-rule="evenodd"><path d="M 253.790,246.831 L 258.647,245.808 L 263.784,206.835 L 278.673,215.780 L 266.169,274.468 L 255.544,257.498 L 253.790,246.831 z " style="fill-opacity:0.3;fill:rgb(255,0,0);stroke:rgb(0,0,0);stroke-width:1"/></g>
<g fill-rule="evenodd"><path d="M 263.784,206.835 L 258.124,203.433 L 265.421,194.416 L 263.784,206.835 z " style="fill-opacity:0.3;fill:rgb(255,0,0);stroke:rgb(0,0,0);stroke-width:1"/></g>
<g fill-rule="evenodd"><path d="M 248.592,215.212 L 245.397,195.787 L 258.124,203.433 L 248.592,215.212 z " style="fill-opacity:0.3;fill:rgb(255,0,0);stroke:rgb(0,0,0);stroke-width:1"/></g>
<g fill-rule="evenodd"><path d="M 271.893,120.672 L 261.446,113.106 L 297.095,87.0126 L 271.893,120.672 z " style="fill-opacity:0.3;fill:rgb(255,0,0);stroke:rgb(0,0,0);stroke-width:1"/></g>
<g fill-rule="evenodd"><path d="M 207.372,224.379 L 204.428,220.722 L 204.868,217.095 L 219.847,203.665 L 220.446,204.200 L 207.372,224.379 z " style="fill-opacity:0.3;fill:rgb(0,255,0);stroke:rgb(0,0,0);stroke-width:1"/></g>
<g fill-rule="evenodd"><path d="M 206.440,73.2692 L 193.683,64.0301 L 176.104,58.2089 L 179.705,28.3085 L 290.326,3.12064 L 223.608,79.3827 L 220.981,78.4476 L 220.035,76.5993 L 219.410,77.8880 L 206.440,73.2692 z " style="fill-opacity:0.3;fill:rgb(0,255,0);stroke:rgb(0,0,0);stroke-width:1"/></g>
<g fill-rule="evenodd"><path d="M 196.832,224.301 L 201.143,229.480 L 202.500,231.899 L 191.111,249.477 L 186.128,233.898 L 196.832,224.301 z " style="fill-opacity:0.3;fill:rgb(0,255,0);stroke:rgb(0,0,0);stroke-width:1"/></g>
<g fill-rule="evenodd"><path d="M 107.958,72.3776 L 103.253,84.9784 L 71.4396,60.5825 L 92.1617,57.3889 L 107.958,72.3776 z " style="fill-opacity:0.3;fill:rgb(0,255,0);stroke:rgb(0,0,0);stroke-width:1"/></g>
<g fill-rule="evenodd"><path d="M 100.683,91.8643 L 90.2326,78.8851 L 100.833,91.4619 L 100.683,91.8643 z " style="fill-opacity:0.3;fill:rgb(0,255,0);stroke:rgb(0,0,0);stroke-width:1"/></g>
<g fill-rule="evenodd"><path d="M 197.004,156.870 L 196.369,156.383 L 196.475,156.368 L 197.004,156.870 z " style="fill-opacity:0.3;fill:rgb(0,255,0);stroke:rgb(0,0,0);stroke-width:1"/></g>
<g fill-rule="evenodd"><path d="M 249.439,247.747 L 229.557,251.934 L 224.230,245.317 L 237.585,228.814 L 249.439,247.747 z " style="fill-opacity:0.3;fill:rgb(0,255,0);stroke:rgb(0,0,0);stroke-width:1"/></g>
<g fill-rule="evenodd"><path d="M 188.417,150.285 L 195.004,155.336 L 195.702,156.477 L 192.571,156.919 L 188.417,150.285 z " style="fill-opacity:0.3;fill:rgb(0,255,0);stroke:rgb(0,0,0);stroke-width:1"/></g>
<g fill-rule="evenodd"><path d="M 213.574,145.380 L 203.415,136.734 L 212.748,133.082 L 214.668,136.368 L 213.574,145.380 z " style="fill-opacity:0.3;fill:rgb(0,255,0);stroke:rgb(0,0,0);stroke-width:1"/></g>
<g fill-rule="evenodd"><path d="M 127.889,51.7926 L 127.461,50.4558 L 170.714,64.9940 L 127.889,51.7926 z " style="fill-opacity:0.3;fill:rgb(0,255,0);stroke:rgb(0,0,0);stroke-width:1"/></g>
<g fill-rule="evenodd"><path d="M 127.889,51.7926 L 129.077,55.5077 L 126.479,51.3580 L 127.889,51.7926 z " style="fill-opacity:0.3;fill:rgb(0,255,0);stroke:rgb(0,0,0);stroke-width:1"/></g>
<g fill-rule="evenodd"><path d="M 226.228,156.151 L 237.895,166.080 L 234.602,170.479 L 226.228,156.151 z " style="fill-opacity:0.3;fill:rgb(0,255,0);stroke:rgb(0,0,0);stroke-width:1"/></g>
<g fill-rule="evenodd"><path d="M 226.228,156.151 L 218.949,149.955 L 220.680,146.655 L 226.228,156.151 z " style="fill-opacity:0.3;fill:rgb(0,255,0);stroke:rgb(0,0,0);stroke-width:1"/></g>
<g fill-rule="evenodd"><path d="M 234.602,170.479 L 242.254,183.574 L 235.359,189.756 L 231.361,187.354 L 235.846,180.432 L 227.972,185.317 L 226.825,184.628 L 220.583,189.902 L 217.369,191.896 L 209.491,179.017 L 209.559,178.452 L 219.707,178.411 L 210.612,169.782 L 210.887,167.516 L 225.068,178.390 L 228.689,178.376 L 234.602,170.479 z " style="fill-opacity:0.3;fill:rgb(0,255,0);stroke:rgb(0,0,0);stroke-width:1"/></g>
<g fill-rule="evenodd"><path d="M 222.735,200.667 L 222.896,200.930 L 222.104,201.641 L 222.735,200.667 z " style="fill-opacity:0.3;fill:rgb(0,255,0);stroke:rgb(0,0,0);stroke-width:1"/></g>
<g fill-rule="evenodd"><path d="M 222.735,200.667 L 217.660,192.371 L 220.583,189.902 L 227.972,185.317 L 231.361,187.354 L 222.735,200.667 z " style="fill-opacity:0.3;fill:rgb(0,255,0);stroke:rgb(0,0,0);stroke-width:1"/></g>
<g fill-rule="evenodd"><path d="M 149.955,120.791 L 147.189,112.143 L 149.063,111.380 L 167.584,128.954 L 166.994,133.857 L 149.955,120.791 z " style="fill-opacity:0.3;fill:rgb(0,255,0);stroke:rgb(0,0,0);stroke-width:1"/></g>
<g fill-rule="evenodd"><path d="M 149.955,120.791 L 154.260,134.250 L 166.519,137.795 L 165.564,145.730 L 160.971,150.980 L 159.065,149.274 L 159.974,152.119 L 158.626,153.660 L 153.249,144.070 L 136.555,129.132 L 146.481,132.002 L 137.548,116.071 L 141.631,114.407 L 149.955,120.791 z " style="fill-opacity:0.3;fill:rgb(0,255,0);stroke:rgb(0,0,0);stroke-width:1"/></g>
<g fill-rule="evenodd"><path d="M 160.971,150.980 L 162.807,152.623 L 160.433,153.552 L 159.974,152.119 L 160.971,150.980 z " style="fill-opacity:0.3;fill:rgb(0,255,0);stroke:rgb(0,0,0);stroke-width:1"/></g>
<g fill-rule="evenodd"><path d="M 158.902,154.151 L 160.433,153.552 L 162.851,161.114 L 162.809,161.120 L 158.902,154.151 z " style="fill-opacity:0.3;fill:rgb(0,255,0);stroke:rgb(0,0,0);stroke-width:1"/></g>
<g fill-rule="evenodd"><path d="M 158.902,154.151 L 157.829,154.571 L 158.626,153.660 L 158.902,154.151 z " style="fill-opacity:0.3;fill:rgb(0,255,0);stroke:rgb(0,0,0);stroke-width:1"/></g>
<g fill-rule="evenodd"><path d="M 158.652,203.123 L 166.220,187.523 L 163.783,184.594 L 169.112,180.692 L 168.448,178.614 L 161.600,178.642 L 162.765,168.974 L 157.091,161.927 L 162.809,161.120 L 162.911,161.301 L 162.851,161.114 L 163.726,160.990 L 164.546,154.179 L 171.009,159.963 L 180.222,158.662 L 176.993,165.317 L 182.898,170.602 L 195.406,161.447 L 206.061,178.465 L 191.750,178.522 L 207.807,192.890 L 207.158,198.232 L 193.263,206.854 L 196.201,210.503 L 192.334,213.770 L 189.696,209.067 L 186.040,211.335 L 174.465,197.428 L 180.093,215.025 L 141.157,239.184 L 156.405,207.754 L 157.860,209.702 L 158.652,203.123M 169.766,180.214 L 169.112,180.692 L 169.280,181.216 L 169.766,180.214M 169.766,180.214 L 171.055,179.271 L 170.536,178.627 L 169.766,180.214 z " style="fill-opacity:0.3;fill:rgb(0,255,0);stroke:rgb(0,0,0);stroke-width:1"/></g>
<g fill-rule="evenodd"><path d="M 158.652,203.123 L 156.405,207.754 L 147.828,196.272 L 160.603,186.921 L 158.652,203.123 z " style="fill-opacity:0.3;fill:rgb(0,255,0);stroke:rgb(0,0,0);stroke-width:1"/></g>
<g fill-rule="evenodd"><path d="M 160.603,186.921 L 161.250,181.551 L 163.783,184.594 L 160.603,186.921 z " style="fill-opacity:0.3;fill:rgb(0,255,0);stroke:rgb(0,0,0);stroke-width:1"/></g>
<g fill-rule="evenodd"><path d="M 161.011,106.512 L 165.674,104.612 L 170.065,108.350 L 168.790,118.938 L 161.011,106.512 z " style="fill-opacity:0.3;fill:rgb(0,255,0);stroke:rgb(0,0,0);stroke-width:1"/></g>
<g fill-rule="evenodd"><path d="M 161.011,106.512 L 149.063,111.380 L 146.023,108.496 L 136.967,80.1800 L 153.145,93.9491 L 161.011,106.512 z " style="fill-opacity:0.3;fill:rgb(0,255,0);stroke:rgb(0,0,0);stroke-width:1"/></g>
<g fill-rule="evenodd"><path d="M 147.189,112.143 L 141.631,114.407 L 132.831,107.660 L 118.832,82.6960 L 146.023,108.496 L 147.189,112.143 z " style="fill-opacity:0.3;fill:rgb(0,255,0);stroke:rgb(0,0,0);stroke-width:1"/></g>
<g fill-rule="evenodd"><path d="M 119.221,42.2098 L 120.164,39.6848 L 167.290,55.2902 L 170.269,60.3883 L 119.221,42.2098 z " style="fill-opacity:0.3;fill:rgb(0,255,0);stroke:rgb(0,0,0);stroke-width:1"/></g>
<g fill-rule="evenodd"><path d="M 119.221,42.2098 L 117.498,46.8258 L 108.568,38.4160 L 119.221,42.2098 z " style="fill-opacity:0.3;fill:rgb(0,255,0);stroke:rgb(0,0,0);stroke-width:1"/></g>
<g fill-rule="evenodd"><path d="M 165.564,145.730 L 171.298,139.176 L 175.523,140.398 L 181.783,145.198 L 164.829,151.832 L 165.564,145.730 z " style="fill-opacity:0.3;fill:rgb(0,255,0);stroke:rgb(0,0,0);stroke-width:1"/></g>
<g fill-rule="evenodd"><path d="M 167.584,128.954 L 168.790,118.938 L 177.222,132.404 L 174.499,135.516 L 167.584,128.954 z " style="fill-opacity:0.3;fill:rgb(0,255,0);stroke:rgb(0,0,0);stroke-width:1"/></g>
<g fill-rule="evenodd"><path d="M 166.519,137.795 L 166.994,133.857 L 172.355,137.968 L 171.298,139.176 L 166.519,137.795 z " style="fill-opacity:0.3;fill:rgb(0,255,0);stroke:rgb(0,0,0);stroke-width:1"/></g>
<g fill-rule="evenodd"><path d="M 170.269,60.3883 L 175.612,62.2913 L 174.889,68.2952 L 170.269,60.3883 z " style="fill-opacity:0.3;fill:rgb(0,255,0);stroke:rgb(0,0,0);stroke-width:1"/></g>
<g fill-rule="evenodd"><path d="M 152.764,156.553 L 143.470,160.190 L 114.548,125.441 L 118.383,123.879 L 128.908,126.922 L 152.764,156.553 z " style="fill-opacity:0.3;fill:rgb(0,255,0);stroke:rgb(0,0,0);stroke-width:1"/></g>
<g fill-rule="evenodd"><path d="M 152.764,156.553 L 157.829,154.571 L 154.361,158.536 L 152.764,156.553 z " style="fill-opacity:0.3;fill:rgb(0,255,0);stroke:rgb(0,0,0);stroke-width:1"/></g>
<g fill-rule="evenodd"><path d="M 136.555,129.132 L 128.908,126.922 L 124.464,121.402 L 126.836,120.435 L 136.555,129.132 z " style="fill-opacity:0.3;fill:rgb(0,255,0);stroke:rgb(0,0,0);stroke-width:1"/></g>
<g fill-rule="evenodd"><path d="M 114.548,125.441 L 100.880,131.009 L 102.478,119.281 L 111.620,121.924 L 114.548,125.441 z " style="fill-opacity:0.3;fill:rgb(0,255,0);stroke:rgb(0,0,0);stroke-width:1"/></g>
<g fill-rule="evenodd"><path d="M 147.828,196.272 L 133.497,206.762 L 122.977,194.409 L 135.632,179.944 L 147.828,196.272 z " style="fill-opacity:0.3;fill:rgb(0,255,0);stroke:rgb(0,0,0);stroke-width:1"/></g>
<g fill-rule="evenodd"><path d="M 136.685,178.740 L 148.075,165.721 L 158.837,178.653 L 136.685,178.740 z " style="fill-opacity:0.3;fill:rgb(0,255,0);stroke:rgb(0,0,0);stroke-width:1"/></g>
<g fill-rule="evenodd"><path d="M 136.685,178.740 L 135.632,179.944 L 134.739,178.748 L 136.685,178.740 z " style="fill-opacity:0.3;fill:rgb(0,255,0);stroke:rgb(0,0,0);stroke-width:1"/></g>
<g fill-rule="evenodd"><path d="M 148.075,165.721 L 146.196,163.464 L 150.591,162.844 L 148.075,165.721 z " style="fill-opacity:0.3;fill:rgb(0,255,0);stroke:rgb(0,0,0);stroke-width:1"/></g>
<g fill-rule="evenodd"><path d="M 143.470,160.190 L 146.196,163.464 L 128.839,165.914 L 143.470,160.190 z " style="fill-opacity:0.3;fill:rgb(0,255,0);stroke:rgb(0,0,0);stroke-width:1"/></g>
<g fill-rule="evenodd"><path d="M 108.568,38.4160 L 90.3676,31.9346 L 88.9104,29.3354 L 104.358,34.4509 L 108.568,38.4160 z " style="fill-opacity:0.3;fill:rgb(0,255,0);stroke:rgb(0,0,0);stroke-width:1"/></g>
<g fill-rule="evenodd"><path d="M 111.620,121.924 L 103.455,112.113 L 105.412,97.7392 L 124.464,121.402 L 118.383,123.879 L 111.620,121.924 z " style="fill-opacity:0.3;fill:rgb(0,255,0);stroke:rgb(0,0,0);stroke-width:1"/></g>
<g fill-rule="evenodd"><path d="M 112.743,59.5624 L 117.498,46.8258 L 130.094,58.6894 L 136.967,80.1800 L 112.743,59.5624 z " style="fill-opacity:0.3;fill:rgb(0,255,0);stroke:rgb(0,0,0);stroke-width:1"/></g>
<g fill-rule="evenodd"><path d="M 112.743,59.5624 L 109.992,66.9302 L 109.684,66.3814 L 110.834,57.9381 L 112.743,59.5624 z " style="fill-opacity:0.3;fill:rgb(0,255,0);stroke:rgb(0,0,0);stroke-width:1"/></g>
<g fill-rule="evenodd"><path d="M 137.548,116.071 L 126.836,120.435 L 120.392,114.669 L 105.511,97.0133 L 106.782,87.6842 L 132.831,107.660 L 137.548,116.071 z " style="fill-opacity:0.3;fill:rgb(0,255,0);stroke:rgb(0,0,0);stroke-width:1"/></g>
<g fill-rule="evenodd"><path d="M 118.832,82.6960 L 108.763,73.1414 L 109.390,68.5431 L 109.992,66.9302 L 118.832,82.6960 z " style="fill-opacity:0.3;fill:rgb(0,255,0);stroke:rgb(0,0,0);stroke-width:1"/></g>
<g fill-rule="evenodd"><path d="M 90.3676,31.9346 L 99.5766,48.3568 L 73.0252,25.7587 L 90.3676,31.9346 z " style="fill-opacity:0.3;fill:rgb(0,255,0);stroke:rgb(0,0,0);stroke-width:1"/></g>
<g fill-rule="evenodd"><path d="M 99.5766,48.3568 L 107.425,55.0368 L 103.649,55.6188 L 99.5766,48.3568 z " style="fill-opacity:0.3;fill:rgb(0,255,0);stroke:rgb(0,0,0);stroke-width:1"/></g>
<g fill-rule="evenodd"><path d="M 110.834,57.9381 L 107.425,55.0368 L 111.311,54.4380 L 110.834,57.9381 z " style="fill-opacity:0.3;fill:rgb(0,255,0);stroke:rgb(0,0,0);stroke-width:1"/></g>
<g fill-rule="evenodd"><path d="M 223.836,140.637 L 238.505,112.663 L 244.925,125.200 L 223.836,140.637 z " style="fill-opacity:0.3;fill:rgb(0,255,0);stroke:rgb(0,0,0);stroke-width:1"/></g>
<g fill-rule="evenodd"><path d="M 223.836,140.637 L 220.680,146.655 L 219.162,144.058 L 223.836,140.637 z " style="fill-opacity:0.3;fill:rgb(0,255,0);stroke:rgb(0,0,0);stroke-width:1"/></g>
<g fill-rule="evenodd"><path d="M 183.708,142.763 L 177.222,132.404 L 186.230,122.107 L 194.530,129.172 L 187.919,142.797 L 186.179,143.478 L 183.708,142.763 z " style="fill-opacity:0.3;fill:rgb(0,255,0);stroke:rgb(0,0,0);stroke-width:1"/></g>
<g fill-rule="evenodd"><path d="M 183.708,142.763 L 184.554,144.114 L 183.851,144.389 L 181.450,142.111 L 183.708,142.763 z " style="fill-opacity:0.3;fill:rgb(0,255,0);stroke:rgb(0,0,0);stroke-width:1"/></g>
<g fill-rule="evenodd"><path d="M 181.450,142.111 L 175.523,140.398 L 172.355,137.968 L 174.499,135.516 L 181.450,142.111 z " style="fill-opacity:0.3;fill:rgb(0,255,0);stroke:rgb(0,0,0);stroke-width:1"/></g>
<g fill-rule="evenodd"><path d="M 238.505,112.663 L 225.339,86.9564 L 244.651,100.942 L 238.505,112.663 z " style="fill-opacity:0.3;fill:rgb(0,255,0);stroke:rgb(0,0,0);stroke-width:1"/></g>
<g fill-rule="evenodd"><path d="M 212.515,154.104 L 210.887,167.516 L 199.277,158.613 L 203.746,155.342 L 212.515,154.104 z " style="fill-opacity:0.3;fill:rgb(0,255,0);stroke:rgb(0,0,0);stroke-width:1"/></g>
<g fill-rule="evenodd"><path d="M 212.515,154.104 L 213.205,148.417 L 215.322,146.868 L 218.949,149.955 L 217.114,153.455 L 212.515,154.104 z " style="fill-opacity:0.3;fill:rgb(0,255,0);stroke:rgb(0,0,0);stroke-width:1"/></g>
<g fill-rule="evenodd"><path d="M 210.612,169.782 L 209.559,178.452 L 209.146,178.453 L 197.710,159.760 L 199.031,158.793 L 210.612,169.782 z " style="fill-opacity:0.3;fill:rgb(0,255,0);stroke:rgb(0,0,0);stroke-width:1"/></g>
<g fill-rule="evenodd"><path d="M 207.807,192.890 L 208.990,183.143 L 215.281,193.191 L 211.066,195.807 L 207.807,192.890 z " style="fill-opacity:0.3;fill:rgb(0,255,0);stroke:rgb(0,0,0);stroke-width:1"/></g>
<g fill-rule="evenodd"><path d="M 181.783,145.198 L 183.851,144.389 L 186.007,146.435 L 186.090,146.568 L 185.406,147.976 L 181.783,145.198 z " style="fill-opacity:0.3;fill:rgb(0,255,0);stroke:rgb(0,0,0);stroke-width:1"/></g>
<g fill-rule="evenodd"><path d="M 217.660,192.371 L 215.769,193.970 L 215.281,193.191 L 217.369,191.896 L 217.660,192.371 z " style="fill-opacity:0.3;fill:rgb(0,255,0);stroke:rgb(0,0,0);stroke-width:1"/></g>
<g fill-rule="evenodd"><path d="M 212.555,92.0160 L 201.757,114.273 L 198.284,108.329 L 212.555,92.0160 z " style="fill-opacity:0.3;fill:rgb(0,255,0);stroke:rgb(0,0,0);stroke-width:1"/></g>
<g fill-rule="evenodd"><path d="M 212.555,92.0160 L 217.696,81.4209 L 220.223,83.2513 L 212.555,92.0160 z " style="fill-opacity:0.3;fill:rgb(0,255,0);stroke:rgb(0,0,0);stroke-width:1"/></g>
<g fill-rule="evenodd"><path d="M 198.284,108.329 L 186.230,122.107 L 170.065,108.350 L 170.766,102.538 L 174.875,100.864 L 171.365,97.5587 L 174.889,68.2952 L 198.284,108.329 z " style="fill-opacity:0.3;fill:rgb(0,255,0);stroke:rgb(0,0,0);stroke-width:1"/></g>
<g fill-rule="evenodd"><path d="M 225.339,86.9564 L 220.223,83.2513 L 222.253,80.9307 L 225.339,86.9564 z " style="fill-opacity:0.3;fill:rgb(0,255,0);stroke:rgb(0,0,0);stroke-width:1"/></g>
</svg>
