<?xml version="1.0" standalone="no"?>
<!DOCTYPE svg PUBLIC "-//W3C//DTD SVG 1.1//EN"
"http://www.w3.org/Graphics/SVG/1.1/DTD/svg11.dtd">
<svg  version="1.1" xmlns="http://www.w3.org/2000/svg" xmlns:xlink="http://www.w3.org/1999/xlink" viewBox="0 0 0.912137 0.938214">
<g title="A + B (CGAL EPECK)" fill-rule="evenodd">
<path d="M 0.426746,0.0697672 L 0.694437,0.126138 L 0.795993,-0 L 0.778202,0.108203 L 0.812451,0.0535014 L 0.852755,0.242676 L 0.91162,0.207309 L 0.864727,0.298871 L 0.906417,0.494552 L 0.830902,0.549243 L 0.912137,0.657741 L 0.797228,0.57363 L 0.743089,0.612839 L 0.763124,0.651045 L 0.675259,0.682335 L 0.890316,0.928156 L 0.533745,0.846966 L 0.522138,0.750586 L 0.493726,0.759993 L 0.389581,0.938214 L 0.341822,0.810296 L 0.290874,0.827166 L 0.204944,0.908095 L 0.24108,0.843656 L 0.17944,0.864067 L 0.189876,0.855185 L 0.116613,0.881274 L 0.0687143,0.926724 L 0.0675243,0.898756 L -0,0.922802 L 0.0652133,0.844452 L 0.0446291,0.360677 L 0.308171,0.361722 L 0.350889,0.311562 L 0.25661,0.203796 L 0.230822,0.0563746 L 0.409489,0.167235 L 0.328838,0.0009939 L 0.390324,0.0935795 L 0.54237,0.222047 L 0.55445,0.184274 L 0.426746,0.0697672 M 0.778202,0.108203 L 0.758523,0.139634 L 0.772549,0.142587 L 0.778202,0.108203 M 0.864727,0.298871 L 0.852755,0.242676 L 0.804763,0.271509 L 0.81004,0.31154 L 0.786517,0.282473 L 0.745496,0.307118 L 0.731125,0.394525 L 0.721313,0.402876 L 0.774844,0.474372 L 0.864727,0.298871 M 0.830902,0.549243 L 0.774844,0.474372 L 0.743974,0.534649 L 0.797228,0.57363 L 0.830902,0.549243 M 0.287313,0.664297 L 0.27951,0.643398 L 0.245342,0.683939 L 0.279026,0.642102 L 0.26497,0.604455 L 0.0652133,0.844452 L 0.0675243,0.898756 L 0.116613,0.881274 L 0.25156,0.753229 L 0.184765,0.742935 L 0.287313,0.664297 M 0.308041,0.724243 L 0.307092,0.717275 L 0.302477,0.704915 L 0.25156,0.753229 L 0.288587,0.758935 L 0.308041,0.724243 M 0.305073,0.702452 L 0.298687,0.655576 L 0.287313,0.664297 L 0.302477,0.704915 L 0.305073,0.702452 M 0.388801,0.362043 L 0.308171,0.361722 L 0.0988803,0.607478 L 0.249809,0.563846 L 0.245894,0.553362 L 0.388801,0.362043 M 0.287961,0.576833 L 0.284814,0.553727 L 0.249809,0.563846 L 0.26497,0.604455 L 0.287961,0.576833 M 0.294591,0.625505 L 0.294272,0.623165 L 0.279026,0.642102 L 0.27951,0.643398 L 0.294591,0.625505 M 0.566378,0.242331 L 0.54237,0.222047 L 0.534995,0.245108 L 0.554166,0.257003 L 0.566378,0.242331 M 0.591969,0.217915 L 0.588952,0.215209 L 0.566378,0.242331 L 0.574452,0.249152 L 0.591969,0.217915 M 0.613437,0.226746 L 0.609488,0.194217 L 0.608147,0.192148 L 0.602848,0.198514 L 0.591969,0.217915 L 0.608565,0.232796 L 0.613437,0.226746 M 0.609098,0.191005 L 0.608735,0.188016 L 0.60722,0.190717 L 0.608147,0.192148 L 0.609098,0.191005 M 0.677265,0.147467 L 0.661525,0.128017 L 0.609098,0.191005 L 0.609488,0.194217 L 0.622926,0.214958 L 0.677265,0.147467 M 0.620923,0.288417 L 0.614856,0.238436 L 0.608565,0.232796 L 0.586917,0.259684 L 0.620923,0.288417 M 0.638791,0.303515 L 0.620923,0.288417 L 0.622237,0.299239 L 0.634833,0.307056 L 0.638791,0.303515 M 0.667249,0.285415 L 0.663138,0.281728 L 0.638791,0.303515 L 0.649991,0.312978 L 0.667249,0.285415 M 0.670413,0.288251 L 0.667901,0.284373 L 0.667249,0.285415 L 0.670413,0.288251 M 0.677735,0.268666 L 0.665068,0.28 L 0.667901,0.284373 L 0.677735,0.268666 M 0.755792,0.244505 L 0.720313,0.200663 L 0.677735,0.268666 L 0.696767,0.251636 L 0.672967,0.29054 L 0.713138,0.326561 L 0.745496,0.307118 L 0.755792,0.244505 M 0.804763,0.271509 L 0.788204,0.145883 L 0.772549,0.142587 L 0.755792,0.244505 L 0.786517,0.282473 L 0.804763,0.271509 M 0.675259,0.682335 L 0.670894,0.677345 L 0.666794,0.685348 L 0.675259,0.682335 M 0.619922,0.702041 L 0.520553,0.737426 L 0.522138,0.750586 L 0.578801,0.731822 L 0.619922,0.702041 M 0.661728,0.687153 L 0.656203,0.675765 L 0.619922,0.702041 L 0.661728,0.687153 M 0.666794,0.685348 L 0.661728,0.687153 L 0.663743,0.691307 L 0.666794,0.685348 M 0.381486,0.741828 L 0.373831,0.749037 L 0.370551,0.759292 L 0.381486,0.741828 M 0.506862,0.623746 L 0.50493,0.607697 L 0.488517,0.601009 L 0.448132,0.635382 L 0.381486,0.741828 L 0.506862,0.623746 M 0.460852,0.416264 L 0.439901,0.413307 L 0.452051,0.427195 L 0.460852,0.416264 M 0.475386,0.362386 L 0.474257,0.353008 L 0.466481,0.362351 L 0.475386,0.362386 M 0.485794,0.448804 L 0.484883,0.441237 L 0.479276,0.446253 L 0.485794,0.448804 M 0.575217,0.432405 L 0.535412,0.426787 L 0.552122,0.461233 L 0.561828,0.453789 L 0.575217,0.432405 M 0.58746,0.434133 L 0.585309,0.433831 L 0.583059,0.437508 L 0.58746,0.434133 M 0.583059,0.437508 L 0.561828,0.453789 L 0.554325,0.465773 L 0.554383,0.465892 L 0.581348,0.440306 L 0.583059,0.437508 M 0.642918,0.469599 L 0.641729,0.459809 L 0.611237,0.437489 L 0.587802,0.434181 L 0.581348,0.440306 L 0.560764,0.473953 L 0.558598,0.474579 L 0.560222,0.477926 L 0.61017,0.49747 L 0.642918,0.469599 M 0.648103,0.512314 L 0.646444,0.49865 L 0.640255,0.509243 L 0.648103,0.512314 M 0.640255,0.509243 L 0.61017,0.49747 L 0.58153,0.521847 L 0.604827,0.569869 L 0.640255,0.509243 M 0.660929,0.473862 L 0.648552,0.464804 L 0.642918,0.469599 L 0.646444,0.49865 L 0.660929,0.473862 M 0.558598,0.474579 L 0.554383,0.465892 L 0.554057,0.466201 L 0.549374,0.473681 L 0.554613,0.475731 L 0.558598,0.474579 M 0.591782,0.423249 L 0.584354,0.417812 L 0.575217,0.432405 L 0.585309,0.433831 L 0.591782,0.423249 M 0.596833,0.426947 L 0.59604,0.426365 L 0.589505,0.432566 L 0.596833,0.426947 M 0.629756,0.361175 L 0.628141,0.347877 L 0.618701,0.362954 L 0.628644,0.362993 L 0.629756,0.361175 z" style="fill-opacity:0.3;fill:rgb(0,0,255);stroke:rgb(51,51,153);stroke-width:0.002346" />
</g></svg>