<?xml version="1.0" standalone="no"?>
<!DOCTYPE svg PUBLIC "-//W3C//DTD SVG 1.1//EN"
"http://www.w3.org/Graphics/SVG/1.1/DTD/svg11.dtd">
<svg viewBox="0 0 300 300" version="1.1"
xmlns="http://www.w3.org/2000/svg"
xmlns:xlink="http://www.w3.org/1999/xlink">
<g fill-rule="evenodd"><path d="M 138.927,247.82 L 146.849,257.637 L 144.442,261.22 L 138.46,255.958 L 138.927,247.82 z " style="fill-opacity:0.3;fill:rgb(255,0,0);stroke:rgb(0,0,0);stroke-width:1"/></g>
<g fill-rule="evenodd"><path d="M 221.652,246.874 L 239.784,217.792 L 236.873,203.152 L 243.736,206.149 L 243.939,211.126 L 246.335,207.284 L 295.368,228.694 L 295.065,232.175 L 229.629,253.395 L 221.652,246.874 z " style="fill-opacity:0.3;fill:rgb(255,0,0);stroke:rgb(0,0,0);stroke-width:1"/></g>
<g fill-rule="evenodd"><path d="M 216.177,99.0786 L 205.541,70.8879 L 209.846,67.2372 L 216.177,99.0786 z " style="fill-opacity:0.3;fill:rgb(255,0,0);stroke:rgb(0,0,0);stroke-width:1"/></g>
<g fill-rule="evenodd"><path d="M 183.147,82.6096 L 186.944,86.6596 L 183.355,89.7027 L 183.147,82.6096 z " style="fill-opacity:0.3;fill:rgb(255,0,0);stroke:rgb(0,0,0);stroke-width:1"/></g>
<g fill-rule="evenodd"><path d="M 69.662,60.5455 L 118.095,0 L 144.003,37.8904 L 147.493,44.5824 L 121.995,17.386 L 147.095,62.7407 L 155.238,59.4318 L 162.021,72.4384 L 155.895,78.6418 L 168.833,102.019 L 148.88,118.94 L 177.958,140.374 L 175.867,142.106 L 185.239,153.718 L 186.041,180.957 L 159.478,169.359 L 173.668,183.723 L 151.921,189.863 L 178.04,211.217 L 169.766,223.531 L 139.706,234.242 L 141.694,199.614 L 136.351,194.259 L 114.434,200.447 L 119.126,211.021 L 121.912,211.975 L 119.784,212.504 L 130.834,237.404 L 121.248,240.819 L 95.8261,218.459 L 73.2024,224.082 L 94.035,250.516 L 91.6074,251.381 L 64.3268,226.288 L 4.88206,241.062 L 22.0038,226.542 L 5.46183,231.212 L 25.6231,190.688 L 5.36044,172.05 L 30.595,180.694 L 33.8509,174.15 L 42.1195,184.642 L 62.9826,191.789 L 64.2663,190.7 L 54.08,181.74 L 53.8344,181.989 L 53.8455,181.534 L 37.3818,167.053 L 55.0634,131.512 L 55.2503,123.85 L 28.4006,112.126 L 39.5939,98.1335 L 17.8917,80.2832 L 39.6455,98.0687 L 56.3877,77.1399 L 56.5607,70.0302 L 58.5282,74.464 L 61.753,70.4328 L 80.7758,89.6895 L 99.0982,82.2442 L 69.662,60.5455M 67.113,193.204 L 84.8451,208.8 L 100.084,204.498 L 67.113,193.204 z " style="fill-opacity:0.3;fill:rgb(255,0,0);stroke:rgb(0,0,0);stroke-width:1"/></g>
<g fill-rule="evenodd"><path d="M 69.662,60.5455 L 61.753,70.4328 L 4.63165,12.6092 L 69.662,60.5455 z " style="fill-opacity:0.3;fill:rgb(255,0,0);stroke:rgb(0,0,0);stroke-width:1"/></g>
<g fill-rule="evenodd"><path d="M 184.554,130.426 L 168.833,102.019 L 174.807,96.9525 L 184.093,114.756 L 184.554,130.426 z " style="fill-opacity:0.3;fill:rgb(255,0,0);stroke:rgb(0,0,0);stroke-width:1"/></g>
<g fill-rule="evenodd"><path d="M 184.554,130.426 L 186.255,133.5 L 184.683,134.803 L 184.554,130.426 z " style="fill-opacity:0.3;fill:rgb(255,0,0);stroke:rgb(0,0,0);stroke-width:1"/></g>
<g fill-rule="evenodd"><path d="M 186.255,133.5 L 191.571,129.096 L 209.631,163.722 L 198.399,155.442 L 186.255,133.5 z " style="fill-opacity:0.3;fill:rgb(255,0,0);stroke:rgb(0,0,0);stroke-width:1"/></g>
<g fill-rule="evenodd"><path d="M 198.399,155.442 L 206.13,169.411 L 202.394,174.971 L 185.239,153.718 L 184.999,145.565 L 198.399,155.442 z " style="fill-opacity:0.3;fill:rgb(255,0,0);stroke:rgb(0,0,0);stroke-width:1"/></g>
<g fill-rule="evenodd"><path d="M 204.507,40.3927 L 186.782,17.496 L 200.647,20.9814 L 204.507,40.3927 z " style="fill-opacity:0.3;fill:rgb(0,255,0);stroke:rgb(0,0,0);stroke-width:1"/></g>
<g fill-rule="evenodd"><path d="M 214.535,258.29 L 188.531,300 L 176.867,289.74 L 192.9,265.306 L 214.535,258.29 z " style="fill-opacity:0.3;fill:rgb(0,255,0);stroke:rgb(0,0,0);stroke-width:1"/></g>
<g fill-rule="evenodd"><path d="M 97.5735,162.453 L 91.9225,149.718 L 101.394,159.213 L 97.5735,162.453 z " style="fill-opacity:0.3;fill:rgb(0,255,0);stroke:rgb(0,0,0);stroke-width:1"/></g>
<g fill-rule="evenodd"><path d="M 65.4697,214.27 L 73.2024,224.082 L 64.3268,226.288 L 54.5984,217.339 L 65.4697,214.27 z " style="fill-opacity:0.3;fill:rgb(0,255,0);stroke:rgb(0,0,0);stroke-width:1"/></g>
<g fill-rule="evenodd"><path d="M 65.4697,214.27 L 53.8535,199.531 L 62.9826,191.789 L 67.113,193.204 L 64.2663,190.7 L 97.5735,162.453 L 114.434,200.447 L 100.084,204.498 L 119.126,211.021 L 119.784,212.504 L 95.8261,218.459 L 84.8451,208.8 L 65.4697,214.27 z " style="fill-opacity:0.3;fill:rgb(0,255,0);stroke:rgb(0,0,0);stroke-width:1"/></g>
<g fill-rule="evenodd"><path d="M 54.5984,217.339 L 22.0038,226.542 L 44.1675,207.745 L 54.5984,217.339 z " style="fill-opacity:0.3;fill:rgb(0,255,0);stroke:rgb(0,0,0);stroke-width:1"/></g>
<g fill-rule="evenodd"><path d="M 44.1675,207.745 L 25.6231,190.688 L 30.595,180.694 L 42.1195,184.642 L 53.8535,199.531 L 44.1675,207.745 z " style="fill-opacity:0.3;fill:rgb(0,255,0);stroke:rgb(0,0,0);stroke-width:1"/></g>
<g fill-rule="evenodd"><path d="M 210.812,238.01 L 186.018,217.74 L 187.112,217.35 L 186.558,198.539 L 195.575,185.12 L 218.757,195.242 L 224.064,201.817 L 220.957,196.203 L 234.396,202.071 L 210.812,238.01 z " style="fill-opacity:0.3;fill:rgb(0,255,0);stroke:rgb(0,0,0);stroke-width:1"/></g>
<g fill-rule="evenodd"><path d="M 138.927,247.82 L 131.216,238.266 L 130.834,237.404 L 139.706,234.242 L 138.927,247.82 z " style="fill-opacity:0.3;fill:rgb(0,255,0);stroke:rgb(0,0,0);stroke-width:1"/></g>
<g fill-rule="evenodd"><path d="M 162.704,277.283 L 160.889,275.687 L 161.307,275.551 L 162.704,277.283 z " style="fill-opacity:0.3;fill:rgb(0,255,0);stroke:rgb(0,0,0);stroke-width:1"/></g>
</svg>
