<?xml version="1.0" standalone="no"?>
<!DOCTYPE svg PUBLIC "-//W3C//DTD SVG 1.1//EN"
"http://www.w3.org/Graphics/SVG/1.1/DTD/svg11.dtd">
<svg  version="1.1" xmlns="http://www.w3.org/2000/svg" xmlns:xlink="http://www.w3.org/1999/xlink" viewBox="0 0 0.912137 0.938214">
<g title="A + B (CGAL Real)" fill-rule="evenodd">
<path d="M 0.42675,0.06977 L 0.69444,0.12614 L 0.79599,-1.80966e-19 L 0.77820,0.10820 L 0.81245,0.05350 L 0.85276,0.24268 L 0.91162,0.20731 L 0.86473,0.29887 L 0.90642,0.49455 L 0.83090,0.54924 L 0.91214,0.65774 L 0.79723,0.57363 L 0.74309,0.61284 L 0.76312,0.65104 L 0.67526,0.68233 L 0.89032,0.92816 L 0.53375,0.84697 L 0.52214,0.75059 L 0.49373,0.75999 L 0.38958,0.93821 L 0.34182,0.81030 L 0.29087,0.82717 L 0.20494,0.90810 L 0.24108,0.84366 L 0.17944,0.86407 L 0.18988,0.85518 L 0.11661,0.88127 L 0.06871,0.92672 L 0.06752,0.89876 L 2.11147e-18,0.92280 L 0.06521,0.84445 L 0.04463,0.36068 L 0.30817,0.36172 L 0.35089,0.31156 L 0.25661,0.20380 L 0.23082,0.05637 L 0.40949,0.16723 L 0.32884,0.00099 L 0.39032,0.09358 L 0.54237,0.22205 L 0.55445,0.18427 L 0.42675,0.06977 M 0.77820,0.10820 L 0.75852,0.13963 L 0.77255,0.14259 L 0.77820,0.10820 M 0.86473,0.29887 L 0.85276,0.24268 L 0.80476,0.27151 L 0.81004,0.31154 L 0.78652,0.28247 L 0.74550,0.30712 L 0.73113,0.39453 L 0.72131,0.40288 L 0.77484,0.47437 L 0.86473,0.29887 M 0.83090,0.54924 L 0.77484,0.47437 L 0.74397,0.53465 L 0.79723,0.57363 L 0.83090,0.54924 M 0.28731,0.66430 L 0.27951,0.64340 L 0.24534,0.68394 L 0.27903,0.64210 L 0.26497,0.60445 L 0.06521,0.84445 L 0.06752,0.89876 L 0.11661,0.88127 L 0.25156,0.75323 L 0.18477,0.74293 L 0.28731,0.66430 M 0.30804,0.72424 L 0.30709,0.71727 L 0.30248,0.70491 L 0.25156,0.75323 L 0.28859,0.75893 L 0.30804,0.72424 M 0.30507,0.70245 L 0.29869,0.65558 L 0.28731,0.66430 L 0.30248,0.70491 L 0.30507,0.70245 M 0.38880,0.36204 L 0.30817,0.36172 L 0.09888,0.60748 L 0.24981,0.56385 L 0.24589,0.55336 L 0.38880,0.36204 M 0.28796,0.57683 L 0.28481,0.55373 L 0.24981,0.56385 L 0.26497,0.60445 L 0.28796,0.57683 M 0.29459,0.62550 L 0.29427,0.62316 L 0.27903,0.64210 L 0.27951,0.64340 L 0.29459,0.62550 M 0.56638,0.24233 L 0.54237,0.22205 L 0.53500,0.24511 L 0.55417,0.25700 L 0.56638,0.24233 M 0.59197,0.21791 L 0.58895,0.21521 L 0.56638,0.24233 L 0.57445,0.24915 L 0.59197,0.21791 M 0.61344,0.22675 L 0.60949,0.19422 L 0.60815,0.19215 L 0.60285,0.19851 L 0.59197,0.21791 L 0.60857,0.23280 L 0.61344,0.22675 M 0.60910,0.19100 L 0.60874,0.18802 L 0.60722,0.19072 L 0.60815,0.19215 L 0.60910,0.19100 M 0.67727,0.14747 L 0.66153,0.12802 L 0.60910,0.19100 L 0.60949,0.19422 L 0.62293,0.21496 L 0.67727,0.14747 M 0.62092,0.28842 L 0.61486,0.23844 L 0.60857,0.23280 L 0.58692,0.25968 L 0.62092,0.28842 M 0.63879,0.30351 L 0.62092,0.28842 L 0.62224,0.29924 L 0.63483,0.30706 L 0.63879,0.30351 M 0.66725,0.28541 L 0.66314,0.28173 L 0.63879,0.30351 L 0.64999,0.31298 L 0.66725,0.28541 M 0.67041,0.28825 L 0.66790,0.28437 L 0.66725,0.28541 L 0.67041,0.28825 M 0.67774,0.26867 L 0.66507,0.28000 L 0.66790,0.28437 L 0.67774,0.26867 M 0.75579,0.24450 L 0.72031,0.20066 L 0.67774,0.26867 L 0.69677,0.25164 L 0.67297,0.29054 L 0.71314,0.32656 L 0.74550,0.30712 L 0.75579,0.24450 M 0.80476,0.27151 L 0.78820,0.14588 L 0.77255,0.14259 L 0.75579,0.24450 L 0.78652,0.28247 L 0.80476,0.27151 M 0.67526,0.68233 L 0.67089,0.67734 L 0.66679,0.68535 L 0.67526,0.68233 M 0.61992,0.70204 L 0.52055,0.73743 L 0.52214,0.75059 L 0.57880,0.73182 L 0.61992,0.70204 M 0.66173,0.68715 L 0.65620,0.67576 L 0.61992,0.70204 L 0.66173,0.68715 M 0.66679,0.68535 L 0.66173,0.68715 L 0.66374,0.69131 L 0.66679,0.68535 M 0.38149,0.74183 L 0.37383,0.74904 L 0.37055,0.75929 L 0.38149,0.74183 M 0.50686,0.62375 L 0.50493,0.60770 L 0.48852,0.60101 L 0.44813,0.63538 L 0.38149,0.74183 L 0.50686,0.62375 M 0.46085,0.41626 L 0.43990,0.41331 L 0.45205,0.42719 L 0.46085,0.41626 M 0.47539,0.36239 L 0.47426,0.35301 L 0.46648,0.36235 L 0.47539,0.36239 M 0.48579,0.44880 L 0.48488,0.44124 L 0.47928,0.44625 L 0.48579,0.44880 M 0.57522,0.43241 L 0.53541,0.42679 L 0.55212,0.46123 L 0.56183,0.45379 L 0.57522,0.43241 M 0.58746,0.43413 L 0.58531,0.43383 L 0.58306,0.43751 L 0.58746,0.43413 M 0.58306,0.43751 L 0.56183,0.45379 L 0.55433,0.46577 L 0.55438,0.46589 L 0.58135,0.44031 L 0.58306,0.43751 M 0.64292,0.46960 L 0.64173,0.45981 L 0.61124,0.43749 L 0.58780,0.43418 L 0.58135,0.44031 L 0.56076,0.47395 L 0.55860,0.47458 L 0.56022,0.47793 L 0.61017,0.49747 L 0.64292,0.46960 M 0.64810,0.51231 L 0.64644,0.49865 L 0.64026,0.50924 L 0.64810,0.51231 M 0.64026,0.50924 L 0.61017,0.49747 L 0.58153,0.52185 L 0.60483,0.56987 L 0.64026,0.50924 M 0.66093,0.47386 L 0.64855,0.46480 L 0.64292,0.46960 L 0.64644,0.49865 L 0.66093,0.47386 M 0.55860,0.47458 L 0.55438,0.46589 L 0.55406,0.46620 L 0.54937,0.47368 L 0.55461,0.47573 L 0.55860,0.47458 M 0.59178,0.42325 L 0.58435,0.41781 L 0.57522,0.43241 L 0.58531,0.43383 L 0.59178,0.42325 M 0.59683,0.42695 L 0.59604,0.42637 L 0.58951,0.43257 L 0.59683,0.42695 M 0.62976,0.36118 L 0.62814,0.34788 L 0.61870,0.36295 L 0.62864,0.36299 L 0.62976,0.36118 z" style="fill-opacity:0.3;fill:rgb(0,0,255);stroke:rgb(51,51,153);stroke-width:0.002346" />
</g></svg>