<?xml version="1.0" standalone="no"?>
<!DOCTYPE svg PUBLIC "-//W3C//DTD SVG 1.1//EN"
"http://www.w3.org/Graphics/SVG/1.1/DTD/svg11.dtd">
<svg viewBox="0 0 300 300" version="1.1"
xmlns="http://www.w3.org/2000/svg"
xmlns:xlink="http://www.w3.org/1999/xlink">
<g fill-rule="evenodd"><path d="M 54.0653,112.739 L 59.7492,118.437 L 56.7411,124.484 L 72.7547,131.476 L 86.8154,145.572 L 87.9931,144.380 L 84.5529,136.627 L 87.4437,137.890 L 83.7861,134.899 L 68.5928,100.662 L 60.8773,116.170 L 54.1164,110.642 L 54.0653,112.739M 84.5529,136.627 L 72.7547,131.476 L 59.7492,118.437 L 60.8773,116.170 L 83.7861,134.899 L 84.5529,136.627 z " style="fill-opacity:0.3;fill:rgb(0,0,255);stroke:rgb(51,51,153);stroke-width:1"/></g>
<g fill-rule="evenodd"><path d="M 158.855,72.6245 L 171.434,96.7422 L 179.844,89.6096 L 180.569,114.258 L 187.927,128.365 L 207.396,112.237 L 216.793,122.260 L 213.753,106.970 L 207.396,112.237 L 183.374,86.6157 L 201.670,71.0992 L 177.407,6.79285 L 178.651,49.0723 L 156.582,58.0399 L 164.704,66.7020 L 158.855,72.6245M 183.374,86.6157 L 179.844,89.6096 L 179.639,82.6313 L 183.374,86.6157M 184.435,46.7218 L 178.751,52.4777 L 178.651,49.0723 L 184.435,46.7218M 179.639,82.6313 L 164.704,66.7020 L 178.751,52.4777 L 179.639,82.6313 z " style="fill-opacity:0.3;fill:rgb(0,0,255);stroke:rgb(51,51,153);stroke-width:1"/></g>
<g fill-rule="evenodd"><path d="M 171.647,289.175 L 173.460,286.412 L 159.526,274.156 L 171.647,289.175 z " style="fill-opacity:0.3;fill:rgb(0,0,255);stroke:rgb(51,51,153);stroke-width:1"/></g>
<g fill-rule="evenodd"><path d="M 174.533,139.462 L 181.461,144.569 L 181.150,133.980 L 174.533,139.462 z " style="fill-opacity:0.3;fill:rgb(0,0,255);stroke:rgb(51,51,153);stroke-width:1"/></g>
<g fill-rule="evenodd"><path d="M 205.906,67.5075 L 215.078,59.7288 L 200.654,41.0971 L 205.906,67.5075 z " style="fill-opacity:0.3;fill:rgb(0,0,255);stroke:rgb(51,51,153);stroke-width:1"/></g>
<g fill-rule="evenodd"><path d="M 223.789,129.721 L 226.236,132.331 L 235.743,118.182 L 235.871,121.329 L 290.615,43.2934 L 214.859,106.054 L 223.789,129.721 z " style="fill-opacity:0.3;fill:rgb(0,0,255);stroke:rgb(51,51,153);stroke-width:1"/></g>
<g fill-rule="evenodd"><path d="M 235.360,215.627 L 240.839,243.180 L 239.448,209.069 L 235.360,215.627 z " style="fill-opacity:0.3;fill:rgb(0,0,255);stroke:rgb(51,51,153);stroke-width:1"/></g>
</svg>
