<?xml version="1.0" standalone="no"?>
<!DOCTYPE svg PUBLIC "-//W3C//DTD SVG 1.1//EN"
"http://www.w3.org/Graphics/SVG/1.1/DTD/svg11.dtd">
<svg  version="1.1" xmlns="http://www.w3.org/2000/svg" xmlns:xlink="http://www.w3.org/1999/xlink" viewBox="0 0 0.946023 0.976165">
<g title="A + B (CGAL EPECK)" fill-rule="evenodd">
<path d="M 0.70616,0.17287 L 0.76516,0.26750 L 0.75568,0.31513 L 0.77802,0.30538 L 0.77868,0.28919 L 0.78647,0.30169 L 0.94602,0.23202 L 0.94504,0.22069 L 0.73212,0.15165 L 0.70616,0.17287 z" style="fill-opacity:0.3;fill:rgb(0,0,255);stroke:rgb(51,51,153);stroke-width:0.002440" />
<path d="M 0.68834,0.65377 L 0.65373,0.74550 L 0.66774,0.75738 L 0.68834,0.65377 z" style="fill-opacity:0.3;fill:rgb(0,0,255);stroke:rgb(51,51,153);stroke-width:0.002440" />
<path d="M 0.58087,0.70736 L 0.59322,0.69418 L 0.58155,0.68428 L 0.58087,0.70736 z" style="fill-opacity:0.3;fill:rgb(0,0,255);stroke:rgb(51,51,153);stroke-width:0.002440" />
<path d="M 0.65037,0.84473 L 0.59269,0.91923 L 0.63781,0.90789 L 0.65037,0.84473 z" style="fill-opacity:0.3;fill:rgb(0,0,255);stroke:rgb(51,51,153);stroke-width:0.002440" />
<path d="M 0.68300,0.13572 L 0.59839,-1.25786e-19 L 0.56043,0.03339 L 0.61260,0.11289 L 0.68300,0.13572 z" style="fill-opacity:0.3;fill:rgb(0,0,255);stroke:rgb(51,51,153);stroke-width:0.002440" />
<path d="M 0.67089,0.20171 L 0.59021,0.26766 L 0.59377,0.26893 L 0.59197,0.33014 L 0.62131,0.37380 L 0.69674,0.34087 L 0.71401,0.31947 L 0.70390,0.33774 L 0.74762,0.31865 L 0.67089,0.20171 z" style="fill-opacity:0.3;fill:rgb(0,0,255);stroke:rgb(51,51,153);stroke-width:0.002440" />
<path d="M 0.51435,0.07392 L 0.50844,0.07911 L 0.50980,0.07955 L 0.51435,0.07392 z" style="fill-opacity:0.3;fill:rgb(0,0,255);stroke:rgb(51,51,153);stroke-width:0.002440" />
<path d="M 0.43952,0.21397 L 0.44598,0.32664 L 0.42860,0.34407 L 0.35728,0.32393 L 0.30242,0.44756 L 0.19404,0.35565 L 0.16090,0.38480 L 0.16010,0.38399 L 0.16014,0.38547 L 0.10656,0.43259 L 0.16410,0.54824 L 0.16471,0.57317 L 0.07734,0.61132 L 0.11376,0.65685 L 0.04315,0.71493 L 0.11393,0.65706 L 0.16841,0.72516 L 0.16897,0.74829 L 0.17537,0.73387 L 0.18587,0.74698 L 0.24776,0.68433 L 0.30738,0.70855 L 0.21160,0.77916 L 0.36920,0.97616 L 0.45350,0.85287 L 0.46485,0.83110 L 0.38188,0.91959 L 0.46356,0.77201 L 0.49005,0.78278 L 0.51213,0.74046 L 0.49219,0.72027 L 0.53429,0.64421 L 0.46937,0.58915 L 0.56398,0.51940 L 0.55718,0.51377 L 0.58768,0.47599 L 0.59028,0.38735 L 0.50385,0.42509 L 0.55002,0.37835 L 0.47926,0.35837 L 0.56425,0.28889 L 0.53733,0.24882 L 0.43952,0.21397 M 0.30242,0.44756 L 0.31485,0.45810 L 0.28403,0.48900 L 0.30242,0.44756 z" style="fill-opacity:0.3;fill:rgb(0,0,255);stroke:rgb(51,51,153);stroke-width:0.002440" />
<path d="M 0.43952,0.21397 L 0.43698,0.16979 L 0.41189,0.20088 L 0.41065,0.20368 L 0.43952,0.21397 z" style="fill-opacity:0.3;fill:rgb(0,0,255);stroke:rgb(51,51,153);stroke-width:0.002440" />
<path d="M 0.26100,0.29675 L 0.29674,0.26532 L 0.22312,0.24703 L 0.19796,0.27895 L 0.26100,0.29675 z" style="fill-opacity:0.3;fill:rgb(0,0,255);stroke:rgb(51,51,153);stroke-width:0.002440" />
<path d="M 0.26100,0.29675 L 0.20331,0.34750 L 0.31059,0.31075 L 0.26100,0.29675 z" style="fill-opacity:0.3;fill:rgb(0,0,255);stroke:rgb(51,51,153);stroke-width:0.002440" />
<path d="M 0.20331,0.34750 L 0.18987,0.35211 L 0.19404,0.35565 L 0.20331,0.34750 z" style="fill-opacity:0.3;fill:rgb(0,0,255);stroke:rgb(51,51,153);stroke-width:0.002440" />
<path d="M 0.43698,0.16979 L 0.46276,0.13784 L 0.45493,0.12618 L 0.43546,0.14331 L 0.43698,0.16979 z" style="fill-opacity:0.3;fill:rgb(0,0,255);stroke:rgb(51,51,153);stroke-width:0.002440" />
<path d="M 0.31059,0.31075 L 0.35728,0.32393 L 0.37255,0.28953 L 0.31059,0.31075 z" style="fill-opacity:0.3;fill:rgb(0,0,255);stroke:rgb(51,51,153);stroke-width:0.002440" />
<path d="M 0.41065,0.20368 L 0.37946,0.19257 L 0.29674,0.26532 L 0.37469,0.28470 L 0.41065,0.20368 z" style="fill-opacity:0.3;fill:rgb(0,0,255);stroke:rgb(51,51,153);stroke-width:0.002440" />
<path d="M 0.22312,0.24703 L 0.29091,0.16102 L 0.28301,0.15820 L 0.19424,0.23985 L 0.22312,0.24703 z" style="fill-opacity:0.3;fill:rgb(0,0,255);stroke:rgb(51,51,153);stroke-width:0.002440" />
<path d="M 0.19424,0.23985 L 0.00081,0.19178 L 0.05653,0.23902 L 0.16259,0.26897 L 0.19424,0.23985 z" style="fill-opacity:0.3;fill:rgb(0,0,255);stroke:rgb(51,51,153);stroke-width:0.002440" />
<path d="M 0.05653,0.23902 L 0.00270,0.22383 L 0.06830,0.35569 L 0.12864,0.30019 L 0.05653,0.23902 z" style="fill-opacity:0.3;fill:rgb(0,0,255);stroke:rgb(51,51,153);stroke-width:0.002440" />
<path d="M 0.16259,0.26897 L 0.12864,0.30019 L 0.16016,0.32691 L 0.19796,0.27895 L 0.16259,0.26897 z" style="fill-opacity:0.3;fill:rgb(0,0,255);stroke:rgb(51,51,153);stroke-width:0.002440" />
<path d="M 0.06830,0.35569 L 0.00237,0.41633 L 0.08448,0.38821 L 0.06830,0.35569 z" style="fill-opacity:0.3;fill:rgb(0,0,255);stroke:rgb(51,51,153);stroke-width:0.002440" />
<path d="M 0.08448,0.38821 L 0.09508,0.40950 L 0.12198,0.37536 L 0.08448,0.38821 z" style="fill-opacity:0.3;fill:rgb(0,0,255);stroke:rgb(51,51,153);stroke-width:0.002440" />
<path d="M 0.12198,0.37536 L 0.18987,0.35211 L 0.16016,0.32691 L 0.12198,0.37536 z" style="fill-opacity:0.3;fill:rgb(0,0,255);stroke:rgb(51,51,153);stroke-width:0.002440" />
<path d="M 0.37255,0.28953 L 0.38162,0.28642 L 0.37469,0.28470 L 0.37255,0.28953 z" style="fill-opacity:0.3;fill:rgb(0,0,255);stroke:rgb(51,51,153);stroke-width:0.002440" />
<path d="M 0.21160,0.77916 L 0.18587,0.74698 L -7.48845e-19,0.93514 L 0.21160,0.77916 z" style="fill-opacity:0.3;fill:rgb(0,0,255);stroke:rgb(51,51,153);stroke-width:0.002440" />
<path d="M 0.63050,0.47037 L 0.59098,0.54177 L 0.60828,0.55610 L 0.66704,0.44343 L 0.63050,0.47037 z" style="fill-opacity:0.3;fill:rgb(0,0,255);stroke:rgb(51,51,153);stroke-width:0.002440" />
<path d="M 0.63050,0.47037 L 0.65565,0.42492 L 0.64350,0.40683 L 0.58768,0.47599 L 0.58689,0.50251 L 0.63050,0.47037 z" style="fill-opacity:0.3;fill:rgb(0,0,255);stroke:rgb(51,51,153);stroke-width:0.002440" />
<path d="M 0.59098,0.54177 L 0.58586,0.53753 L 0.58545,0.55177 L 0.59098,0.54177 z" style="fill-opacity:0.3;fill:rgb(0,0,255);stroke:rgb(51,51,153);stroke-width:0.002440" />
<path d="M 0.53429,0.64421 L 0.55373,0.66069 L 0.58394,0.60276 L 0.58545,0.55177 L 0.53429,0.64421 z" style="fill-opacity:0.3;fill:rgb(0,0,255);stroke:rgb(51,51,153);stroke-width:0.002440" />
</g></svg>