<?xml version="1.0" standalone="no"?>
<!DOCTYPE svg PUBLIC "-//W3C//DTD SVG 1.1//EN"
"http://www.w3.org/Graphics/SVG/1.1/DTD/svg11.dtd">
<svg viewBox="0 0 300 300" version="1.1"
xmlns="http://www.w3.org/2000/svg"
xmlns:xlink="http://www.w3.org/1999/xlink">
<g fill-rule="evenodd"><path d="M 25.0215,29.9813 L 88.8951,106.722 L 84.0473,119.707 L 35.7868,105.755 L 102.709,184.337 L 18.4396,184.671 L 25.0215,29.9813 z " style="fill-opacity:0.3;fill:rgb(0,0,255);stroke:rgb(51,51,153);stroke-width:1"/></g>
<g fill-rule="evenodd"><path d="M 25.0215,29.9813 L 4.16917,4.9284 L 25.7605,12.6173 L 25.0215,29.9813 z " style="fill-opacity:0.3;fill:rgb(0,0,255);stroke:rgb(51,51,153);stroke-width:1"/></g>
<g fill-rule="evenodd"><path d="M 41.457,18.2069 L 25.7605,12.6173 L 26.141,3.67432 L 41.457,18.2069 z " style="fill-opacity:0.3;fill:rgb(0,0,255);stroke:rgb(51,51,153);stroke-width:1"/></g>
<g fill-rule="evenodd"><path d="M 181.437,151.028 L 182.785,148.25 L 183.477,148.45 L 190.059,159.21 L 181.437,151.028 z " style="fill-opacity:0.3;fill:rgb(0,0,255);stroke:rgb(51,51,153);stroke-width:1"/></g>
<g fill-rule="evenodd"><path d="M 199.057,237.898 L 198.932,238.925 L 198.628,238.56 L 199.057,237.898 z " style="fill-opacity:0.3;fill:rgb(0,0,255);stroke:rgb(51,51,153);stroke-width:1"/></g>
<g fill-rule="evenodd"><path d="M 280.671,204.434 L 251.931,148.316 L 269.855,124.376 L 294.002,141.864 L 280.671,204.434 z " style="fill-opacity:0.3;fill:rgb(0,0,255);stroke:rgb(51,51,153);stroke-width:1"/></g>
<g fill-rule="evenodd"><path d="M 280.671,204.434 L 295.666,233.712 L 276.843,222.403 L 280.671,204.434 z " style="fill-opacity:0.3;fill:rgb(0,0,255);stroke:rgb(51,51,153);stroke-width:1"/></g>
<g fill-rule="evenodd"><path d="M 251.197,254.407 L 256.202,253.353 L 261.497,213.183 L 276.843,222.403 L 263.956,282.893 L 253.004,265.402 L 251.197,254.407 z " style="fill-opacity:0.3;fill:rgb(0,0,255);stroke:rgb(51,51,153);stroke-width:1"/></g>
<g fill-rule="evenodd"><path d="M 261.497,213.183 L 255.663,209.678 L 263.185,200.383 L 261.497,213.183 z " style="fill-opacity:0.3;fill:rgb(0,0,255);stroke:rgb(51,51,153);stroke-width:1"/></g>
<g fill-rule="evenodd"><path d="M 245.839,221.818 L 242.546,201.797 L 255.663,209.678 L 245.839,221.818 z " style="fill-opacity:0.3;fill:rgb(0,0,255);stroke:rgb(51,51,153);stroke-width:1"/></g>
<g fill-rule="evenodd"><path d="M 269.855,124.376 L 259.088,116.578 L 295.831,89.6833 L 269.855,124.376 z " style="fill-opacity:0.3;fill:rgb(0,0,255);stroke:rgb(51,51,153);stroke-width:1"/></g>
<g fill-rule="evenodd"><path d="M 162.041,56.9873 L 171.126,59.9956 L 170.619,64.2032 L 165.112,62.2418 L 162.041,56.9873 z " style="fill-opacity:0.3;fill:rgb(0,0,255);stroke:rgb(51,51,153);stroke-width:1"/></g>
<g fill-rule="evenodd"><path d="M 162.041,56.9873 L 113.469,40.9029 L 128.74,0 L 162.041,56.9873 z " style="fill-opacity:0.3;fill:rgb(0,0,255);stroke:rgb(51,51,153);stroke-width:1"/></g>
<g fill-rule="evenodd"><path d="M 148.611,138.371 L 144.175,124.498 L 161.736,137.965 L 161.247,142.024 L 148.611,138.371 z " style="fill-opacity:0.3;fill:rgb(0,0,255);stroke:rgb(51,51,153);stroke-width:1"/></g>
<g fill-rule="evenodd"><path d="M 147.462,96.8328 L 160.376,107.823 L 155.57,109.781 L 147.462,96.8328 z " style="fill-opacity:0.3;fill:rgb(0,0,255);stroke:rgb(51,51,153);stroke-width:1"/></g>
<g fill-rule="evenodd"><path d="M 147.462,96.8328 L 130.788,82.641 L 123.704,60.4909 L 126.152,62.796 L 147.462,96.8328 z " style="fill-opacity:0.3;fill:rgb(0,0,255);stroke:rgb(51,51,153);stroke-width:1"/></g>
<g fill-rule="evenodd"><path d="M 140.594,136.053 L 130.363,133.096 L 120.346,124.132 L 131.387,119.634 L 140.594,136.053 z " style="fill-opacity:0.3;fill:rgb(0,0,255);stroke:rgb(51,51,153);stroke-width:1"/></g>
<g fill-rule="evenodd"><path d="M 148.715,163.402 L 144.83,167.843 L 140.3,168.482 L 137.49,165.106 L 147.07,161.358 L 148.715,163.402 z " style="fill-opacity:0.3;fill:rgb(0,0,255);stroke:rgb(51,51,153);stroke-width:1"/></g>
<g fill-rule="evenodd"><path d="M 148.715,163.402 L 152.29,159.315 L 153.396,158.883 L 157.423,166.065 L 151.53,166.897 L 148.715,163.402 z " style="fill-opacity:0.3;fill:rgb(0,0,255);stroke:rgb(51,51,153);stroke-width:1"/></g>
<g fill-rule="evenodd"><path d="M 153.564,153.856 L 155.528,155.614 L 154.501,156.788 L 153.564,153.856 z " style="fill-opacity:0.3;fill:rgb(0,0,255);stroke:rgb(51,51,153);stroke-width:1"/></g>
<g fill-rule="evenodd"><path d="M 151.53,166.897 L 157.377,174.16 L 156.177,184.125 L 153.33,184.136 L 142.236,170.808 L 144.83,167.843 L 151.53,166.897 z " style="fill-opacity:0.3;fill:rgb(0,0,255);stroke:rgb(51,51,153);stroke-width:1"/></g>
<g fill-rule="evenodd"><path d="M 160.376,107.823 L 165.624,105.685 L 164.902,111.676 L 160.376,107.823 z " style="fill-opacity:0.3;fill:rgb(0,0,255);stroke:rgb(51,51,153);stroke-width:1"/></g>
<g fill-rule="evenodd"><path d="M 181.458,241.077 L 177.595,228.999 L 185.272,222.513 L 192.49,231.186 L 181.458,241.077 z " style="fill-opacity:0.3;fill:rgb(0,0,255);stroke:rgb(51,51,153);stroke-width:1"/></g>
<g fill-rule="evenodd"><path d="M 181.458,241.077 L 186.593,257.134 L 198.332,239.017 L 198.816,239.881 L 198.932,238.925 L 215.696,259.066 L 220.729,252.847 L 226.22,259.667 L 140.624,277.691 L 181.458,241.077 z " style="fill-opacity:0.3;fill:rgb(0,0,255);stroke:rgb(51,51,153);stroke-width:1"/></g>
<g fill-rule="evenodd"><path d="M 147.569,148.492 L 153.112,158.376 L 152.29,159.315 L 147.07,161.358 L 122.481,130.817 L 130.363,133.096 L 147.569,148.492 z " style="fill-opacity:0.3;fill:rgb(0,0,255);stroke:rgb(51,51,153);stroke-width:1"/></g>
<g fill-rule="evenodd"><path d="M 135.106,246.526 L 77.9761,281.974 L 86.2219,234.835 L 116.368,200.376 L 127.211,213.108 L 141.982,202.296 L 150.822,214.131 L 135.106,246.526 z " style="fill-opacity:0.3;fill:rgb(0,0,255);stroke:rgb(51,51,153);stroke-width:1"/></g>
<g fill-rule="evenodd"><path d="M 135.106,246.526 L 175.237,221.625 L 177.595,228.999 L 128.978,270.077 L 109.317,299.682 L 135.106,246.526 z " style="fill-opacity:0.3;fill:rgb(0,0,255);stroke:rgb(51,51,153);stroke-width:1"/></g>
<g fill-rule="evenodd"><path d="M 113.469,40.9029 L 112.497,43.5054 L 101.517,39.5951 L 97.1781,35.5083 L 113.469,40.9029 z " style="fill-opacity:0.3;fill:rgb(0,0,255);stroke:rgb(51,51,153);stroke-width:1"/></g>
<g fill-rule="evenodd"><path d="M 175.237,221.625 L 169.437,203.488 L 181.367,217.822 L 175.237,221.625 z " style="fill-opacity:0.3;fill:rgb(0,0,255);stroke:rgb(51,51,153);stroke-width:1"/></g>
<g fill-rule="evenodd"><path d="M 153.33,184.136 L 155.816,187.123 L 155.149,192.659 L 141.982,202.296 L 129.411,185.467 L 130.497,184.227 L 153.33,184.136 z " style="fill-opacity:0.3;fill:rgb(0,0,255);stroke:rgb(51,51,153);stroke-width:1"/></g>
<g fill-rule="evenodd"><path d="M 116.368,200.376 L 102.709,184.337 L 128.491,184.235 L 129.411,185.467 L 116.368,200.376 z " style="fill-opacity:0.3;fill:rgb(0,0,255);stroke:rgb(51,51,153);stroke-width:1"/></g>
<g fill-rule="evenodd"><path d="M 128.491,184.235 L 82.7954,123.059 L 84.0473,119.707 L 95.2403,122.942 L 93.5936,135.031 L 107.68,129.292 L 137.49,165.106 L 122.411,171.007 L 140.3,168.482 L 142.236,170.808 L 130.497,184.227 L 128.491,184.235 z " style="fill-opacity:0.3;fill:rgb(0,0,255);stroke:rgb(51,51,153);stroke-width:1"/></g>
<g fill-rule="evenodd"><path d="M 81.2561,30.2358 L 69.7014,9.63074 L 97.1781,35.5083 L 81.2561,30.2358 z " style="fill-opacity:0.3;fill:rgb(0,0,255);stroke:rgb(51,51,153);stroke-width:1"/></g>
<g fill-rule="evenodd"><path d="M 81.2561,30.2358 L 82.758,32.9148 L 64.8833,26.5494 L 61.5463,23.7093 L 81.2561,30.2358 z " style="fill-opacity:0.3;fill:rgb(0,0,255);stroke:rgb(51,51,153);stroke-width:1"/></g>
<g fill-rule="evenodd"><path d="M 64.8833,26.5494 L 92.2497,49.8411 L 96.4468,57.3259 L 84.6072,59.1504 L 41.457,18.2069 L 64.8833,26.5494 z " style="fill-opacity:0.3;fill:rgb(0,0,255);stroke:rgb(51,51,153);stroke-width:1"/></g>
<g fill-rule="evenodd"><path d="M 96.0394,87.5867 L 99.6763,90.3756 L 98.3666,99.991 L 93.5444,94.2693 L 96.0394,87.5867 z " style="fill-opacity:0.3;fill:rgb(0,0,255);stroke:rgb(51,51,153);stroke-width:1"/></g>
<g fill-rule="evenodd"><path d="M 100.888,74.5991 L 102.364,70.647 L 101.718,75.3864 L 100.888,74.5991 z " style="fill-opacity:0.3;fill:rgb(0,0,255);stroke:rgb(51,51,153);stroke-width:1"/></g>
<g fill-rule="evenodd"><path d="M 101.718,75.3864 L 112.097,85.2342 L 126.525,110.964 L 99.6763,90.3756 L 101.718,75.3864 z " style="fill-opacity:0.3;fill:rgb(0,0,255);stroke:rgb(51,51,153);stroke-width:1"/></g>
<g fill-rule="evenodd"><path d="M 102.364,70.647 L 102.667,68.4189 L 102.985,68.9845 L 102.364,70.647 z " style="fill-opacity:0.3;fill:rgb(0,0,255);stroke:rgb(51,51,153);stroke-width:1"/></g>
<g fill-rule="evenodd"><path d="M 123.704,60.4909 L 110.721,48.2631 L 112.497,43.5054 L 165.112,62.2418 L 169.874,70.3915 L 166.242,100.553 L 126.152,62.796 L 122.655,57.2114 L 121.431,53.3824 L 119.977,52.9344 L 122.655,57.2114 L 123.704,60.4909M 121.431,53.3824 L 165.57,66.9889 L 120.99,52.0045 L 121.431,53.3824 z " style="fill-opacity:0.3;fill:rgb(0,0,255);stroke:rgb(51,51,153);stroke-width:1"/></g>
<g fill-rule="evenodd"><path d="M 93.3896,94.684 L 98.2646,100.739 L 96.2466,115.554 L 88.8951,106.722 L 93.3896,94.684 z " style="fill-opacity:0.3;fill:rgb(0,0,255);stroke:rgb(51,51,153);stroke-width:1"/></g>
<g fill-rule="evenodd"><path d="M 98.2646,100.739 L 98.3666,99.991 L 113.704,118.189 L 120.346,124.132 L 117.901,125.128 L 98.2646,100.739 z " style="fill-opacity:0.3;fill:rgb(0,0,255);stroke:rgb(51,51,153);stroke-width:1"/></g>
<g fill-rule="evenodd"><path d="M 95.2403,122.942 L 96.2466,115.554 L 104.663,125.666 L 95.2403,122.942 z " style="fill-opacity:0.3;fill:rgb(0,0,255);stroke:rgb(51,51,153);stroke-width:1"/></g>
<g fill-rule="evenodd"><path d="M 102.667,68.4189 L 96.4468,57.3259 L 100.339,56.726 L 103.853,59.7164 L 102.667,68.4189 z " style="fill-opacity:0.3;fill:rgb(0,0,255);stroke:rgb(51,51,153);stroke-width:1"/></g>
<g fill-rule="evenodd"><path d="M 181.332,150.929 L 181.437,151.028 L 181.418,151.066 L 181.332,150.929 z " style="fill-opacity:0.3;fill:rgb(0,0,255);stroke:rgb(51,51,153);stroke-width:1"/></g>
<g fill-rule="evenodd"><path d="M 181.332,150.929 L 179.111,148.821 L 179.835,148.537 L 181.332,150.929 z " style="fill-opacity:0.3;fill:rgb(0,0,255);stroke:rgb(51,51,153);stroke-width:1"/></g>
<g fill-rule="evenodd"><path d="M 234.814,171.178 L 237.951,173.848 L 242.546,201.797 L 232.2,195.58 L 239.306,189.208 L 231.419,175.712 L 234.814,171.178 z " style="fill-opacity:0.3;fill:rgb(0,0,255);stroke:rgb(51,51,153);stroke-width:1"/></g>
<g fill-rule="evenodd"><path d="M 234.814,171.178 L 222.789,160.944 L 217.07,151.156 L 220.323,144.954 L 242.06,129.042 L 251.931,148.316 L 234.814,171.178 z " style="fill-opacity:0.3;fill:rgb(0,0,255);stroke:rgb(51,51,153);stroke-width:1"/></g>
<g fill-rule="evenodd"><path d="M 199.616,160.11 L 209.366,152.973 L 208.655,158.834 L 199.616,160.11 z " style="fill-opacity:0.3;fill:rgb(0,0,255);stroke:rgb(51,51,153);stroke-width:1"/></g>
<g fill-rule="evenodd"><path d="M 199.616,160.11 L 195.01,163.481 L 192.667,161.684 L 192.123,161.168 L 199.616,160.11 z " style="fill-opacity:0.3;fill:rgb(0,0,255);stroke:rgb(51,51,153);stroke-width:1"/></g>
<g fill-rule="evenodd"><path d="M 209.366,152.973 L 209.746,149.843 L 211.548,151.376 L 209.366,152.973 z " style="fill-opacity:0.3;fill:rgb(0,0,255);stroke:rgb(51,51,153);stroke-width:1"/></g>
<g fill-rule="evenodd"><path d="M 211.548,151.376 L 215.505,148.479 L 217.07,151.156 L 215.286,154.558 L 211.548,151.376 z " style="fill-opacity:0.3;fill:rgb(0,0,255);stroke:rgb(51,51,153);stroke-width:1"/></g>
<g fill-rule="evenodd"><path d="M 215.505,148.479 L 210.874,140.553 L 211.404,136.185 L 208.895,137.167 L 197.567,117.781 L 208.696,94.8404 L 216.599,85.8066 L 221.872,89.6255 L 235.442,116.121 L 220.323,144.954 L 215.505,148.479 z " style="fill-opacity:0.3;fill:rgb(0,0,255);stroke:rgb(51,51,153);stroke-width:1"/></g>
<g fill-rule="evenodd"><path d="M 180.714,152.518 L 175.371,163.532 L 165.875,164.872 L 159.214,158.912 L 159.505,156.492 L 176.98,149.655 L 180.714,152.518 z " style="fill-opacity:0.3;fill:rgb(0,0,255);stroke:rgb(51,51,153);stroke-width:1"/></g>
<g fill-rule="evenodd"><path d="M 180.714,152.518 L 181.418,151.066 L 183.817,154.898 L 180.714,152.518 z " style="fill-opacity:0.3;fill:rgb(0,0,255);stroke:rgb(51,51,153);stroke-width:1"/></g>
<g fill-rule="evenodd"><path d="M 223.403,190.295 L 224.586,191.005 L 216.971,195.731 L 223.403,190.295 z " style="fill-opacity:0.3;fill:rgb(0,0,255);stroke:rgb(51,51,153);stroke-width:1"/></g>
<g fill-rule="evenodd"><path d="M 221.593,183.865 L 206.977,172.657 L 208.655,158.834 L 213.394,158.165 L 215.286,154.558 L 222.789,160.944 L 231.419,175.712 L 225.325,183.851 L 221.593,183.865 z " style="fill-opacity:0.3;fill:rgb(0,0,255);stroke:rgb(51,51,153);stroke-width:1"/></g>
<g fill-rule="evenodd"><path d="M 219.355,207.098 L 226.965,219.538 L 220.879,214.093 L 217.735,209.07 L 218.538,207.83 L 219.355,207.098 z " style="fill-opacity:0.3;fill:rgb(0,0,255);stroke:rgb(51,51,153);stroke-width:1"/></g>
<g fill-rule="evenodd"><path d="M 219.355,207.098 L 219.188,206.826 L 228.079,193.104 L 232.2,195.58 L 219.355,207.098 z " style="fill-opacity:0.3;fill:rgb(0,0,255);stroke:rgb(51,51,153);stroke-width:1"/></g>
<g fill-rule="evenodd"><path d="M 234.494,235.837 L 245.839,221.818 L 251.197,254.407 L 246.712,255.351 L 234.494,235.837 z " style="fill-opacity:0.3;fill:rgb(0,0,255);stroke:rgb(51,51,153);stroke-width:1"/></g>
<g fill-rule="evenodd"><path d="M 234.494,235.837 L 220.729,252.847 L 203.354,231.266 L 216.829,210.468 L 220.879,214.093 L 234.494,235.837 z " style="fill-opacity:0.3;fill:rgb(0,0,255);stroke:rgb(51,51,153);stroke-width:1"/></g>
<g fill-rule="evenodd"><path d="M 226.22,259.667 L 246.712,255.351 L 253.004,265.402 L 258.693,300 L 226.22,259.667 z " style="fill-opacity:0.3;fill:rgb(0,0,255);stroke:rgb(51,51,153);stroke-width:1"/></g>
<g fill-rule="evenodd"><path d="M 200.773,223.759 L 202.713,207.777 L 208.427,202.949 L 216.212,209.916 L 200.773,223.759 z " style="fill-opacity:0.3;fill:rgb(0,0,255);stroke:rgb(51,51,153);stroke-width:1"/></g>
<g fill-rule="evenodd"><path d="M 200.773,223.759 L 200.32,227.497 L 198.762,225.562 L 200.773,223.759 z " style="fill-opacity:0.3;fill:rgb(0,0,255);stroke:rgb(51,51,153);stroke-width:1"/></g>
<g fill-rule="evenodd"><path d="M 192.49,231.186 L 193.455,230.32 L 196.934,236.524 L 192.49,231.186 z " style="fill-opacity:0.3;fill:rgb(0,0,255);stroke:rgb(51,51,153);stroke-width:1"/></g>
<g fill-rule="evenodd"><path d="M 187.854,220.332 L 185.272,222.513 L 181.367,217.822 L 185.135,215.484 L 187.854,220.332 z " style="fill-opacity:0.3;fill:rgb(0,0,255);stroke:rgb(51,51,153);stroke-width:1"/></g>
<g fill-rule="evenodd"><path d="M 187.854,220.332 L 191.84,216.964 L 198.762,225.562 L 193.455,230.32 L 187.854,220.332 z " style="fill-opacity:0.3;fill:rgb(0,0,255);stroke:rgb(51,51,153);stroke-width:1"/></g>
<g fill-rule="evenodd"><path d="M 200.32,227.497 L 203.354,231.266 L 199.057,237.898 L 200.32,227.497 z " style="fill-opacity:0.3;fill:rgb(0,0,255);stroke:rgb(51,51,153);stroke-width:1"/></g>
<g fill-rule="evenodd"><path d="M 216.829,210.468 L 216.212,209.916 L 217.526,208.737 L 217.735,209.07 L 216.829,210.468 z " style="fill-opacity:0.3;fill:rgb(0,0,255);stroke:rgb(51,51,153);stroke-width:1"/></g>
<g fill-rule="evenodd"><path d="M 196.934,236.524 L 198.628,238.56 L 198.332,239.017 L 196.934,236.524 z " style="fill-opacity:0.3;fill:rgb(0,0,255);stroke:rgb(51,51,153);stroke-width:1"/></g>
<g fill-rule="evenodd"><path d="M 188.099,161.736 L 191.02,166.402 L 178.129,175.838 L 172.043,170.392 L 175.371,163.532 L 188.099,161.736 z " style="fill-opacity:0.3;fill:rgb(0,0,255);stroke:rgb(51,51,153);stroke-width:1"/></g>
<g fill-rule="evenodd"><path d="M 188.811,213.203 L 203.133,204.316 L 202.713,207.777 L 191.84,216.964 L 188.811,213.203 z " style="fill-opacity:0.3;fill:rgb(0,0,255);stroke:rgb(51,51,153);stroke-width:1"/></g>
<g fill-rule="evenodd"><path d="M 187.252,184.002 L 202.003,183.943 L 205.021,188.764 L 203.802,198.811 L 187.252,184.002 z " style="fill-opacity:0.3;fill:rgb(0,0,255);stroke:rgb(51,51,153);stroke-width:1"/></g>
<g fill-rule="evenodd"><path d="M 190.606,160.104 L 190.059,159.21 L 192.123,161.168 L 192.013,161.183 L 190.606,160.104 z " style="fill-opacity:0.3;fill:rgb(0,0,255);stroke:rgb(51,51,153);stroke-width:1"/></g>
<g fill-rule="evenodd"><path d="M 160.939,193.279 L 153.138,209.358 L 155.149,192.659 L 158.426,190.26 L 160.939,193.279 z " style="fill-opacity:0.3;fill:rgb(0,0,255);stroke:rgb(51,51,153);stroke-width:1"/></g>
<g fill-rule="evenodd"><path d="M 164.093,186.778 L 163.92,186.239 L 164.594,185.745 L 164.093,186.778 z " style="fill-opacity:0.3;fill:rgb(0,0,255);stroke:rgb(51,51,153);stroke-width:1"/></g>
<g fill-rule="evenodd"><path d="M 155.816,187.123 L 156.177,184.125 L 163.235,184.097 L 163.92,186.239 L 158.426,190.26 L 155.816,187.123 z " style="fill-opacity:0.3;fill:rgb(0,0,255);stroke:rgb(51,51,153);stroke-width:1"/></g>
<g fill-rule="evenodd"><path d="M 165.922,184.773 L 164.594,185.745 L 165.388,184.109 L 165.922,184.773 z " style="fill-opacity:0.3;fill:rgb(0,0,255);stroke:rgb(51,51,153);stroke-width:1"/></g>
<g fill-rule="evenodd"><path d="M 159.505,156.492 L 157.421,157.308 L 155.528,155.614 L 160.262,150.203 L 159.505,156.492 z " style="fill-opacity:0.3;fill:rgb(0,0,255);stroke:rgb(51,51,153);stroke-width:1"/></g>
<g fill-rule="evenodd"><path d="M 157.421,157.308 L 159.214,158.912 L 158.368,165.932 L 157.466,166.059 L 154.974,158.265 L 157.421,157.308 z " style="fill-opacity:0.3;fill:rgb(0,0,255);stroke:rgb(51,51,153);stroke-width:1"/></g>
<g fill-rule="evenodd"><path d="M 157.528,166.252 L 157.423,166.065 L 157.466,166.059 L 157.528,166.252 z " style="fill-opacity:0.3;fill:rgb(0,0,255);stroke:rgb(51,51,153);stroke-width:1"/></g>
<g fill-rule="evenodd"><path d="M 205.021,188.764 L 205.538,184.512 L 213.658,197.786 L 211.506,199.121 L 205.021,188.764 z " style="fill-opacity:0.3;fill:rgb(0,0,255);stroke:rgb(51,51,153);stroke-width:1"/></g>
<g fill-rule="evenodd"><path d="M 205.538,184.512 L 205.182,183.931 L 205.608,183.929 L 205.538,184.512 z " style="fill-opacity:0.3;fill:rgb(0,0,255);stroke:rgb(51,51,153);stroke-width:1"/></g>
<g fill-rule="evenodd"><path d="M 218.538,207.83 L 217.526,208.737 L 212.008,199.923 L 213.958,198.276 L 219.188,206.826 L 218.538,207.83 z " style="fill-opacity:0.3;fill:rgb(0,0,255);stroke:rgb(51,51,153);stroke-width:1"/></g>
<g fill-rule="evenodd"><path d="M 212.008,199.923 L 208.427,202.949 L 207.161,201.817 L 211.506,199.121 L 212.008,199.923 z " style="fill-opacity:0.3;fill:rgb(0,0,255);stroke:rgb(51,51,153);stroke-width:1"/></g>
<g fill-rule="evenodd"><path d="M 207.161,201.817 L 203.133,204.316 L 203.802,198.811 L 207.161,201.817 z " style="fill-opacity:0.3;fill:rgb(0,0,255);stroke:rgb(51,51,153);stroke-width:1"/></g>
<g fill-rule="evenodd"><path d="M 192.667,161.684 L 194.757,163.667 L 193.395,164.663 L 191.326,161.28 L 192.013,161.183 L 192.667,161.684 z " style="fill-opacity:0.3;fill:rgb(0,0,255);stroke:rgb(51,51,153);stroke-width:1"/></g>
<g fill-rule="evenodd"><path d="M 194.757,163.667 L 195.01,163.481 L 206.977,172.657 L 206.693,174.993 L 194.757,163.667 z " style="fill-opacity:0.3;fill:rgb(0,0,255);stroke:rgb(51,51,153);stroke-width:1"/></g>
<g fill-rule="evenodd"><path d="M 205.182,183.931 L 202.003,183.943 L 191.02,166.402 L 193.395,164.663 L 205.182,183.931 z " style="fill-opacity:0.3;fill:rgb(0,0,255);stroke:rgb(51,51,153);stroke-width:1"/></g>
<g fill-rule="evenodd"><path d="M 216.067,183.887 L 205.608,183.929 L 206.693,174.993 L 216.067,183.887 z " style="fill-opacity:0.3;fill:rgb(0,0,255);stroke:rgb(51,51,153);stroke-width:1"/></g>
<g fill-rule="evenodd"><path d="M 242.06,129.042 L 235.442,116.121 L 241.777,104.041 L 259.088,116.578 L 242.06,129.042 z " style="fill-opacity:0.3;fill:rgb(0,0,255);stroke:rgb(51,51,153);stroke-width:1"/></g>
<g fill-rule="evenodd"><path d="M 170.619,64.2032 L 202.393,75.5181 L 213.994,83.92 L 208.696,94.8404 L 193.987,111.654 L 169.874,70.3915 L 170.619,64.2032 z " style="fill-opacity:0.3;fill:rgb(0,0,255);stroke:rgb(51,51,153);stroke-width:1"/></g>
<g fill-rule="evenodd"><path d="M 213.994,83.92 L 215.761,80.2787 L 217.381,80.8555 L 218.692,83.4148 L 216.599,85.8066 L 213.994,83.92 z " style="fill-opacity:0.3;fill:rgb(0,0,255);stroke:rgb(51,51,153);stroke-width:1"/></g>
<g fill-rule="evenodd"><path d="M 218.692,83.4148 L 220.088,81.8192 L 248.183,91.8244 L 241.777,104.041 L 221.872,89.6255 L 218.692,83.4148 z " style="fill-opacity:0.3;fill:rgb(0,0,255);stroke:rgb(51,51,153);stroke-width:1"/></g>
<g fill-rule="evenodd"><path d="M 166.242,100.553 L 169.859,103.96 L 165.624,105.685 L 166.242,100.553 z " style="fill-opacity:0.3;fill:rgb(0,0,255);stroke:rgb(51,51,153);stroke-width:1"/></g>
<g fill-rule="evenodd"><path d="M 197.567,117.781 L 190.117,133.136 L 181.563,125.855 L 193.987,111.654 L 197.567,117.781 z " style="fill-opacity:0.3;fill:rgb(0,0,255);stroke:rgb(51,51,153);stroke-width:1"/></g>
<g fill-rule="evenodd"><path d="M 190.117,133.136 L 199.275,140.931 L 183.304,147.18 L 190.117,133.136 z " style="fill-opacity:0.3;fill:rgb(0,0,255);stroke:rgb(51,51,153);stroke-width:1"/></g>
<g fill-rule="evenodd"><path d="M 183.304,147.18 L 182.785,148.25 L 181.51,147.882 L 183.304,147.18 z " style="fill-opacity:0.3;fill:rgb(0,0,255);stroke:rgb(51,51,153);stroke-width:1"/></g>
<g fill-rule="evenodd"><path d="M 181.51,147.882 L 179.835,148.537 L 178.963,147.145 L 181.51,147.882 z " style="fill-opacity:0.3;fill:rgb(0,0,255);stroke:rgb(51,51,153);stroke-width:1"/></g>
<g fill-rule="evenodd"><path d="M 170.528,144.707 L 166.172,143.448 L 167.262,142.202 L 170.528,144.707 z " style="fill-opacity:0.3;fill:rgb(0,0,255);stroke:rgb(51,51,153);stroke-width:1"/></g>
<g fill-rule="evenodd"><path d="M 170.528,144.707 L 176.636,146.473 L 179.111,148.821 L 176.98,149.655 L 170.528,144.707 z " style="fill-opacity:0.3;fill:rgb(0,0,255);stroke:rgb(51,51,153);stroke-width:1"/></g>
<g fill-rule="evenodd"><path d="M 166.172,143.448 L 160.262,150.203 L 161.247,142.024 L 166.172,143.448 z " style="fill-opacity:0.3;fill:rgb(0,0,255);stroke:rgb(51,51,153);stroke-width:1"/></g>
<g fill-rule="evenodd"><path d="M 172.278,136.468 L 178.963,147.145 L 176.636,146.473 L 169.472,139.676 L 172.278,136.468 z " style="fill-opacity:0.3;fill:rgb(0,0,255);stroke:rgb(51,51,153);stroke-width:1"/></g>
<g fill-rule="evenodd"><path d="M 172.278,136.468 L 163.588,122.588 L 164.902,111.676 L 181.563,125.855 L 172.278,136.468 z " style="fill-opacity:0.3;fill:rgb(0,0,255);stroke:rgb(51,51,153);stroke-width:1"/></g>
<g fill-rule="evenodd"><path d="M 169.472,139.676 L 167.262,142.202 L 161.736,137.965 L 162.345,132.912 L 169.472,139.676 z " style="fill-opacity:0.3;fill:rgb(0,0,255);stroke:rgb(51,51,153);stroke-width:1"/></g>
<g fill-rule="evenodd"><path d="M 122.481,130.817 L 111.633,127.681 L 117.901,125.128 L 122.481,130.817 z " style="fill-opacity:0.3;fill:rgb(0,0,255);stroke:rgb(51,51,153);stroke-width:1"/></g>
<g fill-rule="evenodd"><path d="M 162.345,132.912 L 143.255,114.799 L 155.57,109.781 L 163.588,122.588 L 162.345,132.912 z " style="fill-opacity:0.3;fill:rgb(0,0,255);stroke:rgb(51,51,153);stroke-width:1"/></g>
<g fill-rule="evenodd"><path d="M 143.255,114.799 L 141.324,115.585 L 140.122,111.826 L 143.255,114.799 z " style="fill-opacity:0.3;fill:rgb(0,0,255);stroke:rgb(51,51,153);stroke-width:1"/></g>
<g fill-rule="evenodd"><path d="M 144.175,124.498 L 135.595,117.919 L 141.324,115.585 L 144.175,124.498 z " style="fill-opacity:0.3;fill:rgb(0,0,255);stroke:rgb(51,51,153);stroke-width:1"/></g>
<g fill-rule="evenodd"><path d="M 111.633,127.681 L 107.68,129.292 L 104.663,125.666 L 111.633,127.681 z " style="fill-opacity:0.3;fill:rgb(0,0,255);stroke:rgb(51,51,153);stroke-width:1"/></g>
<g fill-rule="evenodd"><path d="M 153.138,209.358 L 152.322,216.139 L 150.822,214.131 L 153.138,209.358 z " style="fill-opacity:0.3;fill:rgb(0,0,255);stroke:rgb(51,51,153);stroke-width:1"/></g>
<g fill-rule="evenodd"><path d="M 153.112,158.376 L 154.501,156.788 L 154.974,158.265 L 153.396,158.883 L 153.112,158.376 z " style="fill-opacity:0.3;fill:rgb(0,0,255);stroke:rgb(51,51,153);stroke-width:1"/></g>
<g fill-rule="evenodd"><path d="M 126.525,110.964 L 135.595,117.919 L 131.387,119.634 L 126.525,110.964 z " style="fill-opacity:0.3;fill:rgb(0,0,255);stroke:rgb(51,51,153);stroke-width:1"/></g>
<g fill-rule="evenodd"><path d="M 112.097,85.2342 L 102.985,68.9845 L 105.82,61.3907 L 130.788,82.641 L 140.122,111.826 L 112.097,85.2342 z " style="fill-opacity:0.3;fill:rgb(0,0,255);stroke:rgb(51,51,153);stroke-width:1"/></g>
<g fill-rule="evenodd"><path d="M 110.721,48.2631 L 105.82,61.3907 L 103.853,59.7164 L 104.344,56.1089 L 100.339,56.726 L 92.2497,49.8411 L 82.758,32.9148 L 101.517,39.5951 L 110.721,48.2631 z " style="fill-opacity:0.3;fill:rgb(0,0,255);stroke:rgb(51,51,153);stroke-width:1"/></g>
<g fill-rule="evenodd"><path d="M 228.079,193.104 L 224.586,191.005 L 232.701,185.97 L 228.079,193.104 z " style="fill-opacity:0.3;fill:rgb(0,0,255);stroke:rgb(51,51,153);stroke-width:1"/></g>
<g fill-rule="evenodd"><path d="M 216.971,195.731 L 213.958,198.276 L 213.658,197.786 L 216.971,195.731 z " style="fill-opacity:0.3;fill:rgb(0,0,255);stroke:rgb(51,51,153);stroke-width:1"/></g>
</svg>
