<?xml version="1.0" standalone="no"?>
<!DOCTYPE svg PUBLIC "-//W3C//DTD SVG 1.1//EN"
"http://www.w3.org/Graphics/SVG/1.1/DTD/svg11.dtd">
<svg  version="1.1" xmlns="http://www.w3.org/2000/svg" xmlns:xlink="http://www.w3.org/1999/xlink" viewBox="0 0 0.946023 0.976165">
<g title="A + B (CGAL EPECK)" fill-rule="evenodd">
<path d="M 0.0683038,0.35569 L 0.128645,0.300187 L 0.056527,0.239024 L 0.162586,0.268968 L 0.194241,0.239851 L 0.223121,0.247029 L 0.19796,0.278955 L 0.261005,0.296754 L 0.296736,0.265325 L 0.374693,0.284701 L 0.372551,0.289527 L 0.31059,0.310753 L 0.357283,0.323935 L 0.302422,0.447563 L 0.314852,0.458105 L 0.284034,0.489001 L 0.302422,0.447563 L 0.194044,0.35565 L 0.203307,0.347503 L 0.189867,0.352107 L 0.160162,0.326915 L 0.121981,0.375362 L 0.0844818,0.388208 L 0.0683038,0.35569 M 0.19796,0.278955 L 0.162586,0.268968 L 0.128645,0.300187 L 0.160162,0.326915 L 0.19796,0.278955 M 0.31059,0.310753 L 0.261005,0.296754 L 0.203307,0.347503 L 0.31059,0.310753 z" style="fill-opacity:0.3;fill:rgb(0,0,255);stroke:rgb(51,51,153);stroke-width:0.002440" />
</g></svg>