<?xml version="1.0" standalone="no"?>
<!DOCTYPE svg PUBLIC "-//W3C//DTD SVG 1.1//EN"
"http://www.w3.org/Graphics/SVG/1.1/DTD/svg11.dtd">
<svg  version="1.1" xmlns="http://www.w3.org/2000/svg" xmlns:xlink="http://www.w3.org/1999/xlink" viewBox="0 0 0.978947 0.982452">
<g title="A + B (CGAL EPECK)" fill-rule="evenodd">
<path d="M 0.697354,0.636183 L 0.688344,0.660062 L 0.667742,0.76367 L 0.698077,0.789397 L 0.650372,0.851019 L 0.637812,0.914181 L 0.592695,0.925522 L 0.650372,0.851019 L 0.667742,0.76367 L 0.653734,0.751791 L 0.573486,0.964476 L 0.577601,0.824642 L 0.504611,0.794983 L 0.464855,0.837386 L 0.453498,0.859161 L 0.369197,0.982452 L 0.211601,0.785444 L -0,0.941423 L 0.185866,0.753272 L 0.175373,0.740155 L 0.168971,0.754582 L 0.168408,0.731448 L 0.113931,0.663348 L 0.0431466,0.72122 L 0.113763,0.663137 L 0.0773414,0.617607 L 0.164707,0.57946 L 0.164099,0.554527 L 0.106565,0.438882 L 0.0097974,0.523996 L 0.095076,0.415789 L 0.0844818,0.394495 L 0.0023714,0.422622 L 0.0683038,0.361977 L 0.0027013,0.230115 L 0.056527,0.245311 L 0.0008148,0.198063 L 0.194241,0.246138 L 0.283009,0.164488 L 0.290908,0.167303 L 0.386596,0.0458869 L 0.508444,0.0854002 L 0.514348,0.0802066 L 0.554435,0.0305345 L 0.560432,0.0396729 L 0.598388,0.00628755 L 0.683001,0.142006 L 0.732116,0.157933 L 0.925288,-0 L 0.945037,0.226981 L 0.960491,0.231992 L 0.946023,0.238309 L 0.978947,0.616703 L 0.786473,0.307975 L 0.778019,0.311666 L 0.775732,0.36777 L 0.82902,0.448975 L 0.76985,0.512085 L 0.76685,0.585662 L 0.947907,0.843755 L 0.697354,0.636183 M 0.726889,0.557906 L 0.703751,0.582584 L 0.693695,0.633152 L 0.697354,0.636183 L 0.726889,0.557906 M 0.693695,0.633152 L 0.67267,0.615734 L 0.593222,0.700472 L 0.653734,0.751791 L 0.688344,0.660062 L 0.693695,0.633152 M 0.531472,0.766334 L 0.512128,0.746746 L 0.490055,0.789068 L 0.504611,0.794983 L 0.531472,0.766334 M 0.596732,0.832416 L 0.577932,0.813379 L 0.577601,0.824642 L 0.596732,0.832416 M 0.580867,0.71365 L 0.531472,0.766334 L 0.577932,0.813379 L 0.580867,0.71365 M 0.490055,0.789068 L 0.463559,0.778301 L 0.381885,0.92588 L 0.464855,0.837386 L 0.490055,0.789068 M 0.194044,0.361937 L 0.189867,0.358394 L 0.121981,0.381649 L 0.095076,0.415789 L 0.106565,0.438882 L 0.160136,0.391762 L 0.1601,0.390282 L 0.160899,0.391091 L 0.194044,0.361937 M 0.160162,0.333202 L 0.128645,0.306474 L 0.0683038,0.361977 L 0.0844818,0.394495 L 0.121981,0.381649 L 0.160162,0.333202 M 0.261005,0.303041 L 0.19796,0.285242 L 0.160162,0.333202 L 0.189867,0.358394 L 0.203307,0.35379 L 0.261005,0.303041 M 0.357283,0.330222 L 0.31059,0.31704 L 0.203307,0.35379 L 0.194044,0.361937 L 0.302422,0.45385 L 0.357283,0.330222 M 0.445984,0.33293 L 0.439517,0.220256 L 0.410646,0.209968 L 0.374693,0.290988 L 0.381617,0.292709 L 0.372551,0.295814 L 0.357283,0.330222 L 0.4286,0.350357 L 0.445984,0.33293 M 0.374693,0.290988 L 0.296736,0.271612 L 0.261005,0.303041 L 0.31059,0.31704 L 0.372551,0.295814 L 0.374693,0.290988 M 0.223121,0.253316 L 0.194241,0.246138 L 0.162586,0.275255 L 0.19796,0.285242 L 0.223121,0.253316 M 0.162586,0.275255 L 0.056527,0.245311 L 0.128645,0.306474 L 0.162586,0.275255 M 0.379456,0.198854 L 0.290908,0.167303 L 0.223121,0.253316 L 0.296736,0.271612 L 0.379456,0.198854 M 0.436981,0.176074 L 0.435461,0.149594 L 0.379456,0.198854 L 0.410646,0.209968 L 0.411891,0.207163 L 0.436981,0.176074 M 0.537328,0.255109 L 0.46276,0.14413 L 0.436981,0.176074 L 0.439517,0.220256 L 0.537328,0.255109 M 0.454927,0.132472 L 0.432568,0.0991961 L 0.435461,0.149594 L 0.454927,0.132472 M 0.509802,0.0858406 L 0.508444,0.0854002 L 0.454927,0.132472 L 0.46276,0.14413 L 0.509802,0.0858406 M 0.747625,0.324937 L 0.670886,0.207994 L 0.590211,0.273952 L 0.593769,0.27522 L 0.591968,0.336428 L 0.621307,0.380092 L 0.696738,0.347156 L 0.714007,0.325762 L 0.703897,0.34403 L 0.747625,0.324937 M 0.703897,0.34403 L 0.696738,0.347156 L 0.643496,0.413117 L 0.655651,0.431207 L 0.703897,0.34403 M 0.715994,0.521014 L 0.655651,0.431207 L 0.630496,0.476661 L 0.667043,0.44972 L 0.60828,0.56239 L 0.67267,0.615734 L 0.703751,0.582584 L 0.715994,0.521014 M 0.734982,0.549274 L 0.731885,0.544664 L 0.726889,0.557906 L 0.734982,0.549274 M 0.76685,0.585662 L 0.738609,0.545405 L 0.734982,0.549274 L 0.766426,0.596071 L 0.76685,0.585662 M 0.775732,0.36777 L 0.753273,0.333545 L 0.715994,0.521014 L 0.731885,0.544664 L 0.734055,0.538913 L 0.738609,0.545405 L 0.76985,0.512085 L 0.775732,0.36777 M 0.60828,0.56239 L 0.590982,0.548059 L 0.585446,0.558062 L 0.583945,0.609048 L 0.60828,0.56239 M 0.583945,0.609048 L 0.553731,0.66698 L 0.581546,0.69057 L 0.583945,0.609048 M 0.553731,0.66698 L 0.534291,0.650494 L 0.492194,0.726561 L 0.512128,0.746746 L 0.553731,0.66698 M 0.585865,0.54382 L 0.563982,0.525691 L 0.469368,0.595434 L 0.534291,0.650494 L 0.585446,0.558062 L 0.585865,0.54382 M 0.630496,0.476661 L 0.586895,0.5088 L 0.585865,0.54382 L 0.590982,0.548059 L 0.630496,0.476661 M 0.587676,0.482273 L 0.557179,0.520055 L 0.563982,0.525691 L 0.586895,0.5088 L 0.587676,0.482273 M 0.643496,0.413117 L 0.621307,0.380092 L 0.590284,0.393638 L 0.587676,0.482273 L 0.643496,0.413117 M 0.591968,0.336428 L 0.56425,0.295177 L 0.479263,0.364661 L 0.550023,0.384638 L 0.503851,0.431377 L 0.590284,0.393638 L 0.591968,0.336428 M 0.590211,0.273952 L 0.537328,0.255109 L 0.56425,0.295177 L 0.590211,0.273952 M 0.70616,0.179154 L 0.683001,0.142006 L 0.612604,0.119177 L 0.670886,0.207994 L 0.70616,0.179154 M 0.612604,0.119177 L 0.560432,0.0396729 L 0.514348,0.0802066 L 0.509802,0.0858406 L 0.612604,0.119177 M 0.946023,0.238309 L 0.945037,0.226981 L 0.732116,0.157933 L 0.70616,0.179154 L 0.765157,0.273784 L 0.783278,0.182656 L 0.778679,0.295474 L 0.786473,0.307975 L 0.946023,0.238309 M 0.778679,0.295474 L 0.765157,0.273784 L 0.755685,0.321418 L 0.778019,0.311666 L 0.778679,0.295474 M 0.314852,0.464392 L 0.302422,0.45385 L 0.284034,0.495288 L 0.314852,0.464392 M 0.307383,0.714839 L 0.247764,0.690613 L 0.185866,0.753272 L 0.211601,0.785444 L 0.307383,0.714839 M 0.266383,0.535065 L 0.227362,0.552102 L 0.184348,0.595226 L 0.188079,0.602726 L 0.263847,0.54078 L 0.266383,0.535065 M 0.353389,0.497074 L 0.335677,0.482053 L 0.288677,0.520479 L 0.292024,0.523869 L 0.353389,0.497074 z" style="fill-opacity:0.3;fill:rgb(0,0,255);stroke:rgb(51,51,153);stroke-width:0.002456" />
</g></svg>