<?xml version="1.0" standalone="no"?>
<!DOCTYPE svg PUBLIC "-//W3C//DTD SVG 1.1//EN"
"http://www.w3.org/Graphics/SVG/1.1/DTD/svg11.dtd">
<svg viewBox="0 0 300 300" version="1.1"
xmlns="http://www.w3.org/2000/svg"
xmlns:xlink="http://www.w3.org/1999/xlink">
<g fill-rule="evenodd"><path d="M 54.0641,112.739 L 59.7483,118.439 L 56.7399,124.483 L 72.7556,131.476 L 86.8151,145.572 L 87.9943,144.381 L 84.5535,136.629 L 87.4440,137.889 L 83.7855,134.899 L 68.5922,100.660 L 60.8761,116.171 L 54.1155,110.641 L 54.0641,112.739M 84.5535,136.629 L 72.7556,131.476 L 59.7483,118.439 L 60.8761,116.171 L 83.7855,134.899 L 84.5535,136.629 z " style="fill-opacity:0.3;fill:rgb(0,0,255);stroke:rgb(51,51,153);stroke-width:1"/></g>
<g fill-rule="evenodd"><path d="M 158.854,72.6261 L 171.435,96.7419 L 179.844,89.6093 L 180.569,114.257 L 187.926,128.365 L 207.394,112.238 L 216.794,122.261 L 213.753,106.971 L 207.394,112.238 L 183.375,86.6160 L 201.671,71.0992 L 177.407,6.79436 L 178.652,49.0726 L 156.583,58.0405 L 164.705,66.7029 L 158.854,72.6261M 183.375,86.6160 L 179.844,89.6093 L 179.638,82.6310 L 183.375,86.6160M 184.436,46.7233 L 178.752,52.4771 L 178.652,49.0726 L 184.436,46.7233M 179.638,82.6310 L 164.705,66.7029 L 178.752,52.4771 L 179.638,82.6310 z " style="fill-opacity:0.3;fill:rgb(0,0,255);stroke:rgb(51,51,153);stroke-width:1"/></g>
<g fill-rule="evenodd"><path d="M 171.647,289.176 L 173.461,286.412 L 159.525,274.155 L 171.647,289.176 z " style="fill-opacity:0.3;fill:rgb(0,0,255);stroke:rgb(51,51,153);stroke-width:1"/></g>
<g fill-rule="evenodd"><path d="M 174.534,139.462 L 181.461,144.568 L 181.150,133.980 L 174.534,139.462 z " style="fill-opacity:0.3;fill:rgb(0,0,255);stroke:rgb(51,51,153);stroke-width:1"/></g>
<g fill-rule="evenodd"><path d="M 205.907,67.5072 L 215.077,59.7276 L 200.655,41.0965 L 205.907,67.5072 z " style="fill-opacity:0.3;fill:rgb(0,0,255);stroke:rgb(51,51,153);stroke-width:1"/></g>
<g fill-rule="evenodd"><path d="M 223.788,129.723 L 226.237,132.332 L 235.743,118.182 L 235.870,121.329 L 290.614,43.2946 L 214.859,106.054 L 223.788,129.723 z " style="fill-opacity:0.3;fill:rgb(0,0,255);stroke:rgb(51,51,153);stroke-width:1"/></g>
<g fill-rule="evenodd"><path d="M 235.359,215.628 L 240.838,243.181 L 239.447,209.070 L 235.359,215.628 z " style="fill-opacity:0.3;fill:rgb(0,0,255);stroke:rgb(51,51,153);stroke-width:1"/></g>
</svg>
