<?xml version="1.0" standalone="no"?>
<!DOCTYPE svg PUBLIC "-//W3C//DTD SVG 1.1//EN"
"http://www.w3.org/Graphics/SVG/1.1/DTD/svg11.dtd">
<svg viewBox="0 0 300 300" version="1.1"
xmlns="http://www.w3.org/2000/svg"
xmlns:xlink="http://www.w3.org/1999/xlink">
<g fill-rule="evenodd"><path d="M 162.041,56.9873 L 171.126,59.9956 L 170.619,64.2032 L 202.393,75.5181 L 213.994,83.92 L 215.761,80.2787 L 217.381,80.8555 L 218.692,83.4148 L 220.088,81.8192 L 248.183,91.8244 L 241.777,104.041 L 259.088,116.578 L 242.06,129.042 L 251.931,148.316 L 234.814,171.178 L 237.951,173.848 L 242.546,201.797 L 232.2,195.58 L 219.355,207.098 L 226.965,219.538 L 220.879,214.093 L 217.735,209.07 L 218.538,207.83 L 217.526,208.737 L 212.008,199.923 L 208.427,202.949 L 207.161,201.817 L 203.133,204.316 L 202.713,207.777 L 191.84,216.964 L 198.762,225.562 L 193.455,230.32 L 187.854,220.332 L 185.272,222.513 L 181.367,217.822 L 175.237,221.625 L 177.595,228.999 L 128.978,270.077 L 109.317,299.682 L 135.106,246.526 L 77.9761,281.974 L 86.2219,234.835 L 116.368,200.376 L 102.709,184.337 L 128.491,184.235 L 82.7954,123.059 L 84.0473,119.707 L 95.2403,122.942 L 96.2466,115.554 L 88.8951,106.722 L 93.3896,94.684 L 98.2646,100.739 L 98.3666,99.991 L 93.5444,94.2693 L 96.0394,87.5867 L 99.6763,90.3756 L 101.718,75.3864 L 100.888,74.5991 L 102.364,70.647 L 102.667,68.4189 L 96.4468,57.3259 L 84.6072,59.1504 L 41.457,18.2069 L 64.8833,26.5494 L 61.5463,23.7093 L 81.2561,30.2358 L 69.7014,9.63074 L 97.1781,35.5083 L 113.469,40.9029 L 128.74,0 L 162.041,56.9873M 148.715,163.402 L 144.83,167.843 L 151.53,166.897 L 148.715,163.402M 147.462,96.8328 L 160.376,107.823 L 165.624,105.685 L 166.242,100.553 L 126.152,62.796 L 147.462,96.8328M 153.33,184.136 L 155.816,187.123 L 156.177,184.125 L 153.33,184.136M 123.704,60.4909 L 126.152,62.796 L 122.655,57.2114 L 123.704,60.4909M 215.505,148.479 L 210.874,140.553 L 211.404,136.185 L 208.895,137.167 L 197.567,117.781 L 190.117,133.136 L 199.275,140.931 L 183.304,147.18 L 182.785,148.25 L 181.51,147.882 L 179.835,148.537 L 181.332,150.929 L 181.437,151.028 L 181.418,151.066 L 183.817,154.898 L 180.714,152.518 L 175.371,163.532 L 188.099,161.736 L 191.02,166.402 L 193.395,164.663 L 191.326,161.28 L 192.013,161.183 L 190.606,160.104 L 190.059,159.21 L 192.123,161.168 L 199.616,160.11 L 209.366,152.973 L 209.746,149.843 L 211.548,151.376 L 215.505,148.479M 159.505,156.492 L 157.421,157.308 L 159.214,158.912 L 159.505,156.492M 205.538,184.512 L 205.182,183.931 L 202.003,183.943 L 205.021,188.764 L 205.538,184.512M 192.667,161.684 L 194.757,163.667 L 195.01,163.481 L 192.667,161.684 z " style="fill-opacity:0.3;fill:rgb(0,0,255);stroke:rgb(51,51,153);stroke-width:1"/></g>
<g fill-rule="evenodd"><path d="M 171.126,59.9956 L 174.838,29.1774 L 288.853,3.21643 L 220.088,81.8192 L 217.381,80.8555 L 216.405,78.9504 L 215.761,80.2787 L 202.393,75.5181 L 189.245,65.9955 L 171.126,59.9956 z " style="fill-opacity:0.3;fill:rgb(0,0,255);stroke:rgb(51,51,153);stroke-width:1"/></g>
<g fill-rule="evenodd"><path d="M 181.458,241.077 L 177.595,228.999 L 185.272,222.513 L 192.49,231.186 L 193.455,230.32 L 196.934,236.524 L 198.628,238.56 L 198.332,239.017 L 198.816,239.881 L 198.932,238.925 L 215.696,259.066 L 220.729,252.847 L 203.354,231.266 L 199.057,237.898 L 200.32,227.497 L 198.762,225.562 L 200.773,223.759 L 202.713,207.777 L 208.427,202.949 L 216.212,209.916 L 217.526,208.737 L 217.735,209.07 L 216.829,210.468 L 220.879,214.093 L 234.494,235.837 L 245.839,221.818 L 251.197,254.407 L 246.712,255.351 L 253.004,265.402 L 258.693,300 L 226.22,259.667 L 140.624,277.691 L 181.458,241.077 z " style="fill-opacity:0.3;fill:rgb(0,0,255);stroke:rgb(51,51,153);stroke-width:1"/></g>
<g fill-rule="evenodd"><path d="M 84.6072,59.1504 L 100.888,74.5991 L 96.0394,87.5867 L 63.249,62.442 L 84.6072,59.1504 z " style="fill-opacity:0.3;fill:rgb(0,0,255);stroke:rgb(51,51,153);stroke-width:1"/></g>
<g fill-rule="evenodd"><path d="M 93.3896,94.684 L 82.6189,81.3064 L 93.5444,94.2693 L 93.3896,94.684 z " style="fill-opacity:0.3;fill:rgb(0,0,255);stroke:rgb(51,51,153);stroke-width:1"/></g>
<g fill-rule="evenodd"><path d="M 209.746,149.843 L 199.275,140.931 L 208.895,137.167 L 210.874,140.553 L 209.746,149.843 z " style="fill-opacity:0.3;fill:rgb(0,0,255);stroke:rgb(51,51,153);stroke-width:1"/></g>
<g fill-rule="evenodd"><path d="M 188.099,161.736 L 183.817,154.898 L 190.606,160.104 L 191.326,161.28 L 188.099,161.736 z " style="fill-opacity:0.3;fill:rgb(0,0,255);stroke:rgb(51,51,153);stroke-width:1"/></g>
<g fill-rule="evenodd"><path d="M 102.709,184.337 L 18.4396,184.671 L 25.0215,29.9813 L 88.8951,106.722 L 84.0473,119.707 L 35.7868,105.755 L 102.709,184.337 z " style="fill-opacity:0.3;fill:rgb(0,0,255);stroke:rgb(51,51,153);stroke-width:1"/></g>
<g fill-rule="evenodd"><path d="M 25.0215,29.9813 L 4.16917,4.9284 L 25.7605,12.6173 L 25.0215,29.9813 z " style="fill-opacity:0.3;fill:rgb(0,0,255);stroke:rgb(51,51,153);stroke-width:1"/></g>
<g fill-rule="evenodd"><path d="M 41.457,18.2069 L 25.7605,12.6173 L 26.141,3.67432 L 41.457,18.2069 z " style="fill-opacity:0.3;fill:rgb(0,0,255);stroke:rgb(51,51,153);stroke-width:1"/></g>
<g fill-rule="evenodd"><path d="M 181.437,151.028 L 182.785,148.25 L 183.477,148.45 L 190.059,159.21 L 181.437,151.028 z " style="fill-opacity:0.3;fill:rgb(0,0,255);stroke:rgb(51,51,153);stroke-width:1"/></g>
<g fill-rule="evenodd"><path d="M 280.671,204.434 L 251.931,148.316 L 269.855,124.376 L 294.002,141.864 L 280.671,204.434 z " style="fill-opacity:0.3;fill:rgb(0,0,255);stroke:rgb(51,51,153);stroke-width:1"/></g>
<g fill-rule="evenodd"><path d="M 280.671,204.434 L 295.666,233.712 L 276.843,222.403 L 280.671,204.434 z " style="fill-opacity:0.3;fill:rgb(0,0,255);stroke:rgb(51,51,153);stroke-width:1"/></g>
<g fill-rule="evenodd"><path d="M 198.932,238.925 L 198.628,238.56 L 199.057,237.898 L 198.932,238.925 z " style="fill-opacity:0.3;fill:rgb(0,0,255);stroke:rgb(51,51,153);stroke-width:1"/></g>
<g fill-rule="evenodd"><path d="M 251.197,254.407 L 256.202,253.353 L 261.497,213.183 L 276.843,222.403 L 263.956,282.893 L 253.004,265.402 L 251.197,254.407 z " style="fill-opacity:0.3;fill:rgb(0,0,255);stroke:rgb(51,51,153);stroke-width:1"/></g>
<g fill-rule="evenodd"><path d="M 245.839,221.818 L 242.546,201.797 L 255.663,209.678 L 245.839,221.818 z " style="fill-opacity:0.3;fill:rgb(0,0,255);stroke:rgb(51,51,153);stroke-width:1"/></g>
<g fill-rule="evenodd"><path d="M 261.497,213.183 L 255.663,209.678 L 263.185,200.383 L 261.497,213.183 z " style="fill-opacity:0.3;fill:rgb(0,0,255);stroke:rgb(51,51,153);stroke-width:1"/></g>
<g fill-rule="evenodd"><path d="M 259.088,116.578 L 295.831,89.6833 L 269.855,124.376 L 259.088,116.578 z " style="fill-opacity:0.3;fill:rgb(0,0,255);stroke:rgb(51,51,153);stroke-width:1"/></g>
</svg>
