<?xml version="1.0" standalone="no"?>
<!DOCTYPE svg PUBLIC "-//W3C//DTD SVG 1.1//EN"
"http://www.w3.org/Graphics/SVG/1.1/DTD/svg11.dtd">
<svg viewBox="0 0 300 300" version="1.1"
xmlns="http://www.w3.org/2000/svg"
xmlns:xlink="http://www.w3.org/1999/xlink">
<g fill-rule="evenodd"><path d="M 141.030,246.039 L 148.896,255.786 L 146.506,259.343 L 140.566,254.119 L 141.030,246.039 z " style="fill-opacity:0.3;fill:rgb(255,0,0);stroke:rgb(0,0,0);stroke-width:1"/></g>
<g fill-rule="evenodd"><path d="M 223.161,245.099 L 241.162,216.226 L 238.272,201.692 L 245.087,204.668 L 245.288,209.608 L 247.666,205.794 L 296.347,227.050 L 296.046,230.507 L 231.081,251.574 L 223.161,245.099 z " style="fill-opacity:0.3;fill:rgb(255,0,0);stroke:rgb(0,0,0);stroke-width:1"/></g>
<g fill-rule="evenodd"><path d="M 217.725,98.3665 L 207.165,70.3785 L 211.439,66.7540 L 217.725,98.3665 z " style="fill-opacity:0.3;fill:rgb(255,0,0);stroke:rgb(0,0,0);stroke-width:1"/></g>
<g fill-rule="evenodd"><path d="M 184.932,82.0159 L 188.702,86.0368 L 185.139,89.0580 L 184.932,82.0159 z " style="fill-opacity:0.3;fill:rgb(255,0,0);stroke:rgb(0,0,0);stroke-width:1"/></g>
<g fill-rule="evenodd"><path d="M 72.2630,60.1104 L 120.348,0 L 146.070,37.6181 L 149.535,44.2620 L 124.219,17.2611 L 149.140,62.2898 L 157.224,59.0046 L 163.959,71.9178 L 157.877,78.0766 L 170.721,101.286 L 150.912,118.086 L 179.780,139.365 L 177.705,141.085 L 187.010,152.613 L 187.805,179.657 L 161.433,168.142 L 175.521,182.403 L 153.931,188.498 L 179.862,209.699 L 171.648,221.924 L 141.804,232.559 L 143.777,198.180 L 138.473,192.863 L 116.713,199.006 L 121.372,209.505 L 124.138,210.452 L 122.025,210.977 L 132.995,235.698 L 123.478,239.089 L 98.2391,216.889 L 75.7780,222.471 L 96.4609,248.715 L 94.0508,249.574 L 66.9662,224.662 L 7.94868,239.330 L 24.9474,224.914 L 8.52428,229.550 L 28.5407,189.317 L 8.42363,170.813 L 33.4769,179.395 L 36.7093,172.898 L 44.9185,183.315 L 65.6316,190.410 L 66.9061,189.329 L 56.7930,180.434 L 56.5492,180.681 L 56.5602,180.229 L 40.2148,165.852 L 57.7694,130.567 L 57.9549,122.960 L 31.2982,111.320 L 42.4110,97.4283 L 20.8648,79.7062 L 42.4623,97.3639 L 59.0841,76.5855 L 59.2559,69.5269 L 61.2093,73.9288 L 64.4109,69.9266 L 83.2970,89.0449 L 101.488,81.6531 L 72.2630,60.1104M 69.7324,191.815 L 87.3370,207.300 L 102.466,203.028 L 69.7324,191.815 z " style="fill-opacity:0.3;fill:rgb(255,0,0);stroke:rgb(0,0,0);stroke-width:1"/></g>
<g fill-rule="evenodd"><path d="M 72.2630,60.1104 L 64.4109,69.9266 L 7.70007,12.5186 L 72.2630,60.1104 z " style="fill-opacity:0.3;fill:rgb(255,0,0);stroke:rgb(0,0,0);stroke-width:1"/></g>
<g fill-rule="evenodd"><path d="M 186.329,129.488 L 170.721,101.286 L 176.653,96.2557 L 185.871,113.932 L 186.329,129.488 z " style="fill-opacity:0.3;fill:rgb(255,0,0);stroke:rgb(0,0,0);stroke-width:1"/></g>
<g fill-rule="evenodd"><path d="M 186.329,129.488 L 188.018,132.540 L 186.457,133.834 L 186.329,129.488 z " style="fill-opacity:0.3;fill:rgb(255,0,0);stroke:rgb(0,0,0);stroke-width:1"/></g>
<g fill-rule="evenodd"><path d="M 188.018,132.540 L 193.296,128.168 L 211.226,162.545 L 200.075,154.325 L 188.018,132.540 z " style="fill-opacity:0.3;fill:rgb(255,0,0);stroke:rgb(0,0,0);stroke-width:1"/></g>
<g fill-rule="evenodd"><path d="M 200.075,154.325 L 207.750,168.194 L 204.041,173.714 L 187.010,152.613 L 186.771,144.519 L 200.075,154.325 z " style="fill-opacity:0.3;fill:rgb(255,0,0);stroke:rgb(0,0,0);stroke-width:1"/></g>
<g fill-rule="evenodd"><path d="M 206.139,40.1024 L 188.541,17.3703 L 202.307,20.8306 L 206.139,40.1024 z " style="fill-opacity:0.3;fill:rgb(0,255,0);stroke:rgb(0,0,0);stroke-width:1"/></g>
<g fill-rule="evenodd"><path d="M 216.095,256.434 L 190.278,297.844 L 178.697,287.658 L 194.616,263.399 L 216.095,256.434 z " style="fill-opacity:0.3;fill:rgb(0,255,0);stroke:rgb(0,0,0);stroke-width:1"/></g>
<g fill-rule="evenodd"><path d="M 99.9740,161.285 L 94.3635,148.642 L 103.767,158.069 L 99.9740,161.285 z " style="fill-opacity:0.3;fill:rgb(0,255,0);stroke:rgb(0,0,0);stroke-width:1"/></g>
<g fill-rule="evenodd"><path d="M 68.1009,212.730 L 75.7780,222.471 L 66.9662,224.662 L 57.3077,215.777 L 68.1009,212.730 z " style="fill-opacity:0.3;fill:rgb(0,255,0);stroke:rgb(0,0,0);stroke-width:1"/></g>
<g fill-rule="evenodd"><path d="M 68.1009,212.730 L 56.5681,198.097 L 65.6316,190.410 L 69.7324,191.815 L 66.9061,189.329 L 99.9740,161.285 L 116.713,199.006 L 102.466,203.028 L 121.372,209.505 L 122.025,210.977 L 98.2391,216.889 L 87.3370,207.300 L 68.1009,212.730 z " style="fill-opacity:0.3;fill:rgb(0,255,0);stroke:rgb(0,0,0);stroke-width:1"/></g>
<g fill-rule="evenodd"><path d="M 57.3077,215.777 L 24.9474,224.914 L 46.9518,206.252 L 57.3077,215.777 z " style="fill-opacity:0.3;fill:rgb(0,255,0);stroke:rgb(0,0,0);stroke-width:1"/></g>
<g fill-rule="evenodd"><path d="M 46.9518,206.252 L 28.5407,189.317 L 33.4769,179.395 L 44.9185,183.315 L 56.5681,198.097 L 46.9518,206.252 z " style="fill-opacity:0.3;fill:rgb(0,255,0);stroke:rgb(0,0,0);stroke-width:1"/></g>
<g fill-rule="evenodd"><path d="M 212.398,236.300 L 187.783,216.175 L 188.869,215.788 L 188.319,197.113 L 197.271,183.790 L 220.286,193.839 L 225.555,200.367 L 222.471,194.793 L 235.813,200.619 L 212.398,236.300 z " style="fill-opacity:0.3;fill:rgb(0,255,0);stroke:rgb(0,0,0);stroke-width:1"/></g>
<g fill-rule="evenodd"><path d="M 141.030,246.039 L 133.375,236.553 L 132.995,235.698 L 141.804,232.559 L 141.030,246.039 z " style="fill-opacity:0.3;fill:rgb(0,255,0);stroke:rgb(0,0,0);stroke-width:1"/></g>
<g fill-rule="evenodd"><path d="M 164.636,275.290 L 162.835,273.705 L 163.249,273.571 L 164.636,275.290 z " style="fill-opacity:0.3;fill:rgb(0,255,0);stroke:rgb(0,0,0);stroke-width:1"/></g>
</svg>
