<?xml version="1.0" standalone="no"?>
<!DOCTYPE svg PUBLIC "-//W3C//DTD SVG 1.1//EN"
"http://www.w3.org/Graphics/SVG/1.1/DTD/svg11.dtd">
<svg  version="1.1" xmlns="http://www.w3.org/2000/svg" xmlns:xlink="http://www.w3.org/1999/xlink" viewBox="0 0 0.978947 0.982452">
<g title="A - B (CGAL EPECK)" fill-rule="evenodd">
<path d="M 0.165549,0.614071 L 0.184348,0.595226 L 0.174399,0.575228 L 0.227362,0.552102 L 0.273866,0.505482 L 0.277761,0.509425 L 0.266383,0.535065 L 0.275944,0.53089 L 0.263847,0.54078 L 0.213597,0.654017 L 0.188079,0.602726 L 0.165718,0.621008 L 0.165549,0.614071 M 0.266383,0.535065 L 0.227362,0.552102 L 0.184348,0.595226 L 0.188079,0.602726 L 0.263847,0.54078 L 0.266383,0.535065 z" style="fill-opacity:0.3;fill:rgb(0,0,255);stroke:rgb(51,51,153);stroke-width:0.002456" />
<path d="M 0.512128,0.746746 L 0.553731,0.66698 L 0.581546,0.69057 L 0.583945,0.609048 L 0.60828,0.56239 L 0.67267,0.615734 L 0.703751,0.582584 L 0.693695,0.633152 L 0.67267,0.615734 L 0.593222,0.700472 L 0.653734,0.751791 L 0.573486,0.964476 L 0.577601,0.824642 L 0.504611,0.794983 L 0.531472,0.766334 L 0.512128,0.746746 M 0.593222,0.700472 L 0.581546,0.69057 L 0.580867,0.71365 L 0.593222,0.700472 M 0.596732,0.832416 L 0.577932,0.813379 L 0.577601,0.824642 L 0.596732,0.832416 M 0.580867,0.71365 L 0.531472,0.766334 L 0.577932,0.813379 L 0.580867,0.71365 z" style="fill-opacity:0.3;fill:rgb(0,0,255);stroke:rgb(51,51,153);stroke-width:0.002456" />
<path d="M 0.554435,0.0305345 L 0.560432,0.0396729 L 0.514348,0.0802066 L 0.554435,0.0305345 z" style="fill-opacity:0.3;fill:rgb(0,0,255);stroke:rgb(51,51,153);stroke-width:0.002456" />
<path d="M 0.563982,0.525691 L 0.586895,0.5088 L 0.585865,0.54382 L 0.563982,0.525691 z" style="fill-opacity:0.3;fill:rgb(0,0,255);stroke:rgb(51,51,153);stroke-width:0.002456" />
<path d="M 0.667742,0.76367 L 0.698077,0.789397 L 0.650372,0.851019 L 0.667742,0.76367 z" style="fill-opacity:0.3;fill:rgb(0,0,255);stroke:rgb(51,51,153);stroke-width:0.002456" />
<path d="M 0.726889,0.557906 L 0.734982,0.549274 L 0.766426,0.596071 L 0.76685,0.585662 L 0.947907,0.843755 L 0.697354,0.636183 L 0.726889,0.557906 z" style="fill-opacity:0.3;fill:rgb(0,0,255);stroke:rgb(51,51,153);stroke-width:0.002456" />
<path d="M 0.765157,0.273784 L 0.783278,0.182656 L 0.778679,0.295474 L 0.765157,0.273784 z" style="fill-opacity:0.3;fill:rgb(0,0,255);stroke:rgb(51,51,153);stroke-width:0.002456" />
</g></svg>