<?xml version="1.0" standalone="no"?>
<!DOCTYPE svg PUBLIC "-//W3C//DTD SVG 1.1//EN"
"http://www.w3.org/Graphics/SVG/1.1/DTD/svg11.dtd">
<svg  version="1.1" xmlns="http://www.w3.org/2000/svg" xmlns:xlink="http://www.w3.org/1999/xlink" viewBox="0 0 0.946023 0.976165">
<g title="A + B (CGAL Real)" fill-rule="evenodd">
<path d="M 0.06830,0.35569 L 0.12864,0.30019 L 0.05653,0.23902 L 0.16259,0.26897 L 0.19424,0.23985 L 0.22312,0.24703 L 0.19796,0.27895 L 0.26100,0.29675 L 0.29674,0.26532 L 0.37469,0.28470 L 0.37255,0.28953 L 0.31059,0.31075 L 0.35728,0.32393 L 0.30242,0.44756 L 0.31485,0.45810 L 0.28403,0.48900 L 0.30242,0.44756 L 0.19404,0.35565 L 0.20331,0.34750 L 0.18987,0.35211 L 0.16016,0.32691 L 0.12198,0.37536 L 0.08448,0.38821 L 0.06830,0.35569 M 0.19796,0.27895 L 0.16259,0.26897 L 0.12864,0.30019 L 0.16016,0.32691 L 0.19796,0.27895 M 0.31059,0.31075 L 0.26100,0.29675 L 0.20331,0.34750 L 0.31059,0.31075 z" style="fill-opacity:0.3;fill:rgb(0,0,255);stroke:rgb(51,51,153);stroke-width:0.002440" />
</g></svg>