<?xml version="1.0" standalone="no"?>
<!DOCTYPE svg PUBLIC "-//W3C//DTD SVG 1.1//EN"
"http://www.w3.org/Graphics/SVG/1.1/DTD/svg11.dtd">
<svg viewBox="0 0 300 300" version="1.1"
xmlns="http://www.w3.org/2000/svg"
xmlns:xlink="http://www.w3.org/1999/xlink">
<g fill-rule="evenodd"><path d="M 173.460,286.412 L 171.647,289.175 L 159.526,274.156 L 173.460,286.412 z " style="fill-opacity:0.3;fill:rgb(255,0,0);stroke:rgb(0,0,0);stroke-width:1"/></g>
<g fill-rule="evenodd"><path d="M 200.654,41.0971 L 215.078,59.7288 L 205.906,67.5075 L 200.654,41.0971 z " style="fill-opacity:0.3;fill:rgb(255,0,0);stroke:rgb(0,0,0);stroke-width:1"/></g>
<g fill-rule="evenodd"><path d="M 99.2077,157.996 L 105.504,152.656 L 148.918,188.150 L 133.600,192.475 L 99.2077,157.996 z " style="fill-opacity:0.3;fill:rgb(255,0,0);stroke:rgb(0,0,0);stroke-width:1"/></g>
<g fill-rule="evenodd"><path d="M 181.150,133.980 L 181.461,144.569 L 174.533,139.462 L 181.150,133.980 z " style="fill-opacity:0.3;fill:rgb(255,0,0);stroke:rgb(0,0,0);stroke-width:1"/></g>
<g fill-rule="evenodd"><path d="M 235.871,121.329 L 235.743,118.182 L 226.236,132.331 L 223.789,129.721 L 214.859,106.054 L 290.615,43.2934 L 235.871,121.329 z " style="fill-opacity:0.3;fill:rgb(255,0,0);stroke:rgb(0,0,0);stroke-width:1"/></g>
<g fill-rule="evenodd"><path d="M 239.448,209.069 L 240.839,243.180 L 235.360,215.627 L 239.448,209.069 z " style="fill-opacity:0.3;fill:rgb(255,0,0);stroke:rgb(0,0,0);stroke-width:1"/></g>
<g fill-rule="evenodd"><path d="M 230.059,200.160 L 231.766,197.558 L 232.496,201.224 L 230.059,200.160 z " style="fill-opacity:0.3;fill:rgb(255,0,0);stroke:rgb(0,0,0);stroke-width:1"/></g>
<g fill-rule="evenodd"><path d="M 110.514,121.575 L 127.262,104.616 L 145.926,118.374 L 124.937,136.176 L 110.514,121.575 z " style="fill-opacity:0.3;fill:rgb(255,0,0);stroke:rgb(0,0,0);stroke-width:1"/></g>
<g fill-rule="evenodd"><path d="M 110.514,121.575 L 92.3056,140.012 L 87.4437,137.890 L 91.2936,141.037 L 87.9931,144.380 L 89.8898,148.654 L 86.8154,145.572 L 52.6593,180.159 L 52.4286,179.956 L 53.6268,130.743 L 56.7411,124.484 L 53.8107,123.204 L 54.0653,112.739 L 43.1965,101.843 L 38.4075,97.9041 L 38.4583,97.8403 L 54.1164,110.642 L 54.9297,77.2500 L 57.0356,74.6174 L 68.5928,100.662 L 72.8751,92.0542 L 78.9234,89.5966 L 110.514,121.575M 84.5529,136.627 L 83.7861,134.899 L 60.8773,116.170 L 59.7492,118.437 L 72.7547,131.476 L 84.5529,136.627 z " style="fill-opacity:0.3;fill:rgb(255,0,0);stroke:rgb(0,0,0);stroke-width:1"/></g>
<g fill-rule="evenodd"><path d="M 124.937,136.176 L 156.352,167.978 L 110.860,148.114 L 124.937,136.176 z " style="fill-opacity:0.3;fill:rgb(255,0,0);stroke:rgb(0,0,0);stroke-width:1"/></g>
<g fill-rule="evenodd"><path d="M 178.651,49.0723 L 178.751,52.4777 L 164.704,66.7020 L 156.582,58.0399 L 178.651,49.0723 z " style="fill-opacity:0.3;fill:rgb(255,0,0);stroke:rgb(0,0,0);stroke-width:1"/></g>
<g fill-rule="evenodd"><path d="M 178.651,49.0723 L 177.407,6.79285 L 201.670,71.0992 L 183.374,86.6157 L 207.396,112.237 L 187.927,128.365 L 180.569,114.258 L 179.844,89.6096 L 171.434,96.7422 L 158.855,72.6245 L 164.704,66.7020 L 179.639,82.6313 L 178.751,52.4777 L 184.435,46.7218 L 178.651,49.0723 z " style="fill-opacity:0.3;fill:rgb(255,0,0);stroke:rgb(0,0,0);stroke-width:1"/></g>
<g fill-rule="evenodd"><path d="M 127.262,104.616 L 96.9494,82.2718 L 144.170,63.0837 L 152.828,78.7276 L 127.262,104.616 z " style="fill-opacity:0.3;fill:rgb(255,0,0);stroke:rgb(0,0,0);stroke-width:1"/></g>
<g fill-rule="evenodd"><path d="M 207.396,112.237 L 213.753,106.970 L 216.793,122.260 L 207.396,112.237 z " style="fill-opacity:0.3;fill:rgb(255,0,0);stroke:rgb(0,0,0);stroke-width:1"/></g>
<g fill-rule="evenodd"><path d="M 179.639,82.6313 L 183.374,86.6157 L 179.844,89.6096 L 179.639,82.6313 z " style="fill-opacity:0.3;fill:rgb(0,255,0);stroke:rgb(0,0,0);stroke-width:1"/></g>
<g fill-rule="evenodd"><path d="M 200.654,41.0971 L 183.215,18.5708 L 196.856,21.9998 L 200.654,41.0971 z " style="fill-opacity:0.3;fill:rgb(0,255,0);stroke:rgb(0,0,0);stroke-width:1"/></g>
<g fill-rule="evenodd"><path d="M 166.474,221.273 L 182.464,215.576 L 206.856,235.519 L 189.234,262.373 L 158.152,272.452 L 143.928,254.828 L 166.474,221.273 z " style="fill-opacity:0.3;fill:rgb(0,255,0);stroke:rgb(0,0,0);stroke-width:1"/></g>
<g fill-rule="evenodd"><path d="M 166.474,221.273 L 136.901,231.811 L 138.856,197.744 L 133.600,192.475 L 112.037,198.563 L 95.4495,161.183 L 62.6809,188.973 L 52.6593,180.159 L 52.4177,180.403 L 52.4286,179.956 L 36.2312,165.709 L 53.6268,130.743 L 53.8107,123.204 L 27.3953,111.670 L 38.4075,97.9041 L 17.0563,80.3425 L 38.4583,97.8403 L 54.9297,77.2500 L 55.0999,70.2553 L 57.0356,74.6174 L 60.2082,70.6514 L 78.9234,89.5966 L 96.9494,82.2718 L 67.9893,60.9240 L 115.639,1.35772 L 141.128,38.6353 L 144.562,45.2191 L 119.475,18.4625 L 144.170,63.0837 L 152.181,59.8283 L 158.855,72.6245 L 152.828,78.7276 L 165.556,101.727 L 145.926,118.374 L 174.533,139.462 L 172.476,141.166 L 181.697,152.589 L 182.486,179.388 L 156.352,167.978 L 170.313,182.110 L 148.918,188.150 L 174.614,209.159 L 166.474,221.273M 110.860,148.114 L 92.3056,140.012 L 91.2936,141.037 L 105.504,152.656 L 110.860,148.114M 86.8154,145.572 L 87.9931,144.380 L 84.5529,136.627 L 87.4437,137.890 L 83.7861,134.899 L 68.5928,100.662 L 60.8773,116.170 L 54.1164,110.642 L 54.0653,112.739 L 59.7492,118.437 L 56.7411,124.484 L 72.7547,131.476 L 86.8154,145.572M 95.4495,161.183 L 99.2077,157.996 L 89.8898,148.654 L 95.4495,161.183 z " style="fill-opacity:0.3;fill:rgb(0,255,0);stroke:rgb(0,0,0);stroke-width:1"/></g>
<g fill-rule="evenodd"><path d="M 152.181,59.8283 L 144.562,45.2191 L 156.582,58.0399 L 152.181,59.8283 z " style="fill-opacity:0.3;fill:rgb(0,255,0);stroke:rgb(0,0,0);stroke-width:1"/></g>
<g fill-rule="evenodd"><path d="M 143.928,254.828 L 141.560,258.353 L 135.674,253.176 L 136.134,245.170 L 143.928,254.828 z " style="fill-opacity:0.3;fill:rgb(0,255,0);stroke:rgb(0,0,0);stroke-width:1"/></g>
<g fill-rule="evenodd"><path d="M 157.741,272.586 L 120.900,284.533 L 91.9681,247.822 L 118.741,238.282 L 135.674,253.176 L 134.800,268.414 L 141.560,258.353 L 157.741,272.586 z " style="fill-opacity:0.3;fill:rgb(0,255,0);stroke:rgb(0,0,0);stroke-width:1"/></g>
<g fill-rule="evenodd"><path d="M 157.741,272.586 L 158.152,272.452 L 159.526,274.156 L 157.741,272.586 z " style="fill-opacity:0.3;fill:rgb(0,255,0);stroke:rgb(0,0,0);stroke-width:1"/></g>
<g fill-rule="evenodd"><path d="M 174.614,209.159 L 182.995,196.686 L 183.540,215.193 L 182.464,215.576 L 174.614,209.159 z " style="fill-opacity:0.3;fill:rgb(0,255,0);stroke:rgb(0,0,0);stroke-width:1"/></g>
<g fill-rule="evenodd"><path d="M 91.9681,247.822 L 89.5798,248.673 L 62.7404,223.986 L 71.4724,221.815 L 91.9681,247.822 z " style="fill-opacity:0.3;fill:rgb(0,255,0);stroke:rgb(0,0,0);stroke-width:1"/></g>
<g fill-rule="evenodd"><path d="M 118.741,238.282 L 93.7303,216.284 L 117.301,210.425 L 128.171,234.922 L 118.741,238.282 z " style="fill-opacity:0.3;fill:rgb(0,255,0);stroke:rgb(0,0,0);stroke-width:1"/></g>
<g fill-rule="evenodd"><path d="M 32.7574,172.691 L 6.97303,139.974 L 36.2312,165.709 L 32.7574,172.691 z " style="fill-opacity:0.3;fill:rgb(0,255,0);stroke:rgb(0,0,0);stroke-width:1"/></g>
<g fill-rule="evenodd"><path d="M 32.7574,172.691 L 40.8923,183.013 L 29.5542,179.129 L 32.7574,172.691 z " style="fill-opacity:0.3;fill:rgb(0,255,0);stroke:rgb(0,0,0);stroke-width:1"/></g>
<g fill-rule="evenodd"><path d="M 202.250,168.029 L 220.495,140.876 L 231.766,197.558 L 238.557,187.210 L 239.248,204.173 L 232.496,201.224 L 235.360,215.627 L 217.522,244.239 L 206.856,235.519 L 230.059,200.160 L 216.837,194.388 L 202.250,168.029 z " style="fill-opacity:0.3;fill:rgb(0,255,0);stroke:rgb(0,0,0);stroke-width:1"/></g>
<g fill-rule="evenodd"><path d="M 202.250,168.029 L 198.575,173.499 L 181.697,152.589 L 181.461,144.569 L 194.644,154.286 L 202.250,168.029 z " style="fill-opacity:0.3;fill:rgb(0,255,0);stroke:rgb(0,0,0);stroke-width:1"/></g>
<g fill-rule="evenodd"><path d="M 182.486,179.388 L 191.866,183.484 L 182.995,196.686 L 182.486,179.388 z " style="fill-opacity:0.3;fill:rgb(0,255,0);stroke:rgb(0,0,0);stroke-width:1"/></g>
<g fill-rule="evenodd"><path d="M 189.234,262.373 L 210.519,255.471 L 184.936,296.506 L 173.460,286.412 L 189.234,262.373 z " style="fill-opacity:0.3;fill:rgb(0,255,0);stroke:rgb(0,0,0);stroke-width:1"/></g>
<g fill-rule="evenodd"><path d="M 198.575,173.499 L 214.673,193.442 L 191.866,183.484 L 198.575,173.499 z " style="fill-opacity:0.3;fill:rgb(0,255,0);stroke:rgb(0,0,0);stroke-width:1"/></g>
<g fill-rule="evenodd"><path d="M 210.519,255.471 L 217.522,244.239 L 225.369,250.655 L 210.519,255.471 z " style="fill-opacity:0.3;fill:rgb(0,255,0);stroke:rgb(0,0,0);stroke-width:1"/></g>
<g fill-rule="evenodd"><path d="M 212.135,98.8339 L 214.859,106.054 L 213.753,106.970 L 212.135,98.8339 z " style="fill-opacity:0.3;fill:rgb(0,255,0);stroke:rgb(0,0,0);stroke-width:1"/></g>
<g fill-rule="evenodd"><path d="M 212.135,98.8339 L 201.670,71.0992 L 205.906,67.5075 L 212.135,98.8339 z " style="fill-opacity:0.3;fill:rgb(0,255,0);stroke:rgb(0,0,0);stroke-width:1"/></g>
<g fill-rule="evenodd"><path d="M 238.557,187.210 L 236.779,143.575 L 254.669,162.657 L 238.557,187.210 z " style="fill-opacity:0.3;fill:rgb(0,255,0);stroke:rgb(0,0,0);stroke-width:1"/></g>
<g fill-rule="evenodd"><path d="M 290.045,226.353 L 241.805,205.289 L 300.000,111.944 L 290.045,226.353 z " style="fill-opacity:0.3;fill:rgb(0,255,0);stroke:rgb(0,0,0);stroke-width:1"/></g>
<g fill-rule="evenodd"><path d="M 290.045,226.353 L 294.420,228.263 L 289.747,229.778 L 290.045,226.353 z " style="fill-opacity:0.3;fill:rgb(0,255,0);stroke:rgb(0,0,0);stroke-width:1"/></g>
<g fill-rule="evenodd"><path d="M 216.837,194.388 L 219.894,199.911 L 214.673,193.442 L 216.837,194.388 z " style="fill-opacity:0.3;fill:rgb(0,255,0);stroke:rgb(0,0,0);stroke-width:1"/></g>
<g fill-rule="evenodd"><path d="M 236.779,143.575 L 227.333,133.501 L 235.871,121.329 L 236.779,143.575 z " style="fill-opacity:0.3;fill:rgb(0,255,0);stroke:rgb(0,0,0);stroke-width:1"/></g>
<g fill-rule="evenodd"><path d="M 225.369,250.655 L 289.747,229.778 L 283.776,298.407 L 225.369,250.655 z " style="fill-opacity:0.3;fill:rgb(0,255,0);stroke:rgb(0,0,0);stroke-width:1"/></g>
<g fill-rule="evenodd"><path d="M 241.805,205.289 L 239.448,209.069 L 239.248,204.173 L 241.805,205.289 z " style="fill-opacity:0.3;fill:rgb(0,255,0);stroke:rgb(0,0,0);stroke-width:1"/></g>
<g fill-rule="evenodd"><path d="M 225.300,133.725 L 220.495,140.876 L 216.793,122.260 L 223.789,129.721 L 225.300,133.725 z " style="fill-opacity:0.3;fill:rgb(0,255,0);stroke:rgb(0,0,0);stroke-width:1"/></g>
<g fill-rule="evenodd"><path d="M 225.300,133.725 L 226.236,132.331 L 227.333,133.501 L 225.956,135.464 L 225.300,133.725 z " style="fill-opacity:0.3;fill:rgb(0,255,0);stroke:rgb(0,0,0);stroke-width:1"/></g>
<g fill-rule="evenodd"><path d="M 93.7303,216.284 L 71.4724,221.815 L 63.8649,212.162 L 82.9268,206.781 L 93.7303,216.284 z " style="fill-opacity:0.3;fill:rgb(0,255,0);stroke:rgb(0,0,0);stroke-width:1"/></g>
<g fill-rule="evenodd"><path d="M 97.9191,202.548 L 112.037,198.563 L 116.653,208.966 L 97.9191,202.548 z " style="fill-opacity:0.3;fill:rgb(0,255,0);stroke:rgb(0,0,0);stroke-width:1"/></g>
<g fill-rule="evenodd"><path d="M 97.9191,202.548 L 82.9268,206.781 L 65.4816,191.437 L 97.9191,202.548 z " style="fill-opacity:0.3;fill:rgb(0,255,0);stroke:rgb(0,0,0);stroke-width:1"/></g>
<g fill-rule="evenodd"><path d="M 117.301,210.425 L 116.653,208.966 L 119.394,209.905 L 117.301,210.425 z " style="fill-opacity:0.3;fill:rgb(0,255,0);stroke:rgb(0,0,0);stroke-width:1"/></g>
<g fill-rule="evenodd"><path d="M 53.1694,215.182 L 42.9072,205.743 L 52.4365,197.662 L 63.8649,212.162 L 53.1694,215.182 z " style="fill-opacity:0.3;fill:rgb(0,255,0);stroke:rgb(0,0,0);stroke-width:1"/></g>
<g fill-rule="evenodd"><path d="M 53.1694,215.182 L 62.7404,223.986 L 4.25709,238.521 L 21.1019,224.236 L 53.1694,215.182 z " style="fill-opacity:0.3;fill:rgb(0,255,0);stroke:rgb(0,0,0);stroke-width:1"/></g>
<g fill-rule="evenodd"><path d="M 52.4365,197.662 L 40.8923,183.013 L 61.4179,190.045 L 52.4365,197.662 z " style="fill-opacity:0.3;fill:rgb(0,255,0);stroke:rgb(0,0,0);stroke-width:1"/></g>
<g fill-rule="evenodd"><path d="M 61.4179,190.045 L 62.6809,188.973 L 65.4816,191.437 L 61.4179,190.045 z " style="fill-opacity:0.3;fill:rgb(0,255,0);stroke:rgb(0,0,0);stroke-width:1"/></g>
<g fill-rule="evenodd"><path d="M 21.1019,224.236 L 4.82749,228.830 L 24.6627,188.961 L 42.9072,205.743 L 21.1019,224.236 z " style="fill-opacity:0.3;fill:rgb(0,255,0);stroke:rgb(0,0,0);stroke-width:1"/></g>
<g fill-rule="evenodd"><path d="M 24.6627,188.961 L 4.72774,170.625 L 29.5542,179.129 L 24.6627,188.961 z " style="fill-opacity:0.3;fill:rgb(0,255,0);stroke:rgb(0,0,0);stroke-width:1"/></g>
<g fill-rule="evenodd"><path d="M 67.9893,60.9240 L 60.2082,70.6514 L 4.01074,13.7630 L 67.9893,60.9240 z " style="fill-opacity:0.3;fill:rgb(0,255,0);stroke:rgb(0,0,0);stroke-width:1"/></g>
<g fill-rule="evenodd"><path d="M 194.644,154.286 L 182.697,132.699 L 187.927,128.365 L 205.694,162.432 L 194.644,154.286 z " style="fill-opacity:0.3;fill:rgb(0,255,0);stroke:rgb(0,0,0);stroke-width:1"/></g>
<g fill-rule="evenodd"><path d="M 182.697,132.699 L 181.150,133.980 L 181.023,129.674 L 182.697,132.699 z " style="fill-opacity:0.3;fill:rgb(0,255,0);stroke:rgb(0,0,0);stroke-width:1"/></g>
<g fill-rule="evenodd"><path d="M 136.901,231.811 L 136.134,245.170 L 128.548,235.770 L 128.171,234.922 L 136.901,231.811 z " style="fill-opacity:0.3;fill:rgb(0,255,0);stroke:rgb(0,0,0);stroke-width:1"/></g>
<g fill-rule="evenodd"><path d="M 165.556,101.727 L 171.434,96.7422 L 180.569,114.258 L 181.023,129.674 L 165.556,101.727 z " style="fill-opacity:0.3;fill:rgb(0,255,0);stroke:rgb(0,0,0);stroke-width:1"/></g>
</svg>
