<?xml version="1.0" standalone="no"?>
<!DOCTYPE svg PUBLIC "-//W3C//DTD SVG 1.1//EN"
"http://www.w3.org/Graphics/SVG/1.1/DTD/svg11.dtd">
<svg  version="1.1" xmlns="http://www.w3.org/2000/svg" xmlns:xlink="http://www.w3.org/1999/xlink" viewBox="0 0 0.978947 0.982452">
<g title="A + B (CGAL EPECK)" fill-rule="evenodd">
<path d="M 0.113763,0.663137 L 0.129602,0.650109 L 0.165549,0.614071 L 0.164707,0.57946 L 0.174399,0.575228 L 0.164099,0.554527 L 0.160136,0.391762 L 0.160899,0.391091 L 0.273866,0.505482 L 0.284034,0.495288 L 0.277761,0.509425 L 0.288677,0.520479 L 0.275944,0.53089 L 0.292024,0.523869 L 0.352245,0.584848 L 0.399947,0.536559 L 0.353389,0.497074 L 0.503851,0.431377 L 0.399947,0.536559 L 0.469368,0.595434 L 0.407637,0.640938 L 0.492194,0.726561 L 0.463559,0.778301 L 0.307383,0.714839 L 0.407637,0.640938 L 0.352245,0.584848 L 0.247764,0.690613 L 0.22776,0.682485 L 0.213597,0.654017 L 0.175373,0.740155 L 0.168408,0.731448 L 0.165718,0.621008 L 0.113931,0.663348 L 0.113763,0.663137 M 0.165718,0.621008 L 0.188079,0.602726 L 0.213597,0.654017 L 0.263847,0.54078 L 0.275944,0.53089 L 0.266383,0.535065 L 0.277761,0.509425 L 0.273866,0.505482 L 0.227362,0.552102 L 0.174399,0.575228 L 0.184348,0.595226 L 0.165549,0.614071 L 0.165718,0.621008 z" style="fill-opacity:0.3;fill:rgb(0,0,255);stroke:rgb(51,51,153);stroke-width:0.002456" />
<path d="M 0.314852,0.464392 L 0.4286,0.350357 L 0.479263,0.364661 L 0.335677,0.482053 L 0.314852,0.464392 z" style="fill-opacity:0.3;fill:rgb(0,0,255);stroke:rgb(51,51,153);stroke-width:0.002456" />
<path d="M 0.581546,0.69057 L 0.593222,0.700472 L 0.580867,0.71365 L 0.581546,0.69057 z" style="fill-opacity:0.3;fill:rgb(0,0,255);stroke:rgb(51,51,153);stroke-width:0.002456" />
<path d="M 0.747625,0.324937 L 0.755685,0.321418 L 0.753273,0.333545 L 0.747625,0.324937 z" style="fill-opacity:0.3;fill:rgb(0,0,255);stroke:rgb(51,51,153);stroke-width:0.002456" />
</g></svg>