<?xml version="1.0" standalone="no"?>
<!DOCTYPE svg PUBLIC "-//W3C//DTD SVG 1.1//EN"
"http://www.w3.org/Graphics/SVG/1.1/DTD/svg11.dtd">
<svg  version="1.1" xmlns="http://www.w3.org/2000/svg" xmlns:xlink="http://www.w3.org/1999/xlink" viewBox="0 0 0.978947 0.982452">
<g title="A + B (CGAL Real)" fill-rule="evenodd">
<path d="M 0.11376,0.66314 L 0.12960,0.65011 L 0.16555,0.61407 L 0.16471,0.57946 L 0.17440,0.57523 L 0.16410,0.55453 L 0.16014,0.39176 L 0.16090,0.39109 L 0.27387,0.50548 L 0.28403,0.49529 L 0.27776,0.50943 L 0.28868,0.52048 L 0.27594,0.53089 L 0.29202,0.52387 L 0.35224,0.58485 L 0.39995,0.53656 L 0.35339,0.49707 L 0.50385,0.43138 L 0.39995,0.53656 L 0.46937,0.59543 L 0.40764,0.64094 L 0.49219,0.72656 L 0.46356,0.77830 L 0.30738,0.71484 L 0.40764,0.64094 L 0.35224,0.58485 L 0.24776,0.69061 L 0.22776,0.68249 L 0.21360,0.65402 L 0.17537,0.74016 L 0.16841,0.73145 L 0.16572,0.62101 L 0.11393,0.66335 L 0.11376,0.66314 M 0.16572,0.62101 L 0.18808,0.60273 L 0.21360,0.65402 L 0.26385,0.54078 L 0.27594,0.53089 L 0.26638,0.53507 L 0.27776,0.50943 L 0.27387,0.50548 L 0.22736,0.55210 L 0.17440,0.57523 L 0.18435,0.59523 L 0.16555,0.61407 L 0.16572,0.62101 z" style="fill-opacity:0.3;fill:rgb(0,0,255);stroke:rgb(51,51,153);stroke-width:0.002456" />
<path d="M 0.31485,0.46439 L 0.42860,0.35036 L 0.47926,0.36466 L 0.33568,0.48205 L 0.31485,0.46439 z" style="fill-opacity:0.3;fill:rgb(0,0,255);stroke:rgb(51,51,153);stroke-width:0.002456" />
<path d="M 0.58155,0.69057 L 0.59322,0.70047 L 0.58087,0.71365 L 0.58155,0.69057 z" style="fill-opacity:0.3;fill:rgb(0,0,255);stroke:rgb(51,51,153);stroke-width:0.002456" />
<path d="M 0.74762,0.32494 L 0.75568,0.32142 L 0.75327,0.33355 L 0.74762,0.32494 z" style="fill-opacity:0.3;fill:rgb(0,0,255);stroke:rgb(51,51,153);stroke-width:0.002456" />
</g></svg>