<?xml version="1.0" standalone="no"?>
<!DOCTYPE svg PUBLIC "-//W3C//DTD SVG 1.1//EN"
"http://www.w3.org/Graphics/SVG/1.1/DTD/svg11.dtd">
<svg  version="1.1" xmlns="http://www.w3.org/2000/svg" xmlns:xlink="http://www.w3.org/1999/xlink" viewBox="0 0 0.946023 0.976165">
<g title="A - B (CGAL EPECK)" fill-rule="evenodd">
<path d="M 0.0008148,0.191776 L 0.194241,0.239851 L 0.283009,0.158201 L 0.290908,0.161016 L 0.223121,0.247029 L 0.296736,0.265325 L 0.379456,0.192567 L 0.410646,0.203681 L 0.374693,0.284701 L 0.381617,0.286422 L 0.372551,0.289527 L 0.357283,0.323935 L 0.4286,0.34407 L 0.445984,0.326643 L 0.439517,0.213969 L 0.537328,0.248822 L 0.56425,0.28889 L 0.479263,0.358374 L 0.550023,0.378351 L 0.503851,0.42509 L 0.590284,0.387351 L 0.587676,0.475986 L 0.643496,0.40683 L 0.655651,0.42492 L 0.630496,0.470374 L 0.667043,0.443433 L 0.60828,0.556103 L 0.590982,0.541772 L 0.585446,0.551775 L 0.583945,0.602761 L 0.553731,0.660693 L 0.534291,0.644207 L 0.492194,0.720274 L 0.512128,0.740459 L 0.490055,0.782781 L 0.463559,0.772014 L 0.381885,0.919593 L 0.464855,0.831099 L 0.453498,0.852874 L 0.369197,0.976165 L 0.211601,0.779157 L -0,0.935136 L 0.185866,0.746985 L 0.175373,0.733868 L 0.168971,0.748295 L 0.168408,0.725161 L 0.113931,0.657061 L 0.0431466,0.714933 L 0.113763,0.65685 L 0.0773414,0.61132 L 0.164707,0.573173 L 0.164099,0.54824 L 0.106565,0.432595 L 0.160136,0.385475 L 0.1601,0.383995 L 0.160899,0.384804 L 0.194044,0.35565 L 0.189867,0.352107 L 0.121981,0.375362 L 0.095076,0.409502 L 0.0844818,0.388208 L 0.0023714,0.416335 L 0.0683038,0.35569 L 0.0027013,0.223828 L 0.056527,0.239024 L 0.0008148,0.191776 M 0.223121,0.247029 L 0.194241,0.239851 L 0.162586,0.268968 L 0.19796,0.278955 L 0.223121,0.247029 M 0.189867,0.352107 L 0.203307,0.347503 L 0.194044,0.35565 L 0.302422,0.447563 L 0.357283,0.323935 L 0.31059,0.310753 L 0.372551,0.289527 L 0.374693,0.284701 L 0.296736,0.265325 L 0.261005,0.296754 L 0.19796,0.278955 L 0.160162,0.326915 L 0.189867,0.352107 M 0.160162,0.326915 L 0.128645,0.300187 L 0.0683038,0.35569 L 0.0844818,0.388208 L 0.121981,0.375362 L 0.160162,0.326915 M 0.162586,0.268968 L 0.056527,0.239024 L 0.128645,0.300187 L 0.162586,0.268968 M 0.630496,0.470374 L 0.586895,0.502513 L 0.587676,0.475986 L 0.557179,0.513768 L 0.563982,0.519404 L 0.469368,0.589147 L 0.534291,0.644207 L 0.585446,0.551775 L 0.585865,0.537533 L 0.590982,0.541772 L 0.630496,0.470374 M 0.307383,0.708552 L 0.247764,0.684326 L 0.185866,0.746985 L 0.211601,0.779157 L 0.307383,0.708552 M 0.314852,0.458105 L 0.302422,0.447563 L 0.284034,0.489001 L 0.314852,0.458105 z" style="fill-opacity:0.3;fill:rgb(0,0,255);stroke:rgb(51,51,153);stroke-width:0.002440" />
<path d="M 0.435461,0.143307 L 0.454927,0.126185 L 0.46276,0.137843 L 0.436981,0.169787 L 0.435461,0.143307 z" style="fill-opacity:0.3;fill:rgb(0,0,255);stroke:rgb(51,51,153);stroke-width:0.002440" />
<path d="M 0.581546,0.684283 L 0.593222,0.694185 L 0.580867,0.707363 L 0.581546,0.684283 z" style="fill-opacity:0.3;fill:rgb(0,0,255);stroke:rgb(51,51,153);stroke-width:0.002440" />
<path d="M 0.653734,0.745504 L 0.688344,0.653775 L 0.667742,0.757383 L 0.653734,0.745504 z" style="fill-opacity:0.3;fill:rgb(0,0,255);stroke:rgb(51,51,153);stroke-width:0.002440" />
<path d="M 0.732116,0.151646 L 0.945037,0.220694 L 0.946023,0.232022 L 0.786473,0.301688 L 0.778679,0.289187 L 0.778019,0.305379 L 0.755685,0.315131 L 0.765157,0.267497 L 0.70616,0.172867 L 0.732116,0.151646 z" style="fill-opacity:0.3;fill:rgb(0,0,255);stroke:rgb(51,51,153);stroke-width:0.002440" />
</g></svg>