<?xml version="1.0" standalone="no"?>
<!DOCTYPE svg PUBLIC "-//W3C//DTD SVG 1.1//EN"
"http://www.w3.org/Graphics/SVG/1.1/DTD/svg11.dtd">
<svg viewBox="0 0 300 300" version="1.1"
xmlns="http://www.w3.org/2000/svg"
xmlns:xlink="http://www.w3.org/1999/xlink">
<g fill-rule="evenodd"><path d="M 108.445,148.214 L 122.662,136.157 L 154.39,168.275 L 108.445,148.214 z " style="fill-opacity:0.3;fill:rgb(0,0,255);stroke:rgb(51,51,153);stroke-width:1"/></g>
<g fill-rule="evenodd"><path d="M 150.831,78.1385 L 125.011,104.284 L 94.3971,81.7179 L 142.087,62.3392 L 150.831,78.1385 z " style="fill-opacity:0.3;fill:rgb(0,0,255);stroke:rgb(51,51,153);stroke-width:1"/></g>
<g fill-rule="evenodd"><path d="M 146.882,188.648 L 131.412,193.015 L 96.6779,158.194 L 103.037,152.801 L 146.882,188.648 z " style="fill-opacity:0.3;fill:rgb(0,0,255);stroke:rgb(51,51,153);stroke-width:1"/></g>
<g fill-rule="evenodd"><path d="M 143.861,118.179 L 122.662,136.157 L 108.096,121.412 L 125.011,104.284 L 143.861,118.179 z " style="fill-opacity:0.3;fill:rgb(0,0,255);stroke:rgb(51,51,153);stroke-width:1"/></g>
<g fill-rule="evenodd"><path d="M 50.6442,130.67 L 53.7894,124.349 L 69.9621,131.411 L 84.1624,145.647 L 49.667,180.577 L 49.434,180.372 L 50.6442,130.67 z " style="fill-opacity:0.3;fill:rgb(0,0,255);stroke:rgb(51,51,153);stroke-width:1"/></g>
<g fill-rule="evenodd"><path d="M 53.7894,124.349 L 50.8298,123.057 L 51.0869,112.488 L 56.8274,118.243 L 53.7894,124.349 z " style="fill-opacity:0.3;fill:rgb(0,0,255);stroke:rgb(51,51,153);stroke-width:1"/></g>
<g fill-rule="evenodd"><path d="M 87.2673,148.76 L 84.1624,145.647 L 85.3518,144.443 L 87.2673,148.76 z " style="fill-opacity:0.3;fill:rgb(0,0,255);stroke:rgb(51,51,153);stroke-width:1"/></g>
<g fill-rule="evenodd"><path d="M 76.192,89.1155 L 108.096,121.412 L 89.7071,140.032 L 84.797,137.888 L 81.1031,134.868 L 65.7588,100.29 L 70.0836,91.5974 L 76.192,89.1155 z " style="fill-opacity:0.3;fill:rgb(0,0,255);stroke:rgb(51,51,153);stroke-width:1"/></g>
<g fill-rule="evenodd"><path d="M 57.9667,115.953 L 51.1386,110.37 L 51.96,76.6462 L 54.0868,73.9874 L 65.7588,100.29 L 57.9667,115.953 z " style="fill-opacity:0.3;fill:rgb(0,0,255);stroke:rgb(51,51,153);stroke-width:1"/></g>
<g fill-rule="evenodd"><path d="M 81.8775,136.613 L 84.797,137.888 L 88.6851,141.067 L 85.3518,144.443 L 81.8775,136.613 z " style="fill-opacity:0.3;fill:rgb(0,0,255);stroke:rgb(51,51,153);stroke-width:1"/></g>
<g fill-rule="evenodd"><path d="M 51.0869,112.488 L 40.1102,101.484 L 35.2737,97.5055 L 35.325,97.4411 L 51.1386,110.37 L 51.0869,112.488 z " style="fill-opacity:0.3;fill:rgb(0,0,255);stroke:rgb(51,51,153);stroke-width:1"/></g>
<g fill-rule="evenodd"><path d="M 230.553,198.149 L 231.29,201.852 L 228.829,200.778 L 230.553,198.149 z " style="fill-opacity:0.3;fill:rgb(0,0,255);stroke:rgb(51,51,153);stroke-width:1"/></g>
<g fill-rule="evenodd"><path d="M 181.68,86.1049 L 178.115,89.1286 L 177.908,82.0809 L 181.68,86.1049 z " style="fill-opacity:0.3;fill:rgb(0,0,255);stroke:rgb(51,51,153);stroke-width:1"/></g>
</svg>
