<?xml version="1.0" standalone="no"?>
<!DOCTYPE svg PUBLIC "-//W3C//DTD SVG 1.1//EN"
"http://www.w3.org/Graphics/SVG/1.1/DTD/svg11.dtd">
<svg viewBox="0 0 300 300" version="1.1"
xmlns="http://www.w3.org/2000/svg"
xmlns:xlink="http://www.w3.org/1999/xlink">
<g fill-rule="evenodd"><path d="M 166.866,184.082 L 167.334,183.739 L 167.525,184.08 L 166.866,184.082 z " style="fill-opacity:0.3;fill:rgb(0,0,255);stroke:rgb(51,51,153);stroke-width:1"/></g>
<g fill-rule="evenodd"><path d="M 166.387,182.049 L 165.398,184.088 L 165.371,184.089 L 161.823,179.682 L 158.11,168.073 L 158.188,167.429 L 166.387,182.049 z " style="fill-opacity:0.3;fill:rgb(0,0,255);stroke:rgb(51,51,153);stroke-width:1"/></g>
<g fill-rule="evenodd"><path d="M 121.431,53.3824 L 120.99,52.0045 L 165.57,66.9889 L 121.431,53.3824 z " style="fill-opacity:0.3;fill:rgb(0,0,255);stroke:rgb(51,51,153);stroke-width:1"/></g>
<g fill-rule="evenodd"><path d="M 222.789,160.944 L 215.286,154.558 L 217.07,151.156 L 222.789,160.944 z " style="fill-opacity:0.3;fill:rgb(0,0,255);stroke:rgb(51,51,153);stroke-width:1"/></g>
<g fill-rule="evenodd"><path d="M 219.188,206.826 L 213.958,198.276 L 216.971,195.731 L 224.586,191.005 L 228.079,193.104 L 219.188,206.826 z " style="fill-opacity:0.3;fill:rgb(0,0,255);stroke:rgb(51,51,153);stroke-width:1"/></g>
<g fill-rule="evenodd"><path d="M 144.175,124.498 L 141.324,115.585 L 143.255,114.799 L 162.345,132.912 L 161.736,137.965 L 144.175,124.498 z " style="fill-opacity:0.3;fill:rgb(0,0,255);stroke:rgb(51,51,153);stroke-width:1"/></g>
<g fill-rule="evenodd"><path d="M 153.396,158.883 L 154.974,158.265 L 157.466,166.059 L 157.423,166.065 L 153.396,158.883 z " style="fill-opacity:0.3;fill:rgb(0,0,255);stroke:rgb(51,51,153);stroke-width:1"/></g>
<g fill-rule="evenodd"><path d="M 153.396,158.883 L 152.29,159.315 L 153.112,158.376 L 153.396,158.883 z " style="fill-opacity:0.3;fill:rgb(0,0,255);stroke:rgb(51,51,153);stroke-width:1"/></g>
<g fill-rule="evenodd"><path d="M 153.138,209.358 L 150.822,214.131 L 141.982,202.296 L 155.149,192.659 L 153.138,209.358 z " style="fill-opacity:0.3;fill:rgb(0,0,255);stroke:rgb(51,51,153);stroke-width:1"/></g>
<g fill-rule="evenodd"><path d="M 141.324,115.585 L 135.595,117.919 L 126.525,110.964 L 112.097,85.2342 L 140.122,111.826 L 141.324,115.585 z " style="fill-opacity:0.3;fill:rgb(0,0,255);stroke:rgb(51,51,153);stroke-width:1"/></g>
<g fill-rule="evenodd"><path d="M 112.497,43.5054 L 110.721,48.2631 L 101.517,39.5951 L 112.497,43.5054 z " style="fill-opacity:0.3;fill:rgb(0,0,255);stroke:rgb(51,51,153);stroke-width:1"/></g>
<g fill-rule="evenodd"><path d="M 162.345,132.912 L 163.588,122.588 L 172.278,136.468 L 169.472,139.676 L 162.345,132.912 z " style="fill-opacity:0.3;fill:rgb(0,0,255);stroke:rgb(51,51,153);stroke-width:1"/></g>
<g fill-rule="evenodd"><path d="M 161.247,142.024 L 161.736,137.965 L 167.262,142.202 L 166.172,143.448 L 161.247,142.024 z " style="fill-opacity:0.3;fill:rgb(0,0,255);stroke:rgb(51,51,153);stroke-width:1"/></g>
<g fill-rule="evenodd"><path d="M 147.07,161.358 L 137.49,165.106 L 107.68,129.292 L 111.633,127.681 L 122.481,130.817 L 147.07,161.358 z " style="fill-opacity:0.3;fill:rgb(0,0,255);stroke:rgb(51,51,153);stroke-width:1"/></g>
<g fill-rule="evenodd"><path d="M 130.363,133.096 L 122.481,130.817 L 117.901,125.128 L 120.346,124.132 L 130.363,133.096 z " style="fill-opacity:0.3;fill:rgb(0,0,255);stroke:rgb(51,51,153);stroke-width:1"/></g>
<g fill-rule="evenodd"><path d="M 137.49,165.106 L 140.3,168.482 L 122.411,171.007 L 137.49,165.106 z " style="fill-opacity:0.3;fill:rgb(0,0,255);stroke:rgb(51,51,153);stroke-width:1"/></g>
<g fill-rule="evenodd"><path d="M 103.853,59.7164 L 100.339,56.726 L 104.344,56.1089 L 103.853,59.7164 z " style="fill-opacity:0.3;fill:rgb(0,0,255);stroke:rgb(51,51,153);stroke-width:1"/></g>
<g fill-rule="evenodd"><path d="M 176.636,146.473 L 170.528,144.707 L 167.262,142.202 L 169.472,139.676 L 176.636,146.473 z " style="fill-opacity:0.3;fill:rgb(0,0,255);stroke:rgb(51,51,153);stroke-width:1"/></g>
<g fill-rule="evenodd"><path d="M 162.041,56.9873 L 165.112,62.2418 L 112.497,43.5054 L 113.469,40.9029 L 162.041,56.9873 z " style="fill-opacity:0.3;fill:rgb(0,0,255);stroke:rgb(51,51,153);stroke-width:1"/></g>
<g fill-rule="evenodd"><path d="M 148.611,138.371 L 140.594,136.053 L 131.387,119.634 L 135.595,117.919 L 144.175,124.498 L 148.611,138.371 z " style="fill-opacity:0.3;fill:rgb(0,0,255);stroke:rgb(51,51,153);stroke-width:1"/></g>
<g fill-rule="evenodd"><path d="M 148.611,138.371 L 161.247,142.024 L 160.262,150.203 L 155.528,155.614 L 153.564,153.856 L 148.611,138.371 z " style="fill-opacity:0.3;fill:rgb(0,0,255);stroke:rgb(51,51,153);stroke-width:1"/></g>
<g fill-rule="evenodd"><path d="M 148.715,163.402 L 147.07,161.358 L 152.29,159.315 L 148.715,163.402 z " style="fill-opacity:0.3;fill:rgb(0,0,255);stroke:rgb(51,51,153);stroke-width:1"/></g>
<g fill-rule="evenodd"><path d="M 147.462,96.8328 L 155.57,109.781 L 143.255,114.799 L 140.122,111.826 L 130.788,82.641 L 147.462,96.8328 z " style="fill-opacity:0.3;fill:rgb(0,0,255);stroke:rgb(51,51,153);stroke-width:1"/></g>
<g fill-rule="evenodd"><path d="M 140.594,136.053 L 147.569,148.492 L 130.363,133.096 L 140.594,136.053 z " style="fill-opacity:0.3;fill:rgb(0,0,255);stroke:rgb(51,51,153);stroke-width:1"/></g>
<g fill-rule="evenodd"><path d="M 153.564,153.856 L 154.501,156.788 L 153.112,158.376 L 147.569,148.492 L 153.564,153.856 z " style="fill-opacity:0.3;fill:rgb(0,0,255);stroke:rgb(51,51,153);stroke-width:1"/></g>
<g fill-rule="evenodd"><path d="M 151.53,166.897 L 157.423,166.065 L 157.528,166.252 L 158.11,168.073 L 157.377,174.16 L 151.53,166.897 z " style="fill-opacity:0.3;fill:rgb(0,0,255);stroke:rgb(51,51,153);stroke-width:1"/></g>
<g fill-rule="evenodd"><path d="M 160.376,107.823 L 164.902,111.676 L 163.588,122.588 L 155.57,109.781 L 160.376,107.823 z " style="fill-opacity:0.3;fill:rgb(0,0,255);stroke:rgb(51,51,153);stroke-width:1"/></g>
<g fill-rule="evenodd"><path d="M 181.458,241.077 L 192.49,231.186 L 196.934,236.524 L 198.332,239.017 L 186.593,257.134 L 181.458,241.077 z " style="fill-opacity:0.3;fill:rgb(0,0,255);stroke:rgb(51,51,153);stroke-width:1"/></g>
<g fill-rule="evenodd"><path d="M 135.106,246.526 L 150.822,214.131 L 152.322,216.139 L 153.138,209.358 L 160.939,193.279 L 169.437,203.488 L 175.237,221.625 L 135.106,246.526 z " style="fill-opacity:0.3;fill:rgb(0,0,255);stroke:rgb(51,51,153);stroke-width:1"/></g>
<g fill-rule="evenodd"><path d="M 153.33,184.136 L 130.497,184.227 L 142.236,170.808 L 153.33,184.136 z " style="fill-opacity:0.3;fill:rgb(0,0,255);stroke:rgb(51,51,153);stroke-width:1"/></g>
<g fill-rule="evenodd"><path d="M 116.368,200.376 L 129.411,185.467 L 141.982,202.296 L 127.211,213.108 L 116.368,200.376 z " style="fill-opacity:0.3;fill:rgb(0,0,255);stroke:rgb(51,51,153);stroke-width:1"/></g>
<g fill-rule="evenodd"><path d="M 128.491,184.235 L 130.497,184.227 L 129.411,185.467 L 128.491,184.235 z " style="fill-opacity:0.3;fill:rgb(0,0,255);stroke:rgb(51,51,153);stroke-width:1"/></g>
<g fill-rule="evenodd"><path d="M 144.83,167.843 L 142.236,170.808 L 140.3,168.482 L 144.83,167.843 z " style="fill-opacity:0.3;fill:rgb(0,0,255);stroke:rgb(51,51,153);stroke-width:1"/></g>
<g fill-rule="evenodd"><path d="M 81.2561,30.2358 L 97.1781,35.5083 L 101.517,39.5951 L 82.758,32.9148 L 81.2561,30.2358 z " style="fill-opacity:0.3;fill:rgb(0,0,255);stroke:rgb(51,51,153);stroke-width:1"/></g>
<g fill-rule="evenodd"><path d="M 64.8833,26.5494 L 82.758,32.9148 L 92.2497,49.8411 L 64.8833,26.5494 z " style="fill-opacity:0.3;fill:rgb(0,0,255);stroke:rgb(51,51,153);stroke-width:1"/></g>
<g fill-rule="evenodd"><path d="M 102.364,70.647 L 102.985,68.9845 L 112.097,85.2342 L 101.718,75.3864 L 102.364,70.647 z " style="fill-opacity:0.3;fill:rgb(0,0,255);stroke:rgb(51,51,153);stroke-width:1"/></g>
<g fill-rule="evenodd"><path d="M 123.704,60.4909 L 130.788,82.641 L 105.82,61.3907 L 110.721,48.2631 L 123.704,60.4909 z " style="fill-opacity:0.3;fill:rgb(0,0,255);stroke:rgb(51,51,153);stroke-width:1"/></g>
<g fill-rule="evenodd"><path d="M 98.2646,100.739 L 117.901,125.128 L 111.633,127.681 L 104.663,125.666 L 96.2466,115.554 L 98.2646,100.739 z " style="fill-opacity:0.3;fill:rgb(0,0,255);stroke:rgb(51,51,153);stroke-width:1"/></g>
<g fill-rule="evenodd"><path d="M 98.3666,99.991 L 99.6763,90.3756 L 126.525,110.964 L 131.387,119.634 L 120.346,124.132 L 113.704,118.189 L 98.3666,99.991 z " style="fill-opacity:0.3;fill:rgb(0,0,255);stroke:rgb(51,51,153);stroke-width:1"/></g>
<g fill-rule="evenodd"><path d="M 95.2403,122.942 L 104.663,125.666 L 107.68,129.292 L 93.5936,135.031 L 95.2403,122.942 z " style="fill-opacity:0.3;fill:rgb(0,0,255);stroke:rgb(51,51,153);stroke-width:1"/></g>
<g fill-rule="evenodd"><path d="M 102.667,68.4189 L 103.853,59.7164 L 105.82,61.3907 L 102.985,68.9845 L 102.667,68.4189 z " style="fill-opacity:0.3;fill:rgb(0,0,255);stroke:rgb(51,51,153);stroke-width:1"/></g>
<g fill-rule="evenodd"><path d="M 96.4468,57.3259 L 92.2497,49.8411 L 100.339,56.726 L 96.4468,57.3259 z " style="fill-opacity:0.3;fill:rgb(0,0,255);stroke:rgb(51,51,153);stroke-width:1"/></g>
<g fill-rule="evenodd"><path d="M 122.655,57.2114 L 119.977,52.9344 L 121.431,53.3824 L 122.655,57.2114 z " style="fill-opacity:0.3;fill:rgb(0,0,255);stroke:rgb(51,51,153);stroke-width:1"/></g>
<g fill-rule="evenodd"><path d="M 215.505,148.479 L 220.323,144.954 L 217.07,151.156 L 215.505,148.479 z " style="fill-opacity:0.3;fill:rgb(0,0,255);stroke:rgb(51,51,153);stroke-width:1"/></g>
<g fill-rule="evenodd"><path d="M 181.332,150.929 L 181.418,151.066 L 180.714,152.518 L 176.98,149.655 L 179.111,148.821 L 181.332,150.929 z " style="fill-opacity:0.3;fill:rgb(0,0,255);stroke:rgb(51,51,153);stroke-width:1"/></g>
<g fill-rule="evenodd"><path d="M 234.814,171.178 L 231.419,175.712 L 222.789,160.944 L 234.814,171.178 z " style="fill-opacity:0.3;fill:rgb(0,0,255);stroke:rgb(51,51,153);stroke-width:1"/></g>
<g fill-rule="evenodd"><path d="M 199.616,160.11 L 208.655,158.834 L 206.977,172.657 L 195.01,163.481 L 199.616,160.11 z " style="fill-opacity:0.3;fill:rgb(0,0,255);stroke:rgb(51,51,153);stroke-width:1"/></g>
<g fill-rule="evenodd"><path d="M 209.366,152.973 L 211.548,151.376 L 215.286,154.558 L 213.394,158.165 L 208.655,158.834 L 209.366,152.973 z " style="fill-opacity:0.3;fill:rgb(0,0,255);stroke:rgb(51,51,153);stroke-width:1"/></g>
<g fill-rule="evenodd"><path d="M 159.505,156.492 L 160.262,150.203 L 166.172,143.448 L 170.528,144.707 L 176.98,149.655 L 159.505,156.492 z " style="fill-opacity:0.3;fill:rgb(0,0,255);stroke:rgb(51,51,153);stroke-width:1"/></g>
<g fill-rule="evenodd"><path d="M 234.494,235.837 L 246.712,255.351 L 226.22,259.667 L 220.729,252.847 L 234.494,235.837 z " style="fill-opacity:0.3;fill:rgb(0,0,255);stroke:rgb(51,51,153);stroke-width:1"/></g>
<g fill-rule="evenodd"><path d="M 219.355,207.098 L 218.538,207.83 L 219.188,206.826 L 219.355,207.098 z " style="fill-opacity:0.3;fill:rgb(0,0,255);stroke:rgb(51,51,153);stroke-width:1"/></g>
<g fill-rule="evenodd"><path d="M 221.593,183.865 L 216.067,183.887 L 206.693,174.993 L 206.977,172.657 L 221.593,183.865 z " style="fill-opacity:0.3;fill:rgb(0,0,255);stroke:rgb(51,51,153);stroke-width:1"/></g>
<g fill-rule="evenodd"><path d="M 221.593,183.865 L 225.325,183.851 L 231.419,175.712 L 239.306,189.208 L 232.2,195.58 L 228.079,193.104 L 232.701,185.97 L 224.586,191.005 L 223.403,190.295 L 226.531,187.653 L 221.593,183.865 z " style="fill-opacity:0.3;fill:rgb(0,0,255);stroke:rgb(51,51,153);stroke-width:1"/></g>
<g fill-rule="evenodd"><path d="M 223.403,190.295 L 216.971,195.731 L 213.658,197.786 L 205.538,184.512 L 205.608,183.929 L 216.067,183.887 L 221.814,189.34 L 223.403,190.295 z " style="fill-opacity:0.3;fill:rgb(0,0,255);stroke:rgb(51,51,153);stroke-width:1"/></g>
<g fill-rule="evenodd"><path d="M 200.773,223.759 L 216.212,209.916 L 216.829,210.468 L 203.354,231.266 L 200.32,227.497 L 200.773,223.759 z " style="fill-opacity:0.3;fill:rgb(0,0,255);stroke:rgb(51,51,153);stroke-width:1"/></g>
<g fill-rule="evenodd"><path d="M 187.854,220.332 L 185.135,215.484 L 188.811,213.203 L 191.84,216.964 L 187.854,220.332 z " style="fill-opacity:0.3;fill:rgb(0,0,255);stroke:rgb(51,51,153);stroke-width:1"/></g>
<g fill-rule="evenodd"><path d="M 178.129,175.838 L 167.334,183.739 L 166.387,182.049 L 172.043,170.392 L 178.129,175.838 z " style="fill-opacity:0.3;fill:rgb(0,0,255);stroke:rgb(51,51,153);stroke-width:1"/></g>
<g fill-rule="evenodd"><path d="M 178.129,175.838 L 191.02,166.402 L 202.003,183.943 L 187.252,184.002 L 178.129,175.838 z " style="fill-opacity:0.3;fill:rgb(0,0,255);stroke:rgb(51,51,153);stroke-width:1"/></g>
<g fill-rule="evenodd"><path d="M 188.811,213.203 L 172.485,192.926 L 167.525,184.08 L 187.252,184.002 L 203.802,198.811 L 203.133,204.316 L 188.811,213.203 z " style="fill-opacity:0.3;fill:rgb(0,0,255);stroke:rgb(51,51,153);stroke-width:1"/></g>
<g fill-rule="evenodd"><path d="M 185.135,215.484 L 181.367,217.822 L 169.437,203.488 L 164.093,186.778 L 164.594,185.745 L 165.922,184.773 L 172.485,192.926 L 185.135,215.484 z " style="fill-opacity:0.3;fill:rgb(0,0,255);stroke:rgb(51,51,153);stroke-width:1"/></g>
<g fill-rule="evenodd"><path d="M 160.939,193.279 L 158.426,190.26 L 163.92,186.239 L 164.093,186.778 L 160.939,193.279 z " style="fill-opacity:0.3;fill:rgb(0,0,255);stroke:rgb(51,51,153);stroke-width:1"/></g>
<g fill-rule="evenodd"><path d="M 155.816,187.123 L 158.426,190.26 L 155.149,192.659 L 155.816,187.123 z " style="fill-opacity:0.3;fill:rgb(0,0,255);stroke:rgb(51,51,153);stroke-width:1"/></g>
<g fill-rule="evenodd"><path d="M 165.875,164.872 L 158.368,165.932 L 159.214,158.912 L 165.875,164.872 z " style="fill-opacity:0.3;fill:rgb(0,0,255);stroke:rgb(51,51,153);stroke-width:1"/></g>
<g fill-rule="evenodd"><path d="M 165.875,164.872 L 175.371,163.532 L 172.043,170.392 L 165.875,164.872 z " style="fill-opacity:0.3;fill:rgb(0,0,255);stroke:rgb(51,51,153);stroke-width:1"/></g>
<g fill-rule="evenodd"><path d="M 157.377,174.16 L 161.823,179.682 L 163.235,184.097 L 156.177,184.125 L 157.377,174.16 z " style="fill-opacity:0.3;fill:rgb(0,0,255);stroke:rgb(51,51,153);stroke-width:1"/></g>
<g fill-rule="evenodd"><path d="M 165.922,184.773 L 165.388,184.109 L 165.398,184.088 L 166.866,184.082 L 165.922,184.773 z " style="fill-opacity:0.3;fill:rgb(0,0,255);stroke:rgb(51,51,153);stroke-width:1"/></g>
<g fill-rule="evenodd"><path d="M 163.235,184.097 L 165.371,184.089 L 165.388,184.109 L 164.594,185.745 L 163.92,186.239 L 163.235,184.097 z " style="fill-opacity:0.3;fill:rgb(0,0,255);stroke:rgb(51,51,153);stroke-width:1"/></g>
<g fill-rule="evenodd"><path d="M 157.421,157.308 L 154.974,158.265 L 154.501,156.788 L 155.528,155.614 L 157.421,157.308 z " style="fill-opacity:0.3;fill:rgb(0,0,255);stroke:rgb(51,51,153);stroke-width:1"/></g>
<g fill-rule="evenodd"><path d="M 158.368,165.932 L 158.188,167.429 L 157.528,166.252 L 157.466,166.059 L 158.368,165.932 z " style="fill-opacity:0.3;fill:rgb(0,0,255);stroke:rgb(51,51,153);stroke-width:1"/></g>
<g fill-rule="evenodd"><path d="M 205.021,188.764 L 211.506,199.121 L 207.161,201.817 L 203.802,198.811 L 205.021,188.764 z " style="fill-opacity:0.3;fill:rgb(0,0,255);stroke:rgb(51,51,153);stroke-width:1"/></g>
<g fill-rule="evenodd"><path d="M 212.008,199.923 L 211.506,199.121 L 213.658,197.786 L 213.958,198.276 L 212.008,199.923 z " style="fill-opacity:0.3;fill:rgb(0,0,255);stroke:rgb(51,51,153);stroke-width:1"/></g>
<g fill-rule="evenodd"><path d="M 192.667,161.684 L 192.013,161.183 L 192.123,161.168 L 192.667,161.684 z " style="fill-opacity:0.3;fill:rgb(0,0,255);stroke:rgb(51,51,153);stroke-width:1"/></g>
<g fill-rule="evenodd"><path d="M 194.757,163.667 L 206.693,174.993 L 205.608,183.929 L 205.182,183.931 L 193.395,164.663 L 194.757,163.667 z " style="fill-opacity:0.3;fill:rgb(0,0,255);stroke:rgb(51,51,153);stroke-width:1"/></g>
<g fill-rule="evenodd"><path d="M 241.777,104.041 L 235.442,116.121 L 221.872,89.6255 L 241.777,104.041 z " style="fill-opacity:0.3;fill:rgb(0,0,255);stroke:rgb(51,51,153);stroke-width:1"/></g>
<g fill-rule="evenodd"><path d="M 170.619,64.2032 L 169.874,70.3915 L 165.112,62.2418 L 170.619,64.2032 z " style="fill-opacity:0.3;fill:rgb(0,0,255);stroke:rgb(51,51,153);stroke-width:1"/></g>
<g fill-rule="evenodd"><path d="M 213.994,83.92 L 216.599,85.8066 L 208.696,94.8404 L 213.994,83.92 z " style="fill-opacity:0.3;fill:rgb(0,0,255);stroke:rgb(51,51,153);stroke-width:1"/></g>
<g fill-rule="evenodd"><path d="M 218.692,83.4148 L 221.872,89.6255 L 216.599,85.8066 L 218.692,83.4148 z " style="fill-opacity:0.3;fill:rgb(0,0,255);stroke:rgb(51,51,153);stroke-width:1"/></g>
<g fill-rule="evenodd"><path d="M 165.624,105.685 L 169.859,103.96 L 166.242,100.553 L 169.874,70.3915 L 193.987,111.654 L 181.563,125.855 L 164.902,111.676 L 165.624,105.685 z " style="fill-opacity:0.3;fill:rgb(0,0,255);stroke:rgb(51,51,153);stroke-width:1"/></g>
<g fill-rule="evenodd"><path d="M 197.567,117.781 L 193.987,111.654 L 208.696,94.8404 L 197.567,117.781 z " style="fill-opacity:0.3;fill:rgb(0,0,255);stroke:rgb(51,51,153);stroke-width:1"/></g>
<g fill-rule="evenodd"><path d="M 190.117,133.136 L 183.304,147.18 L 181.51,147.882 L 178.963,147.145 L 172.278,136.468 L 181.563,125.855 L 190.117,133.136 z " style="fill-opacity:0.3;fill:rgb(0,0,255);stroke:rgb(51,51,153);stroke-width:1"/></g>
<g fill-rule="evenodd"><path d="M 179.835,148.537 L 179.111,148.821 L 176.636,146.473 L 178.963,147.145 L 179.835,148.537 z " style="fill-opacity:0.3;fill:rgb(0,0,255);stroke:rgb(51,51,153);stroke-width:1"/></g>
<g fill-rule="evenodd"><path d="M 242.06,129.042 L 220.323,144.954 L 235.442,116.121 L 242.06,129.042 z " style="fill-opacity:0.3;fill:rgb(0,0,255);stroke:rgb(51,51,153);stroke-width:1"/></g>
</svg>
