<?xml version="1.0" standalone="no"?>
<!DOCTYPE svg PUBLIC "-//W3C//DTD SVG 1.1//EN"
"http://www.w3.org/Graphics/SVG/1.1/DTD/svg11.dtd">
<svg viewBox="0 0 300 300" version="1.1"
xmlns="http://www.w3.org/2000/svg"
xmlns:xlink="http://www.w3.org/1999/xlink">
<g fill-rule="evenodd"><path d="M 171.668,287.886 L 169.837,290.676 L 157.596,275.508 L 171.668,287.886 z " style="fill-opacity:0.3;fill:rgb(255,0,0);stroke:rgb(0,0,0);stroke-width:1"/></g>
<g fill-rule="evenodd"><path d="M 199.132,40.1342 L 213.699,58.951 L 204.436,66.8069 L 199.132,40.1342 z " style="fill-opacity:0.3;fill:rgb(255,0,0);stroke:rgb(0,0,0);stroke-width:1"/></g>
<g fill-rule="evenodd"><path d="M 96.6779,158.194 L 103.037,152.801 L 146.882,188.648 L 131.412,193.015 L 96.6779,158.194 z " style="fill-opacity:0.3;fill:rgb(255,0,0);stroke:rgb(0,0,0);stroke-width:1"/></g>
<g fill-rule="evenodd"><path d="M 179.434,133.94 L 179.748,144.634 L 172.752,139.476 L 179.434,133.94 z " style="fill-opacity:0.3;fill:rgb(255,0,0);stroke:rgb(0,0,0);stroke-width:1"/></g>
<g fill-rule="evenodd"><path d="M 234.699,121.163 L 234.57,117.985 L 224.968,132.275 L 222.497,129.639 L 213.478,105.736 L 289.987,42.3523 L 234.699,121.163 z " style="fill-opacity:0.3;fill:rgb(255,0,0);stroke:rgb(0,0,0);stroke-width:1"/></g>
<g fill-rule="evenodd"><path d="M 238.311,209.774 L 239.716,244.224 L 234.182,216.398 L 238.311,209.774 z " style="fill-opacity:0.3;fill:rgb(255,0,0);stroke:rgb(0,0,0);stroke-width:1"/></g>
<g fill-rule="evenodd"><path d="M 228.829,200.778 L 230.553,198.149 L 231.29,201.852 L 228.829,200.778 z " style="fill-opacity:0.3;fill:rgb(255,0,0);stroke:rgb(0,0,0);stroke-width:1"/></g>
<g fill-rule="evenodd"><path d="M 108.096,121.412 L 125.011,104.284 L 143.861,118.179 L 122.662,136.157 L 108.096,121.412 z " style="fill-opacity:0.3;fill:rgb(255,0,0);stroke:rgb(0,0,0);stroke-width:1"/></g>
<g fill-rule="evenodd"><path d="M 108.096,121.412 L 89.7071,140.032 L 84.797,137.888 L 88.6851,141.067 L 85.3518,144.443 L 87.2673,148.76 L 84.1624,145.647 L 49.667,180.577 L 49.434,180.372 L 50.6442,130.67 L 53.7894,124.349 L 50.8298,123.057 L 51.0869,112.488 L 40.1102,101.484 L 35.2737,97.5055 L 35.325,97.4411 L 51.1386,110.37 L 51.96,76.6462 L 54.0868,73.9874 L 65.7588,100.29 L 70.0836,91.5974 L 76.192,89.1155 L 108.096,121.412M 81.8775,136.613 L 81.1031,134.868 L 57.9667,115.953 L 56.8274,118.243 L 69.9621,131.411 L 81.8775,136.613 z " style="fill-opacity:0.3;fill:rgb(255,0,0);stroke:rgb(0,0,0);stroke-width:1"/></g>
<g fill-rule="evenodd"><path d="M 122.662,136.157 L 154.39,168.275 L 108.445,148.214 L 122.662,136.157 z " style="fill-opacity:0.3;fill:rgb(255,0,0);stroke:rgb(0,0,0);stroke-width:1"/></g>
<g fill-rule="evenodd"><path d="M 176.91,48.1886 L 177.012,51.6279 L 162.825,65.9934 L 154.622,57.2452 L 176.91,48.1886 z " style="fill-opacity:0.3;fill:rgb(255,0,0);stroke:rgb(0,0,0);stroke-width:1"/></g>
<g fill-rule="evenodd"><path d="M 176.91,48.1886 L 175.654,5.48912 L 200.158,70.4343 L 181.68,86.1049 L 205.941,111.98 L 186.279,128.269 L 178.848,114.022 L 178.115,89.1286 L 169.622,96.332 L 156.918,71.9748 L 162.825,65.9934 L 177.908,82.0809 L 177.012,51.6279 L 182.752,45.8147 L 176.91,48.1886 z " style="fill-opacity:0.3;fill:rgb(255,0,0);stroke:rgb(0,0,0);stroke-width:1"/></g>
<g fill-rule="evenodd"><path d="M 125.011,104.284 L 94.3971,81.7179 L 142.087,62.3392 L 150.831,78.1385 L 125.011,104.284 z " style="fill-opacity:0.3;fill:rgb(255,0,0);stroke:rgb(0,0,0);stroke-width:1"/></g>
<g fill-rule="evenodd"><path d="M 205.941,111.98 L 212.361,106.662 L 215.431,122.103 L 205.941,111.98 z " style="fill-opacity:0.3;fill:rgb(255,0,0);stroke:rgb(0,0,0);stroke-width:1"/></g>
<g fill-rule="evenodd"><path d="M 177.908,82.0809 L 181.68,86.1049 L 178.115,89.1286 L 177.908,82.0809 z " style="fill-opacity:0.3;fill:rgb(0,255,0);stroke:rgb(0,0,0);stroke-width:1"/></g>
<g fill-rule="evenodd"><path d="M 199.132,40.1342 L 181.52,17.3841 L 195.296,20.8471 L 199.132,40.1342 z " style="fill-opacity:0.3;fill:rgb(0,255,0);stroke:rgb(0,0,0);stroke-width:1"/></g>
<g fill-rule="evenodd"><path d="M 164.613,222.1 L 180.761,216.346 L 205.396,236.487 L 187.599,263.608 L 156.207,273.788 L 141.843,255.989 L 164.613,222.1 z " style="fill-opacity:0.3;fill:rgb(0,255,0);stroke:rgb(0,0,0);stroke-width:1"/></g>
<g fill-rule="evenodd"><path d="M 164.613,222.1 L 134.745,232.743 L 136.72,198.337 L 131.412,193.015 L 109.635,199.164 L 92.8823,161.413 L 59.7881,189.479 L 49.667,180.577 L 49.423,180.824 L 49.434,180.372 L 33.0757,165.984 L 50.6442,130.67 L 50.8298,123.057 L 24.152,111.408 L 35.2737,97.5055 L 13.7104,79.7694 L 35.325,97.4411 L 51.96,76.6462 L 52.1319,69.582 L 54.0868,73.9874 L 57.2909,69.982 L 76.192,89.1155 L 94.3971,81.7179 L 65.1493,60.158 L 113.273,0 L 139.015,37.6479 L 142.483,44.2971 L 117.147,17.2747 L 142.087,62.3392 L 150.178,59.0514 L 156.918,71.9748 L 150.831,78.1385 L 163.685,101.366 L 143.861,118.179 L 172.752,139.476 L 170.674,141.197 L 179.987,152.734 L 180.783,179.799 L 154.39,168.275 L 168.489,182.548 L 146.882,188.648 L 172.834,209.865 L 164.613,222.1M 108.445,148.214 L 89.7071,140.032 L 88.6851,141.067 L 103.037,152.801 L 108.445,148.214M 84.1624,145.647 L 85.3518,144.443 L 81.8775,136.613 L 84.797,137.888 L 81.1031,134.868 L 65.7588,100.29 L 57.9667,115.953 L 51.1386,110.37 L 51.0869,112.488 L 56.8274,118.243 L 53.7894,124.349 L 69.9621,131.411 L 84.1624,145.647M 92.8823,161.413 L 96.6779,158.194 L 87.2673,148.76 L 92.8823,161.413 z " style="fill-opacity:0.3;fill:rgb(0,255,0);stroke:rgb(0,0,0);stroke-width:1"/></g>
<g fill-rule="evenodd"><path d="M 150.178,59.0514 L 142.483,44.2971 L 154.622,57.2452 L 150.178,59.0514 z " style="fill-opacity:0.3;fill:rgb(0,255,0);stroke:rgb(0,0,0);stroke-width:1"/></g>
<g fill-rule="evenodd"><path d="M 141.843,255.989 L 139.451,259.548 L 133.507,254.32 L 133.971,246.234 L 141.843,255.989 z " style="fill-opacity:0.3;fill:rgb(0,255,0);stroke:rgb(0,0,0);stroke-width:1"/></g>
<g fill-rule="evenodd"><path d="M 155.793,273.922 L 118.585,285.988 L 89.3664,248.913 L 116.405,239.278 L 133.507,254.32 L 132.623,269.71 L 139.451,259.548 L 155.793,273.922 z " style="fill-opacity:0.3;fill:rgb(0,255,0);stroke:rgb(0,0,0);stroke-width:1"/></g>
<g fill-rule="evenodd"><path d="M 155.793,273.922 L 156.207,273.788 L 157.596,275.508 L 155.793,273.922 z " style="fill-opacity:0.3;fill:rgb(0,255,0);stroke:rgb(0,0,0);stroke-width:1"/></g>
<g fill-rule="evenodd"><path d="M 172.834,209.865 L 181.298,197.269 L 181.848,215.959 L 180.761,216.346 L 172.834,209.865 z " style="fill-opacity:0.3;fill:rgb(0,255,0);stroke:rgb(0,0,0);stroke-width:1"/></g>
<g fill-rule="evenodd"><path d="M 89.3664,248.913 L 86.9543,249.772 L 59.8483,224.84 L 68.667,222.648 L 89.3664,248.913 z " style="fill-opacity:0.3;fill:rgb(0,255,0);stroke:rgb(0,0,0);stroke-width:1"/></g>
<g fill-rule="evenodd"><path d="M 116.405,239.278 L 91.146,217.061 L 114.951,211.144 L 125.929,235.884 L 116.405,239.278 z " style="fill-opacity:0.3;fill:rgb(0,255,0);stroke:rgb(0,0,0);stroke-width:1"/></g>
<g fill-rule="evenodd"><path d="M 29.5674,173.035 L 3.52689,139.993 L 33.0757,165.984 L 29.5674,173.035 z " style="fill-opacity:0.3;fill:rgb(0,255,0);stroke:rgb(0,0,0);stroke-width:1"/></g>
<g fill-rule="evenodd"><path d="M 29.5674,173.035 L 37.7831,183.46 L 26.3324,179.538 L 29.5674,173.035 z " style="fill-opacity:0.3;fill:rgb(0,255,0);stroke:rgb(0,0,0);stroke-width:1"/></g>
<g fill-rule="evenodd"><path d="M 200.744,168.327 L 219.17,140.904 L 230.553,198.149 L 237.411,187.698 L 238.11,204.83 L 231.29,201.852 L 234.182,216.398 L 216.167,245.294 L 205.396,236.487 L 228.829,200.778 L 215.476,194.947 L 200.744,168.327 z " style="fill-opacity:0.3;fill:rgb(0,255,0);stroke:rgb(0,0,0);stroke-width:1"/></g>
<g fill-rule="evenodd"><path d="M 200.744,168.327 L 197.032,173.851 L 179.987,152.734 L 179.748,144.634 L 193.062,154.448 L 200.744,168.327 z " style="fill-opacity:0.3;fill:rgb(0,255,0);stroke:rgb(0,0,0);stroke-width:1"/></g>
<g fill-rule="evenodd"><path d="M 180.783,179.799 L 190.256,183.936 L 181.298,197.269 L 180.783,179.799 z " style="fill-opacity:0.3;fill:rgb(0,255,0);stroke:rgb(0,0,0);stroke-width:1"/></g>
<g fill-rule="evenodd"><path d="M 187.599,263.608 L 209.095,256.637 L 183.258,298.08 L 171.668,287.886 L 187.599,263.608 z " style="fill-opacity:0.3;fill:rgb(0,255,0);stroke:rgb(0,0,0);stroke-width:1"/></g>
<g fill-rule="evenodd"><path d="M 197.032,173.851 L 213.29,193.993 L 190.256,183.936 L 197.032,173.851 z " style="fill-opacity:0.3;fill:rgb(0,255,0);stroke:rgb(0,0,0);stroke-width:1"/></g>
<g fill-rule="evenodd"><path d="M 209.095,256.637 L 216.167,245.294 L 224.093,251.774 L 209.095,256.637 z " style="fill-opacity:0.3;fill:rgb(0,255,0);stroke:rgb(0,0,0);stroke-width:1"/></g>
<g fill-rule="evenodd"><path d="M 210.727,98.4445 L 213.478,105.736 L 212.361,106.662 L 210.727,98.4445 z " style="fill-opacity:0.3;fill:rgb(0,255,0);stroke:rgb(0,0,0);stroke-width:1"/></g>
<g fill-rule="evenodd"><path d="M 210.727,98.4445 L 200.158,70.4343 L 204.436,66.8069 L 210.727,98.4445 z " style="fill-opacity:0.3;fill:rgb(0,255,0);stroke:rgb(0,0,0);stroke-width:1"/></g>
<g fill-rule="evenodd"><path d="M 237.411,187.698 L 235.615,143.63 L 253.683,162.902 L 237.411,187.698 z " style="fill-opacity:0.3;fill:rgb(0,255,0);stroke:rgb(0,0,0);stroke-width:1"/></g>
<g fill-rule="evenodd"><path d="M 289.411,227.23 L 240.691,205.957 L 299.465,111.685 L 289.411,227.23 z " style="fill-opacity:0.3;fill:rgb(0,255,0);stroke:rgb(0,0,0);stroke-width:1"/></g>
<g fill-rule="evenodd"><path d="M 289.411,227.23 L 293.829,229.159 L 289.11,230.689 L 289.411,227.23 z " style="fill-opacity:0.3;fill:rgb(0,255,0);stroke:rgb(0,0,0);stroke-width:1"/></g>
<g fill-rule="evenodd"><path d="M 215.476,194.947 L 218.563,200.526 L 213.29,193.993 L 215.476,194.947 z " style="fill-opacity:0.3;fill:rgb(0,255,0);stroke:rgb(0,0,0);stroke-width:1"/></g>
<g fill-rule="evenodd"><path d="M 235.615,143.63 L 226.076,133.456 L 234.699,121.163 L 235.615,143.63 z " style="fill-opacity:0.3;fill:rgb(0,255,0);stroke:rgb(0,0,0);stroke-width:1"/></g>
<g fill-rule="evenodd"><path d="M 224.093,251.774 L 289.11,230.689 L 283.08,300 L 224.093,251.774 z " style="fill-opacity:0.3;fill:rgb(0,255,0);stroke:rgb(0,0,0);stroke-width:1"/></g>
<g fill-rule="evenodd"><path d="M 240.691,205.957 L 238.311,209.774 L 238.11,204.83 L 240.691,205.957 z " style="fill-opacity:0.3;fill:rgb(0,255,0);stroke:rgb(0,0,0);stroke-width:1"/></g>
<g fill-rule="evenodd"><path d="M 224.022,133.682 L 219.17,140.904 L 215.431,122.103 L 222.497,129.639 L 224.022,133.682 z " style="fill-opacity:0.3;fill:rgb(0,255,0);stroke:rgb(0,0,0);stroke-width:1"/></g>
<g fill-rule="evenodd"><path d="M 224.022,133.682 L 224.968,132.275 L 226.076,133.456 L 224.685,135.438 L 224.022,133.682 z " style="fill-opacity:0.3;fill:rgb(0,255,0);stroke:rgb(0,0,0);stroke-width:1"/></g>
<g fill-rule="evenodd"><path d="M 91.146,217.061 L 68.667,222.648 L 60.9839,212.899 L 80.2352,207.464 L 91.146,217.061 z " style="fill-opacity:0.3;fill:rgb(0,255,0);stroke:rgb(0,0,0);stroke-width:1"/></g>
<g fill-rule="evenodd"><path d="M 95.3764,203.189 L 109.635,199.164 L 114.297,209.671 L 95.3764,203.189 z " style="fill-opacity:0.3;fill:rgb(0,255,0);stroke:rgb(0,0,0);stroke-width:1"/></g>
<g fill-rule="evenodd"><path d="M 95.3764,203.189 L 80.2352,207.464 L 62.6167,191.967 L 95.3764,203.189 z " style="fill-opacity:0.3;fill:rgb(0,255,0);stroke:rgb(0,0,0);stroke-width:1"/></g>
<g fill-rule="evenodd"><path d="M 114.951,211.144 L 114.297,209.671 L 117.065,210.619 L 114.951,211.144 z " style="fill-opacity:0.3;fill:rgb(0,255,0);stroke:rgb(0,0,0);stroke-width:1"/></g>
<g fill-rule="evenodd"><path d="M 50.1822,215.949 L 39.818,206.416 L 49.442,198.254 L 60.9839,212.899 L 50.1822,215.949 z " style="fill-opacity:0.3;fill:rgb(0,255,0);stroke:rgb(0,0,0);stroke-width:1"/></g>
<g fill-rule="evenodd"><path d="M 50.1822,215.949 L 59.8483,224.84 L 0.783982,239.52 L 17.7962,225.092 L 50.1822,215.949 z " style="fill-opacity:0.3;fill:rgb(0,255,0);stroke:rgb(0,0,0);stroke-width:1"/></g>
<g fill-rule="evenodd"><path d="M 49.442,198.254 L 37.7831,183.46 L 58.5127,190.561 L 49.442,198.254 z " style="fill-opacity:0.3;fill:rgb(0,255,0);stroke:rgb(0,0,0);stroke-width:1"/></g>
<g fill-rule="evenodd"><path d="M 58.5127,190.561 L 59.7881,189.479 L 62.6167,191.967 L 58.5127,190.561 z " style="fill-opacity:0.3;fill:rgb(0,255,0);stroke:rgb(0,0,0);stroke-width:1"/></g>
<g fill-rule="evenodd"><path d="M 17.7962,225.092 L 1.36004,229.732 L 21.3923,189.467 L 39.818,206.416 L 17.7962,225.092 z " style="fill-opacity:0.3;fill:rgb(0,255,0);stroke:rgb(0,0,0);stroke-width:1"/></g>
<g fill-rule="evenodd"><path d="M 21.3923,189.467 L 1.2593,170.949 L 26.3324,179.538 L 21.3923,189.467 z " style="fill-opacity:0.3;fill:rgb(0,255,0);stroke:rgb(0,0,0);stroke-width:1"/></g>
<g fill-rule="evenodd"><path d="M 65.1493,60.158 L 57.2909,69.982 L 0.535176,12.5285 L 65.1493,60.158 z " style="fill-opacity:0.3;fill:rgb(0,255,0);stroke:rgb(0,0,0);stroke-width:1"/></g>
<g fill-rule="evenodd"><path d="M 193.062,154.448 L 180.996,132.646 L 186.279,128.269 L 204.222,162.674 L 193.062,154.448 z " style="fill-opacity:0.3;fill:rgb(0,255,0);stroke:rgb(0,0,0);stroke-width:1"/></g>
<g fill-rule="evenodd"><path d="M 180.996,132.646 L 179.434,133.94 L 179.306,129.591 L 180.996,132.646 z " style="fill-opacity:0.3;fill:rgb(0,255,0);stroke:rgb(0,0,0);stroke-width:1"/></g>
<g fill-rule="evenodd"><path d="M 134.745,232.743 L 133.971,246.234 L 126.31,236.741 L 125.929,235.884 L 134.745,232.743 z " style="fill-opacity:0.3;fill:rgb(0,255,0);stroke:rgb(0,0,0);stroke-width:1"/></g>
<g fill-rule="evenodd"><path d="M 163.685,101.366 L 169.622,96.332 L 178.848,114.022 L 179.306,129.591 L 163.685,101.366 z " style="fill-opacity:0.3;fill:rgb(0,255,0);stroke:rgb(0,0,0);stroke-width:1"/></g>
</svg>
