<?xml version="1.0" standalone="no"?>
<!DOCTYPE svg PUBLIC "-//W3C//DTD SVG 1.1//EN"
"http://www.w3.org/Graphics/SVG/1.1/DTD/svg11.dtd">
<svg  version="1.1" xmlns="http://www.w3.org/2000/svg" xmlns:xlink="http://www.w3.org/1999/xlink" viewBox="0 0 0.978947 0.982452">
<g title="A + B (CGAL Real)" fill-rule="evenodd">
<path d="M 0.16555,0.61407 L 0.18435,0.59523 L 0.17440,0.57523 L 0.22736,0.55210 L 0.27387,0.50548 L 0.27776,0.50943 L 0.26638,0.53507 L 0.27594,0.53089 L 0.26385,0.54078 L 0.21360,0.65402 L 0.18808,0.60273 L 0.16572,0.62101 L 0.16555,0.61407 M 0.26638,0.53507 L 0.22736,0.55210 L 0.18435,0.59523 L 0.18808,0.60273 L 0.26385,0.54078 L 0.26638,0.53507 z" style="fill-opacity:0.3;fill:rgb(0,0,255);stroke:rgb(51,51,153);stroke-width:0.002456" />
<path d="M 0.51213,0.74675 L 0.55373,0.66698 L 0.58155,0.69057 L 0.58394,0.60905 L 0.60828,0.56239 L 0.67267,0.61573 L 0.70375,0.58258 L 0.69369,0.63315 L 0.67267,0.61573 L 0.59322,0.70047 L 0.65373,0.75179 L 0.57349,0.96448 L 0.57760,0.82464 L 0.50461,0.79498 L 0.53147,0.76633 L 0.51213,0.74675 M 0.59322,0.70047 L 0.58155,0.69057 L 0.58087,0.71365 L 0.59322,0.70047 M 0.59673,0.83242 L 0.57793,0.81338 L 0.57760,0.82464 L 0.59673,0.83242 M 0.58087,0.71365 L 0.53147,0.76633 L 0.57793,0.81338 L 0.58087,0.71365 z" style="fill-opacity:0.3;fill:rgb(0,0,255);stroke:rgb(51,51,153);stroke-width:0.002456" />
<path d="M 0.55443,0.03053 L 0.56043,0.03967 L 0.51435,0.08021 L 0.55443,0.03053 z" style="fill-opacity:0.3;fill:rgb(0,0,255);stroke:rgb(51,51,153);stroke-width:0.002456" />
<path d="M 0.56398,0.52569 L 0.58689,0.50880 L 0.58586,0.54382 L 0.56398,0.52569 z" style="fill-opacity:0.3;fill:rgb(0,0,255);stroke:rgb(51,51,153);stroke-width:0.002456" />
<path d="M 0.66774,0.76367 L 0.69808,0.78940 L 0.65037,0.85102 L 0.66774,0.76367 z" style="fill-opacity:0.3;fill:rgb(0,0,255);stroke:rgb(51,51,153);stroke-width:0.002456" />
<path d="M 0.72689,0.55791 L 0.73498,0.54927 L 0.76643,0.59607 L 0.76685,0.58566 L 0.94791,0.84376 L 0.69735,0.63618 L 0.72689,0.55791 z" style="fill-opacity:0.3;fill:rgb(0,0,255);stroke:rgb(51,51,153);stroke-width:0.002456" />
<path d="M 0.76516,0.27378 L 0.78328,0.18266 L 0.77868,0.29547 L 0.76516,0.27378 z" style="fill-opacity:0.3;fill:rgb(0,0,255);stroke:rgb(51,51,153);stroke-width:0.002456" />
</g></svg>