<?xml version="1.0" standalone="no"?>
<!DOCTYPE svg PUBLIC "-//W3C//DTD SVG 1.1//EN"
"http://www.w3.org/Graphics/SVG/1.1/DTD/svg11.dtd">
<svg  version="1.1" xmlns="http://www.w3.org/2000/svg" xmlns:xlink="http://www.w3.org/1999/xlink" viewBox="0 0 27 15">
<g title="A + B (CGAL EPECK)" fill-rule="evenodd">
<path d="M 11.1765,5.35294 L 16.3077,8.34615 L 17.5000,7.75000 L 13.8182,5.90909 L 11.1765,5.35294 z" style="fill-opacity:0.3;fill:rgb(0,0,255);stroke:rgb(51,51,153);stroke-width:0.067500" />
<path d="M 11.1765,5.35294 L 7.14286,3 L 0,3 L 11.1765,5.35294 z" style="fill-opacity:0.3;fill:rgb(0,0,255);stroke:rgb(51,51,153);stroke-width:0.067500" />
<path d="M 16.3077,8.34615 L 15.0,9.0 L 24.0,15.0 L 24.4727,13.1091 L 16.3077,8.34615 z" style="fill-opacity:0.3;fill:rgb(0,0,255);stroke:rgb(51,51,153);stroke-width:0.067500" />
<path d="M 17.5000,7.75000 L 18.0,8.0 L 24.5263,12.8947 L 27.0,3 L 17.5000,7.75000 z" style="fill-opacity:0.3;fill:rgb(0,0,255);stroke:rgb(51,51,153);stroke-width:0.067500" />
<path d="M 13.8182,5.90909 L 19.0,7.0 L 15.0,3 L 8.0,3 L 13.8182,5.90909 z" style="fill-opacity:0.3;fill:rgb(0,0,255);stroke:rgb(51,51,153);stroke-width:0.067500" />
<path d="M 7.14286,3 L 8.0,3 L 2.0,0 L 7.14286,3 z" style="fill-opacity:0.3;fill:rgb(0,0,255);stroke:rgb(51,51,153);stroke-width:0.067500" />
<path d="M 24.5263,12.8947 L 24.4727,13.1091 L 26.0,14.0 L 24.5263,12.8947 z" style="fill-opacity:0.3;fill:rgb(0,0,255);stroke:rgb(51,51,153);stroke-width:0.067500" />
</g></svg>