<?xml version="1.0" standalone="no"?>
<!DOCTYPE svg PUBLIC "-//W3C//DTD SVG 1.1//EN"
"http://www.w3.org/Graphics/SVG/1.1/DTD/svg11.dtd">
<svg  version="1.1" xmlns="http://www.w3.org/2000/svg" xmlns:xlink="http://www.w3.org/1999/xlink" viewBox="0 0 40 40">
<g title="A + B (CGAL EPECK)" fill-rule="evenodd">
<path d="M 0,0 L 0,40.0 L 40.0,40.0 L 40.0,0 L 0,0 M 30.0,15.0 L 25.0,10.0 L 30.0,10.0 L 30.0,15.0 M 30.0,17.0 L 30.0,20.0 L 25.0,10.0 L 30.0,17.0 M 30.0,22.0 L 30.0,25.0 L 25.0,10.0 L 30.0,22.0 M 30.0,27.0 L 30.0,30.0 L 20.0,30.0 L 22.0,10.0 L 25.0,10.0 L 30.0,27.0 M 20.0,30.0 L 10.0,30.0 L 10.0,27.0 L 15.0,10.0 L 18.0,10.0 L 20.0,30.0 M 20.0,30.0 L 19.0,10.0 L 21.0,10.0 L 20.0,30.0 M 10.0,17.0 L 15.0,10.0 L 10.0,20.0 L 10.0,17.0 M 10.0,15.0 L 10.0,10.0 L 15.0,10.0 L 10.0,15.0 M 10.0,22.0 L 15.0,10.0 L 10.0,25.0 L 10.0,22.0 z" style="fill-opacity:0.3;fill:rgb(0,0,255);stroke:rgb(51,51,153);stroke-width:0.100000" />
</g></svg>