<?xml version="1.0" standalone="no"?>
<!DOCTYPE svg PUBLIC "-//W3C//DTD SVG 1.1//EN"
"http://www.w3.org/Graphics/SVG/1.1/DTD/svg11.dtd">
<svg viewBox="0 0 300 300" version="1.1"
xmlns="http://www.w3.org/2000/svg"
xmlns:xlink="http://www.w3.org/1999/xlink">
<g fill-rule="evenodd"><path d="M 193.548,106.452 L 193.548,0 L 221.032,3.63871 L 246.735,14.3226 L 268.800,31.2000 L 285.677,53.2645 L 296.361,78.9677 L 300.000,106.452 L 296.361,134.013 L 285.677,159.716 L 268.800,181.781 L 246.735,198.658 L 221.032,209.342 L 193.471,212.903 L 165.987,209.342 L 140.284,198.658 L 118.219,181.781 L 101.342,159.716 L 90.6581,134.013 L 87.0968,106.529 L 90.6581,78.9677 L 193.548,106.452 z " style="fill-opacity:0.3;fill:rgb(255,0,0);stroke:rgb(0,0,0);stroke-width:1"/></g>
<g fill-rule="evenodd"><path d="M 193.548,98.7097 L 277.626,121.316 L 268.955,142.297 L 255.097,160.335 L 237.058,174.194 L 216.077,182.865 L 193.471,185.806 L 170.942,182.865 L 149.961,174.194 L 131.923,160.335 L 118.065,142.297 L 109.394,121.316 L 106.452,98.7097 L 109.394,76.1806 L 118.065,55.2000 L 131.923,37.1613 L 149.961,23.3032 L 170.942,14.6323 L 193.471,11.6129 L 216.077,14.6323 L 237.058,23.3032 L 193.548,98.7097 z " style="fill-opacity:0.3;fill:rgb(0,255,0);stroke:rgb(0,0,0);stroke-width:1"/></g>
</svg>
