<?xml version="1.0" standalone="no"?>
<!DOCTYPE svg PUBLIC "-//W3C//DTD SVG 1.1//EN"
"http://www.w3.org/Graphics/SVG/1.1/DTD/svg11.dtd">
<svg viewBox="0 0 300 300" version="1.1"
xmlns="http://www.w3.org/2000/svg"
xmlns:xlink="http://www.w3.org/1999/xlink">
<g fill-rule="evenodd"><path d="M 193.548,106.452 L 193.548,0 L 221.032,3.63871 L 246.735,14.3226 L 268.800,31.2000 L 285.677,53.2645 L 296.361,78.9677 L 300.000,106.452 L 193.548,106.452 z " style="fill-opacity:0.3;fill:rgb(255,0,0);stroke:rgb(0,0,0);stroke-width:1"/></g>
<g fill-rule="evenodd"><path d="M 193.548,106.452 L 216.077,22.3742 L 237.058,31.0452 L 193.548,106.452 z " style="fill-opacity:0.3;fill:rgb(0,255,0);stroke:rgb(0,0,0);stroke-width:1"/></g>
<g fill-rule="evenodd"><path d="M 193.548,106.452 L 268.955,62.9419 L 277.626,83.9226 L 280.645,106.452 L 277.626,129.058 L 268.955,150.039 L 255.097,168.077 L 237.058,181.935 L 216.077,190.606 L 193.471,193.548 L 170.942,190.606 L 149.961,181.935 L 131.923,168.077 L 118.065,150.039 L 109.394,129.058 L 106.452,106.452 L 193.548,106.452 z " style="fill-opacity:0.3;fill:rgb(0,255,0);stroke:rgb(0,0,0);stroke-width:1"/></g>
</svg>
