<?xml version="1.0" standalone="no"?>
<!DOCTYPE svg PUBLIC "-//W3C//DTD SVG 1.1//EN"
"http://www.w3.org/Graphics/SVG/1.1/DTD/svg11.dtd">
<svg  version="1.1" xmlns="http://www.w3.org/2000/svg" xmlns:xlink="http://www.w3.org/1999/xlink" viewBox="0 0 2500 2500">
<g title="A + B (CGAL EPECK)" fill-rule="evenodd">
<path d="M 2453,1480 L 2315,1812 L 2097,2097 L 1812,2315 L 1480,2453 L 1125,2500 L 1125,2249.87 L 1124,2250 L 833,2211 L 562,2099 L 329,1920 L 150,1687 L 1125,1125 L -0,1125 L 38,833 L 150,562 L 329,329 L 562,150 L 833,38 L 1124,-0 L 1416,38 L 1687,150 L 1920,329 L 2099,562 L 2211,833 L 2250,1125 L 2500,1125 L 2453,1480 M 1687,2099 L 1125,1125 L 1125,2249.87 L 1416,2211 L 1687,2099 M 2250,1125 L 1125,1125 L 2211,1416 L 2250,1125 z" style="fill-opacity:0.3;fill:rgb(0,0,255);stroke:rgb(51,51,153);stroke-width:6.250000" />
</g></svg>