<?xml version="1.0" standalone="no"?>
<!DOCTYPE svg PUBLIC "-//W3C//DTD SVG 1.1//EN"
"http://www.w3.org/Graphics/SVG/1.1/DTD/svg11.dtd">
<svg viewBox="0 0 300 300" version="1.1"
xmlns="http://www.w3.org/2000/svg"
xmlns:xlink="http://www.w3.org/1999/xlink">
<g fill-rule="evenodd"><path d="M 136.364,150 L 136.364,0 L 175.091,5.12727 L 211.309,20.1818 L 242.4,43.9636 L 266.182,75.0545 L 281.236,111.273 L 286.364,150 L 281.236,188.836 L 266.182,225.055 L 242.4,256.145 L 211.309,279.927 L 175.091,294.982 L 136.255,300 L 97.5273,294.982 L 61.3091,279.927 L 30.2182,256.145 L 136.364,150 z " style="fill-opacity:0.3;fill:rgb(255,0,0);stroke:rgb(0,0,0);stroke-width:1"/></g>
<g fill-rule="evenodd"><path d="M 136.364,150 L 223.091,236.836 L 197.673,256.364 L 168.109,268.582 L 136.255,272.727 L 104.509,268.582 L 74.9455,256.364 L 49.5273,236.836 L 30,211.418 L 17.7818,181.855 L 13.6364,150 L 17.7818,118.255 L 30,88.6909 L 49.5273,63.2727 L 74.9455,43.7455 L 104.509,31.5273 L 136.255,27.2727 L 136.364,150 z " style="fill-opacity:0.3;fill:rgb(0,255,0);stroke:rgb(0,0,0);stroke-width:1"/></g>
<g fill-rule="evenodd"><path d="M 136.364,150 L 197.673,43.7455 L 223.091,63.2727 L 136.364,150 z " style="fill-opacity:0.3;fill:rgb(0,255,0);stroke:rgb(0,0,0);stroke-width:1"/></g>
</svg>
