<?xml version="1.0" standalone="no"?>
<!DOCTYPE svg PUBLIC "-//W3C//DTD SVG 1.1//EN"
"http://www.w3.org/Graphics/SVG/1.1/DTD/svg11.dtd">
<svg  version="1.1" xmlns="http://www.w3.org/2000/svg" xmlns:xlink="http://www.w3.org/1999/xlink" viewBox="0 0 2750 3500">
<g title="A + B (CGAL EPECK)" fill-rule="evenodd">
<path d="M 1375.0,2375.0 L 1472.04,2737.15 L 1706.16,2706.16 L 1375.0,2375.0 z" style="fill-opacity:0.3;fill:rgb(0,0,255);stroke:rgb(51,51,153);stroke-width:8.750000" />
<path d="M 2474.07,2180.87 L 2565.0,2062.0 L 2703.0,1730.0 L 2750.0,1375.0 L 2703.0,1019.0 L 2565.0,687.0 L 2347.0,402.0 L 2062.0,184.0 L 1730.0,46.0 L 1374.0,0 L 1019.0,46.0 L 687.0,184.0 L 402.0,402.0 L 184.0,687.0 L 46.0,1019.0 L 0,1374.0 L 46.0,1730.0 L 184.0,2062.0 L 275.214,2181.25 L 288.0,2083.0 L 400.0,1812.0 L 579.0,1579.0 L 812.0,1400.0 L 1083.0,1288.0 L 1374.0,1250.0 L 1666.0,1288.0 L 1937.0,1400.0 L 2170.0,1579.0 L 2349.0,1812.0 L 2461.0,2083.0 L 2474.07,2180.87 z" style="fill-opacity:0.3;fill:rgb(0,0,255);stroke:rgb(51,51,153);stroke-width:8.750000" />
</g></svg>