<?xml version="1.0" standalone="no"?>
<!DOCTYPE svg PUBLIC "-//W3C//DTD SVG 1.1//EN"
"http://www.w3.org/Graphics/SVG/1.1/DTD/svg11.dtd">
<svg viewBox="0 0 300 300" version="1.1"
xmlns="http://www.w3.org/2000/svg"
xmlns:xlink="http://www.w3.org/1999/xlink">
<g fill-rule="evenodd"><path d="M 150,162.5 L 150,25 L 185.5,29.7 L 218.7,43.5 L 247.2,65.3 L 269,93.8 L 282.8,127 L 287.5,162.5 L 282.8,198.1 L 269,231.3 L 247.2,259.8 L 218.7,281.6 L 185.5,295.4 L 149.9,300 L 114.4,295.4 L 81.2,281.6 L 52.7,259.8 L 30.9,231.3 L 17.1,198.1 L 12.5,162.6 L 17.1,127 L 30.9,93.8 L 52.7,65.3 L 81.2,43.5 L 150,162.5 z " style="fill-opacity:0.3;fill:rgb(255,0,0);stroke:rgb(0,0,0);stroke-width:1"/></g>
<g fill-rule="evenodd"><path d="M 150,112.5 L 150,225 L 120.8,221.2 L 93.7,210 L 70.4,192.1 L 52.5,168.8 L 41.3,141.7 L 37.5,112.5 L 41.3,83.4 L 52.5,56.3 L 70.4,33 L 93.7,15.1 L 120.8,3.9 L 149.9,0 L 179.1,3.9 L 206.2,15.1 L 229.5,33 L 247.4,56.3 L 258.6,83.4 L 262.5,112.5 L 258.6,141.7 L 247.4,168.8 L 150,112.5 z " style="fill-opacity:0.3;fill:rgb(0,255,0);stroke:rgb(0,0,0);stroke-width:1"/></g>
</svg>
