<?xml version="1.0" standalone="no"?>
<!DOCTYPE svg PUBLIC "-//W3C//DTD SVG 1.1//EN"
"http://www.w3.org/Graphics/SVG/1.1/DTD/svg11.dtd">
<svg  version="1.1" xmlns="http://www.w3.org/2000/svg" xmlns:xlink="http://www.w3.org/1999/xlink" viewBox="0 0 2750 3500">
<g title="A + B (CGAL EPECK)" fill-rule="evenodd">
<path d="M 46,1019 L 184,687 L 402,402 L 687,184 L 1019,46 L 1374,-0 L 1730,46 L 2062,184 L 2347,402 L 2565,687 L 2703,1019 L 2750,1375 L 2703,1730 L 2565,2062 L 2474.07,2180.87 L 2461,2083 L 2349,1812 L 2170,1579 L 1937,1400 L 1666,1288 L 1374,1250 L 1083,1288 L 812,1400 L 579,1579 L 400,1812 L 288,2083 L 275.214,2181.25 L 184,2062 L 46,1730 L -0,1374 L 46,1019 z" style="fill-opacity:0.3;fill:rgb(0,0,255);stroke:rgb(51,51,153);stroke-width:8.750000" />
<path d="M 1375,2375 L 1706.16,2706.16 L 1472.04,2737.15 L 1375,2375 z" style="fill-opacity:0.3;fill:rgb(0,0,255);stroke:rgb(51,51,153);stroke-width:8.750000" />
</g></svg>