<?xml version="1.0" standalone="no"?>
<!DOCTYPE svg PUBLIC "-//W3C//DTD SVG 1.1//EN"
"http://www.w3.org/Graphics/SVG/1.1/DTD/svg11.dtd">
<svg viewBox="0 0 300 300" version="1.1"
xmlns="http://www.w3.org/2000/svg"
xmlns:xlink="http://www.w3.org/1999/xlink">
<g fill-rule="evenodd"><path d="M 186.486,137.838 L 186.486,48.6486 L 209.514,51.6973 L 231.049,60.6486 L 249.535,74.7892 L 263.676,93.2757 L 272.627,114.811 L 275.676,137.838 L 272.627,160.930 L 263.676,182.465 L 249.535,200.951 L 231.049,215.092 L 209.514,224.043 L 186.422,227.027 L 163.395,224.043 L 141.859,215.092 L 123.373,200.951 L 109.232,182.465 L 100.281,160.930 L 97.2973,137.903 L 100.281,114.811 L 109.232,93.2757 L 123.373,74.7892 L 141.859,60.6486 L 186.486,137.838 z " style="fill-opacity:0.3;fill:rgb(255,0,0);stroke:rgb(0,0,0);stroke-width:1"/></g>
<g fill-rule="evenodd"><path d="M 186.486,72.9730 L 238.054,21.4054 L 249.665,36.5189 L 256.930,54.0973 L 259.459,72.9730 L 256.930,91.9135 L 249.665,109.492 L 238.054,124.605 L 222.941,136.216 L 205.362,143.481 L 186.422,145.946 L 167.546,143.481 L 149.968,136.216 L 134.854,124.605 L 123.243,109.492 L 115.978,91.9135 L 113.514,72.9730 L 115.978,54.0973 L 123.243,36.5189 L 134.854,21.4054 L 149.968,9.79459 L 167.546,2.52973 L 186.422,0 L 205.362,2.52973 L 186.486,72.9730 z " style="fill-opacity:0.3;fill:rgb(0,255,0);stroke:rgb(0,0,0);stroke-width:1"/></g>
</svg>
