<?xml version="1.0" standalone="no"?>
<!DOCTYPE svg PUBLIC "-//W3C//DTD SVG 1.1//EN"
"http://www.w3.org/Graphics/SVG/1.1/DTD/svg11.dtd">
<svg viewBox="0 0 300 300" version="1.1"
xmlns="http://www.w3.org/2000/svg"
xmlns:xlink="http://www.w3.org/1999/xlink">
<g fill-rule="evenodd"><path d="M 190.909,118.182 L 190.909,18.1818 L 216.727,21.6000 L 240.873,31.6364 L 261.600,47.4909 L 277.455,68.2182 L 287.491,92.3636 L 290.909,118.182 L 287.491,144.073 L 277.455,168.218 L 261.600,188.945 L 240.873,204.800 L 216.727,214.836 L 190.836,218.182 L 165.018,214.836 L 140.873,204.800 L 120.145,188.945 L 104.291,168.218 L 94.2545,144.073 L 90.9091,118.255 L 94.2545,92.3636 L 104.291,68.2182 L 120.145,47.4909 L 140.873,31.6364 L 190.909,118.182 z " style="fill-opacity:0.3;fill:rgb(255,0,0);stroke:rgb(0,0,0);stroke-width:1"/></g>
<g fill-rule="evenodd"><path d="M 190.909,81.8182 L 190.909,163.636 L 169.673,160.873 L 149.964,152.727 L 133.018,139.709 L 120.000,122.764 L 111.855,103.055 L 109.091,81.8182 L 111.855,60.6545 L 120.000,40.9455 L 133.018,24.0000 L 149.964,10.9818 L 169.673,2.83636 L 190.836,0 L 212.073,2.83636 L 231.782,10.9818 L 248.727,24.0000 L 261.745,40.9455 L 269.891,60.6545 L 272.727,81.8182 L 269.891,103.055 L 261.745,122.764 L 190.909,81.8182 z " style="fill-opacity:0.3;fill:rgb(0,255,0);stroke:rgb(0,0,0);stroke-width:1"/></g>
</svg>
