<?xml version="1.0" standalone="no"?>
<!DOCTYPE svg PUBLIC "-//W3C//DTD SVG 1.1//EN"
"http://www.w3.org/Graphics/SVG/1.1/DTD/svg11.dtd">
<svg  version="1.1" xmlns="http://www.w3.org/2000/svg" xmlns:xlink="http://www.w3.org/1999/xlink" viewBox="0 0 2750 2750">
<g title="A + B (CGAL EPECK)" fill-rule="evenodd">
<path d="M 46,1019 L 184,687 L 402,402 L 687,184 L 1019,46 L 1374,-0 L 1730,46 L 2062,184 L 2347,402 L 2565,687 L 2703,1019 L 2750,1375 L 2703,1730 L 2565,2062 L 2347,2347 L 2062,2565 L 1730,2703 L 1375,2750 L 1375,2599.87 L 1666,2561 L 1937,2449 L 1375,1475 L 2461,1183 L 2349,912 L 2170,679 L 1937,500 L 1666,388 L 1374,350 L 1083,388 L 812,500 L 579,679 L 400,912 L 288,1183 L 250,1475 L 275.301,1668.75 L 46,1730 L -0,1374 L 46,1019 z" style="fill-opacity:0.3;fill:rgb(0,0,255);stroke:rgb(51,51,153);stroke-width:6.875000" />
</g></svg>