<?xml version="1.0" standalone="no"?>
<!DOCTYPE svg PUBLIC "-//W3C//DTD SVG 1.1//EN"
"http://www.w3.org/Graphics/SVG/1.1/DTD/svg11.dtd">
<svg  version="1.1" xmlns="http://www.w3.org/2000/svg" xmlns:xlink="http://www.w3.org/1999/xlink" viewBox="0 0 2750 3000">
<g title="A - B (CGAL EPECK)" fill-rule="evenodd">
<path d="M 46,1019 L 184,687 L 402,402 L 687,184 L 1019,46 L 1374,-0 L 1730,46 L 2062,184 L 2347,402 L 2565,687 L 2703,1019 L 2750,1375 L 2703,1730 L 2565,2062 L 2432.26,2235.53 L 2461,2166 L 2500,1875 L 2461,1583 L 2349,1312 L 1375,1875 L 1375,1375 L 1375,750 L 1083,788 L 812,900 L 579,1079 L 400,1312 L 288,1583 L 250,1875 L 288,2166 L 316.736,2235.53 L 184,2062 L 46,1730 L -0,1374 L 46,1019 z" style="fill-opacity:0.3;fill:rgb(0,0,255);stroke:rgb(51,51,153);stroke-width:7.500000" />
</g></svg>