<?xml version="1.0" standalone="no"?>
<!DOCTYPE svg PUBLIC "-//W3C//DTD SVG 1.1//EN"
"http://www.w3.org/Graphics/SVG/1.1/DTD/svg11.dtd">
<svg viewBox="0 0 300 300" version="1.1"
xmlns="http://www.w3.org/2000/svg"
xmlns:xlink="http://www.w3.org/1999/xlink">
<g fill-rule="evenodd"><path d="M 158.318,65.3869 L 178.385,68.0437 L 150,96.4286 L 158.318,65.3869 z " style="fill-opacity:0.3;fill:rgb(0,0,255);stroke:rgb(51,51,153);stroke-width:1"/></g>
<g fill-rule="evenodd"><path d="M 158.318,65.3869 L 150,64.2857 L 150,96.4286 L 150,182.143 L 91.0286,80.1429 L 66.6,98.8286 L 55.7327,113.036 L 53.5714,96.4286 L 56.8286,71.4857 L 66.4286,48.2571 L 81.7714,28.2857 L 101.743,12.9429 L 124.971,3.34286 L 149.914,0 L 174.943,3.34286 L 158.318,65.3869 z " style="fill-opacity:0.3;fill:rgb(0,0,255);stroke:rgb(51,51,153);stroke-width:1"/></g>
<g fill-rule="evenodd"><path d="M 178.385,68.0437 L 218.143,28.2857 L 233.486,48.2571 L 243.086,71.4857 L 246.429,96.4286 L 244.206,113.068 L 233.314,98.8286 L 208.886,80.1429 L 180.429,68.3143 L 178.385,68.0437 z " style="fill-opacity:0.3;fill:rgb(0,0,255);stroke:rgb(51,51,153);stroke-width:1"/></g>
<g fill-rule="evenodd"><path d="M 55.7327,113.036 L 56.8286,121.457 L 66.4286,144.686 L 81.7714,164.657 L 101.743,180 L 124.971,189.6 L 149.914,192.857 L 174.943,189.6 L 198.171,180 L 218.143,164.657 L 233.486,144.686 L 243.086,121.457 L 244.206,113.068 L 252,123.257 L 263.829,151.714 L 267.857,182.143 L 263.829,212.657 L 252,241.114 L 233.314,265.543 L 208.886,284.229 L 180.429,296.057 L 149.914,300 L 119.486,296.057 L 91.0286,284.229 L 66.6,265.543 L 47.9143,241.114 L 36.0857,212.657 L 32.1429,182.229 L 36.0857,151.714 L 47.9143,123.257 L 55.7327,113.036 z " style="fill-opacity:0.3;fill:rgb(0,0,255);stroke:rgb(51,51,153);stroke-width:1"/></g>
</svg>
