<?xml version="1.0" standalone="no"?>
<!DOCTYPE svg PUBLIC "-//W3C//DTD SVG 1.1//EN"
"http://www.w3.org/Graphics/SVG/1.1/DTD/svg11.dtd">
<svg viewBox="0 0 300 300" version="1.1"
xmlns="http://www.w3.org/2000/svg"
xmlns:xlink="http://www.w3.org/1999/xlink">
<g fill-rule="evenodd"><path d="M 150,150 L 150,0 L 188.727,5.12727 L 224.945,20.1818 L 256.036,43.9636 L 279.818,75.0545 L 294.873,111.273 L 300,150 L 294.873,188.836 L 279.818,225.055 L 256.036,256.145 L 224.945,279.927 L 188.727,294.982 L 149.891,300 L 111.164,294.982 L 74.9455,279.927 L 43.8545,256.145 L 20.0727,225.055 L 5.01818,188.836 L 2.84217e-14,150.109 L 5.01818,111.273 L 20.0727,75.0545 L 43.8545,43.9636 L 74.9455,20.1818 L 88.5728,43.7524 L 63.1636,63.2727 L 43.6364,88.6909 L 31.4182,118.255 L 27.2727,150 L 31.4182,181.855 L 43.6364,211.418 L 63.1636,236.836 L 88.5818,256.364 L 118.145,268.582 L 149.891,272.727 L 181.745,268.582 L 211.309,256.364 L 236.727,236.836 L 256.255,211.418 L 268.473,181.855 L 272.727,150 L 268.473,118.255 L 150,150M 150,150 L 211.309,43.7455 L 181.745,31.5273 L 150,150 z " style="fill-opacity:0.3;fill:rgb(0,0,255);stroke:rgb(51,51,153);stroke-width:1"/></g>
<g fill-rule="evenodd"><path d="M 150,150 L 88.5728,43.7524 L 88.5818,43.7455 L 118.145,31.5273 L 150,150 z " style="fill-opacity:0.3;fill:rgb(0,0,255);stroke:rgb(51,51,153);stroke-width:1"/></g>
</svg>
