<?xml version="1.0" standalone="no"?>
<!DOCTYPE svg PUBLIC "-//W3C//DTD SVG 1.1//EN"
"http://www.w3.org/Graphics/SVG/1.1/DTD/svg11.dtd">
<svg viewBox="0 0 300 300" version="1.1"
xmlns="http://www.w3.org/2000/svg"
xmlns:xlink="http://www.w3.org/1999/xlink">
<g fill-rule="evenodd"><path d="M 47.2047,83.4363 L 47.2047,83.4363 L 46.7075,82.2036 L 47.2047,83.4363 z " style="fill-opacity:0.3;fill:rgb(0,0,255);stroke:rgb(51,51,153);stroke-width:1"/></g>
<g fill-rule="evenodd"><path d="M 47.2047,83.4363 L 58.6123,72.0288 L 60.0705,63.2792 L 49.8626,51.6129 L 36.7382,57.446 L 39.0527,81.7478 L 46.7075,82.2036 L 15.1104,80.322 L 21.6346,49.165 L 34.222,50.095 L 40.4909,30.066 L 95.0233,48.0411 L 96.8066,105.517 L 147.613,118.053 L 147.411,123.507 L 149.632,127.144 L 152.662,129.973 L 157.308,130.175 L 161.751,128.761 L 163.972,125.528 L 204.977,132.5 L 205.676,56.6201 L 211.143,60.4166 L 232.454,74.6277 L 239.658,77.8298 L 285.582,94.2427 L 288.969,100.668 L 299.874,90.6383 L 300,106.419 L 296.068,269.934 L 276.371,265.583 L 203.71,249.891 L 135.832,234.946 L 125.272,233.598 L 119.891,233.156 L 103.983,233.356 L 86.1738,235.558 L 66.5633,239.16 L 28.8452,246.566 L 21.041,222.547 L 5.23252,175.71 L -2.91038e-11,159.765 L 29.4675,162.178 L 57.6606,148.723 L 59.5827,114.123 L 47.2047,83.4363 z " style="fill-opacity:0.3;fill:rgb(0,0,255);stroke:rgb(51,51,153);stroke-width:1"/></g>
</svg>
