<?xml version="1.0" standalone="no"?>
<!DOCTYPE svg PUBLIC "-//W3C//DTD SVG 1.1//EN"
"http://www.w3.org/Graphics/SVG/1.1/DTD/svg11.dtd">
<svg  version="1.1" xmlns="http://www.w3.org/2000/svg" xmlns:xlink="http://www.w3.org/1999/xlink" viewBox="0 0 332.593 265.928">
<g title="A + B (CGAL EPECK)" fill-rule="evenodd">
<path d="M 332.453,198.775 L 320.364,187.656 L 316.609,194.779 L 265.695,212.975 L 257.709,216.525 L 234.082,232.28 L 228.021,236.489 L 227.246,152.365 L 181.787,160.095 L 179.324,156.511 L 174.398,154.943 L 169.248,155.167 L 165.889,158.303 L 163.426,162.335 L 163.65,168.382 L 107.324,182.28 L 105.347,246 L 44.89,265.928 L 37.94,243.723 L 23.985,244.754 L 16.752,210.212 L 51.782,208.126 L 52.3332,206.759 L 52.3332,206.759 L 66.056,172.739 L 63.925,134.38 L 32.669,119.463 L -0,122.138 L 5.801,104.461 L 23.327,52.535 L 31.979,25.907 L 73.795,34.117 L 95.536,38.111 L 115.28,40.552 L 132.916,40.774 L 138.882,40.284 L 150.589,38.789 L 225.842,22.221 L 306.397,4.824 L 328.234,-0 L 332.593,181.28 L 332.453,198.775 M 65.295,223.852 L 64.629,219.857 L 61.302,216.751 L 58.196,214.976 L 51.097,215.198 L 47.326,219.857 L 44.886,226.958 L 44.664,230.952 L 46.438,234.281 L 50.653,236.278 L 55.978,236.278 L 61.302,233.171 L 64.629,228.733 L 65.295,223.852 z" style="fill-opacity:0.3;fill:rgb(0,0,255);stroke:rgb(51,51,153);stroke-width:0.831483" />
</g></svg>