<?xml version="1.0" standalone="no"?>
<!DOCTYPE svg PUBLIC "-//W3C//DTD SVG 1.1//EN"
"http://www.w3.org/Graphics/SVG/1.1/DTD/svg11.dtd">
<svg viewBox="0 0 300 300" version="1.1"
xmlns="http://www.w3.org/2000/svg"
xmlns:xlink="http://www.w3.org/1999/xlink">
<g fill-rule="evenodd"><path d="M 195.623,0.02924 L 195.622,0.02857 L 195.618,0.02832 L 195.617,0.01500 L 195.624,0.01181 L 195.630,0.01820 L 195.629,0.02299 L 195.623,0.02924M 195.620,0.01564 L 195.619,0.01729 L 195.619,0.01926 L 195.620,0.02277 L 195.622,0.02507 L 195.626,0.02518 L 195.627,0.02430 L 195.629,0.02277 L 195.629,0.02079 L 195.629,0.01838 L 195.627,0.01619 L 195.624,0.01465 L 195.622,0.01465 L 195.620,0.01564 z " style="fill-opacity:0.3;fill:rgb(255,0,0);stroke:rgb(0,0,0);stroke-width:1"/></g>
<g fill-rule="evenodd"><path d="M 195.597,0.07106 L 195.613,0.07238 L 195.628,0.06501 L 195.629,0.04605 L 195.622,0.02857 L 195.605,0.02753 L 195.609,0.01046 L 195.616,0.01097 L 195.619,0 L 195.649,0.00985 L 195.650,0.04134 L 195.678,0.04821 L 195.678,0.05120 L 195.679,0.05319 L 195.680,0.05474 L 195.683,0.05485 L 195.685,0.05407 L 195.687,0.05230 L 195.709,0.05612 L 195.709,0.01455 L 195.712,0.01663 L 195.724,0.02441 L 195.728,0.02617 L 195.753,0.03516 L 195.755,0.03868 L 195.761,0.03319 L 195.761,0.04183 L 195.759,0.13142 L 195.748,0.12904 L 195.708,0.12044 L 195.671,0.11225 L 195.665,0.11151 L 195.662,0.11127 L 195.654,0.11138 L 195.644,0.11259 L 195.633,0.11456 L 195.613,0.11862 L 195.608,0.10546 L 195.600,0.07980 L 195.597,0.07106M 195.620,0.01564 L 195.619,0.01729 L 195.619,0.01926 L 195.620,0.02277 L 195.622,0.02507 L 195.626,0.02518 L 195.627,0.02430 L 195.629,0.02277 L 195.629,0.02079 L 195.629,0.01838 L 195.627,0.01619 L 195.624,0.01465 L 195.622,0.01465 L 195.620,0.01564 z " style="fill-opacity:0.3;fill:rgb(0,255,0);stroke:rgb(0,0,0);stroke-width:1"/></g>
</svg>
