<?xml version="1.0" standalone="no"?>
<!DOCTYPE svg PUBLIC "-//W3C//DTD SVG 1.1//EN"
"http://www.w3.org/Graphics/SVG/1.1/DTD/svg11.dtd">
<svg  version="1.1" xmlns="http://www.w3.org/2000/svg" xmlns:xlink="http://www.w3.org/1999/xlink" viewBox="0 0 332.593 265.928">
<g title="A + B (CGAL EPECK)" fill-rule="evenodd">
<path d="M 52.3332,206.759 L 52.3332,206.759 L 51.7820,208.126 L 52.3332,206.759 z" style="fill-opacity:0.3;fill:rgb(0,0,255);stroke:rgb(51,51,153);stroke-width:0.831483" />
<path d="M 52.3332,206.759 L 64.9801,219.406 L 66.5968,229.106 L 55.2798,242.040 L 40.7296,235.573 L 43.2955,208.631 L 51.7820,208.126 L 16.7520,210.212 L 23.9850,244.754 L 37.9400,243.723 L 44.8900,265.928 L 105.347,246.000 L 107.324,182.280 L 163.650,168.382 L 163.426,162.335 L 165.889,158.303 L 169.248,155.167 L 174.398,154.943 L 179.324,156.511 L 181.787,160.095 L 227.246,152.365 L 228.021,236.489 L 234.082,232.280 L 257.709,216.525 L 265.695,212.975 L 316.609,194.779 L 320.364,187.656 L 332.453,198.775 L 332.593,181.280 L 328.234,-1.86265e-11 L 306.397,4.82400 L 225.842,22.2210 L 150.589,38.7890 L 138.882,40.2840 L 132.916,40.7740 L 115.280,40.5520 L 95.5360,38.1110 L 73.7950,34.1170 L 31.9790,25.9070 L 23.3270,52.5350 L 5.80100,104.461 L 1.23400e-11,122.138 L 32.6690,119.463 L 63.9250,134.380 L 66.0560,172.739 L 52.3332,206.759 z" style="fill-opacity:0.3;fill:rgb(0,0,255);stroke:rgb(51,51,153);stroke-width:0.831483" />
</g></svg>