<?xml version="1.0" standalone="no"?>
<!DOCTYPE svg PUBLIC "-//W3C//DTD SVG 1.1//EN"
"http://www.w3.org/Graphics/SVG/1.1/DTD/svg11.dtd">
<svg  version="1.1" xmlns="http://www.w3.org/2000/svg" xmlns:xlink="http://www.w3.org/1999/xlink" viewBox="0 0 1802 1800">
<g title="A + B (CGAL EPECK)" fill-rule="evenodd">
<path d="M 2,-0 L 1802,-0 L 1802,1800 L 2,1800 L 2,695 L -0,693 L -0,495 L 300,727 L 2,198 L 2,-0 M 643.966,1336.97 L 300,727 L 2,497 L 2,695 L 643.966,1336.97 M 1124.79,1367.96 L 900,1593 L 643.966,1336.97 L 900,1791 L 1124.79,1367.96 M 1800,692 L 1800,495 L 1441.23,772.449 L 1124.79,1367.96 L 1800,692 M 1442,771 L 900,1191 L 1441.23,772.449 L 1442,771 M 1800,495 L 1800,99 L 1442,771 L 1800,495 z" style="fill-opacity:0.3;fill:rgb(0,0,255);stroke:rgb(51,51,153);stroke-width:4.505000" />
</g></svg>