<?xml version="1.0" standalone="no"?>
<!DOCTYPE svg PUBLIC "-//W3C//DTD SVG 1.1//EN"
"http://www.w3.org/Graphics/SVG/1.1/DTD/svg11.dtd">
<svg viewBox="0 0 300 300" version="1.1"
xmlns="http://www.w3.org/2000/svg"
xmlns:xlink="http://www.w3.org/1999/xlink">
<g fill-rule="evenodd"><path d="M 54.2553,159.574 L 60.6383,172.34 L 60.6383,191.489 L 70.2128,191.489 L 73.4043,197.872 L 73.4043,191.489 L 81.9149,191.489 L 86.1702,197.872 L 90.9574,191.489 L 92.5532,191.489 L 92.5532,189.362 L 105.319,172.34 L 111.702,172.34 L 130.851,185.106 L 118.085,185.106 L 111.702,178.723 L 111.702,191.489 L 111.702,197.872 L 105.319,210.638 L 118.085,197.872 L 124.468,223.404 L 105.319,217.021 L 92.5532,236.17 L 86.1702,223.404 L 73.4043,236.17 L 73.4043,287.234 L 9.57447,287.234 L 28.7234,268.085 L 22.3404,153.191 L 41.4894,146.809 L 54.2553,146.809 L 73.4043,146.809 L 73.4043,159.574 L 60.6383,159.574 L 60.6383,165.957 L 54.2553,159.574 z " style="fill-opacity:0.3;fill:rgb(0,0,255);stroke:rgb(51,51,153);stroke-width:1"/></g>
<g fill-rule="evenodd"><path d="M 73.4043,159.574 L 92.5532,159.574 L 92.5532,189.362 L 90.9574,191.489 L 81.9149,191.489 L 73.4043,178.723 L 73.4043,159.574 z " style="fill-opacity:0.3;fill:rgb(0,0,255);stroke:rgb(51,51,153);stroke-width:1"/></g>
<g fill-rule="evenodd"><path d="M 86.1702,153.191 L 105.319,165.957 L 105.319,172.34 L 86.1702,153.191 z " style="fill-opacity:0.3;fill:rgb(0,0,255);stroke:rgb(51,51,153);stroke-width:1"/></g>
<g fill-rule="evenodd"><path d="M 60.6383,165.957 L 73.4043,178.723 L 73.4043,191.489 L 70.2128,191.489 L 60.6383,172.34 L 60.6383,165.957 z " style="fill-opacity:0.3;fill:rgb(0,0,255);stroke:rgb(51,51,153);stroke-width:1"/></g>
<g fill-rule="evenodd"><path d="M 150,172.34 L 156.383,178.723 L 169.149,185.106 L 162.766,197.872 L 143.617,178.723 L 118.085,159.574 L 124.468,153.191 L 137.234,153.191 L 150,172.34 z " style="fill-opacity:0.3;fill:rgb(0,0,255);stroke:rgb(51,51,153);stroke-width:1"/></g>
<g fill-rule="evenodd"><path d="M 150,172.34 L 169.149,153.191 L 175.532,153.191 L 175.532,159.574 L 194.681,159.574 L 175.532,185.106 L 169.149,185.106 L 175.532,165.957 L 150,172.34 z " style="fill-opacity:0.3;fill:rgb(0,0,255);stroke:rgb(51,51,153);stroke-width:1"/></g>
<g fill-rule="evenodd"><path d="M 169.149,153.191 L 137.234,153.191 L 130.851,140.426 L 137.234,134.043 L 130.851,134.043 L 124.468,127.66 L 98.9362,127.66 L 98.9362,121.277 L 86.1702,121.277 L 92.5532,114.894 L 98.9362,114.894 L 118.085,121.277 L 111.702,108.511 L 143.617,89.3617 L 175.532,134.043 L 156.383,114.894 L 143.617,134.043 L 169.149,153.191 z " style="fill-opacity:0.3;fill:rgb(0,0,255);stroke:rgb(51,51,153);stroke-width:1"/></g>
<g fill-rule="evenodd"><path d="M 194.681,134.043 L 181.915,140.426 L 150,134.043 L 194.681,134.043 z " style="fill-opacity:0.3;fill:rgb(0,0,255);stroke:rgb(51,51,153);stroke-width:1"/></g>
<g fill-rule="evenodd"><path d="M 124.468,191.489 L 130.851,185.106 L 162.766,204.255 L 156.383,223.404 L 124.468,191.489 z " style="fill-opacity:0.3;fill:rgb(0,0,255);stroke:rgb(51,51,153);stroke-width:1"/></g>
<g fill-rule="evenodd"><path d="M 124.468,191.489 L 118.085,197.872 L 118.085,185.106 L 124.468,191.489 z " style="fill-opacity:0.3;fill:rgb(0,0,255);stroke:rgb(51,51,153);stroke-width:1"/></g>
<g fill-rule="evenodd"><path d="M 143.617,89.3617 L 92.5532,25.5319 L 220.213,57.4468 L 143.617,89.3617 z " style="fill-opacity:0.3;fill:rgb(0,0,255);stroke:rgb(51,51,153);stroke-width:1"/></g>
<g fill-rule="evenodd"><path d="M 290.426,300 L 130.851,293.617 L 150,242.553 L 137.234,268.085 L 124.468,223.404 L 150,236.17 L 290.426,300 z " style="fill-opacity:0.3;fill:rgb(0,0,255);stroke:rgb(51,51,153);stroke-width:1"/></g>
<g fill-rule="evenodd"><path d="M 290.426,300 L 181.915,223.404 L 188.298,210.638 L 271.277,274.468 L 284.043,280.851 L 290.426,300 z " style="fill-opacity:0.3;fill:rgb(0,0,255);stroke:rgb(51,51,153);stroke-width:1"/></g>
<g fill-rule="evenodd"><path d="M 162.766,204.255 L 162.766,197.872 L 169.149,197.872 L 169.149,210.638 L 162.766,204.255 z " style="fill-opacity:0.3;fill:rgb(0,0,255);stroke:rgb(51,51,153);stroke-width:1"/></g>
<g fill-rule="evenodd"><path d="M 220.213,57.4468 L 258.511,38.2979 L 252.128,159.574 L 207.447,146.809 L 220.213,108.511 L 201.064,146.809 L 188.298,146.809 L 194.681,134.043 L 226.596,89.3617 L 232.979,57.4468 L 220.213,57.4468 z " style="fill-opacity:0.3;fill:rgb(0,0,255);stroke:rgb(51,51,153);stroke-width:1"/></g>
<g fill-rule="evenodd"><path d="M 22.3404,153.191 L 22.3404,140.426 L 15.9574,108.511 L 35.1064,140.426 L 22.3404,153.191 z " style="fill-opacity:0.3;fill:rgb(0,0,255);stroke:rgb(51,51,153);stroke-width:1"/></g>
<g fill-rule="evenodd"><path d="M 124.468,153.191 L 105.319,146.809 L 98.9362,140.426 L 130.851,134.043 L 130.851,140.426 L 124.468,153.191 z " style="fill-opacity:0.3;fill:rgb(0,0,255);stroke:rgb(51,51,153);stroke-width:1"/></g>
<g fill-rule="evenodd"><path d="M 98.9362,140.426 L 98.9362,146.809 L 86.1702,140.426 L 98.9362,140.426 z " style="fill-opacity:0.3;fill:rgb(0,0,255);stroke:rgb(51,51,153);stroke-width:1"/></g>
<g fill-rule="evenodd"><path d="M 73.4043,287.234 L 92.5532,236.17 L 124.468,293.617 L 73.4043,287.234 z " style="fill-opacity:0.3;fill:rgb(0,0,255);stroke:rgb(51,51,153);stroke-width:1"/></g>
<g fill-rule="evenodd"><path d="M 73.4043,19.1489 L 73.4043,0 L 92.5532,25.5319 L 73.4043,19.1489 z " style="fill-opacity:0.3;fill:rgb(0,0,255);stroke:rgb(51,51,153);stroke-width:1"/></g>
<g fill-rule="evenodd"><path d="M 73.4043,19.1489 L 73.4043,95.7447 L 60.6383,89.3617 L 73.4043,19.1489 z " style="fill-opacity:0.3;fill:rgb(0,0,255);stroke:rgb(51,51,153);stroke-width:1"/></g>
<g fill-rule="evenodd"><path d="M 73.4043,102.128 L 73.4043,95.7447 L 86.1702,102.128 L 73.4043,102.128 z " style="fill-opacity:0.3;fill:rgb(0,0,255);stroke:rgb(51,51,153);stroke-width:1"/></g>
<g fill-rule="evenodd"><path d="M 73.4043,102.128 L 73.4043,121.277 L 60.6383,114.894 L 60.6383,108.511 L 73.4043,102.128 z " style="fill-opacity:0.3;fill:rgb(0,0,255);stroke:rgb(51,51,153);stroke-width:1"/></g>
<g fill-rule="evenodd"><path d="M 73.4043,127.66 L 73.4043,121.277 L 86.1702,121.277 L 73.4043,127.66 z " style="fill-opacity:0.3;fill:rgb(0,0,255);stroke:rgb(51,51,153);stroke-width:1"/></g>
<g fill-rule="evenodd"><path d="M 73.4043,127.66 L 67.0213,134.043 L 54.2553,121.277 L 60.6383,114.894 L 73.4043,127.66 z " style="fill-opacity:0.3;fill:rgb(0,0,255);stroke:rgb(51,51,153);stroke-width:1"/></g>
<g fill-rule="evenodd"><path d="M 73.4043,127.66 L 86.1702,140.426 L 73.4043,140.426 L 73.4043,127.66 z " style="fill-opacity:0.3;fill:rgb(0,0,255);stroke:rgb(51,51,153);stroke-width:1"/></g>
<g fill-rule="evenodd"><path d="M 86.1702,102.128 L 92.5532,102.128 L 79.7872,63.8298 L 111.702,108.511 L 98.9362,114.894 L 86.1702,102.128 z " style="fill-opacity:0.3;fill:rgb(0,0,255);stroke:rgb(51,51,153);stroke-width:1"/></g>
<g fill-rule="evenodd"><path d="M 60.6383,89.3617 L 60.6383,108.511 L 47.8723,108.511 L 54.2553,114.894 L 47.8723,114.894 L 54.2553,121.277 L 54.2553,134.043 L 28.7234,108.511 L 15.9574,102.128 L 15.9574,63.8298 L 60.6383,89.3617 z " style="fill-opacity:0.3;fill:rgb(0,0,255);stroke:rgb(51,51,153);stroke-width:1"/></g>
<g fill-rule="evenodd"><path d="M 201.064,159.574 L 194.681,159.574 L 194.681,153.191 L 201.064,146.809 L 207.447,146.809 L 201.064,159.574 z " style="fill-opacity:0.3;fill:rgb(0,0,255);stroke:rgb(51,51,153);stroke-width:1"/></g>
<g fill-rule="evenodd"><path d="M 201.064,159.574 L 239.362,210.638 L 188.298,191.489 L 201.064,159.574 z " style="fill-opacity:0.3;fill:rgb(0,0,255);stroke:rgb(51,51,153);stroke-width:1"/></g>
<g fill-rule="evenodd"><path d="M 201.064,159.574 L 258.511,159.574 L 258.511,165.957 L 252.128,165.957 L 245.745,210.638 L 201.064,159.574 z " style="fill-opacity:0.3;fill:rgb(0,0,255);stroke:rgb(51,51,153);stroke-width:1"/></g>
<g fill-rule="evenodd"><path d="M 181.915,159.574 L 175.532,153.191 L 181.915,146.809 L 181.915,140.426 L 188.298,146.809 L 181.915,159.574 z " style="fill-opacity:0.3;fill:rgb(0,0,255);stroke:rgb(51,51,153);stroke-width:1"/></g>
<g fill-rule="evenodd"><path d="M 284.043,165.957 L 258.511,159.574 L 284.043,12.766 L 284.043,165.957 z " style="fill-opacity:0.3;fill:rgb(0,0,255);stroke:rgb(51,51,153);stroke-width:1"/></g>
<g fill-rule="evenodd"><path d="M 284.043,165.957 L 284.043,280.851 L 277.66,261.702 L 245.745,223.404 L 252.128,217.021 L 258.511,165.957 L 284.043,165.957 z " style="fill-opacity:0.3;fill:rgb(0,0,255);stroke:rgb(51,51,153);stroke-width:1"/></g>
<g fill-rule="evenodd"><path d="M 188.298,191.489 L 188.298,210.638 L 169.149,197.872 L 175.532,185.106 L 188.298,191.489 z " style="fill-opacity:0.3;fill:rgb(0,0,255);stroke:rgb(51,51,153);stroke-width:1"/></g>
<g fill-rule="evenodd"><path d="M 181.915,223.404 L 175.532,242.553 L 156.383,223.404 L 169.149,210.638 L 181.915,223.404 z " style="fill-opacity:0.3;fill:rgb(0,0,255);stroke:rgb(51,51,153);stroke-width:1"/></g>
<g fill-rule="evenodd"><path d="M 239.362,210.638 L 245.745,210.638 L 252.128,217.021 L 245.745,217.021 L 239.362,210.638 z " style="fill-opacity:0.3;fill:rgb(0,0,255);stroke:rgb(51,51,153);stroke-width:1"/></g>
</svg>
