<?xml version="1.0" standalone="no"?>
<!DOCTYPE svg PUBLIC "-//W3C//DTD SVG 1.1//EN"
"http://www.w3.org/Graphics/SVG/1.1/DTD/svg11.dtd">
<svg  version="1.1" xmlns="http://www.w3.org/2000/svg" xmlns:xlink="http://www.w3.org/1999/xlink" viewBox="0 0 6.79404 5.63483">
<g title="A + B (CGAL EPECK)" fill-rule="evenodd">
<path d="M 0.48949,3.95190 L 0.48894,3.95002 L 0.48894,3.95002 L 0.41677,3.70609 L 0.34348,3.46124 L 0.34348,3.46124 L 0.27011,3.21735 L 0.27011,3.21735 L 0.19663,2.97252 L 0.12303,2.72767 L 0.12303,2.72767 L 0.10479,2.66811 L 3.38241e-15,3.28046 L 0.48949,3.95190 z" style="fill-opacity:0.3;fill:rgb(0,0,255);stroke:rgb(51,51,153);stroke-width:0.016985" />
<path d="M 2.00146,4.93321 L 2.06826,5.17866 L 2.08278,5.23126 L 2.31287,5.29991 L 3.39702,5.63483 L 4.48118,5.29991 L 5.57284,4.97418 L 6.17779,4.12579 L 6.79404,3.28046 L 6.62580,2.29736 L 6.45364,1.31465 L 5.54605,0.65696 L 4.62353,0.00629 L 3.39702,9.08130e-16 L 2.17051,0.00629 L 1.24800,0.65696 L 0.85470,0.94197 L 0.87654,1.01423 L 0.94931,1.25853 L 1.02205,1.50386 L 1.02205,1.50387 L 1.02206,1.50387 L 1.09370,1.74821 L 1.16530,1.99354 L 1.16530,1.99354 L 1.23680,2.23786 L 1.30825,2.48223 L 1.37866,2.72759 L 1.44900,2.97295 L 1.51926,3.21736 L 1.58947,3.46271 L 1.65861,3.70713 L 1.72770,3.95253 L 1.79673,4.19792 L 1.79674,4.19793 L 1.79674,4.19794 L 1.86471,4.44335 L 1.93360,4.68777 L 2.00146,4.93321 L 2.00146,4.93321 z" style="fill-opacity:0.3;fill:rgb(0,0,255);stroke:rgb(51,51,153);stroke-width:0.016985" />
</g></svg>