<?xml version="1.0" standalone="no"?>
<!DOCTYPE svg PUBLIC "-//W3C//DTD SVG 1.1//EN"
"http://www.w3.org/Graphics/SVG/1.1/DTD/svg11.dtd">
<svg viewBox="0 0 300 300" version="1.1"
xmlns="http://www.w3.org/2000/svg"
xmlns:xlink="http://www.w3.org/1999/xlink">
<g fill-rule="evenodd"><path d="M 79.0241,278.248 L 170.679,288.368 L 69.4837,299.142 L 61.4229,300 L 60.6584,276.22 L 61.5425,279.496 L 79.0241,278.248 z " style="fill-opacity:0.3;fill:rgb(0,0,255);stroke:rgb(51,51,153);stroke-width:1"/></g>
<g fill-rule="evenodd"><path d="M 79.0241,278.248 L 60.6584,276.22 L 61.3317,276.295 L 60.014,256.278 L 60.2024,219.6 L 63.2007,197.467 L 64.3043,160.25 L 62.8492,87.8864 L 94.9263,-1.77636e-14 L 132.346,42.8383 L 239.986,31.1696 L 196.425,110.185 L 211.981,112.782 L 215.362,153.807 L 214.349,201.246 L 210.319,237.63 L 211.197,254.326 L 212.354,268.73 L 211.456,284.027 L 170.679,288.368 L 79.0241,278.248 L 79.0241,278.248 z " style="fill-opacity:0.3;fill:rgb(0,0,255);stroke:rgb(51,51,153);stroke-width:1"/></g>
<g fill-rule="evenodd"><path d="M 211.456,284.027 L 211.768,283.994 L 210.94,292.814 L 211.456,284.027 z " style="fill-opacity:0.3;fill:rgb(0,0,255);stroke:rgb(51,51,153);stroke-width:1"/></g>
</svg>
