<?xml version="1.0" standalone="no"?>
<!DOCTYPE svg PUBLIC "-//W3C//DTD SVG 1.1//EN"
"http://www.w3.org/Graphics/SVG/1.1/DTD/svg11.dtd">
<svg  version="1.1" xmlns="http://www.w3.org/2000/svg" xmlns:xlink="http://www.w3.org/1999/xlink" viewBox="0 0 396 378">
<g title="A - B (CGAL Real)" fill-rule="evenodd">
<path d="M 20.0,162.0 L 47.0,158.0 L 79.5124,163.989 L 62.9302,178.535 L 50.0,185.0 L 44.0,180.0 L 27.0,178.0 L 18.0,170.0 L 20.0,162.0 z" style="fill-opacity:0.3;fill:rgb(0,0,255);stroke:rgb(51,51,153);stroke-width:0.990000" />
<path d="M 26.0,35.0 L 55.0857,34.0305 L 55.0,34.0 L 56.0,29.5000 L 56.0,26.0 L 51.0,15.0 L 53.0,13.0 L 54.0,12.0 L 56.0,10.0 L 58.7200,9.32000 L 59.0,9.0 L 59.5556,9.11100 L 64.0,8.0 L 65.1790,9.27200 L 68.3333,10.0 L 73.0,10.0 L 91.0,15.0 L 92.0,15.0 L 99.0,15.0 L 106.0,8.0 L 106.067,8.04900 L 106.652,7.39100 L 107.0,6.0 L 110.782,10.0730 L 121.464,18.7520 L 123.125,19.7080 L 124.0,20.0 L 130.0,22.0 L 137.0,24.0 L 138.167,24.1670 L 144.667,24.6670 L 146.963,23.5190 L 157.968,6.58700 L 159.0,0 L 166.158,8.94700 L 168.0,10.0 L 175.500,13.7500 L 176.290,14.0320 L 185.0,15.0 L 194.0,17.0 L 193.156,20.0380 L 207.0,12.0 L 200.917,25.8240 L 211.0,22.0 L 197.482,33.6317 L 196.243,36.4485 L 199.0,37.0 L 197.806,37.9552 L 198.0,38.0 L 195.136,40.0909 L 171.143,59.2857 L 168.733,72.8686 L 170.974,79.6947 L 172.917,83.8843 L 173.0,84.0 L 173.148,84.3457 L 179.423,94.9524 L 181.592,97.7280 L 185.0,100.0 L 185.442,102.654 L 190.296,108.864 L 192.0,110.0 L 199.0,115.0 L 199.376,115.564 L 204.930,118.213 L 261.0,142.0 L 256.286,142.0 L 260.0,143.0 L 258.414,143.721 L 393.196,313.001 L 396.0,318.0 L 385.971,330.765 L 385.0,345.0 L 383.627,347.027 L 383.317,352.454 L 389.0,358.0 L 106.079,230.454 L 114.532,140.009 L 116.0,139.0 L 114.643,138.819 L 115.0,135.0 L 108.119,137.949 L 101.0,137.0 L 42.0,135.0 L 27.0,121.0 L 57.0,111.0 L 117.0,119.0 L 126.0,120.0 L 130.0,118.0 L 131.0,116.0 L 119.0,100.0 L 137.0,116.0 L 139.0,115.0 L 132.526,95.5789 L 125.0,95.0 L 121.0,93.0 L 116.0,89.0 L 106.0,80.0 L 111.0,79.0 L 116.0,78.0 L 119.0,76.0 L 125.0,77.0 L 125.963,76.3580 L 114.469,58.1587 L 108.019,53.7726 L 93.8311,50.4852 L 91.0,51.0 L 91.0,50.0 L 91.0,49.8293 L 33.3080,36.4615 L 26.0,35.0 z" style="fill-opacity:0.3;fill:rgb(0,0,255);stroke:rgb(51,51,153);stroke-width:0.990000" />
<path d="M 51.0,196.0 L 52.0,193.0 L 51.0,189.0 L 64.4196,190.988 L 70.6649,181.509 L 72.0,181.0 L 79.0,185.0 L 66.1011,212.431 L 41.9750,201.554 L 51.0,196.0 z" style="fill-opacity:0.3;fill:rgb(0,0,255);stroke:rgb(51,51,153);stroke-width:0.990000" />
</g></svg>