<?xml version="1.0" standalone="no"?>
<!DOCTYPE svg PUBLIC "-//W3C//DTD SVG 1.1//EN"
"http://www.w3.org/Graphics/SVG/1.1/DTD/svg11.dtd">
<svg viewBox="0 0 300 300" version="1.1"
xmlns="http://www.w3.org/2000/svg"
xmlns:xlink="http://www.w3.org/1999/xlink">
<g fill-rule="evenodd"><path d="M 206.790,271.520 L 205.736,258.401 L 204.936,243.196 L 208.606,210.059 L 209.529,166.853 L 206.450,129.488 L 192.282,127.123 L 231.956,55.1591 L 133.922,65.7866 L 99.8409,26.7710 L 70.6263,106.815 L 71.9515,172.721 L 70.9464,206.616 L 68.2156,226.775 L 68.0440,260.180 L 69.2442,278.410 L 68.6310,278.342 L 69.4361,281.326 L 85.3578,280.189 L 168.833,289.406 L 205.502,293.455 L 206.790,271.520 z " style="fill-opacity:0.3;fill:rgb(255,0,0);stroke:rgb(0,0,0);stroke-width:1"/></g>
<g fill-rule="evenodd"><path d="M 168.833,289.406 L 205.502,293.455 L 206.256,285.422 L 168.833,289.406 z " style="fill-opacity:0.3;fill:rgb(0,255,0);stroke:rgb(0,0,0);stroke-width:1"/></g>
<g fill-rule="evenodd"><path d="M 69.3272,300.000 L 76.6687,299.218 L 168.833,289.406 L 68.6310,278.342 L 69.3272,300.000 z " style="fill-opacity:0.3;fill:rgb(0,255,0);stroke:rgb(0,0,0);stroke-width:1"/></g>
</svg>
