<?xml version="1.0" standalone="no"?>
<!DOCTYPE svg PUBLIC "-//W3C//DTD SVG 1.1//EN"
"http://www.w3.org/Graphics/SVG/1.1/DTD/svg11.dtd">
<svg  version="1.1" xmlns="http://www.w3.org/2000/svg" xmlns:xlink="http://www.w3.org/1999/xlink" viewBox="0 0 44 47">
<g title="A + B (CGAL EPECK)" fill-rule="evenodd">
<path d="M 39,22 L 38,22 L 39,41 L 33,38 L 13,43 L 10,47 L 10,44 L 8,33 L 1,37 L 1,31 L 3,30 L 7,26 L 7,28 L 9,26 L 9,25 L 7,25 L 7,24 L 5,24 L 2,23 L 4,25 L 1,30 L 2,25 L 2,23 L 3,5 L -0,2 L 10,2 L 18,1 L 13,10 L 15,13 L 18,12 L 20,5 L 22,9 L 19,1 L 44,-0 L 43,3 L 43,21 L 43,45 L 39,22 M 43,21 L 39,21 L 39,22 L 43,21 M 38,22 L 30,22 L 31,24 L 38,22 M 35,38 L 34,33 L 29,26 L 26,26 L 21,33 L 33,38 L 35,38 M 21,33 L 16,30 L 11,37 L 13,31 L 12,31 L 10,32 L 10,44 L 13,43 L 21,33 M 10,32 L 10,31 L 8,30 L 8,33 L 10,32 M 8,30 L 8,29 L 7,28 L 6,29 L 7,29 L 6,30 L 8,30 M 10,28 L 10,27 L 8,29 L 10,28 M 14,29 L 13,29 L 12,28 L 10,28 L 10,31 L 12,31 L 14,29 M 17,28 L 14,29 L 16,30 L 17,28 M 19,26 L 14,25 L 12,25 L 10,27 L 12,28 L 14,28 L 14,27 L 18,27 L 19,26 M 10,27 L 10,25 L 9,26 L 10,27 M 10,24 L 10,22 L 8,22 L 8,21 L 7,22 L 7,24 L 10,24 M 10,16 L 10,14 L 5,12 L 6,22 L 7,22 L 8,20 L 8,17 L 9.5,17 L 10,16 M 12,16 L 11,15 L 10,16 L 10,17 L 11.3333,17 L 12,16 M 16,17 L 13,16 L 12,16 L 12.75,17 L 13,17 L 13,17.3333 L 15,20 L 16,17 M 16,20 L 16,19 L 15,20 L 16,20 M 24,16 L 24,15 L 19,18 L 16,20 L 17,22 L 21,19 L 24,16 M 26,21 L 25,18 L 23,19 L 22,20 L 26,21 M 30,24 L 29,23 L 29,22 L 27,22 L 28,24 L 30,24 M 29,26 L 28,24 L 27,25 L 29,26 M 27,25 L 27,24 L 26,23 L 25,23 L 21,26 L 23,29 L 26,26 L 22,26 L 27,25 M 27,22 L 26,22 L 26,23 L 27,22 M 33,30 L 31,24 L 30,24 L 33,30 M 30,22 L 28,17 L 26,18 L 29,22 L 30,22 M 26,18 L 25,16 L 24,16 L 25,18 L 26,18 M 25,14 L 23,12 L 24,15 L 25,14 M 19,18 L 18,17 L 17,18 L 19,18 M 17,18 L 17,16 L 15,14 L 16,16 L 16,17 L 16,19 L 17,18 M 44,-0 L 22,10 L 18,12 L 17,16 L 18,17 L 23,12 L 26,9 L 27,12 L 44,-0 M 43,3 L 41,4 L 28,14 L 28,17 L 36,14 L 37,13 L 38,13 L 37,12 L 42,6 L 43,3 M 39,21 L 38,13 L 37,14 L 38,21 L 39,21 M 37,14 L 36,14 L 30,22 L 37,14 M 28,14 L 27,12 L 25,14 L 25,16 L 28,14 M 14,14 L 12,12 L 11,14 L 10,14 L 11,15 L 13,16 L 14,14 M 10,14 L 10,10 L 3,4 L 3,5 L 10,14 M 13,10 L 10,2 L 10,10 L 12,12 L 13,10 M 25,23 L 22,20 L 20,23 L 25,23 M 20,23 L 18,23 L 19,25 L 20,23 M 18,23 L 17,22 L 15,23 L 14,24 L 14,25 L 15,24 L 18,23 M 14,24 L 11,24 L 10,25 L 12,25 L 14,24 M 20,26 L 19,25 L 19,26 L 20,26 M 15,21 L 15,20 L 13,22 L 12,23 L 15,21 z" style="fill-opacity:0.3;fill:rgb(0,0,255);stroke:rgb(51,51,153);stroke-width:0.117500" />
</g></svg>