<?xml version="1.0" standalone="no"?>
<!DOCTYPE svg PUBLIC "-//W3C//DTD SVG 1.1//EN"
"http://www.w3.org/Graphics/SVG/1.1/DTD/svg11.dtd">
<svg  version="1.1" xmlns="http://www.w3.org/2000/svg" xmlns:xlink="http://www.w3.org/1999/xlink" viewBox="0 0 3.01346e+06 3.7879e+06">
<g title="A + B (CGAL EPECK)" fill-rule="evenodd">
<path d="M -0,-0 L 554990,-0 L 563626,197104 L 589534,392938 L 632206,585470 L 691388,773684 L 767080,956056 L 858266,1.13132e+06 L 964184,1.29769e+06 L 1.08433e+06,1.45415e+06 L 1.21768e+06,1.59969e+06 L 3.01346e+06,3.39547e+06 L 2.62103e+06,3.7879e+06 L 825246,1.99212e+06 L 824992,1.99187e+06 L 825003,1.99186e+06 L 659130,1.81102e+06 L 509524,1.61595e+06 L 377444,1.40868e+06 L 263906,1.19075e+06 L 169926,963676 L 96012,729234 L 42926,489204 L 10668,245618 L -0,-0 M 1.21768e+06,1.59969e+06 L 1.21742e+06,1.59944e+06 L 825003,1.99186e+06 L 825246,1.99212e+06 L 1.21768e+06,1.59969e+06 z" style="fill-opacity:0.3;fill:rgb(0,0,255);stroke:rgb(51,51,153);stroke-width:9469.755000" />
</g></svg>