<?xml version="1.0" standalone="no"?>
<!DOCTYPE svg PUBLIC "-//W3C//DTD SVG 1.1//EN"
"http://www.w3.org/Graphics/SVG/1.1/DTD/svg11.dtd">
<svg viewBox="0 0 300 300" version="1.1"
xmlns="http://www.w3.org/2000/svg"
xmlns:xlink="http://www.w3.org/1999/xlink">
<g fill-rule="evenodd"><path d="M 299.728,64.9806 L 300,65.025 L 300,71.5615 L 299.728,71.4978 L 299.728,64.9806 z " style="fill-opacity:0.3;fill:rgb(0,0,255);stroke:rgb(51,51,153);stroke-width:1"/></g>
<g fill-rule="evenodd"><path d="M 299.728,64.9806 L 209.181,50.2468 L 150.477,36.4276 L 139.038,47.0495 L 0.136178,126.305 L 0.136178,176.146 L 0.136178,251.316 L 150.477,99.3418 L 299.728,113.913 L 299.728,272.56 L 0,272.56 L 0,27.4399 L 299.728,27.4399 L 299.728,64.9806 z " style="fill-opacity:0.3;fill:rgb(0,0,255);stroke:rgb(51,51,153);stroke-width:1"/></g>
<g fill-rule="evenodd"><path d="M 299.728,71.4978 L 299.728,71.5615 L 261.693,62.608 L 299.728,71.4978 z " style="fill-opacity:0.3;fill:rgb(0,0,255);stroke:rgb(51,51,153);stroke-width:1"/></g>
<g fill-rule="evenodd"><path d="M 150.477,36.4276 L 207.944,50.0454 L 150.477,40.5129 L 139.062,47.0353 L 150.477,36.4276 z " style="fill-opacity:0.3;fill:rgb(0,0,255);stroke:rgb(51,51,153);stroke-width:1"/></g>
<g fill-rule="evenodd"><path d="M 139.062,47.0353 L 0.136178,176.146 L 139.038,47.0495 L 139.062,47.0353 z " style="fill-opacity:0.3;fill:rgb(0,0,255);stroke:rgb(51,51,153);stroke-width:1"/></g>
<g fill-rule="evenodd"><path d="M 209.181,50.2468 L 261.693,62.608 L 207.944,50.0454 L 209.181,50.2468 z " style="fill-opacity:0.3;fill:rgb(0,0,255);stroke:rgb(51,51,153);stroke-width:1"/></g>
</svg>
