<?xml version="1.0" standalone="no"?>
<!DOCTYPE svg PUBLIC "-//W3C//DTD SVG 1.1//EN"
"http://www.w3.org/Graphics/SVG/1.1/DTD/svg11.dtd">
<svg viewBox="0 0 300 300" version="1.1"
xmlns="http://www.w3.org/2000/svg"
xmlns:xlink="http://www.w3.org/1999/xlink">
<g fill-rule="evenodd"><path d="M 163.636,157.156 L 185.900,139.584 L 210.231,219.176 L 70.0504,219.176 L 78.0811,205.897 L 105.274,214.484 L 131.990,188.245 L 158.707,162.006 L 163.636,157.156 z " style="fill-opacity:0.3;fill:rgb(255,0,0);stroke:rgb(0,0,0);stroke-width:1"/></g>
<g fill-rule="evenodd"><path d="M 158.707,157.236 L 134.932,180.135 L 135.012,180.056 L 131.990,182.998 L 134.932,180.135 L 131.990,182.521 L 105.274,205.897 L 78.0811,193.016 L 61.2245,219.176 L 58.2030,219.176 L 58.2030,2.82269 L 300.000,2.82269 L 300.000,219.176 L 235.277,219.176 L 239.332,217.824 L 255.871,144.037 L 266.525,102.849 L 273.443,92.9897 L 293.241,82.3350 L 293.241,64.6833 L 293.241,64.2062 L 272.489,93.4667 L 266.525,96.6472 L 258.733,131.394 L 239.332,204.943 L 212.616,216.870 L 185.900,131.951 L 158.707,157.236 z " style="fill-opacity:0.3;fill:rgb(255,0,0);stroke:rgb(0,0,0);stroke-width:1"/></g>
<g fill-rule="evenodd"><path d="M 51.3650,223.072 L 69.1757,206.851 L 51.3650,234.522 L 51.3650,223.072 z " style="fill-opacity:0.3;fill:rgb(0,255,0);stroke:rgb(0,0,0);stroke-width:1"/></g>
<g fill-rule="evenodd"><path d="M 241.081,210.032 L 239.332,217.824 L 237.026,218.619 L 239.332,214.484 L 241.081,210.032 z " style="fill-opacity:0.3;fill:rgb(0,255,0);stroke:rgb(0,0,0);stroke-width:1"/></g>
<g fill-rule="evenodd"><path d="M 293.241,82.3350 L 293.241,136.721 L 266.525,144.832 L 241.081,210.032 L 266.525,96.6472 L 293.241,82.3350 z " style="fill-opacity:0.3;fill:rgb(0,255,0);stroke:rgb(0,0,0);stroke-width:1"/></g>
<g fill-rule="evenodd"><path d="M 237.026,218.619 L 212.616,262.669 L 185.900,169.162 L 158.707,181.089 L 131.990,193.493 L 105.274,206.851 L 78.0811,198.741 L 69.1757,206.851 L 78.0811,193.016 L 105.274,205.897 L 131.990,182.521 L 158.707,161.052 L 185.900,139.584 L 212.616,226.888 L 237.026,218.619 z " style="fill-opacity:0.3;fill:rgb(0,255,0);stroke:rgb(0,0,0);stroke-width:1"/></g>
</svg>
