<?xml version="1.0" standalone="no"?>
<!DOCTYPE svg PUBLIC "-//W3C//DTD SVG 1.1//EN"
"http://www.w3.org/Graphics/SVG/1.1/DTD/svg11.dtd">
<svg viewBox="0 0 300 300" version="1.1"
xmlns="http://www.w3.org/2000/svg"
xmlns:xlink="http://www.w3.org/1999/xlink">
<g fill-rule="evenodd"><path d="M 80.363,118.596 L 294.697,21.9697 L 290.392,26.1712 L 290.627,30.2826 L 291.667,31.8182 L 292.402,42.6023 L 300,52.2727 L 297.876,56.0598 L 195.768,184.302 L 196.97,184.848 L 194.156,185.606 L 197.727,185.606 L 155.25,203.627 L 151.042,205.633 L 150.758,206.061 L 145.455,209.848 L 144.164,210.709 L 140.487,215.413 L 140.152,217.424 L 137.57,219.145 L 135.926,221.248 L 131.173,229.284 L 131.061,229.545 L 130.998,229.633 L 129.526,232.807 L 127.828,237.978 L 129.654,248.268 L 147.831,262.81 L 150,264.394 L 149.853,264.428 L 150.758,265.152 L 148.669,265.569 L 149.608,267.703 L 159.848,276.515 L 152.21,273.618 L 156.818,284.091 L 146.33,278.002 L 146.97,280.303 L 140.152,281.818 L 133.553,282.552 L 132.955,282.765 L 127.273,285.606 L 125.877,286.404 L 120.455,293.182 L 119.673,288.192 L 111.336,275.364 L 109.596,274.495 L 104.672,274.873 L 103.788,275 L 98.4848,276.515 L 93.9394,278.03 L 93.2765,278.252 L 92.0182,278.976 L 83.9256,285.551 L 81.0606,288.636 L 80.7971,287.583 L 80.354,287.084 L 80.303,287.121 L 75,281.818 L 69.697,281.818 L 68.9394,281.818 L 55.303,285.606 L 51.7677,285.606 L 49.378,286.158 L 48.4848,287.121 L 45.1179,286.28 L 44.697,286.364 L 44.4848,286.121 L 42.4242,285.606 L 40.9091,284.091 L 40.1515,283.333 L 38.6364,281.818 L 42.4242,273.485 L 42.4242,270.833 L 41.6667,267.424 L 41.7316,267.401 L 19.697,266.667 L 25.2333,265.559 L 68.9394,255.432 L 68.9394,255.303 L 68.9394,254.545 L 71.0842,254.935 L 81.8322,252.445 L 86.7186,249.122 L 95.4265,235.335 L 94.697,234.848 L 90.1515,235.606 L 87.8788,234.091 L 84.0909,233.333 L 80.303,232.576 L 87.8788,225.758 L 91.6667,222.727 L 94.697,221.212 L 100.399,220.774 L 105.303,206.061 L 103.788,205.303 L 90.1515,217.424 L 99.2424,205.303 L 98.4848,203.788 L 95.4545,202.273 L 88.6364,203.03 L 43.1818,209.091 L 20.4545,201.515 L 31.8182,190.909 L 76.5152,189.394 L 81.9081,188.675 L 87.1212,190.909 L 86.8508,188.016 L 87.8788,187.879 L 86.7665,187.114 L 80.363,118.596 z " style="fill-opacity:0.3;fill:rgb(0,0,255);stroke:rgb(51,51,153);stroke-width:1"/></g>
<g fill-rule="evenodd"><path d="M 50.0766,132.25 L 59.8485,153.03 L 54.5455,156.061 L 53.534,155.675 L 48.8027,148.494 L 38.6364,150 L 39.3939,146.97 L 38.6364,144.697 L 31.7992,140.489 L 50.0766,132.25 z " style="fill-opacity:0.3;fill:rgb(0,0,255);stroke:rgb(51,51,153);stroke-width:1"/></g>
<g fill-rule="evenodd"><path d="M 60.2367,168.948 L 35.6061,173.485 L 15.1515,170.455 L 13.6364,164.394 L 20.4545,158.333 L 33.3333,156.818 L 37.8788,153.03 L 47.6744,157.928 L 60.2367,168.948 z " style="fill-opacity:0.3;fill:rgb(0,0,255);stroke:rgb(51,51,153);stroke-width:1"/></g>
</svg>
