<?xml version="1.0" standalone="no"?>
<!DOCTYPE svg PUBLIC "-//W3C//DTD SVG 1.1//EN"
"http://www.w3.org/Graphics/SVG/1.1/DTD/svg11.dtd">
<svg  version="1.1" xmlns="http://www.w3.org/2000/svg" xmlns:xlink="http://www.w3.org/1999/xlink" viewBox="0 0 4812 2477">
<g title="A - B (CGAL Real)" fill-rule="evenodd">
<path d="M 1.0,0 L 4809.0,0 L 4809.0,184.562 L 4311.19,941.500 L 3612.0,756.0 L 2703.0,693.0 L 3612.0,1584.0 L 2701.88,691.992 L 2702.0,692.0 L 2406.0,402.0 L 2027.0,523.0 L 2027.61,523.085 L 2025.74,523.682 L 1206.0,408.0 L 1.0,1499.09 L 1.0,0 z" style="fill-opacity:0.3;fill:rgb(0,0,255);stroke:rgb(51,51,153);stroke-width:12.030000" />
<path d="M 1.0,2218.81 L 1206.0,786.0 L 1.0,2219.0 L 1.0,2218.81 z" style="fill-opacity:0.3;fill:rgb(0,0,255);stroke:rgb(51,51,153);stroke-width:12.030000" />
<path d="M 1.0,2314.0 L 1206.0,1056.0 L 2406.0,672.0 L 2491.98,677.810 L 3612.0,2004.0 L 4080.65,1291.54 L 4543.0,1003.0 L 4542.07,1002.75 L 4542.89,1002.24 L 4809.0,1074.0 L 4809.0,2477.0 L 1.0,2477.0 L 1.0,2314.0 z" style="fill-opacity:0.3;fill:rgb(0,0,255);stroke:rgb(51,51,153);stroke-width:12.030000" />
<path d="M 4809.0,835.876 L 4809.0,836.0 L 4772.90,858.446 L 4809.0,835.876 z" style="fill-opacity:0.3;fill:rgb(0,0,255);stroke:rgb(51,51,153);stroke-width:12.030000" />
</g></svg>