<?xml version="1.0" standalone="no"?>
<!DOCTYPE svg PUBLIC "-//W3C//DTD SVG 1.1//EN"
"http://www.w3.org/Graphics/SVG/1.1/DTD/svg11.dtd">
<svg  version="1.1" xmlns="http://www.w3.org/2000/svg" xmlns:xlink="http://www.w3.org/1999/xlink" viewBox="0 0 0.846706 0.594165">
<g title="A + B (CGAL Real)" fill-rule="evenodd">
<path d="M 5.51098e-18,0.15583 L 0.09751,0.13543 L 0.21826,0.25603 L 5.51098e-18,0.15583 z" style="fill-opacity:0.3;fill:rgb(0,0,255);stroke:rgb(51,51,153);stroke-width:0.002117" />
<path d="M 0.24969,0.10359 L 0.28599,0.09599 L 0.29753,0.10780 L 0.29753,0.10780 L 0.43648,0.22084 L 0.33173,0.16186 L 0.30811,0.15488 L 0.31697,0.12768 L 0.30592,0.11638 L 0.24969,0.10359 M 0.30592,0.11638 L 0.29753,0.10780 L 0.29753,0.10780 L 0.30592,0.11638 L 0.30592,0.11638 z" style="fill-opacity:0.3;fill:rgb(0,0,255);stroke:rgb(51,51,153);stroke-width:0.002117" />
<path d="M 0.71611,0.48459 L 0.40843,0.59416 L 0.27852,0.24564 L 0.29348,0.19975 L 0.30467,0.16542 L 0.35627,0.22999 L 0.43163,0.26470 L 0.44464,0.24355 L 0.45579,0.24040 L 0.45200,0.23454 L 0.44965,0.23156 L 0.74709,0.47356 L 0.45123,0.23284 L 0.49626,0.15967 L 0.43742,0.14629 L 0.48415,0.05454 L 0.74483,-1.14263e-17 L 0.84671,0.54454 L 0.71611,0.48459 M 0.74709,0.47356 L 0.71611,0.48459 L 0.71611,0.48459 L 0.74709,0.47356 M 0.47561,0.28840 L 0.47144,0.26462 L 0.47495,0.28465 L 0.43163,0.26470 L 0.43054,0.26646 L 0.47561,0.28840 M 0.48215,0.32571 L 0.47611,0.29126 L 0.42180,0.31199 L 0.44953,0.34669 L 0.48215,0.32571 z" style="fill-opacity:0.3;fill:rgb(0,0,255);stroke:rgb(51,51,153);stroke-width:0.002117" />
</g></svg>