<?xml version="1.0" standalone="no"?>
<!DOCTYPE svg PUBLIC "-//W3C//DTD SVG 1.1//EN"
"http://www.w3.org/Graphics/SVG/1.1/DTD/svg11.dtd">
<svg  version="1.1" xmlns="http://www.w3.org/2000/svg" xmlns:xlink="http://www.w3.org/1999/xlink" viewBox="0 0 4812 2477">
<g title="A + B (CGAL EPECK)" fill-rule="evenodd">
<path d="M 4772.9,858.446 L 4542.89,1002.24 L 4809,1074 L 4809,2477 L 1,2477 L 1,2314 L 1206,1056 L 2406,672 L 2491.98,677.81 L 2406,576 L 2027.61,523.085 L 2025.74,523.682 L 2028,524 L 1206,786 L 1,2219 L 1,2218.81 L -0,2220 L -0,1500 L 1,1499.09 L 1,-0 L 4809,-0 L 4809,184.562 L 4812,180 L 4812,834 L 4809,835.876 L 4809,836 L 4772.9,858.446 M 4809,835.876 L 4809,184.562 L 4311.19,941.5 L 4542.07,1002.75 L 4542.89,1002.24 L 4542,1002 L 4772.9,858.446 L 4809,835.876 M 4080.65,1291.54 L 3612,1584 L 2701.88,691.992 L 2491.98,677.81 L 3612,2004 L 4080.65,1291.54 M 2406,402 L 2027,523 L 2027.61,523.085 L 2406,402 M 4311.19,941.5 L 3612,756 L 2703,693 L 3612,1584 L 4082,1290 L 4311.19,941.5 M 4543,1003 L 4542.07,1002.75 L 4081,1291 L 4080.65,1291.54 L 4543,1003 M 2702,692 L 2406,402 L 2701.88,691.992 L 2702,692 M 2025.74,523.682 L 1206,408 L 1,1499.09 L 1,2218.81 L 1206,786 L 2025.74,523.682 z" style="fill-opacity:0.3;fill:rgb(0,0,255);stroke:rgb(51,51,153);stroke-width:12.030000" />
</g></svg>