<?xml version="1.0" standalone="no"?>
<!DOCTYPE svg PUBLIC "-//W3C//DTD SVG 1.1//EN"
"http://www.w3.org/Graphics/SVG/1.1/DTD/svg11.dtd">
<svg viewBox="0 0 300 300" version="1.1"
xmlns="http://www.w3.org/2000/svg"
xmlns:xlink="http://www.w3.org/1999/xlink">
<g fill-rule="evenodd"><path d="M 178.294,249.786 L 28.0447,249.786 L 37.3164,234.455 L 68.7118,244.37 L 86.99,226.418 L 68.7118,235.557 L 37.3164,226.193 L 27.0349,235.557 L 6.47185,267.503 L 6.47185,254.284 L 14.3666,247.094 L 14.3666,0 L 293.528,0 L 293.528,249.786 L 220.467,249.786 L 192.641,300 L 178.294,249.786M 102.794,204.865 L 102.808,204.854 L 102.953,204.712 L 99.5563,207.466 L 102.794,204.865M 37.3164,219.584 L 27.0079,235.582 L 27.0349,235.557 L 37.3164,219.584M 285.725,91.7993 L 285.725,71.4198 L 285.725,70.869 L 261.784,104.625 L 285.725,91.7993 z " style="fill-opacity:0.3;fill:rgb(0,0,255);stroke:rgb(51,51,153);stroke-width:1"/></g>
</svg>
