<?xml version="1.0" standalone="no"?>
<!DOCTYPE svg PUBLIC "-//W3C//DTD SVG 1.1//EN"
"http://www.w3.org/Graphics/SVG/1.1/DTD/svg11.dtd">
<svg viewBox="0 0 300 300" version="1.1"
xmlns="http://www.w3.org/2000/svg"
xmlns:xlink="http://www.w3.org/1999/xlink">
<g fill-rule="evenodd"><path d="M 21.6142,99.905 L 21.5897,99.9884 L 21.5897,99.9884 L 18.4028,110.759 L 15.1667,121.571 L 15.1668,121.571 L 11.9272,132.34 L 11.9272,132.34 L 8.68236,143.151 L 5.43255,153.963 L 5.43256,153.963 L 4.62729,156.592 L -4.54747e-13,129.554 L 21.6142,99.905 z " style="fill-opacity:0.3;fill:rgb(0,0,255);stroke:rgb(51,51,153);stroke-width:1"/></g>
<g fill-rule="evenodd"><path d="M 85.3809,67.4112 L 88.3771,56.5742 L 91.3268,45.7358 L 91.9677,43.4135 L 102.128,40.3819 L 150,25.5934 L 197.872,40.3819 L 246.076,54.765 L 272.788,92.2269 L 300,129.554 L 292.571,172.964 L 284.969,216.357 L 244.893,245.398 L 204.158,274.129 L 150,274.407 L 95.8418,274.129 L 55.1071,245.398 L 37.7403,232.813 L 38.7047,229.622 L 41.9182,218.835 L 45.1301,208.002 L 45.1302,208.001 L 45.1302,208.001 L 48.2938,197.212 L 51.4554,186.379 L 51.4553,186.379 L 54.6127,175.591 L 57.7677,164.801 L 60.8765,153.966 L 63.9825,143.132 L 67.0851,132.34 L 70.1852,121.506 L 73.2382,110.713 L 76.289,99.8775 L 79.3371,89.0417 L 79.3372,89.0413 L 79.3372,89.0412 L 82.3387,78.2046 L 85.3807,67.4118 L 85.3809,67.4112 z " style="fill-opacity:0.3;fill:rgb(0,0,255);stroke:rgb(51,51,153);stroke-width:1"/></g>
</svg>
