<?xml version="1.0" standalone="no"?>
<!DOCTYPE svg PUBLIC "-//W3C//DTD SVG 1.1//EN"
"http://www.w3.org/Graphics/SVG/1.1/DTD/svg11.dtd">
<svg viewBox="0 0 300 300" version="1.1"
xmlns="http://www.w3.org/2000/svg"
xmlns:xlink="http://www.w3.org/1999/xlink">
<g fill-rule="evenodd"><path d="M 171.689,118.071 L 128.228,153.430 L 134.309,147.210 L 131.536,138.702 L 138.924,136.520 L 171.689,118.071 z " style="fill-opacity:0.3;fill:rgb(255,0,0);stroke:rgb(0,0,0);stroke-width:1"/></g>
<g fill-rule="evenodd"><path d="M 175.810,114.718 L 176.545,113.787 L 177.728,111.955 L 182.624,104.377 L 183.721,98.1140 L 146.601,115.211 L 130.462,135.406 L 126.962,124.668 L 122.283,110.314 L 162.915,1.30298 L 268.843,39.0273 L 175.810,114.718 z " style="fill-opacity:0.3;fill:rgb(255,0,0);stroke:rgb(0,0,0);stroke-width:1"/></g>
<g fill-rule="evenodd"><path d="M 65.6651,144.788 L 35.1661,138.407 L 103.434,107.066 L 65.6651,144.788 z " style="fill-opacity:0.3;fill:rgb(0,255,0);stroke:rgb(0,0,0);stroke-width:1"/></g>
<g fill-rule="evenodd"><path d="M 184.084,96.0470 L 167.098,89.5618 L 175.771,78.7084 L 185.972,85.2695 L 184.084,96.0470 z " style="fill-opacity:0.3;fill:rgb(0,255,0);stroke:rgb(0,0,0);stroke-width:1"/></g>
<g fill-rule="evenodd"><path d="M 174.242,110.970 L 169.831,103.802 L 183.927,96.9415 L 182.624,104.377 L 177.728,111.955 L 174.242,110.970 z " style="fill-opacity:0.3;fill:rgb(0,255,0);stroke:rgb(0,0,0);stroke-width:1"/></g>
<g fill-rule="evenodd"><path d="M 171.982,141.390 L 190.388,137.204 L 176.303,114.317 L 268.843,39.0273 L 259.153,35.5765 L 300.000,16.8242 L 268.137,187.147 L 186.600,170.088 L 171.982,141.390 z " style="fill-opacity:0.3;fill:rgb(0,255,0);stroke:rgb(0,0,0);stroke-width:1"/></g>
<g fill-rule="evenodd"><path d="M 124.620,157.122 L 113.265,154.746 L 130.853,150.745 L 128.228,153.430 L 124.620,157.122 z " style="fill-opacity:0.3;fill:rgb(0,255,0);stroke:rgb(0,0,0);stroke-width:1"/></g>
</svg>
