<?xml version="1.0" standalone="no"?>
<!DOCTYPE svg PUBLIC "-//W3C//DTD SVG 1.1//EN"
"http://www.w3.org/Graphics/SVG/1.1/DTD/svg11.dtd">
<svg viewBox="0 0 300 300" version="1.1"
xmlns="http://www.w3.org/2000/svg"
xmlns:xlink="http://www.w3.org/1999/xlink">
<g fill-rule="evenodd"><path d="M 29.7191,191.545 L 299.831,191.545 L 299.831,181.176 L 271.865,138.652 L 232.584,149.073 L 181.517,152.612 L 232.584,102.556 L 181.454,152.669 L 181.461,152.669 L 164.831,168.961 L 143.539,162.163 L 143.574,162.158 L 143.469,162.125 L 97.4157,168.624 L 29.7191,107.326 L 29.7191,191.545 z " style="fill-opacity:0.3;fill:rgb(0,0,255);stroke:rgb(51,51,153);stroke-width:1"/></g>
<g fill-rule="evenodd"><path d="M 29.7191,66.8927 L 97.4157,147.388 L 29.7191,66.8820 L 29.7191,66.8927 z " style="fill-opacity:0.3;fill:rgb(0,0,255);stroke:rgb(51,51,153);stroke-width:1"/></g>
<g fill-rule="evenodd"><path d="M 29.7191,61.5449 L 97.4157,132.219 L 164.831,153.792 L 169.662,153.466 L 232.584,78.9607 L 258.913,118.987 L 284.888,135.197 L 284.835,135.211 L 284.881,135.239 L 299.831,131.208 L 299.831,52.3876 L 29.7191,52.3876 L 29.7191,61.5449 z " style="fill-opacity:0.3;fill:rgb(0,0,255);stroke:rgb(51,51,153);stroke-width:1"/></g>
<g fill-rule="evenodd"><path d="M 299.831,144.585 L 299.831,144.579 L 297.803,143.317 L 299.831,144.585 z " style="fill-opacity:0.3;fill:rgb(0,0,255);stroke:rgb(51,51,153);stroke-width:1"/></g>
</svg>
