<?xml version="1.0" standalone="no"?>
<!DOCTYPE svg PUBLIC "-//W3C//DTD SVG 1.1//EN"
"http://www.w3.org/Graphics/SVG/1.1/DTD/svg11.dtd">
<svg viewBox="0 0 300 300" version="1.1"
xmlns="http://www.w3.org/2000/svg"
xmlns:xlink="http://www.w3.org/1999/xlink">
<g fill-rule="evenodd"><path d="M 31.7992,140.489 L 38.6364,144.697 L 39.3939,146.970 L 38.6364,150.000 L 48.8027,148.494 L 53.7879,156.061 L 55.1620,157.521 L 53.7879,159.091 L 58.1818,163.182 L 37.8788,153.030 L 33.3333,156.818 L 20.4545,158.333 L 13.6364,164.394 L 15.1515,170.455 L 35.6061,173.485 L 63.6912,168.311 L 75.7576,179.545 L 87.8788,187.879 L 76.5152,189.394 L 31.8182,190.909 L 20.4545,201.515 L 43.1818,209.091 L 88.6364,203.030 L 95.4545,202.273 L 98.4848,203.788 L 99.2424,205.303 L 90.1515,217.424 L 103.788,205.303 L 105.303,206.061 L 100.399,220.774 L 94.6970,221.212 L 91.6667,222.727 L 87.8788,225.758 L 80.3030,232.576 L 84.0909,233.333 L 87.8788,234.091 L 90.1515,235.606 L 94.6970,234.848 L 95.4265,235.335 L 86.7186,249.122 L 81.8322,252.445 L 71.0842,254.935 L 68.9394,254.545 L 68.9394,255.303 L 68.9394,255.432 L 25.2333,265.559 L 19.6970,266.667 L 41.7316,267.401 L 41.6667,267.424 L 42.4242,270.833 L 42.4242,273.485 L 38.6364,281.818 L 40.1515,283.333 L 40.9091,284.091 L 42.4242,285.606 L 44.4848,286.121 L 44.6970,286.364 L 45.1179,286.280 L 48.4848,287.121 L 49.3780,286.158 L 51.7677,285.606 L 55.3030,285.606 L 68.9394,281.818 L 69.6970,281.818 L 75.0000,281.818 L 80.3030,287.121 L 80.3540,287.084 L 80.7971,287.583 L 81.0606,288.636 L 83.9256,285.551 L 92.0182,278.976 L 93.2765,278.252 L 93.9394,278.030 L 93.9394,278.030 L 98.4848,276.515 L 103.788,275.000 L 104.672,274.873 L 109.596,274.495 L 111.336,275.364 L 119.673,288.192 L 120.455,293.182 L 125.877,286.404 L 127.273,285.606 L 132.955,282.765 L 133.553,282.552 L 140.152,281.818 L 146.970,280.303 L 146.330,278.002 L 156.818,284.091 L 152.210,273.618 L 159.848,276.515 L 149.608,267.703 L 148.669,265.569 L 150.758,265.152 L 149.853,264.428 L 150.000,264.394 L 147.831,262.810 L 129.654,248.268 L 127.828,237.978 L 129.526,232.807 L 130.998,229.633 L 131.061,229.545 L 131.173,229.284 L 135.926,221.248 L 137.570,219.145 L 140.152,217.424 L 140.487,215.413 L 144.164,210.709 L 145.455,209.848 L 150.758,206.061 L 151.042,205.633 L 155.250,203.627 L 197.727,185.606 L 194.156,185.606 L 196.970,184.848 L 195.768,184.303 L 297.876,56.0598 L 300.000,52.2727 L 292.402,42.6023 L 291.667,31.8182 L 290.627,30.2826 L 290.392,26.1712 L 294.697,21.9697 z " style="fill-opacity:0.3;fill:rgb(255,0,0);stroke:rgb(0,0,0);stroke-width:1"/></g>
<g fill-rule="evenodd"><path d="M 87.1212,190.909 L 71.9697,28.7879 L 46.9697,12.8788 L 19.6970,6.81818 L 0,25.7576 L 59.8485,153.030 L 54.5455,156.061 L 38.6364,150.000 L 81.8182,187.879 L 81.8182,188.636 z " style="fill-opacity:0.3;fill:rgb(0,255,0);stroke:rgb(0,0,0);stroke-width:1"/></g>
</svg>
