<?xml version="1.0" standalone="no"?>
<!DOCTYPE svg PUBLIC "-//W3C//DTD SVG 1.1//EN"
"http://www.w3.org/Graphics/SVG/1.1/DTD/svg11.dtd">
<svg viewBox="0 0 300 300" version="1.1"
xmlns="http://www.w3.org/2000/svg"
xmlns:xlink="http://www.w3.org/1999/xlink">
<g fill-rule="evenodd"><path d="M 34.5489,207.277 L -1.42109e-14,200.049 L 77.3331,164.546 L 34.5489,207.277 z " style="fill-opacity:0.3;fill:rgb(0,0,255);stroke:rgb(51,51,153);stroke-width:1"/></g>
<g fill-rule="evenodd"><path d="M 108.392,214.026 L 105.42,217.067 L 101.332,221.248 L 88.469,218.557 L 108.392,214.026 z " style="fill-opacity:0.3;fill:rgb(0,0,255);stroke:rgb(51,51,153);stroke-width:1"/></g>
<g fill-rule="evenodd"><path d="M 152.932,161.475 L 126.231,173.772 L 107.949,196.649 L 103.985,184.486 L 98.6853,168.225 L 144.712,44.7394 L 253.729,83.5639 L 300,62.3216 L 263.906,255.261 L 171.542,235.937 L 154.983,203.428 L 175.833,198.686 L 159.877,172.76 L 159.319,173.215 L 160.152,172.159 L 161.492,170.084 L 157.544,168.968 L 152.932,161.475M 168.692,152.064 L 170.831,139.855 L 159.276,132.423 L 149.451,144.718 L 168.692,152.064M 168.281,154.406 L 168.514,153.077 L 152.547,160.849 L 152.932,161.475 L 168.281,154.406 z " style="fill-opacity:0.3;fill:rgb(0,0,255);stroke:rgb(51,51,153);stroke-width:1"/></g>
</svg>
