<?xml version="1.0" standalone="no"?>
<!DOCTYPE svg PUBLIC "-//W3C//DTD SVG 1.1//EN"
"http://www.w3.org/Graphics/SVG/1.1/DTD/svg11.dtd">
<svg viewBox="0 0 300 300" version="1.1"
xmlns="http://www.w3.org/2000/svg"
xmlns:xlink="http://www.w3.org/1999/xlink">
<g fill-rule="evenodd"><path d="M 29.7191,66.8820 L 29.7191,191.545 L 299.831,191.545 L 299.831,144.579 L 284.831,135.253 L 299.831,131.208 L 299.831,52.3876 L 29.7191,52.3876 L 29.7191,61.5449 L 97.4157,132.219 L 164.831,153.792 L 181.461,152.669 L 164.831,168.961 L 97.4157,147.388 L 29.7191,66.8820M 232.584,102.556 L 284.888,135.197 L 232.584,149.073 L 181.517,152.612 L 232.584,102.556 z " style="fill-opacity:0.3;fill:rgb(255,0,0);stroke:rgb(0,0,0);stroke-width:1"/></g>
<g fill-rule="evenodd"><path d="M 29.6629,66.8258 L 29.6629,107.275 L 97.4157,168.624 L 143.596,162.107 L 97.4157,147.388 L 29.6629,66.8258 z " style="fill-opacity:0.3;fill:rgb(0,255,0);stroke:rgb(0,0,0);stroke-width:1"/></g>
<g fill-rule="evenodd"><path d="M 258.989,119.073 L 300.000,181.433 L 300.000,144.691 L 258.933,119.017 L 232.584,78.9607 L 164.831,159.185 L 143.539,162.163 L 164.831,168.961 L 232.584,102.556 L 258.989,119.073 z " style="fill-opacity:0.3;fill:rgb(0,255,0);stroke:rgb(0,0,0);stroke-width:1"/></g>
</svg>
