<?xml version="1.0" standalone="no"?>
<!DOCTYPE svg PUBLIC "-//W3C//DTD SVG 1.1//EN"
"http://www.w3.org/Graphics/SVG/1.1/DTD/svg11.dtd">
<svg viewBox="0 0 300 300" version="1.1"
xmlns="http://www.w3.org/2000/svg"
xmlns:xlink="http://www.w3.org/1999/xlink">
<g fill-rule="evenodd"><path d="M 91.8367,192.857 L 73.4694,156.122 L 91.8367,174.490 L 91.8367,192.857 z " style="fill-opacity:0.3;fill:rgb(255,0,0);stroke:rgb(0,0,0);stroke-width:1"/></g>
<g fill-rule="evenodd"><path d="M 214.286,156.122 L 208.163,156.122 L 208.163,150.000 L 214.286,143.878 L 220.408,143.878 L 214.286,156.122 z " style="fill-opacity:0.3;fill:rgb(255,0,0);stroke:rgb(0,0,0);stroke-width:1"/></g>
<g fill-rule="evenodd"><path d="M 48.9796,260.204 L 42.8571,150.000 L 61.2245,143.878 L 73.4694,143.878 L 73.4694,156.122 L 67.3469,156.122 L 61.2245,217.347 L 91.8367,205.102 L 48.9796,260.204 z " style="fill-opacity:0.3;fill:rgb(255,0,0);stroke:rgb(0,0,0);stroke-width:1"/></g>
<g fill-rule="evenodd"><path d="M 73.4694,131.633 L 48.9796,107.143 L 36.7347,101.020 L 36.7347,64.2857 L 79.5918,88.7755 L 79.5918,107.143 L 67.3469,107.143 L 73.4694,113.265 L 67.3469,113.265 L 73.4694,119.388 L 73.4694,131.633 z " style="fill-opacity:0.3;fill:rgb(255,0,0);stroke:rgb(0,0,0);stroke-width:1"/></g>
<g fill-rule="evenodd"><path d="M 42.8571,150.000 L 42.8571,137.755 L 36.7347,107.143 L 55.1020,137.755 L 42.8571,150.000 z " style="fill-opacity:0.3;fill:rgb(255,0,0);stroke:rgb(0,0,0);stroke-width:1"/></g>
<g fill-rule="evenodd"><path d="M 110.204,27.5510 L 91.8367,21.4286 L 91.8367,3.06122 L 110.204,27.5510 z " style="fill-opacity:0.3;fill:rgb(255,0,0);stroke:rgb(0,0,0);stroke-width:1"/></g>
<g fill-rule="evenodd"><path d="M 159.184,88.7755 L 110.204,27.5510 L 232.653,58.1633 L 159.184,88.7755 z " style="fill-opacity:0.3;fill:rgb(255,0,0);stroke:rgb(0,0,0);stroke-width:1"/></g>
<g fill-rule="evenodd"><path d="M 91.8367,94.8980 L 79.5918,88.7755 L 91.8367,21.4286 L 91.8367,94.8980 z " style="fill-opacity:0.3;fill:rgb(255,0,0);stroke:rgb(0,0,0);stroke-width:1"/></g>
<g fill-rule="evenodd"><path d="M 91.8367,101.020 L 91.8367,94.8980 L 104.082,101.020 L 91.8367,101.020 z " style="fill-opacity:0.3;fill:rgb(255,0,0);stroke:rgb(0,0,0);stroke-width:1"/></g>
<g fill-rule="evenodd"><path d="M 116.327,113.265 L 104.082,101.020 L 110.204,101.020 L 97.9592,64.2857 L 128.571,107.143 L 116.327,113.265 z " style="fill-opacity:0.3;fill:rgb(255,0,0);stroke:rgb(0,0,0);stroke-width:1"/></g>
<g fill-rule="evenodd"><path d="M 91.8367,119.388 L 79.5918,113.265 L 79.5918,107.143 L 91.8367,101.020 L 91.8367,119.388 z " style="fill-opacity:0.3;fill:rgb(255,0,0);stroke:rgb(0,0,0);stroke-width:1"/></g>
<g fill-rule="evenodd"><path d="M 91.8367,125.510 L 91.8367,119.388 L 104.082,119.388 L 91.8367,125.510 z " style="fill-opacity:0.3;fill:rgb(255,0,0);stroke:rgb(0,0,0);stroke-width:1"/></g>
<g fill-rule="evenodd"><path d="M 85.7143,131.633 L 73.4694,119.388 L 79.5918,113.265 L 91.8367,125.510 L 85.7143,131.633 z " style="fill-opacity:0.3;fill:rgb(255,0,0);stroke:rgb(0,0,0);stroke-width:1"/></g>
<g fill-rule="evenodd"><path d="M 183.673,150.000 L 153.061,150.000 L 146.939,137.755 L 153.061,131.633 L 146.939,131.633 L 140.816,125.510 L 116.327,125.510 L 116.327,119.388 L 104.082,119.388 L 110.204,113.265 L 116.327,113.265 L 134.694,119.388 L 128.571,107.143 L 159.184,88.7755 L 189.796,131.633 L 171.429,113.265 L 159.184,131.633 L 183.673,150.000 z " style="fill-opacity:0.3;fill:rgb(255,0,0);stroke:rgb(0,0,0);stroke-width:1"/></g>
<g fill-rule="evenodd"><path d="M 91.8367,137.755 L 91.8367,125.510 L 104.082,137.755 L 91.8367,137.755 z " style="fill-opacity:0.3;fill:rgb(255,0,0);stroke:rgb(0,0,0);stroke-width:1"/></g>
<g fill-rule="evenodd"><path d="M 165.306,131.633 L 189.796,131.633 L 208.163,131.633 L 195.918,137.755 L 165.306,131.633 z " style="fill-opacity:0.3;fill:rgb(255,0,0);stroke:rgb(0,0,0);stroke-width:1"/></g>
<g fill-rule="evenodd"><path d="M 116.327,143.878 L 104.082,137.755 L 116.327,137.755 L 116.327,143.878 z " style="fill-opacity:0.3;fill:rgb(255,0,0);stroke:rgb(0,0,0);stroke-width:1"/></g>
<g fill-rule="evenodd"><path d="M 251.020,205.102 L 202.041,186.735 L 214.286,156.122 L 251.020,205.102 z " style="fill-opacity:0.3;fill:rgb(255,0,0);stroke:rgb(0,0,0);stroke-width:1"/></g>
<g fill-rule="evenodd"><path d="M 140.816,150.000 L 122.449,143.878 L 116.327,137.755 L 146.939,131.633 L 146.939,137.755 L 140.816,150.000 z " style="fill-opacity:0.3;fill:rgb(255,0,0);stroke:rgb(0,0,0);stroke-width:1"/></g>
<g fill-rule="evenodd"><path d="M 202.041,205.102 L 281.633,266.327 L 293.878,272.449 L 300.000,290.816 L 195.918,217.347 L 202.041,205.102 z " style="fill-opacity:0.3;fill:rgb(255,0,0);stroke:rgb(0,0,0);stroke-width:1"/></g>
<g fill-rule="evenodd"><path d="M 195.918,156.122 L 189.796,150.000 L 195.918,143.878 L 195.918,137.755 L 202.041,143.878 L 195.918,156.122 z " style="fill-opacity:0.3;fill:rgb(255,0,0);stroke:rgb(0,0,0);stroke-width:1"/></g>
<g fill-rule="evenodd"><path d="M 214.286,156.122 L 263.265,156.122 L 269.388,156.122 L 269.388,162.245 L 263.265,162.245 L 257.143,205.102 L 214.286,156.122 z " style="fill-opacity:0.3;fill:rgb(255,0,0);stroke:rgb(0,0,0);stroke-width:1"/></g>
<g fill-rule="evenodd"><path d="M 263.265,156.122 L 220.408,143.878 L 232.653,107.143 L 214.286,143.878 L 202.041,143.878 L 208.163,131.633 L 238.776,88.7755 L 244.898,58.1633 L 232.653,58.1633 L 269.388,39.7959 L 263.265,156.122 z " style="fill-opacity:0.3;fill:rgb(255,0,0);stroke:rgb(0,0,0);stroke-width:1"/></g>
<g fill-rule="evenodd"><path d="M 293.878,162.245 L 269.388,156.122 L 293.878,15.3061 L 293.878,162.245 z " style="fill-opacity:0.3;fill:rgb(255,0,0);stroke:rgb(0,0,0);stroke-width:1"/></g>
<g fill-rule="evenodd"><path d="M 110.204,229.592 L 140.816,284.694 L 91.8367,278.571 L 110.204,229.592 z " style="fill-opacity:0.3;fill:rgb(255,0,0);stroke:rgb(0,0,0);stroke-width:1"/></g>
<g fill-rule="evenodd"><path d="M 177.551,192.857 L 159.184,174.490 L 134.694,156.122 L 140.816,150.000 L 153.061,150.000 L 165.306,168.367 L 171.429,174.490 L 183.673,180.612 L 177.551,192.857 z " style="fill-opacity:0.3;fill:rgb(255,0,0);stroke:rgb(0,0,0);stroke-width:1"/></g>
<g fill-rule="evenodd"><path d="M 134.694,180.612 L 128.571,174.490 L 128.571,168.367 L 146.939,180.612 L 134.694,180.612 z " style="fill-opacity:0.3;fill:rgb(255,0,0);stroke:rgb(0,0,0);stroke-width:1"/></g>
<g fill-rule="evenodd"><path d="M 189.796,156.122 L 208.163,156.122 L 189.796,180.612 L 183.673,180.612 L 189.796,162.245 L 165.306,168.367 L 183.673,150.000 L 189.796,150.000 L 189.796,156.122 z " style="fill-opacity:0.3;fill:rgb(255,0,0);stroke:rgb(0,0,0);stroke-width:1"/></g>
<g fill-rule="evenodd"><path d="M 128.571,186.735 L 122.449,168.367 L 128.571,174.490 L 128.571,186.735 z " style="fill-opacity:0.3;fill:rgb(255,0,0);stroke:rgb(0,0,0);stroke-width:1"/></g>
<g fill-rule="evenodd"><path d="M 85.7143,131.633 L 91.8367,137.755 L 97.9592,143.878 L 116.327,143.878 L 122.449,150.000 L 134.694,156.122 L 128.571,168.367 L 122.449,168.367 L 104.082,192.857 L 91.8367,174.490 L 91.8367,143.878 L 73.4694,143.878 L 73.4694,137.755 L 85.7143,137.755 L 85.7143,131.633M 122.449,168.367 L 122.449,162.245 L 104.082,150.000 L 122.449,168.367 z " style="fill-opacity:0.3;fill:rgb(255,0,0);stroke:rgb(0,0,0);stroke-width:1"/></g>
<g fill-rule="evenodd"><path d="M 134.694,192.857 L 134.694,180.612 L 140.816,186.735 L 134.694,192.857 z " style="fill-opacity:0.3;fill:rgb(255,0,0);stroke:rgb(0,0,0);stroke-width:1"/></g>
<g fill-rule="evenodd"><path d="M 183.673,205.102 L 195.918,217.347 L 189.796,235.714 L 171.429,217.347 L 183.673,205.102 z " style="fill-opacity:0.3;fill:rgb(255,0,0);stroke:rgb(0,0,0);stroke-width:1"/></g>
<g fill-rule="evenodd"><path d="M 97.9592,198.980 L 104.082,192.857 L 110.204,192.857 L 97.9592,198.980 z " style="fill-opacity:0.3;fill:rgb(255,0,0);stroke:rgb(0,0,0);stroke-width:1"/></g>
<g fill-rule="evenodd"><path d="M 91.8367,205.102 L 91.8367,192.857 L 97.9592,198.980 L 91.8367,205.102 z " style="fill-opacity:0.3;fill:rgb(255,0,0);stroke:rgb(0,0,0);stroke-width:1"/></g>
<g fill-rule="evenodd"><path d="M 183.673,205.102 L 177.551,198.980 L 177.551,192.857 L 183.673,192.857 L 183.673,205.102 z " style="fill-opacity:0.3;fill:rgb(255,0,0);stroke:rgb(0,0,0);stroke-width:1"/></g>
<g fill-rule="evenodd"><path d="M 202.041,205.102 L 183.673,192.857 L 189.796,180.612 L 202.041,186.735 L 202.041,205.102 z " style="fill-opacity:0.3;fill:rgb(255,0,0);stroke:rgb(0,0,0);stroke-width:1"/></g>
<g fill-rule="evenodd"><path d="M 263.265,211.224 L 269.388,162.245 L 293.878,162.245 L 293.878,272.449 L 287.755,254.082 L 257.143,217.347 L 263.265,211.224 z " style="fill-opacity:0.3;fill:rgb(255,0,0);stroke:rgb(0,0,0);stroke-width:1"/></g>
<g fill-rule="evenodd"><path d="M 263.265,211.224 L 257.143,211.224 L 251.020,205.102 L 257.143,205.102 L 263.265,211.224 z " style="fill-opacity:0.3;fill:rgb(255,0,0);stroke:rgb(0,0,0);stroke-width:1"/></g>
<g fill-rule="evenodd"><path d="M 165.306,235.714 L 153.061,260.204 L 140.816,217.347 L 165.306,229.592 L 300.000,290.816 L 146.939,284.694 L 165.306,235.714 z " style="fill-opacity:0.3;fill:rgb(255,0,0);stroke:rgb(0,0,0);stroke-width:1"/></g>
<g fill-rule="evenodd"><path d="M 171.429,217.347 L 140.816,186.735 L 146.939,180.612 L 177.551,198.980 L 171.429,217.347 z " style="fill-opacity:0.3;fill:rgb(255,0,0);stroke:rgb(0,0,0);stroke-width:1"/></g>
<g fill-rule="evenodd"><path d="M 91.8367,229.592 L 91.8367,205.102 L 97.9592,205.102 L 104.082,217.347 L 91.8367,229.592 z " style="fill-opacity:0.3;fill:rgb(255,0,0);stroke:rgb(0,0,0);stroke-width:1"/></g>
<g fill-rule="evenodd"><path d="M 110.204,229.592 L 104.082,217.347 L 116.327,205.102 L 110.204,192.857 L 128.571,186.735 L 128.571,192.857 L 122.449,205.102 L 134.694,192.857 L 140.816,217.347 L 122.449,211.224 L 110.204,229.592 z " style="fill-opacity:0.3;fill:rgb(255,0,0);stroke:rgb(0,0,0);stroke-width:1"/></g>
<g fill-rule="evenodd"><path d="M 48.9796,260.204 L 48.9796,266.327 L 91.8367,229.592 L 91.8367,278.571 L 30.6122,278.571 L 48.9796,260.204 z " style="fill-opacity:0.3;fill:rgb(255,0,0);stroke:rgb(0,0,0);stroke-width:1"/></g>
<g fill-rule="evenodd"><path d="M 79.5918,186.735 L 79.5918,156.122 L 110.204,156.122 L 110.204,186.735 L 79.5918,186.735 z " style="fill-opacity:0.3;fill:rgb(0,255,0);stroke:rgb(0,0,0);stroke-width:1"/></g>
</svg>
