<?xml version="1.0" standalone="no"?>
<!DOCTYPE svg PUBLIC "-//W3C//DTD SVG 1.1//EN"
"http://www.w3.org/Graphics/SVG/1.1/DTD/svg11.dtd">
<svg viewBox="0 0 300 300" version="1.1"
xmlns="http://www.w3.org/2000/svg"
xmlns:xlink="http://www.w3.org/1999/xlink">
<g fill-rule="evenodd"><path d="M 0.332963,184.129 L 0.332963,0.166482 L 300,0.166482 L 300,299.834 L 0.332963,299.834 L 0.332963,266.87 L 49.9445,178.801 L 107.208,77.2532 L 0.332963,184.129M 149.834,101.554 L 240.067,171.476 L 299.667,283.352 L 299.667,217.425 L 299.667,184.628 L 187.258,72.0938 L 239.938,171.235 L 149.834,101.554M 187.258,72.0938 L 149.834,1.66482 L 107.208,77.2532 L 149.834,34.6282 L 187.258,72.0938 z " style="fill-opacity:0.3;fill:rgb(0,0,255);stroke:rgb(51,51,153);stroke-width:1"/></g>
<g fill-rule="evenodd"><path d="M 0.332963,184.129 L 0.332963,217.092 L 49.9445,178.801 L 0,217.425 L 0,184.462 L 0.332963,184.129 z " style="fill-opacity:0.3;fill:rgb(0,0,255);stroke:rgb(51,51,153);stroke-width:1"/></g>
<g fill-rule="evenodd"><path d="M 239.938,171.235 L 299.667,217.425 L 240.067,171.476 L 239.938,171.235 z " style="fill-opacity:0.3;fill:rgb(0,0,255);stroke:rgb(51,51,153);stroke-width:1"/></g>
</svg>
