<?xml version="1.0" standalone="no"?>
<!DOCTYPE svg PUBLIC "-//W3C//DTD SVG 1.1//EN"
"http://www.w3.org/Graphics/SVG/1.1/DTD/svg11.dtd">
<svg  version="1.1" xmlns="http://www.w3.org/2000/svg" xmlns:xlink="http://www.w3.org/1999/xlink" viewBox="0 0 3127 3268">
<g title="A + B (CGAL EPECK)" fill-rule="evenodd">
<path d="M 877.111,801.556 L 1014.0,936.0 L 1350.0,1266.0 L 1411.73,1326.73 L 1692.0,1548.0 L 1998.0,547.0 L 1871.71,547.0 L 1692.0,1176.0 L 1350.0,1026.0 L 1014.0,870.0 L 877.111,801.556 z" style="fill-opacity:0.3;fill:rgb(0,0,255);stroke:rgb(51,51,153);stroke-width:8.170000" />
<path d="M 223.706,701.732 L 124.0,547.0 L 86.0,547.0 L 86.0,576.321 L 223.706,701.732 z" style="fill-opacity:0.3;fill:rgb(0,0,255);stroke:rgb(51,51,153);stroke-width:8.170000" />
<path d="M 2331.12,547.0 L 2314.34,547.0 L 2335.0,554.0 L 2331.12,547.0 z" style="fill-opacity:0.3;fill:rgb(0,0,255);stroke:rgb(51,51,153);stroke-width:8.170000" />
<path d="M 2364.0,564.0 L 2385.92,661.796 L 2386.0,662.0 L 2364.0,564.0 z" style="fill-opacity:0.3;fill:rgb(0,0,255);stroke:rgb(51,51,153);stroke-width:8.170000" />
<path d="M 2364.0,564.0 L 2335.0,554.0 L 2335.23,554.409 L 2364.0,564.0 z" style="fill-opacity:0.3;fill:rgb(0,0,255);stroke:rgb(51,51,153);stroke-width:8.170000" />
<path d="M 2573.93,1499.45 L 2706.0,2010.0 L 2793.0,2134.0 L 3042.0,2268.0 L 3042.0,1584.0 L 2706.0,1482.0 L 2386.0,662.0 L 2573.93,1499.45 z" style="fill-opacity:0.3;fill:rgb(0,0,255);stroke:rgb(51,51,153);stroke-width:8.170000" />
<path d="M 2781.20,2128.29 L 2781.0,2128.0 L 2706.0,2088.0 L 2781.20,2128.29 z" style="fill-opacity:0.3;fill:rgb(0,0,255);stroke:rgb(51,51,153);stroke-width:8.170000" />
<path d="M 2706.0,2088.0 L 2608.0,1651.0 L 2607.57,1649.36 L 2706.0,2088.0 z" style="fill-opacity:0.3;fill:rgb(0,0,255);stroke:rgb(51,51,153);stroke-width:8.170000" />
</g></svg>