<?xml version="1.0" standalone="no"?>
<!DOCTYPE svg PUBLIC "-//W3C//DTD SVG 1.1//EN"
"http://www.w3.org/Graphics/SVG/1.1/DTD/svg11.dtd">
<svg  version="1.1" xmlns="http://www.w3.org/2000/svg" xmlns:xlink="http://www.w3.org/1999/xlink" viewBox="0 0 42.8518 71.4308">
<g title="A + B (CGAL EPECK)" fill-rule="evenodd">
<path d="M -0,10.4103 L 0.313755,5.64433 L 0.153448,5.66203 L 0.335463,-0 L 2.25477,0.20433 L 26.3496,2.76949 L 36.0588,3.80315 L 35.936,1.71098 L 36.1332,3.81107 L 36.0588,3.80315 L 36.2726,7.44547 L 35.997,10.8752 L 35.788,14.8504 L 36.7475,23.5135 L 36.9888,34.8089 L 36.1837,44.5772 L 32.4798,45.1955 L 42.8518,64.0093 L 17.2225,61.2309 L 8.31273,71.4308 L 0.675081,50.5048 L 1.02153,33.2748 L 0.758781,24.4135 L 0.0448627,19.1433 L -0,10.4103 M 4.52636,5.17918 L 0.363937,4.88203 L 0.153448,5.66203 L 4.52636,5.17918 M 26.3496,2.76949 L 4.52636,5.17918 L 4.52637,5.17918 L 26.3496,2.76949 z" style="fill-opacity:0.3;fill:rgb(0,0,255);stroke:rgb(51,51,153);stroke-width:0.178577" />
</g></svg>