<?xml version="1.0" standalone="no"?>
<!DOCTYPE svg PUBLIC "-//W3C//DTD SVG 1.1//EN"
"http://www.w3.org/Graphics/SVG/1.1/DTD/svg11.dtd">
<svg  version="1.1" xmlns="http://www.w3.org/2000/svg" xmlns:xlink="http://www.w3.org/1999/xlink" viewBox="0 0 3127 3268">
<g title="A + B (CGAL EPECK)" fill-rule="evenodd">
<path d="M 223.706,701.732 L 86.0,576.321 L 86.0,3268.0 L 3127.0,3268.0 L 3127.0,547.0 L 2331.12,547.0 L 2335.0,554.0 L 2364.0,564.0 L 2386.0,662.0 L 2706.0,1482.0 L 3042.0,1584.0 L 3042.0,2268.0 L 3042.0,2490.0 L 3042.0,2496.0 L 2781.20,2128.29 L 2706.0,2088.0 L 2607.57,1649.36 L 2364.0,726.0 L 2028.0,576.0 L 1692.0,1644.0 L 1350.0,1326.0 L 1051.0,1038.0 L 1052.0,1039.0 L 1049.27,1036.34 L 1014.0,1008.0 L 678.0,714.0 L 336.0,876.0 L 223.706,701.732 z" style="fill-opacity:0.3;fill:rgb(0,0,255);stroke:rgb(51,51,153);stroke-width:8.170000" />
<path d="M 223.706,701.732 L 224.0,702.0 L 0,354.0 L 0,498.0 L 86.0,576.321 L 86.0,547.0 L 124.0,547.0 L 223.706,701.732 z" style="fill-opacity:0.3;fill:rgb(0,0,255);stroke:rgb(51,51,153);stroke-width:8.170000" />
<path d="M 1049.27,1036.34 L 1049.42,1036.46 L 1014.0,1002.0 L 1049.27,1036.34 z" style="fill-opacity:0.3;fill:rgb(0,0,255);stroke:rgb(51,51,153);stroke-width:8.170000" />
<path d="M 1692.0,1548.0 L 1411.73,1326.73 L 1412.0,1327.0 L 1692.0,1548.0 z" style="fill-opacity:0.3;fill:rgb(0,0,255);stroke:rgb(51,51,153);stroke-width:8.170000" />
<path d="M 1692.0,1548.0 L 2028.0,450.0 L 2314.34,547.0 L 2331.12,547.0 L 2028.0,0 L 1871.71,547.0 L 1998.0,547.0 L 1692.0,1548.0 z" style="fill-opacity:0.3;fill:rgb(0,0,255);stroke:rgb(51,51,153);stroke-width:8.170000" />
<path d="M 1871.71,547.0 L 235.0,547.0 L 336.0,714.0 L 678.0,606.0 L 877.111,801.556 L 1014.0,870.0 L 1350.0,1026.0 L 1692.0,1176.0 L 1871.71,547.0 z" style="fill-opacity:0.3;fill:rgb(0,0,255);stroke:rgb(51,51,153);stroke-width:8.170000" />
<path d="M 2364.00,564.000 L 2335.23,554.409 L 2364.0,606.0 L 2385.92,661.796 L 2364.00,564.000 z" style="fill-opacity:0.3;fill:rgb(0,0,255);stroke:rgb(51,51,153);stroke-width:8.170000" />
<path d="M 3042.0,2268.00 L 2793.0,2134.0 L 2706.0,2010.0 L 2573.93,1499.45 L 2607.57,1649.36 L 2608.0,1651.0 L 2706.0,2088.0 L 2781.0,2128.0 L 2781.20,2128.29 L 3042.0,2268.00 z" style="fill-opacity:0.3;fill:rgb(0,0,255);stroke:rgb(51,51,153);stroke-width:8.170000" />
<path d="M 2335.23,554.409 L 2335.0,554.0 L 2314.34,547.0 L 2313.0,547.0 L 2335.23,554.409 z" style="fill-opacity:0.3;fill:rgb(0,0,255);stroke:rgb(51,51,153);stroke-width:8.170000" />
<path d="M 2573.93,1499.45 L 2386.0,662.0 L 2385.92,661.796 L 2572.0,1492.0 L 2573.93,1499.45 z" style="fill-opacity:0.3;fill:rgb(0,0,255);stroke:rgb(51,51,153);stroke-width:8.170000" />
</g></svg>