<?xml version="1.0" standalone="no"?>
<!DOCTYPE svg PUBLIC "-//W3C//DTD SVG 1.1//EN"
"http://www.w3.org/Graphics/SVG/1.1/DTD/svg11.dtd">
<svg  version="1.1" xmlns="http://www.w3.org/2000/svg" xmlns:xlink="http://www.w3.org/1999/xlink" viewBox="0 0 3127 3268">
<g title="A + B (CGAL EPECK)" fill-rule="evenodd">
<path d="M 877.111,801.556 L 678.0,702.0 L 336.0,804.0 L 224.0,702.0 L 0,354.0 L 0,498.0 L 86.0,576.321 L 86.0,3268.0 L 3127.0,3268.0 L 3127.0,547.0 L 2331.12,547.0 L 2028.0,0 L 1871.71,547.0 L 235.0,547.0 L 336.0,714.0 L 678.0,606.0 L 877.111,801.556 M 1049.42,1036.46 L 1051.0,1038.0 L 1014.0,1008.0 L 1049.42,1036.46 M 336.0,876.0 L 223.706,701.732 L 224.0,702.0 L 336.0,876.0 M 3042.0,2268.0 L 3042.0,2490.0 L 3042.0,2496.0 L 2781.20,2128.29 L 3042.0,2268.0 z" style="fill-opacity:0.3;fill:rgb(0,0,255);stroke:rgb(51,51,153);stroke-width:8.170000" />
</g></svg>