<?xml version="1.0" standalone="no"?>
<!DOCTYPE svg PUBLIC "-//W3C//DTD SVG 1.1//EN"
"http://www.w3.org/Graphics/SVG/1.1/DTD/svg11.dtd">
<svg  version="1.1" xmlns="http://www.w3.org/2000/svg" xmlns:xlink="http://www.w3.org/1999/xlink" viewBox="0 0 3.01346e+06 3.7879e+06">
<g title="A + B (CGAL Real)" fill-rule="evenodd">
<path d="M 0,0 L 5.54990e+5,0 L 5.63626e+5,1.97104e+5 L 5.89534e+5,3.92938e+5 L 6.32206e+5,5.85470e+5 L 6.91388e+5,7.73684e+5 L 7.67080e+5,9.56056e+5 L 8.58266e+5,1.13132e+6 L 9.64184e+5,1.29769e+6 L 1.08433e+6,1.45415e+6 L 1.21768e+6,1.59969e+6 L 3.01346e+6,3.39547e+6 L 2.62103e+6,3.78790e+6 L 8.25246e+5,1.99212e+6 L 8.24992e+5,1.99187e+6 L 8.25003e+5,1.99186e+6 L 6.59130e+5,1.81102e+6 L 5.09524e+5,1.61595e+6 L 3.77444e+5,1.40868e+6 L 2.63906e+5,1.19075e+6 L 1.69926e+5,9.63676e+5 L 96012.0,7.29234e+5 L 42926.0,4.89204e+5 L 10668.0,2.45618e+5 L 0,0 M 1.21768e+6,1.59969e+6 L 1.21742e+6,1.59944e+6 L 8.25003e+5,1.99186e+6 L 8.25246e+5,1.99212e+6 L 1.21768e+6,1.59969e+6 z" style="fill-opacity:0.3;fill:rgb(0,0,255);stroke:rgb(51,51,153);stroke-width:9469.755000" />
</g></svg>