<?xml version="1.0" standalone="no"?>
<!DOCTYPE svg PUBLIC "-//W3C//DTD SVG 1.1//EN"
"http://www.w3.org/Graphics/SVG/1.1/DTD/svg11.dtd">
<svg viewBox="0 0 300 300" version="1.1"
xmlns="http://www.w3.org/2000/svg"
xmlns:xlink="http://www.w3.org/1999/xlink">
<g fill-rule="evenodd"><path d="M 0.0623441,88.8834 L 0.0623441,133.753 L -1.42109e-14,133.697 L -1.42109e-14,88.8092 L 0.0623441,88.8834 z " style="fill-opacity:0.3;fill:rgb(0,0,255);stroke:rgb(51,51,153);stroke-width:1"/></g>
<g fill-rule="evenodd"><path d="M 299.813,175.101 L 300,175.218 L 300,215.991 L 299.813,215.707 L 299.813,175.101 z " style="fill-opacity:0.3;fill:rgb(0,0,255);stroke:rgb(51,51,153);stroke-width:1"/></g>
<g fill-rule="evenodd"><path d="M 297.562,173.694 L 283.167,164.744 L 283.223,164.729 L 297.562,173.694 z " style="fill-opacity:0.3;fill:rgb(0,0,255);stroke:rgb(51,51,153);stroke-width:1"/></g>
<g fill-rule="evenodd"><path d="M 168.446,184.072 L 150,202.151 L 126.41,194.602 L 150,191.303 L 155.36,184.956 L 168.446,184.072 z " style="fill-opacity:0.3;fill:rgb(0,0,255);stroke:rgb(51,51,153);stroke-width:1"/></g>
<g fill-rule="evenodd"><path d="M 75.187,178.211 L 126.434,194.545 L 126.293,194.565 L 75.187,178.211 z " style="fill-opacity:0.3;fill:rgb(0,0,255);stroke:rgb(51,51,153);stroke-width:1"/></g>
<g fill-rule="evenodd"><path d="M 254.404,146.694 L 254.426,146.727 L 283.171,164.697 L 268.778,168.516 L 254.489,146.789 L 225.187,128.46 L 254.404,146.694 z " style="fill-opacity:0.3;fill:rgb(0,0,255);stroke:rgb(51,51,153);stroke-width:1"/></g>
</svg>
