<?xml version="1.0" standalone="no"?>
<!DOCTYPE svg PUBLIC "-//W3C//DTD SVG 1.1//EN"
"http://www.w3.org/Graphics/SVG/1.1/DTD/svg11.dtd">
<svg viewBox="0 0 300 300" version="1.1"
xmlns="http://www.w3.org/2000/svg"
xmlns:xlink="http://www.w3.org/1999/xlink">
<g fill-rule="evenodd"><path d="M 273.960,208.670 L 273.958,208.678 L 273.958,208.678 L 273.660,209.685 L 273.357,210.696 L 273.357,210.696 L 273.054,211.704 L 273.054,211.704 L 272.750,212.715 L 272.446,213.726 L 272.446,213.726 L 272.371,213.972 L 271.938,211.443 L 273.960,208.670 z " style="fill-opacity:0.3;fill:rgb(255,0,0);stroke:rgb(0,0,0);stroke-width:1"/></g>
<g fill-rule="evenodd"><path d="M 279.925,205.630 L 279.925,205.630 L 279.925,205.630 L 280.205,204.617 L 280.481,203.603 L 280.541,203.386 L 281.491,203.102 L 285.969,201.719 L 290.447,203.102 L 294.956,204.447 L 297.455,207.952 L 300.000,211.443 L 299.305,215.504 L 298.594,219.563 L 294.845,222.279 L 291.035,224.967 L 285.969,224.993 L 280.903,224.967 L 277.093,222.279 L 275.468,221.102 L 275.559,220.803 L 275.859,219.794 L 276.160,218.781 L 276.160,218.781 L 276.160,218.781 L 276.456,217.772 L 276.751,216.759 L 276.751,216.759 L 277.047,215.749 L 277.342,214.740 L 277.633,213.727 L 277.923,212.713 L 278.213,211.704 L 278.503,210.690 L 278.789,209.681 L 279.074,208.667 L 279.359,207.654 L 279.359,207.654 L 279.359,207.654 L 279.640,206.640 L 279.925,205.630 z " style="fill-opacity:0.3;fill:rgb(255,0,0);stroke:rgb(0,0,0);stroke-width:1"/></g>
<g fill-rule="evenodd"><path d="M 280.205,204.617 L 279.925,205.630 L 275.142,204.635 L 275.434,203.624 L 280.205,204.617 z " style="fill-opacity:0.3;fill:rgb(0,255,0);stroke:rgb(0,0,0);stroke-width:1"/></g>
</svg>
