<?xml version="1.0" standalone="no"?>
<!DOCTYPE svg PUBLIC "-//W3C//DTD SVG 1.1//EN"
"http://www.w3.org/Graphics/SVG/1.1/DTD/svg11.dtd">
<svg  version="1.1" xmlns="http://www.w3.org/2000/svg" xmlns:xlink="http://www.w3.org/1999/xlink" viewBox="0 0 44 47">
<g title="A + B (CGAL Real)" fill-rule="evenodd">
<path d="M 39.0,22.0 L 38.0,22.0 L 39.0,41.0 L 33.0,38.0 L 13.0,43.0 L 10.0,47.0 L 10.0,44.0 L 8.0,33.0 L 1.0,37.0 L 1.0,31.0 L 3.0,30.0 L 7.0,26.0 L 7.0,28.0 L 9.0,26.0 L 9.0,25.0 L 7.0,25.0 L 7.0,24.0 L 5.0,24.0 L 2.0,23.0 L 4.0,25.0 L 1.0,30.0 L 2.0,25.0 L 2.0,23.0 L 3.0,5.0 L 0,2.0 L 10.0,2.0 L 18.0,1.0 L 13.0,10.0 L 15.0,13.0 L 18.0,12.0 L 20.0,5.0 L 22.0,9.0 L 19.0,1.0 L 44.0,0 L 43.0,3.0 L 43.0,21.0 L 43.0,45.0 L 39.0,22.0 M 43.0,21.0 L 39.0,21.0 L 39.0,22.0 L 43.0,21.0 M 38.0,22.0 L 30.0,22.0 L 31.0,24.0 L 38.0,22.0 M 35.0,38.0 L 34.0,33.0 L 29.0,26.0 L 26.0,26.0 L 21.0,33.0 L 33.0,38.0 L 35.0,38.0 M 21.0,33.0 L 16.0,30.0 L 11.0,37.0 L 13.0,31.0 L 12.0,31.0 L 10.0,32.0 L 10.0,44.0 L 13.0,43.0 L 21.0,33.0 M 10.0,32.0 L 10.0,31.0 L 8.0,30.0 L 8.0,33.0 L 10.0,32.0 M 8.0,30.0 L 8.0,29.0 L 7.0,28.0 L 6.0,29.0 L 7.0,29.0 L 6.0,30.0 L 8.0,30.0 M 10.0,28.0 L 10.0,27.0 L 8.0,29.0 L 10.0,28.0 M 14.0,29.0 L 13.0,29.0 L 12.0,28.0 L 10.0,28.0 L 10.0,31.0 L 12.0,31.0 L 14.0,29.0 M 17.0,28.0 L 14.0,29.0 L 16.0,30.0 L 17.0,28.0 M 19.0,26.0 L 14.0,25.0 L 12.0,25.0 L 10.0,27.0 L 12.0,28.0 L 14.0,28.0 L 14.0,27.0 L 18.0,27.0 L 19.0,26.0 M 10.0,27.0 L 10.0,25.0 L 9.0,26.0 L 10.0,27.0 M 18.0,23.0 L 17.0,22.0 L 15.0,23.0 L 14.0,24.0 L 14.0,25.0 L 15.0,24.0 L 18.0,23.0 M 20.0,23.0 L 18.0,23.0 L 19.0,25.0 L 20.0,23.0 M 26.0,21.0 L 25.0,18.0 L 23.0,19.0 L 22.0,20.0 L 26.0,21.0 M 30.0,24.0 L 29.0,23.0 L 29.0,22.0 L 27.0,22.0 L 28.0,24.0 L 30.0,24.0 M 29.0,26.0 L 28.0,24.0 L 27.0,25.0 L 29.0,26.0 M 27.0,25.0 L 27.0,24.0 L 26.0,23.0 L 25.0,23.0 L 21.0,26.0 L 23.0,29.0 L 26.0,26.0 L 22.0,26.0 L 27.0,25.0 M 27.0,22.0 L 26.0,22.0 L 26.0,23.0 L 27.0,22.0 M 33.0,30.0 L 31.0,24.0 L 30.0,24.0 L 33.0,30.0 M 30.0,22.0 L 28.0,17.0 L 26.0,18.0 L 29.0,22.0 L 30.0,22.0 M 26.0,18.0 L 25.0,16.0 L 24.0,16.0 L 25.0,18.0 L 26.0,18.0 M 24.0,16.0 L 24.0,15.0 L 19.0,18.0 L 16.0,20.0 L 17.0,22.0 L 21.0,19.0 L 24.0,16.0 M 16.0,20.0 L 16.0,19.0 L 15.0,20.0 L 16.0,20.0 M 6.0,22.0 L 7.0,22.0 L 8.0,20.0 L 8.0,21.0 L 7.0,22.0 L 7.0,24.0 L 10.0,24.0 L 10.0,22.0 L 13.0,22.0 L 13.0,17.3333 L 15.0,20.0 L 16.0,17.0 L 13.0,16.0 L 12.0,16.0 L 12.7500,17.0 L 11.3333,17.0 L 12.0,16.0 L 11.0,15.0 L 10.0,16.0 L 10.0,17.0 L 9.50000,17.0 L 10.0,16.0 L 10.0,14.0 L 5.0,12.0 L 6.0,22.0 M 10.0,14.0 L 10.0,10.0 L 3.0,4.0 L 3.0,5.0 L 10.0,14.0 M 13.0,10.0 L 10.0,2.0 L 10.0,10.0 L 12.0,12.0 L 13.0,10.0 M 44.0,0 L 22.0,10.0 L 18.0,12.0 L 17.0,16.0 L 18.0,17.0 L 23.0,12.0 L 26.0,9.0 L 27.0,12.0 L 44.0,0 M 43.0,3.0 L 41.0,4.0 L 28.0,14.0 L 28.0,17.0 L 36.0,14.0 L 37.0,13.0 L 38.0,13.0 L 37.0,12.0 L 42.0,6.0 L 43.0,3.0 M 39.0,21.0 L 38.0,13.0 L 37.0,14.0 L 38.0,21.0 L 39.0,21.0 M 37.0,14.0 L 36.0,14.0 L 30.0,22.0 L 37.0,14.0 M 28.0,14.0 L 27.0,12.0 L 25.0,14.0 L 25.0,16.0 L 28.0,14.0 M 25.0,14.0 L 23.0,12.0 L 24.0,15.0 L 25.0,14.0 M 19.0,18.0 L 18.0,17.0 L 17.0,18.0 L 19.0,18.0 M 17.0,18.0 L 17.0,16.0 L 15.0,14.0 L 16.0,16.0 L 16.0,17.0 L 16.0,19.0 L 17.0,18.0 M 14.0,14.0 L 12.0,12.0 L 11.0,14.0 L 10.0,14.0 L 11.0,15.0 L 13.0,16.0 L 14.0,14.0 M 15.0,21.0 L 15.0,20.0 L 13.0,22.0 L 12.0,23.0 L 15.0,21.0 M 25.0,23.0 L 22.0,20.0 L 20.0,23.0 L 25.0,23.0 M 20.0,26.0 L 19.0,25.0 L 19.0,26.0 L 20.0,26.0 M 14.0,24.0 L 11.0,24.0 L 10.0,25.0 L 12.0,25.0 L 14.0,24.0 z" style="fill-opacity:0.3;fill:rgb(0,0,255);stroke:rgb(51,51,153);stroke-width:0.117500" />
</g></svg>