<?xml version="1.0" standalone="no"?>
<!DOCTYPE svg PUBLIC "-//W3C//DTD SVG 1.1//EN"
"http://www.w3.org/Graphics/SVG/1.1/DTD/svg11.dtd">
<svg  version="1.1" xmlns="http://www.w3.org/2000/svg" xmlns:xlink="http://www.w3.org/1999/xlink" viewBox="0 0 396 378">
<g title="A + B (CGAL EPECK)" fill-rule="evenodd">
<path d="M 383.317,352.454 L 389,358 L 106.079,230.454 L 95,349 L 62,370 L 26,378 L -0,353 L 66.1011,212.431 L 41.975,201.554 L 51,196 L 52,193 L 51,189 L 62.9302,178.535 L 50,185 L 44,180 L 27,178 L 18,170 L 20,162 L 47,158 L 79.5124,163.989 L 108,139 L 108,138 L 108.119,137.949 L 101,137 L 42,135 L 27,121 L 57,111 L 117,119 L 126,120 L 130,118 L 131,116 L 119,100 L 137,116 L 139,115 L 132.526,95.5789 L 125,95 L 121,93 L 116,89 L 106,80 L 111,79 L 116,78 L 119,76 L 125,77 L 125.963,76.358 L 114.469,58.1587 L 108.019,53.7726 L 93.8311,50.4852 L 91,51 L 91,50 L 91,49.8293 L 33.308,36.4615 L 26,35 L 55.0857,34.0305 L 55,34 L 56,29.5 L 56,26 L 51,15 L 53,13 L 54,12 L 56,10 L 58.72,9.32 L 59,9 L 59.5556,9.111 L 64,8 L 65.179,9.272 L 68.3333,10 L 73,10 L 91,15 L 92,15 L 99,15 L 106,8 L 106.067,8.049 L 106.652,7.391 L 107,6 L 110.782,10.073 L 121.464,18.752 L 123.125,19.708 L 124,20 L 130,22 L 137,24 L 138.167,24.167 L 144.667,24.667 L 146.963,23.519 L 157.968,6.587 L 159,-0 L 166.158,8.947 L 168,10 L 175.5,13.75 L 176.29,14.032 L 185,15 L 194,17 L 193.156,20.038 L 207,12 L 200.917,25.824 L 211,22 L 197.482,33.6317 L 196.243,36.4485 L 199,37 L 197.806,37.9552 L 198,38 L 195.136,40.0909 L 171.143,59.2857 L 168.733,72.8686 L 170.974,79.6947 L 172.917,83.8843 L 173,84 L 173.148,84.3457 L 179.423,94.9524 L 181.592,97.728 L 185,100 L 185.442,102.654 L 190.296,108.864 L 192,110 L 199,115 L 199.376,115.564 L 204.93,118.213 L 261,142 L 256.286,142 L 260,143 L 258.414,143.721 L 393.196,313.001 L 396,318 L 385.971,330.765 L 385,345 L 383.627,347.027 L 383.317,352.454 M 114.532,140.009 L 100,150 L 84.0724,164.829 L 79.5124,163.989 L 62.9302,178.535 L 76.8,171.6 L 71,177 L 72.8138,179.073 L 71,181 L 70.6649,181.509 L 72,181 L 79,185 L 66.1011,212.431 L 106.079,230.454 L 114.532,140.009 M 70.6649,181.509 L 51,189 L 64.4196,190.988 L 70.6649,181.509 M 116,139 L 114.643,138.819 L 114.532,140.009 L 116,139 M 115,135 L 108.119,137.949 L 114.643,138.819 L 115,135 z" style="fill-opacity:0.3;fill:rgb(0,0,255);stroke:rgb(51,51,153);stroke-width:0.990000" />
</g></svg>